<?xml version="1.0" standalone="yes"?>
<!-- SVG graphic -->
<svg xmlns='http://www.w3.org/2000/svg' xmlns:xlink='http://www.w3.org/1999/xlink'
width="1280px" height="480px" preserveAspectRatio="xMinYMin meet" viewBox="0 0 1280 480" version="1.1">
<image x="0" y="0" width="640px" height="480px" opacity="1" xlink:href="D:\CurrentProject\master\3DReconstruction\sources\data\et\et000.jpg"/>
<image x="640" y="0" width="640px" height="480px" opacity="1" xlink:href="D:\CurrentProject\master\3DReconstruction\sources\data\et\et002.jpg"/>
<polyline points="568.541,73.1051,1243.11,127.358" stroke="green" stroke-width="2" fill="none"/>
<polyline points="571.201,86.8133,1242.22,143.117" stroke="green" stroke-width="2" fill="none"/>
<polyline points="603.549,96.9189,1263.63,176.1" stroke="green" stroke-width="2" fill="none"/>
<polyline points="59.5993,245.522,754.506,39.8197" stroke="green" stroke-width="2" fill="none"/>
<polyline points="209.559,152.827,891.861,199.645" stroke="green" stroke-width="2" fill="none"/>
<polyline points="46.0536,302.438,742.427,104.959" stroke="green" stroke-width="2" fill="none"/>
<polyline points="16.9533,307.818,715.743,109.517" stroke="green" stroke-width="2" fill="none"/>
<polyline points="522.56,359.445,1143.35,334.479" stroke="green" stroke-width="2" fill="none"/>
<polyline points="81.668,232.98,775.88,16.9488" stroke="green" stroke-width="2" fill="none"/>
<polyline points="25.7739,291.025,723.165,91.4181" stroke="green" stroke-width="2" fill="none"/>
<polyline points="59.2905,303.601,754.921,100.462" stroke="green" stroke-width="2" fill="none"/>
<polyline points="52.3174,301.452,748.29,103.574" stroke="green" stroke-width="2" fill="none"/>
<polyline points="304.416,206.936,976.699,212.21" stroke="green" stroke-width="2" fill="none"/>
<polyline points="23.0572,321.184,721.605,123.38" stroke="green" stroke-width="2" fill="none"/>
<polyline points="16.4576,406.304,715.344,178.48" stroke="green" stroke-width="2" fill="none"/>
<polyline points="554.77,69.2025,1234.46,114.442" stroke="green" stroke-width="2" fill="none"/>
<polyline points="583.415,59.2629,1258.41,127.146" stroke="green" stroke-width="2" fill="none"/>
<polyline points="42.5342,227.773,737.368,17.1878" stroke="green" stroke-width="2" fill="none"/>
<polyline points="74.3997,237.447,768.854,22.5451" stroke="green" stroke-width="2" fill="none"/>
<polyline points="48.3135,245.552,743.392,38.3028" stroke="green" stroke-width="2" fill="none"/>
<polyline points="20.2509,248.663,716.025,35.619" stroke="green" stroke-width="2" fill="none"/>
<polyline points="40.5891,297.198,737.266,98.7012" stroke="green" stroke-width="2" fill="none"/>
<polyline points="263.058,204.629,938.414,217.926" stroke="green" stroke-width="2" fill="none"/>
<polyline points="33.1982,351.341,731.702,155.495" stroke="green" stroke-width="2" fill="none"/>
<polyline points="580.526,293.891,1197.67,320.9" stroke="green" stroke-width="2" fill="none"/>
<polyline points="466.56,390.774,1098.45,328.251" stroke="green" stroke-width="2" fill="none"/>
<polyline points="184.364,186.883,868.579,226.671" stroke="green" stroke-width="2" fill="none"/>
<polyline points="354.333,221.654,1016.26,233.704" stroke="green" stroke-width="2" fill="none"/>
<polyline points="580.557,239.88,1208.8,275.3" stroke="green" stroke-width="2" fill="none"/>
<polyline points="593.061,312.397,1199.81,340.479" stroke="green" stroke-width="2" fill="none"/>
<polyline points="568.541,73.1051,1243.11,127.358" stroke="green" stroke-width="2" fill="none"/>
<polyline points="14.3197,353.242,715.103,154.019" stroke="green" stroke-width="2" fill="none"/>
<polyline points="255.13,301.82,940.532,112.571" stroke="green" stroke-width="2" fill="none"/>
<polyline points="182.61,201.304,867.438,238.198" stroke="green" stroke-width="2" fill="none"/>
<polyline points="549.885,25.9345,1242.65,69.4334" stroke="green" stroke-width="2" fill="none"/>
<polyline points="563.002,78.425,1239.04,132.84" stroke="green" stroke-width="2" fill="none"/>
<polyline points="591.187,305.068,1199.6,335.108" stroke="green" stroke-width="2" fill="none"/>
<polyline points="11.9108,283.768,709.578,77.0777" stroke="green" stroke-width="2" fill="none"/>
<polyline points="43.5198,334.304,740.601,139.949" stroke="green" stroke-width="2" fill="none"/>
<circle cx="568.541" cy="73.1051" r="2.82218" stroke="yellow" stroke-width="2" fill="none"/>
<circle cx="1243.11" cy="127.358" r="2.26281" stroke="yellow" stroke-width="2" fill="none"/>
<circle cx="571.201" cy="86.8133" r="2.61379" stroke="yellow" stroke-width="2" fill="none"/>
<circle cx="1242.22" cy="143.117" r="2.24563" stroke="yellow" stroke-width="2" fill="none"/>
<circle cx="603.549" cy="96.9189" r="2.75301" stroke="yellow" stroke-width="2" fill="none"/>
<circle cx="1263.63" cy="176.1" r="2.19761" stroke="yellow" stroke-width="2" fill="none"/>
<circle cx="59.5993" cy="245.522" r="1.81135" stroke="yellow" stroke-width="2" fill="none"/>
<circle cx="754.506" cy="39.8197" r="1.8934" stroke="yellow" stroke-width="2" fill="none"/>
<circle cx="209.559" cy="152.827" r="2.15599" stroke="yellow" stroke-width="2" fill="none"/>
<circle cx="891.861" cy="199.645" r="2.10119" stroke="yellow" stroke-width="2" fill="none"/>
<circle cx="46.0536" cy="302.438" r="1.90709" stroke="yellow" stroke-width="2" fill="none"/>
<circle cx="742.427" cy="104.959" r="1.84688" stroke="yellow" stroke-width="2" fill="none"/>
<circle cx="16.9533" cy="307.818" r="2.31243" stroke="yellow" stroke-width="2" fill="none"/>
<circle cx="715.743" cy="109.517" r="2.04568" stroke="yellow" stroke-width="2" fill="none"/>
<circle cx="522.56" cy="359.445" r="2.5335" stroke="yellow" stroke-width="2" fill="none"/>
<circle cx="1143.35" cy="334.479" r="1.88268" stroke="yellow" stroke-width="2" fill="none"/>
<circle cx="81.668" cy="232.98" r="2.28161" stroke="yellow" stroke-width="2" fill="none"/>
<circle cx="775.88" cy="16.9488" r="2.62156" stroke="yellow" stroke-width="2" fill="none"/>
<circle cx="25.7739" cy="291.025" r="2.50718" stroke="yellow" stroke-width="2" fill="none"/>
<circle cx="723.165" cy="91.4181" r="2.38436" stroke="yellow" stroke-width="2" fill="none"/>
<circle cx="59.2905" cy="303.601" r="2.785" stroke="yellow" stroke-width="2" fill="none"/>
<circle cx="754.921" cy="100.462" r="2.51973" stroke="yellow" stroke-width="2" fill="none"/>
<circle cx="52.3174" cy="301.452" r="2.70907" stroke="yellow" stroke-width="2" fill="none"/>
<circle cx="748.29" cy="103.574" r="2.47205" stroke="yellow" stroke-width="2" fill="none"/>
<circle cx="304.416" cy="206.936" r="2.97163" stroke="yellow" stroke-width="2" fill="none"/>
<circle cx="976.699" cy="212.21" r="2.01169" stroke="yellow" stroke-width="2" fill="none"/>
<circle cx="23.0572" cy="321.184" r="2.63445" stroke="yellow" stroke-width="2" fill="none"/>
<circle cx="721.605" cy="123.38" r="2.43637" stroke="yellow" stroke-width="2" fill="none"/>
<circle cx="16.4576" cy="406.304" r="4.06656" stroke="yellow" stroke-width="2" fill="none"/>
<circle cx="715.344" cy="178.48" r="2.12767" stroke="yellow" stroke-width="2" fill="none"/>
<circle cx="554.77" cy="69.2025" r="3.44466" stroke="yellow" stroke-width="2" fill="none"/>
<circle cx="1234.46" cy="114.442" r="2.90696" stroke="yellow" stroke-width="2" fill="none"/>
<circle cx="583.415" cy="59.2629" r="3.77016" stroke="yellow" stroke-width="2" fill="none"/>
<circle cx="1258.41" cy="127.146" r="3.07121" stroke="yellow" stroke-width="2" fill="none"/>
<circle cx="42.5342" cy="227.773" r="3.30467" stroke="yellow" stroke-width="2" fill="none"/>
<circle cx="737.368" cy="17.1878" r="3.17314" stroke="yellow" stroke-width="2" fill="none"/>
<circle cx="74.3997" cy="237.447" r="3.45139" stroke="yellow" stroke-width="2" fill="none"/>
<circle cx="768.854" cy="22.5451" r="3.30168" stroke="yellow" stroke-width="2" fill="none"/>
<circle cx="48.3135" cy="245.552" r="3.21701" stroke="yellow" stroke-width="2" fill="none"/>
<circle cx="743.392" cy="38.3028" r="3.27407" stroke="yellow" stroke-width="2" fill="none"/>
<circle cx="20.2509" cy="248.663" r="3.10293" stroke="yellow" stroke-width="2" fill="none"/>
<circle cx="716.025" cy="35.619" r="3.08223" stroke="yellow" stroke-width="2" fill="none"/>
<circle cx="40.5891" cy="297.198" r="3.06573" stroke="yellow" stroke-width="2" fill="none"/>
<circle cx="737.266" cy="98.7012" r="3.04975" stroke="yellow" stroke-width="2" fill="none"/>
<circle cx="263.058" cy="204.629" r="3.73857" stroke="yellow" stroke-width="2" fill="none"/>
<circle cx="938.414" cy="217.926" r="3.51935" stroke="yellow" stroke-width="2" fill="none"/>
<circle cx="33.1982" cy="351.341" r="3.92383" stroke="yellow" stroke-width="2" fill="none"/>
<circle cx="731.702" cy="155.495" r="3.60553" stroke="yellow" stroke-width="2" fill="none"/>
<circle cx="580.526" cy="293.891" r="4.61066" stroke="yellow" stroke-width="2" fill="none"/>
<circle cx="1197.67" cy="320.9" r="3.96552" stroke="yellow" stroke-width="2" fill="none"/>
<circle cx="466.56" cy="390.774" r="5.28609" stroke="yellow" stroke-width="2" fill="none"/>
<circle cx="1098.45" cy="328.251" r="3.17834" stroke="yellow" stroke-width="2" fill="none"/>
<circle cx="184.364" cy="186.883" r="5.97722" stroke="yellow" stroke-width="2" fill="none"/>
<circle cx="868.579" cy="226.671" r="5.0854" stroke="yellow" stroke-width="2" fill="none"/>
<circle cx="354.333" cy="221.654" r="6.06277" stroke="yellow" stroke-width="2" fill="none"/>
<circle cx="1016.26" cy="233.704" r="5.18349" stroke="yellow" stroke-width="2" fill="none"/>
<circle cx="580.557" cy="239.88" r="8.06631" stroke="yellow" stroke-width="2" fill="none"/>
<circle cx="1208.8" cy="275.3" r="6.45621" stroke="yellow" stroke-width="2" fill="none"/>
<circle cx="593.061" cy="312.397" r="7.43333" stroke="yellow" stroke-width="2" fill="none"/>
<circle cx="1199.81" cy="340.479" r="6.29853" stroke="yellow" stroke-width="2" fill="none"/>
<circle cx="568.541" cy="73.1051" r="2.82218" stroke="yellow" stroke-width="2" fill="none"/>
<circle cx="1243.11" cy="127.358" r="2.26281" stroke="yellow" stroke-width="2" fill="none"/>
<circle cx="14.3197" cy="353.242" r="1.91931" stroke="yellow" stroke-width="2" fill="none"/>
<circle cx="715.103" cy="154.019" r="1.94271" stroke="yellow" stroke-width="2" fill="none"/>
<circle cx="255.13" cy="301.82" r="2.13683" stroke="yellow" stroke-width="2" fill="none"/>
<circle cx="940.532" cy="112.571" r="2.45741" stroke="yellow" stroke-width="2" fill="none"/>
<circle cx="182.61" cy="201.304" r="4.76768" stroke="yellow" stroke-width="2" fill="none"/>
<circle cx="867.438" cy="238.198" r="3.58217" stroke="yellow" stroke-width="2" fill="none"/>
<circle cx="549.885" cy="25.9345" r="2.6813" stroke="yellow" stroke-width="2" fill="none"/>
<circle cx="1242.65" cy="69.4334" r="2.07763" stroke="yellow" stroke-width="2" fill="none"/>
<circle cx="563.002" cy="78.425" r="2.99802" stroke="yellow" stroke-width="2" fill="none"/>
<circle cx="1239.04" cy="132.84" r="2.11204" stroke="yellow" stroke-width="2" fill="none"/>
<circle cx="591.187" cy="305.068" r="2.45259" stroke="yellow" stroke-width="2" fill="none"/>
<circle cx="1199.6" cy="335.108" r="2.14283" stroke="yellow" stroke-width="2" fill="none"/>
<circle cx="11.9108" cy="283.768" r="3.38116" stroke="yellow" stroke-width="2" fill="none"/>
<circle cx="709.578" cy="77.0777" r="3.4949" stroke="yellow" stroke-width="2" fill="none"/>
<circle cx="43.5198" cy="334.304" r="8.08301" stroke="yellow" stroke-width="2" fill="none"/>
<circle cx="740.601" cy="139.949" r="7.4512" stroke="yellow" stroke-width="2" fill="none"/>
</svg>