<?xml version="1.0" standalone="yes"?>
<!-- SVG graphic -->
<svg xmlns='http://www.w3.org/2000/svg' xmlns:xlink='http://www.w3.org/1999/xlink'
width="1280px" height="480px" preserveAspectRatio="xMinYMin meet" viewBox="0 0 1280 480" version="1.1">
<image x="0" y="0" width="640px" height="480px" opacity="1" xlink:href="E:\fengbing\reconstraction\sources\data\et\et001.jpg"/>
<image x="640" y="0" width="640px" height="480px" opacity="1" xlink:href="E:\fengbing\reconstraction\sources\data\et\et002.jpg"/>
<polyline points="86.5181,215.417,748.29,103.574" stroke="green" stroke-width="2" fill="none"/>
<polyline points="330.224,178.657,998.575,174.085" stroke="green" stroke-width="2" fill="none"/>
<polyline points="576.06,100.848,1253.84,144.838" stroke="green" stroke-width="2" fill="none"/>
<polyline points="471.316,366.966,1101.03,347.142" stroke="green" stroke-width="2" fill="none"/>
<polyline points="60.7437,207.126,723.165,91.4181" stroke="green" stroke-width="2" fill="none"/>
<polyline points="77.3205,146.665,745.482,27.7153" stroke="green" stroke-width="2" fill="none"/>
<polyline points="592.204,126.147,1263.63,176.1" stroke="green" stroke-width="2" fill="none"/>
<polyline points="99.9213,141.683,768.854,22.5451" stroke="green" stroke-width="2" fill="none"/>
<polyline points="106.121,232.592,766.052,122.38" stroke="green" stroke-width="2" fill="none"/>
<polyline points="507.704,328.852,1141.87,327.387" stroke="green" stroke-width="2" fill="none"/>
<polyline points="557.807,72.2196,1242.57,109.659" stroke="green" stroke-width="2" fill="none"/>
<polyline points="80.8033,217.291,742.427,104.959" stroke="green" stroke-width="2" fill="none"/>
<polyline points="68.6593,138.293,737.368,17.1878" stroke="green" stroke-width="2" fill="none"/>
<polyline points="590.302,133.759,1260.11,183.062" stroke="green" stroke-width="2" fill="none"/>
<polyline points="276.069,228.667,938.414,217.926" stroke="green" stroke-width="2" fill="none"/>
<polyline points="82.0696,250.268,740.601,139.949" stroke="green" stroke-width="2" fill="none"/>
<polyline points="586.722,95.7382,1265.31,144.823" stroke="green" stroke-width="2" fill="none"/>
<polyline points="49.7583,158.824,716.025,35.619" stroke="green" stroke-width="2" fill="none"/>
<polyline points="224.165,204.061,891.861,199.645" stroke="green" stroke-width="2" fill="none"/>
<polyline points="46.516,197.147,709.578,77.0777" stroke="green" stroke-width="2" fill="none"/>
<polyline points="430.506,449.763,1048.88,389.229" stroke="green" stroke-width="2" fill="none"/>
<polyline points="61.7498,237.327,721.605,123.38" stroke="green" stroke-width="2" fill="none"/>
<polyline points="562.252,89.5514,1243.11,127.358" stroke="green" stroke-width="2" fill="none"/>
<polyline points="74.3908,266.067,731.702,155.495" stroke="green" stroke-width="2" fill="none"/>
<polyline points="87.1431,156.284,754.506,39.8197" stroke="green" stroke-width="2" fill="none"/>
<polyline points="106.338,136.05,775.88,16.9488" stroke="green" stroke-width="2" fill="none"/>
<polyline points="75.1301,212.216,737.266,98.7012" stroke="green" stroke-width="2" fill="none"/>
<polyline points="97.6552,134.304,767.348,13.6325" stroke="green" stroke-width="2" fill="none"/>
<polyline points="585.096,115.649,1259.08,163.099" stroke="green" stroke-width="2" fill="none"/>
<polyline points="314.518,221.272,976.699,212.21" stroke="green" stroke-width="2" fill="none"/>
<polyline points="54.7177,224.643,715.743,109.517" stroke="green" stroke-width="2" fill="none"/>
<polyline points="596.222,133.005,1265.79,184.6" stroke="green" stroke-width="2" fill="none"/>
<polyline points="76.1604,157.01,743.392,38.3028" stroke="green" stroke-width="2" fill="none"/>
<polyline points="204.198,235.614,868.579,226.671" stroke="green" stroke-width="2" fill="none"/>
<polyline points="191.639,436.164,828.055,337.453" stroke="green" stroke-width="2" fill="none"/>
<polyline points="600.603,139.051,1268.89,192.538" stroke="green" stroke-width="2" fill="none"/>
<polyline points="464.482,346.656,1098.45,328.251" stroke="green" stroke-width="2" fill="none"/>
<polyline points="68.4347,152.44,735.72,33.404" stroke="green" stroke-width="2" fill="none"/>
<polyline points="580.456,107.044,1256.86,153.065" stroke="green" stroke-width="2" fill="none"/>
<polyline points="564.522,103.705,1242.22,143.117" stroke="green" stroke-width="2" fill="none"/>
<polyline points="552.687,63.6754,1239.69,98.3679" stroke="green" stroke-width="2" fill="none"/>
<polyline points="62.2025,254.526,720.688,141.293" stroke="green" stroke-width="2" fill="none"/>
<polyline points="503.502,314.178,1140.52,313.029" stroke="green" stroke-width="2" fill="none"/>
<polyline points="568.926,111.04,1244.88,151.935" stroke="green" stroke-width="2" fill="none"/>
<polyline points="92.9288,213.702,754.921,100.462" stroke="green" stroke-width="2" fill="none"/>
<polyline points="197.29,230.923,862.528,221.146" stroke="green" stroke-width="2" fill="none"/>
<polyline points="572.677,116.436,1247.29,158.91" stroke="green" stroke-width="2" fill="none"/>
<polyline points="513.175,325.285,1147.41,327.144" stroke="green" stroke-width="2" fill="none"/>
<polyline points="428.122,438.718,1048.79,378.152" stroke="green" stroke-width="2" fill="none"/>
<polyline points="386.892,157.973,1057.21,158.926" stroke="green" stroke-width="2" fill="none"/>
<polyline points="102.185,197.761,765.065,81.9839" stroke="green" stroke-width="2" fill="none"/>
<polyline points="63.917,132.221,732.86,10.5113" stroke="green" stroke-width="2" fill="none"/>
<polyline points="585.611,126.08,1257.64,173.862" stroke="green" stroke-width="2" fill="none"/>
<polyline points="229.661,209.518,896.149,204.789" stroke="green" stroke-width="2" fill="none"/>
<polyline points="545.073,72.1399,1230.47,104.175" stroke="green" stroke-width="2" fill="none"/>
<polyline points="122.534,351.96,770.084,245.438" stroke="green" stroke-width="2" fill="none"/>
<polyline points="43.5458,236.474,703.467,116.723" stroke="green" stroke-width="2" fill="none"/>
<polyline points="559.082,95.1876,1239.04,132.84" stroke="green" stroke-width="2" fill="none"/>
<polyline points="510.948,335.027,1143.35,334.479" stroke="green" stroke-width="2" fill="none"/>
<polyline points="576.941,82.7411,1258.41,127.146" stroke="green" stroke-width="2" fill="none"/>
<polyline points="178.621,139.978,854.465,122.883" stroke="green" stroke-width="2" fill="none"/>
<polyline points="192.388,467.754,824.542,364.953" stroke="green" stroke-width="2" fill="none"/>
<polyline points="550.921,80.4858,1234.46,114.442" stroke="green" stroke-width="2" fill="none"/>
<polyline points="276.563,237.133,938.072,225.037" stroke="green" stroke-width="2" fill="none"/>
<polyline points="561.497,296.415,1197.67,320.9" stroke="green" stroke-width="2" fill="none"/>
<polyline points="502.41,255.927,1150.2,268.834" stroke="green" stroke-width="2" fill="none"/>
<polyline points="412.809,389.222,1041.87,335.885" stroke="green" stroke-width="2" fill="none"/>
<polyline points="565.988,95.566,1245.9,136.245" stroke="green" stroke-width="2" fill="none"/>
<polyline points="616.152,228.394,1262.72,281.059" stroke="green" stroke-width="2" fill="none"/>
<polyline points="358.77,236.385,1016.26,233.704" stroke="green" stroke-width="2" fill="none"/>
<polyline points="210.468,436.47,844.938,341.38" stroke="green" stroke-width="2" fill="none"/>
<polyline points="220.368,414.563,856.875,323.448" stroke="green" stroke-width="2" fill="none"/>
<polyline points="440.789,417.012,1064.76,380.807" stroke="green" stroke-width="2" fill="none"/>
<polyline points="305.804,192.987,973.21,185.072" stroke="green" stroke-width="2" fill="none"/>
<polyline points="531.622,193.809,1191.85,213.915" stroke="green" stroke-width="2" fill="none"/>
<polyline points="215.497,425.633,850.902,332.493" stroke="green" stroke-width="2" fill="none"/>
<polyline points="429.112,186.605,1092.75,206.564" stroke="green" stroke-width="2" fill="none"/>
<polyline points="560.21,233.168,1209.19,262.569" stroke="green" stroke-width="2" fill="none"/>
<polyline points="533.745,45.451,1225.79,72.2332" stroke="green" stroke-width="2" fill="none"/>
<polyline points="249.811,127.276,922.616,27.7486" stroke="green" stroke-width="2" fill="none"/>
<polyline points="447.229,196.721,1108.21,224.707" stroke="green" stroke-width="2" fill="none"/>
<polyline points="546.164,41.888,1239.01,74.1198" stroke="green" stroke-width="2" fill="none"/>
<polyline points="568.688,316.46,1199.81,340.479" stroke="green" stroke-width="2" fill="none"/>
<polyline points="63.369,302.219,715.344,178.48" stroke="green" stroke-width="2" fill="none"/>
<polyline points="553.887,167.994,1216.82,194.24" stroke="green" stroke-width="2" fill="none"/>
<polyline points="310.624,199.813,974.792,191.975" stroke="green" stroke-width="2" fill="none"/>
<polyline points="37.9787,367.477,686.78,257.211" stroke="green" stroke-width="2" fill="none"/>
<polyline points="312.392,164.614,984.656,156.185" stroke="green" stroke-width="2" fill="none"/>
<polyline points="280.832,216.102,943.237,203.163" stroke="green" stroke-width="2" fill="none"/>
<polyline points="493.929,458.611,1107.17,425.043" stroke="green" stroke-width="2" fill="none"/>
<polyline points="302.292,213.792,964.305,204.312" stroke="green" stroke-width="2" fill="none"/>
<polyline points="492.698,15.6015,1189.08,19.4056" stroke="green" stroke-width="2" fill="none"/>
<circle cx="86.5181" cy="215.417" r="2.47226" stroke="yellow" stroke-width="2" fill="none"/>
<circle cx="748.29" cy="103.574" r="2.47205" stroke="yellow" stroke-width="2" fill="none"/>
<circle cx="330.224" cy="178.657" r="3.22618" stroke="yellow" stroke-width="2" fill="none"/>
<circle cx="998.575" cy="174.085" r="2.62441" stroke="yellow" stroke-width="2" fill="none"/>
<circle cx="576.06" cy="100.848" r="1.89479" stroke="yellow" stroke-width="2" fill="none"/>
<circle cx="1253.84" cy="144.838" r="1.85898" stroke="yellow" stroke-width="2" fill="none"/>
<circle cx="471.316" cy="366.966" r="2.02048" stroke="yellow" stroke-width="2" fill="none"/>
<circle cx="1101.03" cy="347.142" r="1.95936" stroke="yellow" stroke-width="2" fill="none"/>
<circle cx="60.7437" cy="207.126" r="2.42198" stroke="yellow" stroke-width="2" fill="none"/>
<circle cx="723.165" cy="91.4181" r="2.38436" stroke="yellow" stroke-width="2" fill="none"/>
<circle cx="77.3205" cy="146.665" r="3.88469" stroke="yellow" stroke-width="2" fill="none"/>
<circle cx="745.482" cy="27.7153" r="4.00144" stroke="yellow" stroke-width="2" fill="none"/>
<circle cx="592.204" cy="126.147" r="2.20196" stroke="yellow" stroke-width="2" fill="none"/>
<circle cx="1263.63" cy="176.1" r="2.19761" stroke="yellow" stroke-width="2" fill="none"/>
<circle cx="99.9213" cy="141.683" r="3.29999" stroke="yellow" stroke-width="2" fill="none"/>
<circle cx="768.854" cy="22.5451" r="3.30168" stroke="yellow" stroke-width="2" fill="none"/>
<circle cx="106.121" cy="232.592" r="2.08949" stroke="yellow" stroke-width="2" fill="none"/>
<circle cx="766.052" cy="122.38" r="1.91285" stroke="yellow" stroke-width="2" fill="none"/>
<circle cx="507.704" cy="328.852" r="1.85854" stroke="yellow" stroke-width="2" fill="none"/>
<circle cx="1141.87" cy="327.387" r="1.87612" stroke="yellow" stroke-width="2" fill="none"/>
<circle cx="557.807" cy="72.2196" r="10.2321" stroke="yellow" stroke-width="2" fill="none"/>
<circle cx="1242.57" cy="109.659" r="9.54971" stroke="yellow" stroke-width="2" fill="none"/>
<circle cx="80.8033" cy="217.291" r="1.82685" stroke="yellow" stroke-width="2" fill="none"/>
<circle cx="742.427" cy="104.959" r="1.84688" stroke="yellow" stroke-width="2" fill="none"/>
<circle cx="68.6593" cy="138.293" r="3.15199" stroke="yellow" stroke-width="2" fill="none"/>
<circle cx="737.368" cy="17.1878" r="3.17314" stroke="yellow" stroke-width="2" fill="none"/>
<circle cx="590.302" cy="133.759" r="2.48077" stroke="yellow" stroke-width="2" fill="none"/>
<circle cx="1260.11" cy="183.062" r="2.34085" stroke="yellow" stroke-width="2" fill="none"/>
<circle cx="276.069" cy="228.667" r="3.58443" stroke="yellow" stroke-width="2" fill="none"/>
<circle cx="938.414" cy="217.926" r="3.51935" stroke="yellow" stroke-width="2" fill="none"/>
<circle cx="82.0696" cy="250.268" r="7.44006" stroke="yellow" stroke-width="2" fill="none"/>
<circle cx="740.601" cy="139.949" r="7.4512" stroke="yellow" stroke-width="2" fill="none"/>
<circle cx="586.722" cy="95.7382" r="2.40707" stroke="yellow" stroke-width="2" fill="none"/>
<circle cx="1265.31" cy="144.823" r="2.38587" stroke="yellow" stroke-width="2" fill="none"/>
<circle cx="49.7583" cy="158.824" r="2.91831" stroke="yellow" stroke-width="2" fill="none"/>
<circle cx="716.025" cy="35.619" r="3.08223" stroke="yellow" stroke-width="2" fill="none"/>
<circle cx="224.165" cy="204.061" r="2.02768" stroke="yellow" stroke-width="2" fill="none"/>
<circle cx="891.861" cy="199.645" r="2.10119" stroke="yellow" stroke-width="2" fill="none"/>
<circle cx="46.516" cy="197.147" r="3.351" stroke="yellow" stroke-width="2" fill="none"/>
<circle cx="709.578" cy="77.0777" r="3.4949" stroke="yellow" stroke-width="2" fill="none"/>
<circle cx="430.506" cy="449.763" r="3.1375" stroke="yellow" stroke-width="2" fill="none"/>
<circle cx="1048.88" cy="389.229" r="2.43045" stroke="yellow" stroke-width="2" fill="none"/>
<circle cx="61.7498" cy="237.327" r="2.51121" stroke="yellow" stroke-width="2" fill="none"/>
<circle cx="721.605" cy="123.38" r="2.43637" stroke="yellow" stroke-width="2" fill="none"/>
<circle cx="562.252" cy="89.5514" r="2.16613" stroke="yellow" stroke-width="2" fill="none"/>
<circle cx="1243.11" cy="127.358" r="2.26281" stroke="yellow" stroke-width="2" fill="none"/>
<circle cx="74.3908" cy="266.067" r="3.7001" stroke="yellow" stroke-width="2" fill="none"/>
<circle cx="731.702" cy="155.495" r="3.60553" stroke="yellow" stroke-width="2" fill="none"/>
<circle cx="87.1431" cy="156.284" r="1.80155" stroke="yellow" stroke-width="2" fill="none"/>
<circle cx="754.506" cy="39.8197" r="1.8934" stroke="yellow" stroke-width="2" fill="none"/>
<circle cx="106.338" cy="136.05" r="2.41024" stroke="yellow" stroke-width="2" fill="none"/>
<circle cx="775.88" cy="16.9488" r="2.62156" stroke="yellow" stroke-width="2" fill="none"/>
<circle cx="75.1301" cy="212.216" r="2.93818" stroke="yellow" stroke-width="2" fill="none"/>
<circle cx="737.266" cy="98.7012" r="3.04975" stroke="yellow" stroke-width="2" fill="none"/>
<circle cx="97.6552" cy="134.304" r="2.20072" stroke="yellow" stroke-width="2" fill="none"/>
<circle cx="767.348" cy="13.6325" r="2.37765" stroke="yellow" stroke-width="2" fill="none"/>
<circle cx="585.096" cy="115.649" r="1.89825" stroke="yellow" stroke-width="2" fill="none"/>
<circle cx="1259.08" cy="163.099" r="1.81901" stroke="yellow" stroke-width="2" fill="none"/>
<circle cx="314.518" cy="221.272" r="2.51683" stroke="yellow" stroke-width="2" fill="none"/>
<circle cx="976.699" cy="212.21" r="2.01169" stroke="yellow" stroke-width="2" fill="none"/>
<circle cx="54.7177" cy="224.643" r="2.09419" stroke="yellow" stroke-width="2" fill="none"/>
<circle cx="715.743" cy="109.517" r="2.04568" stroke="yellow" stroke-width="2" fill="none"/>
<circle cx="596.222" cy="133.005" r="1.88399" stroke="yellow" stroke-width="2" fill="none"/>
<circle cx="1265.79" cy="184.6" r="1.83225" stroke="yellow" stroke-width="2" fill="none"/>
<circle cx="76.1604" cy="157.01" r="3.16583" stroke="yellow" stroke-width="2" fill="none"/>
<circle cx="743.392" cy="38.3028" r="3.27407" stroke="yellow" stroke-width="2" fill="none"/>
<circle cx="204.198" cy="235.614" r="5.27774" stroke="yellow" stroke-width="2" fill="none"/>
<circle cx="868.579" cy="226.671" r="5.0854" stroke="yellow" stroke-width="2" fill="none"/>
<circle cx="191.639" cy="436.164" r="2.98865" stroke="yellow" stroke-width="2" fill="none"/>
<circle cx="828.055" cy="337.453" r="2.69953" stroke="yellow" stroke-width="2" fill="none"/>
<circle cx="600.603" cy="139.051" r="1.92518" stroke="yellow" stroke-width="2" fill="none"/>
<circle cx="1268.89" cy="192.538" r="1.82086" stroke="yellow" stroke-width="2" fill="none"/>
<circle cx="464.482" cy="346.656" r="3.9731" stroke="yellow" stroke-width="2" fill="none"/>
<circle cx="1098.45" cy="328.251" r="3.17834" stroke="yellow" stroke-width="2" fill="none"/>
<circle cx="68.4347" cy="152.44" r="3.08723" stroke="yellow" stroke-width="2" fill="none"/>
<circle cx="735.72" cy="33.404" r="3.15805" stroke="yellow" stroke-width="2" fill="none"/>
<circle cx="580.456" cy="107.044" r="1.96644" stroke="yellow" stroke-width="2" fill="none"/>
<circle cx="1256.86" cy="153.065" r="1.94439" stroke="yellow" stroke-width="2" fill="none"/>
<circle cx="564.522" cy="103.705" r="2.27643" stroke="yellow" stroke-width="2" fill="none"/>
<circle cx="1242.22" cy="143.117" r="2.24563" stroke="yellow" stroke-width="2" fill="none"/>
<circle cx="552.687" cy="63.6754" r="1.91448" stroke="yellow" stroke-width="2" fill="none"/>
<circle cx="1239.69" cy="98.3679" r="1.88398" stroke="yellow" stroke-width="2" fill="none"/>
<circle cx="62.2025" cy="254.526" r="6.26695" stroke="yellow" stroke-width="2" fill="none"/>
<circle cx="720.688" cy="141.293" r="6.19561" stroke="yellow" stroke-width="2" fill="none"/>
<circle cx="503.502" cy="314.178" r="2.1831" stroke="yellow" stroke-width="2" fill="none"/>
<circle cx="1140.52" cy="313.029" r="1.91459" stroke="yellow" stroke-width="2" fill="none"/>
<circle cx="568.926" cy="111.04" r="2.24552" stroke="yellow" stroke-width="2" fill="none"/>
<circle cx="1244.88" cy="151.935" r="2.14941" stroke="yellow" stroke-width="2" fill="none"/>
<circle cx="92.9288" cy="213.702" r="2.46371" stroke="yellow" stroke-width="2" fill="none"/>
<circle cx="754.921" cy="100.462" r="2.51973" stroke="yellow" stroke-width="2" fill="none"/>
<circle cx="197.29" cy="230.923" r="1.91674" stroke="yellow" stroke-width="2" fill="none"/>
<circle cx="862.528" cy="221.146" r="1.78494" stroke="yellow" stroke-width="2" fill="none"/>
<circle cx="572.677" cy="116.436" r="2.44741" stroke="yellow" stroke-width="2" fill="none"/>
<circle cx="1247.29" cy="158.91" r="2.31817" stroke="yellow" stroke-width="2" fill="none"/>
<circle cx="513.175" cy="325.285" r="2.54614" stroke="yellow" stroke-width="2" fill="none"/>
<circle cx="1147.41" cy="327.144" r="2.55814" stroke="yellow" stroke-width="2" fill="none"/>
<circle cx="428.122" cy="438.718" r="1.99018" stroke="yellow" stroke-width="2" fill="none"/>
<circle cx="1048.79" cy="378.152" r="1.82087" stroke="yellow" stroke-width="2" fill="none"/>
<circle cx="386.892" cy="157.973" r="3.02184" stroke="yellow" stroke-width="2" fill="none"/>
<circle cx="1057.21" cy="158.926" r="2.65044" stroke="yellow" stroke-width="2" fill="none"/>
<circle cx="102.185" cy="197.761" r="3.32028" stroke="yellow" stroke-width="2" fill="none"/>
<circle cx="765.065" cy="81.9839" r="3.5002" stroke="yellow" stroke-width="2" fill="none"/>
<circle cx="63.917" cy="132.221" r="1.87423" stroke="yellow" stroke-width="2" fill="none"/>
<circle cx="732.86" cy="10.5113" r="2.09029" stroke="yellow" stroke-width="2" fill="none"/>
<circle cx="585.611" cy="126.08" r="2.23064" stroke="yellow" stroke-width="2" fill="none"/>
<circle cx="1257.64" cy="173.862" r="2.13361" stroke="yellow" stroke-width="2" fill="none"/>
<circle cx="229.661" cy="209.518" r="3.7167" stroke="yellow" stroke-width="2" fill="none"/>
<circle cx="896.149" cy="204.789" r="3.22415" stroke="yellow" stroke-width="2" fill="none"/>
<circle cx="545.073" cy="72.1399" r="2.27609" stroke="yellow" stroke-width="2" fill="none"/>
<circle cx="1230.47" cy="104.175" r="2.28396" stroke="yellow" stroke-width="2" fill="none"/>
<circle cx="122.534" cy="351.96" r="3.13131" stroke="yellow" stroke-width="2" fill="none"/>
<circle cx="770.084" cy="245.438" r="3.03702" stroke="yellow" stroke-width="2" fill="none"/>
<circle cx="43.5458" cy="236.474" r="5.94619" stroke="yellow" stroke-width="2" fill="none"/>
<circle cx="703.467" cy="116.723" r="5.76533" stroke="yellow" stroke-width="2" fill="none"/>
<circle cx="559.082" cy="95.1876" r="2.2034" stroke="yellow" stroke-width="2" fill="none"/>
<circle cx="1239.04" cy="132.84" r="2.11204" stroke="yellow" stroke-width="2" fill="none"/>
<circle cx="510.948" cy="335.027" r="2.00656" stroke="yellow" stroke-width="2" fill="none"/>
<circle cx="1143.35" cy="334.479" r="1.88268" stroke="yellow" stroke-width="2" fill="none"/>
<circle cx="576.941" cy="82.7411" r="3.12756" stroke="yellow" stroke-width="2" fill="none"/>
<circle cx="1258.41" cy="127.146" r="3.07121" stroke="yellow" stroke-width="2" fill="none"/>
<circle cx="178.621" cy="139.978" r="2.51514" stroke="yellow" stroke-width="2" fill="none"/>
<circle cx="854.465" cy="122.883" r="2.89588" stroke="yellow" stroke-width="2" fill="none"/>
<circle cx="192.388" cy="467.754" r="1.9412" stroke="yellow" stroke-width="2" fill="none"/>
<circle cx="824.542" cy="364.953" r="1.82694" stroke="yellow" stroke-width="2" fill="none"/>
<circle cx="550.921" cy="80.4858" r="2.88101" stroke="yellow" stroke-width="2" fill="none"/>
<circle cx="1234.46" cy="114.442" r="2.90696" stroke="yellow" stroke-width="2" fill="none"/>
<circle cx="276.563" cy="237.133" r="2.57522" stroke="yellow" stroke-width="2" fill="none"/>
<circle cx="938.072" cy="225.037" r="1.88845" stroke="yellow" stroke-width="2" fill="none"/>
<circle cx="561.497" cy="296.415" r="4.03412" stroke="yellow" stroke-width="2" fill="none"/>
<circle cx="1197.67" cy="320.9" r="3.96552" stroke="yellow" stroke-width="2" fill="none"/>
<circle cx="502.41" cy="255.927" r="16.7311" stroke="yellow" stroke-width="2" fill="none"/>
<circle cx="1150.2" cy="268.834" r="14.4249" stroke="yellow" stroke-width="2" fill="none"/>
<circle cx="412.809" cy="389.222" r="5.99068" stroke="yellow" stroke-width="2" fill="none"/>
<circle cx="1041.87" cy="335.885" r="4.56035" stroke="yellow" stroke-width="2" fill="none"/>
<circle cx="565.988" cy="95.566" r="2.88968" stroke="yellow" stroke-width="2" fill="none"/>
<circle cx="1245.9" cy="136.245" r="2.99604" stroke="yellow" stroke-width="2" fill="none"/>
<circle cx="616.152" cy="228.394" r="3.13757" stroke="yellow" stroke-width="2" fill="none"/>
<circle cx="1262.72" cy="281.059" r="3.00176" stroke="yellow" stroke-width="2" fill="none"/>
<circle cx="358.77" cy="236.385" r="6.17512" stroke="yellow" stroke-width="2" fill="none"/>
<circle cx="1016.26" cy="233.704" r="5.18349" stroke="yellow" stroke-width="2" fill="none"/>
<circle cx="210.468" cy="436.47" r="3.10057" stroke="yellow" stroke-width="2" fill="none"/>
<circle cx="844.938" cy="341.38" r="2.97087" stroke="yellow" stroke-width="2" fill="none"/>
<circle cx="220.368" cy="414.563" r="3.54257" stroke="yellow" stroke-width="2" fill="none"/>
<circle cx="856.875" cy="323.448" r="3.36637" stroke="yellow" stroke-width="2" fill="none"/>
<circle cx="440.789" cy="417.012" r="6.6653" stroke="yellow" stroke-width="2" fill="none"/>
<circle cx="1064.76" cy="380.807" r="7.54071" stroke="yellow" stroke-width="2" fill="none"/>
<circle cx="305.804" cy="192.987" r="5.53908" stroke="yellow" stroke-width="2" fill="none"/>
<circle cx="973.21" cy="185.072" r="6.02444" stroke="yellow" stroke-width="2" fill="none"/>
<circle cx="531.622" cy="193.809" r="12.3851" stroke="yellow" stroke-width="2" fill="none"/>
<circle cx="1191.85" cy="213.915" r="13.1729" stroke="yellow" stroke-width="2" fill="none"/>
<circle cx="215.497" cy="425.633" r="3.41836" stroke="yellow" stroke-width="2" fill="none"/>
<circle cx="850.902" cy="332.493" r="3.20771" stroke="yellow" stroke-width="2" fill="none"/>
<circle cx="429.112" cy="186.605" r="15.8279" stroke="yellow" stroke-width="2" fill="none"/>
<circle cx="1092.75" cy="206.564" r="18.0667" stroke="yellow" stroke-width="2" fill="none"/>
<circle cx="560.21" cy="233.168" r="1.8609" stroke="yellow" stroke-width="2" fill="none"/>
<circle cx="1209.19" cy="262.569" r="1.86823" stroke="yellow" stroke-width="2" fill="none"/>
<circle cx="533.745" cy="45.451" r="5.16751" stroke="yellow" stroke-width="2" fill="none"/>
<circle cx="1225.79" cy="72.2332" r="5.18832" stroke="yellow" stroke-width="2" fill="none"/>
<circle cx="249.811" cy="127.276" r="2.66038" stroke="yellow" stroke-width="2" fill="none"/>
<circle cx="922.616" cy="27.7486" r="2.76475" stroke="yellow" stroke-width="2" fill="none"/>
<circle cx="447.229" cy="196.721" r="2.05988" stroke="yellow" stroke-width="2" fill="none"/>
<circle cx="1108.21" cy="224.707" r="1.97842" stroke="yellow" stroke-width="2" fill="none"/>
<circle cx="546.164" cy="41.888" r="2.2228" stroke="yellow" stroke-width="2" fill="none"/>
<circle cx="1239.01" cy="74.1198" r="2.0311" stroke="yellow" stroke-width="2" fill="none"/>
<circle cx="568.688" cy="316.46" r="6.27129" stroke="yellow" stroke-width="2" fill="none"/>
<circle cx="1199.81" cy="340.479" r="6.29853" stroke="yellow" stroke-width="2" fill="none"/>
<circle cx="63.369" cy="302.219" r="2.78957" stroke="yellow" stroke-width="2" fill="none"/>
<circle cx="715.344" cy="178.48" r="2.12767" stroke="yellow" stroke-width="2" fill="none"/>
<circle cx="553.887" cy="167.994" r="29.2722" stroke="yellow" stroke-width="2" fill="none"/>
<circle cx="1216.82" cy="194.24" r="26.3813" stroke="yellow" stroke-width="2" fill="none"/>
<circle cx="310.624" cy="199.813" r="2.45742" stroke="yellow" stroke-width="2" fill="none"/>
<circle cx="974.792" cy="191.975" r="2.99681" stroke="yellow" stroke-width="2" fill="none"/>
<circle cx="37.9787" cy="367.477" r="6.77405" stroke="yellow" stroke-width="2" fill="none"/>
<circle cx="686.78" cy="257.211" r="5.7917" stroke="yellow" stroke-width="2" fill="none"/>
<circle cx="312.392" cy="164.614" r="3.17308" stroke="yellow" stroke-width="2" fill="none"/>
<circle cx="984.656" cy="156.185" r="3.28372" stroke="yellow" stroke-width="2" fill="none"/>
<circle cx="280.832" cy="216.102" r="4.91731" stroke="yellow" stroke-width="2" fill="none"/>
<circle cx="943.237" cy="203.163" r="5.64937" stroke="yellow" stroke-width="2" fill="none"/>
<circle cx="493.929" cy="458.611" r="3.45939" stroke="yellow" stroke-width="2" fill="none"/>
<circle cx="1107.17" cy="425.043" r="2.25318" stroke="yellow" stroke-width="2" fill="none"/>
<circle cx="302.292" cy="213.792" r="3.44824" stroke="yellow" stroke-width="2" fill="none"/>
<circle cx="964.305" cy="204.312" r="2.75468" stroke="yellow" stroke-width="2" fill="none"/>
<circle cx="492.698" cy="15.6015" r="6.74863" stroke="yellow" stroke-width="2" fill="none"/>
<circle cx="1189.08" cy="19.4056" r="6.50156" stroke="yellow" stroke-width="2" fill="none"/>
</svg>