<?xml version="1.0" standalone="yes"?>
<!-- SVG graphic -->
<svg xmlns='http://www.w3.org/2000/svg' xmlns:xlink='http://www.w3.org/1999/xlink'
width="1280px" height="480px" preserveAspectRatio="xMinYMin meet" viewBox="0 0 1280 480" version="1.1">
<image x="0" y="0" width="640px" height="480px" opacity="1" xlink:href="E:\fengbing\reconstraction\sources\data\et\et002.jpg"/>
<image x="640" y="0" width="640px" height="480px" opacity="1" xlink:href="E:\fengbing\reconstraction\sources\data\et\et003.jpg"/>
<polyline points="281.801,73.9762,892.425,314.935" stroke="green" stroke-width="2" fill="none"/>
<polyline points="300.532,112.571,913.234,342.536" stroke="green" stroke-width="2" fill="none"/>
<polyline points="298.072,225.037,908.306,231.162" stroke="green" stroke-width="2" fill="none"/>
<polyline points="569.186,262.569,1225.58,257.976" stroke="green" stroke-width="2" fill="none"/>
<polyline points="144.977,29.1929,753.884,277.323" stroke="green" stroke-width="2" fill="none"/>
<polyline points="108.29,103.574,710.464,331.024" stroke="green" stroke-width="2" fill="none"/>
<polyline points="135.88,16.9488,745.586,266.099" stroke="green" stroke-width="2" fill="none"/>
<polyline points="102.427,104.959,704.167,331.209" stroke="green" stroke-width="2" fill="none"/>
<polyline points="91.7016,155.495,687.359,378.451" stroke="green" stroke-width="2" fill="none"/>
<polyline points="75.1026,154.019,669.797,379.578" stroke="green" stroke-width="2" fill="none"/>
<polyline points="81.6046,123.38,679.889,348.474" stroke="green" stroke-width="2" fill="none"/>
<polyline points="128.854,22.5451,737.774,269.542" stroke="green" stroke-width="2" fill="none"/>
<polyline points="227.438,238.198,827.475,209.673" stroke="green" stroke-width="2" fill="none"/>
<polyline points="503.347,334.479,1169.69,397.199" stroke="green" stroke-width="2" fill="none"/>
<polyline points="69.578,77.0777,672.563,311.549" stroke="green" stroke-width="2" fill="none"/>
<polyline points="458.452,328.251,1113.44,429.598" stroke="green" stroke-width="2" fill="none"/>
<polyline points="76.0252,35.619,683.59,277.646" stroke="green" stroke-width="2" fill="none"/>
<polyline points="80.6875,141.293,676.117,365.841" stroke="green" stroke-width="2" fill="none"/>
<polyline points="228.579,226.671,830.431,195.333" stroke="green" stroke-width="2" fill="none"/>
<circle cx="281.801" cy="73.9762" r="2.28398" stroke="yellow" stroke-width="2" fill="none"/>
<circle cx="892.425" cy="314.935" r="2.02595" stroke="yellow" stroke-width="2" fill="none"/>
<circle cx="300.532" cy="112.571" r="2.45741" stroke="yellow" stroke-width="2" fill="none"/>
<circle cx="913.234" cy="342.536" r="2.28405" stroke="yellow" stroke-width="2" fill="none"/>
<circle cx="298.072" cy="225.037" r="1.88845" stroke="yellow" stroke-width="2" fill="none"/>
<circle cx="908.306" cy="231.162" r="2.74301" stroke="yellow" stroke-width="2" fill="none"/>
<circle cx="569.186" cy="262.569" r="1.86823" stroke="yellow" stroke-width="2" fill="none"/>
<circle cx="1225.58" cy="257.976" r="2.58691" stroke="yellow" stroke-width="2" fill="none"/>
<circle cx="144.977" cy="29.1929" r="2.04222" stroke="yellow" stroke-width="2" fill="none"/>
<circle cx="753.884" cy="277.323" r="2.06911" stroke="yellow" stroke-width="2" fill="none"/>
<circle cx="108.29" cy="103.574" r="2.47205" stroke="yellow" stroke-width="2" fill="none"/>
<circle cx="710.464" cy="331.024" r="2.8602" stroke="yellow" stroke-width="2" fill="none"/>
<circle cx="135.88" cy="16.9488" r="2.62156" stroke="yellow" stroke-width="2" fill="none"/>
<circle cx="745.586" cy="266.099" r="2.19977" stroke="yellow" stroke-width="2" fill="none"/>
<circle cx="102.427" cy="104.959" r="1.84688" stroke="yellow" stroke-width="2" fill="none"/>
<circle cx="704.167" cy="331.209" r="1.897" stroke="yellow" stroke-width="2" fill="none"/>
<circle cx="91.7016" cy="155.495" r="3.60553" stroke="yellow" stroke-width="2" fill="none"/>
<circle cx="687.359" cy="378.451" r="4.05713" stroke="yellow" stroke-width="2" fill="none"/>
<circle cx="75.1026" cy="154.019" r="1.94271" stroke="yellow" stroke-width="2" fill="none"/>
<circle cx="669.797" cy="379.578" r="2.27596" stroke="yellow" stroke-width="2" fill="none"/>
<circle cx="81.6046" cy="123.38" r="2.43637" stroke="yellow" stroke-width="2" fill="none"/>
<circle cx="679.889" cy="348.474" r="2.71567" stroke="yellow" stroke-width="2" fill="none"/>
<circle cx="128.854" cy="22.5451" r="3.30168" stroke="yellow" stroke-width="2" fill="none"/>
<circle cx="737.774" cy="269.542" r="3.6748" stroke="yellow" stroke-width="2" fill="none"/>
<circle cx="227.438" cy="238.198" r="3.58217" stroke="yellow" stroke-width="2" fill="none"/>
<circle cx="827.475" cy="209.673" r="4.95443" stroke="yellow" stroke-width="2" fill="none"/>
<circle cx="503.347" cy="334.479" r="1.88268" stroke="yellow" stroke-width="2" fill="none"/>
<circle cx="1169.69" cy="397.199" r="2.55134" stroke="yellow" stroke-width="2" fill="none"/>
<circle cx="69.578" cy="77.0777" r="3.4949" stroke="yellow" stroke-width="2" fill="none"/>
<circle cx="672.563" cy="311.549" r="3.2981" stroke="yellow" stroke-width="2" fill="none"/>
<circle cx="458.452" cy="328.251" r="3.17834" stroke="yellow" stroke-width="2" fill="none"/>
<circle cx="1113.44" cy="429.598" r="4.46403" stroke="yellow" stroke-width="2" fill="none"/>
<circle cx="76.0252" cy="35.619" r="3.08223" stroke="yellow" stroke-width="2" fill="none"/>
<circle cx="683.59" cy="277.646" r="2.85521" stroke="yellow" stroke-width="2" fill="none"/>
<circle cx="80.6875" cy="141.293" r="6.19561" stroke="yellow" stroke-width="2" fill="none"/>
<circle cx="676.117" cy="365.841" r="6.79049" stroke="yellow" stroke-width="2" fill="none"/>
<circle cx="228.579" cy="226.671" r="5.0854" stroke="yellow" stroke-width="2" fill="none"/>
<circle cx="830.431" cy="195.333" r="5.75695" stroke="yellow" stroke-width="2" fill="none"/>
</svg>