<?xml version="1.0" standalone="yes"?>
<!-- SVG graphic -->
<svg xmlns='http://www.w3.org/2000/svg' xmlns:xlink='http://www.w3.org/1999/xlink'
width="640px" height="480px" preserveAspectRatio="xMinYMin meet" viewBox="0 0 640 480" version="1.1">
<image x="0" y="0" width="640px" height="480px" opacity="1" xlink:href="E:\fengbing\reconstraction\sources\data\et\et008.jpg"/>
<circle cx="29.8537" cy="4.49561" r="2.00965" stroke="yellow" stroke-width="2" fill="none"/>
<circle cx="152.375" cy="9.00249" r="2.02923" stroke="yellow" stroke-width="2" fill="none"/>
<circle cx="301.114" cy="13.912" r="1.86038" stroke="yellow" stroke-width="2" fill="none"/>
<circle cx="147.044" cy="14.5513" r="1.86557" stroke="yellow" stroke-width="2" fill="none"/>
<circle cx="27.2311" cy="16.3784" r="2.09024" stroke="yellow" stroke-width="2" fill="none"/>
<circle cx="27.2311" cy="16.3784" r="2.09024" stroke="yellow" stroke-width="2" fill="none"/>
<circle cx="141.596" cy="20.0487" r="2.19498" stroke="yellow" stroke-width="2" fill="none"/>
<circle cx="137.302" cy="23.9731" r="2.04775" stroke="yellow" stroke-width="2" fill="none"/>
<circle cx="21.5097" cy="25.4106" r="1.9853" stroke="yellow" stroke-width="2" fill="none"/>
<circle cx="21.5097" cy="25.4106" r="1.9853" stroke="yellow" stroke-width="2" fill="none"/>
<circle cx="127.1" cy="34.0527" r="2.13587" stroke="yellow" stroke-width="2" fill="none"/>
<circle cx="278.984" cy="34.5083" r="1.96675" stroke="yellow" stroke-width="2" fill="none"/>
<circle cx="339.84" cy="39.7622" r="1.85889" stroke="yellow" stroke-width="2" fill="none"/>
<circle cx="116.957" cy="44.6011" r="1.89802" stroke="yellow" stroke-width="2" fill="none"/>
<circle cx="239.935" cy="51.0058" r="2.10264" stroke="yellow" stroke-width="2" fill="none"/>
<circle cx="107.647" cy="53.5319" r="1.90185" stroke="yellow" stroke-width="2" fill="none"/>
<circle cx="345.404" cy="56.7565" r="2.00232" stroke="yellow" stroke-width="2" fill="none"/>
<circle cx="589.477" cy="59.8651" r="1.91182" stroke="yellow" stroke-width="2" fill="none"/>
<circle cx="7.25226" cy="61.1932" r="1.96912" stroke="yellow" stroke-width="2" fill="none"/>
<circle cx="7.25226" cy="61.1932" r="1.96912" stroke="yellow" stroke-width="2" fill="none"/>
<circle cx="89.8666" cy="62.972" r="1.98016" stroke="yellow" stroke-width="2" fill="none"/>
<circle cx="89.8666" cy="62.972" r="1.98016" stroke="yellow" stroke-width="2" fill="none"/>
<circle cx="578.758" cy="62.8066" r="2.31633" stroke="yellow" stroke-width="2" fill="none"/>
<circle cx="106.424" cy="65.035" r="2.09131" stroke="yellow" stroke-width="2" fill="none"/>
<circle cx="95.2267" cy="66.2215" r="2.2299" stroke="yellow" stroke-width="2" fill="none"/>
<circle cx="229.149" cy="73.956" r="2.17265" stroke="yellow" stroke-width="2" fill="none"/>
<circle cx="83.1478" cy="79.2078" r="1.97748" stroke="yellow" stroke-width="2" fill="none"/>
<circle cx="70.4979" cy="90.4019" r="2.27895" stroke="yellow" stroke-width="2" fill="none"/>
<circle cx="577.506" cy="94.108" r="1.97993" stroke="yellow" stroke-width="2" fill="none"/>
<circle cx="183.921" cy="95.5323" r="2.16877" stroke="yellow" stroke-width="2" fill="none"/>
<circle cx="460.218" cy="94.8267" r="2.29679" stroke="yellow" stroke-width="2" fill="none"/>
<circle cx="218.529" cy="102.565" r="1.93357" stroke="yellow" stroke-width="2" fill="none"/>
<circle cx="218.529" cy="102.565" r="1.93357" stroke="yellow" stroke-width="2" fill="none"/>
<circle cx="485.857" cy="106.825" r="1.87743" stroke="yellow" stroke-width="2" fill="none"/>
<circle cx="395.785" cy="128.635" r="2.17388" stroke="yellow" stroke-width="2" fill="none"/>
<circle cx="338.705" cy="132.18" r="1.87023" stroke="yellow" stroke-width="2" fill="none"/>
<circle cx="279.552" cy="135.008" r="2.27282" stroke="yellow" stroke-width="2" fill="none"/>
<circle cx="423.259" cy="135.686" r="1.91686" stroke="yellow" stroke-width="2" fill="none"/>
<circle cx="398.989" cy="137.879" r="2.02426" stroke="yellow" stroke-width="2" fill="none"/>
<circle cx="490.021" cy="144.271" r="1.92908" stroke="yellow" stroke-width="2" fill="none"/>
<circle cx="191.681" cy="144.975" r="1.80036" stroke="yellow" stroke-width="2" fill="none"/>
<circle cx="354.852" cy="144.633" r="2.19998" stroke="yellow" stroke-width="2" fill="none"/>
<circle cx="426.329" cy="150.846" r="1.70366" stroke="yellow" stroke-width="2" fill="none"/>
<circle cx="438.631" cy="155.441" r="2.0911" stroke="yellow" stroke-width="2" fill="none"/>
<circle cx="457.554" cy="155.096" r="2.10934" stroke="yellow" stroke-width="2" fill="none"/>
<circle cx="406.666" cy="159.021" r="1.91754" stroke="yellow" stroke-width="2" fill="none"/>
<circle cx="277.325" cy="162.155" r="2.20013" stroke="yellow" stroke-width="2" fill="none"/>
<circle cx="395.107" cy="167.053" r="2.17555" stroke="yellow" stroke-width="2" fill="none"/>
<circle cx="174.13" cy="168.278" r="1.85105" stroke="yellow" stroke-width="2" fill="none"/>
<circle cx="478.994" cy="171.046" r="2.0619" stroke="yellow" stroke-width="2" fill="none"/>
<circle cx="473.03" cy="172.537" r="1.96271" stroke="yellow" stroke-width="2" fill="none"/>
<circle cx="484.278" cy="174.269" r="1.92116" stroke="yellow" stroke-width="2" fill="none"/>
<circle cx="263.05" cy="175.073" r="1.88647" stroke="yellow" stroke-width="2" fill="none"/>
<circle cx="542.263" cy="174.409" r="2.32695" stroke="yellow" stroke-width="2" fill="none"/>
<circle cx="371.842" cy="178.403" r="1.96709" stroke="yellow" stroke-width="2" fill="none"/>
<circle cx="365.914" cy="179.557" r="2.05285" stroke="yellow" stroke-width="2" fill="none"/>
<circle cx="365.914" cy="179.557" r="2.05285" stroke="yellow" stroke-width="2" fill="none"/>
<circle cx="483.045" cy="179.53" r="1.85759" stroke="yellow" stroke-width="2" fill="none"/>
<circle cx="382.814" cy="186.248" r="2.05342" stroke="yellow" stroke-width="2" fill="none"/>
<circle cx="280.496" cy="189.029" r="1.8116" stroke="yellow" stroke-width="2" fill="none"/>
<circle cx="439.893" cy="189.395" r="1.85678" stroke="yellow" stroke-width="2" fill="none"/>
<circle cx="443.091" cy="194.345" r="1.84504" stroke="yellow" stroke-width="2" fill="none"/>
<circle cx="437.578" cy="194.862" r="2.44166" stroke="yellow" stroke-width="2" fill="none"/>
<circle cx="451.841" cy="202.975" r="2.21101" stroke="yellow" stroke-width="2" fill="none"/>
<circle cx="494.172" cy="206.09" r="1.94856" stroke="yellow" stroke-width="2" fill="none"/>
<circle cx="506.465" cy="206.443" r="1.84669" stroke="yellow" stroke-width="2" fill="none"/>
<circle cx="462.619" cy="207.865" r="1.97207" stroke="yellow" stroke-width="2" fill="none"/>
<circle cx="468.578" cy="209.007" r="1.90179" stroke="yellow" stroke-width="2" fill="none"/>
<circle cx="483.241" cy="213.933" r="1.9882" stroke="yellow" stroke-width="2" fill="none"/>
<circle cx="303.637" cy="215.972" r="1.87377" stroke="yellow" stroke-width="2" fill="none"/>
<circle cx="352.357" cy="220.092" r="1.8863" stroke="yellow" stroke-width="2" fill="none"/>
<circle cx="157.547" cy="222.746" r="1.72586" stroke="yellow" stroke-width="2" fill="none"/>
<circle cx="24.144" cy="225.277" r="2.03545" stroke="yellow" stroke-width="2" fill="none"/>
<circle cx="24.144" cy="225.277" r="2.03545" stroke="yellow" stroke-width="2" fill="none"/>
<circle cx="143.685" cy="225.699" r="2.12837" stroke="yellow" stroke-width="2" fill="none"/>
<circle cx="278.788" cy="235.516" r="2.23509" stroke="yellow" stroke-width="2" fill="none"/>
<circle cx="146.579" cy="237.045" r="2.00467" stroke="yellow" stroke-width="2" fill="none"/>
<circle cx="146.579" cy="237.045" r="2.00467" stroke="yellow" stroke-width="2" fill="none"/>
<circle cx="290.745" cy="242.836" r="1.95651" stroke="yellow" stroke-width="2" fill="none"/>
<circle cx="322.233" cy="267.768" r="2.12992" stroke="yellow" stroke-width="2" fill="none"/>
<circle cx="322.233" cy="267.768" r="2.12992" stroke="yellow" stroke-width="2" fill="none"/>
<circle cx="226.026" cy="276.921" r="2.16145" stroke="yellow" stroke-width="2" fill="none"/>
<circle cx="269.65" cy="277.861" r="2.26252" stroke="yellow" stroke-width="2" fill="none"/>
<circle cx="301.799" cy="277.824" r="1.87579" stroke="yellow" stroke-width="2" fill="none"/>
<circle cx="397.212" cy="295.234" r="2.22665" stroke="yellow" stroke-width="2" fill="none"/>
<circle cx="408.688" cy="298.358" r="2.08694" stroke="yellow" stroke-width="2" fill="none"/>
<circle cx="408.688" cy="298.358" r="2.08694" stroke="yellow" stroke-width="2" fill="none"/>
<circle cx="496.668" cy="304.563" r="1.91388" stroke="yellow" stroke-width="2" fill="none"/>
<circle cx="489.497" cy="309.959" r="1.92659" stroke="yellow" stroke-width="2" fill="none"/>
<circle cx="344.345" cy="310.839" r="2.14248" stroke="yellow" stroke-width="2" fill="none"/>
<circle cx="344.345" cy="310.839" r="2.14248" stroke="yellow" stroke-width="2" fill="none"/>
<circle cx="545.973" cy="322.195" r="1.93346" stroke="yellow" stroke-width="2" fill="none"/>
<circle cx="545.973" cy="322.195" r="1.93346" stroke="yellow" stroke-width="2" fill="none"/>
<circle cx="418.588" cy="337.986" r="2.16623" stroke="yellow" stroke-width="2" fill="none"/>
<circle cx="243.875" cy="346.773" r="1.81385" stroke="yellow" stroke-width="2" fill="none"/>
<circle cx="243.875" cy="346.773" r="1.81385" stroke="yellow" stroke-width="2" fill="none"/>
<circle cx="442.097" cy="350.896" r="2.01934" stroke="yellow" stroke-width="2" fill="none"/>
<circle cx="401.806" cy="375.079" r="2.22434" stroke="yellow" stroke-width="2" fill="none"/>
<circle cx="225.103" cy="387.131" r="1.97915" stroke="yellow" stroke-width="2" fill="none"/>
<circle cx="571.702" cy="391.818" r="2.15507" stroke="yellow" stroke-width="2" fill="none"/>
<circle cx="13.9403" cy="422.509" r="1.82229" stroke="yellow" stroke-width="2" fill="none"/>
<circle cx="500.327" cy="430.329" r="1.7969" stroke="yellow" stroke-width="2" fill="none"/>
<circle cx="28.076" cy="435.936" r="2.10858" stroke="yellow" stroke-width="2" fill="none"/>
<circle cx="34.2817" cy="442.854" r="1.92138" stroke="yellow" stroke-width="2" fill="none"/>
<circle cx="23.4125" cy="446.89" r="2.04642" stroke="yellow" stroke-width="2" fill="none"/>
<circle cx="9.17763" cy="452.562" r="2.03431" stroke="yellow" stroke-width="2" fill="none"/>
<circle cx="8.8398" cy="459.838" r="1.99505" stroke="yellow" stroke-width="2" fill="none"/>
<circle cx="55.4138" cy="464.983" r="2.04721" stroke="yellow" stroke-width="2" fill="none"/>
<circle cx="41.1984" cy="465.913" r="1.82206" stroke="yellow" stroke-width="2" fill="none"/>
<circle cx="17.9719" cy="468.648" r="1.77975" stroke="yellow" stroke-width="2" fill="none"/>
<circle cx="15.7175" cy="474.048" r="1.82401" stroke="yellow" stroke-width="2" fill="none"/>
<circle cx="421.17" cy="9.84757" r="2.48042" stroke="yellow" stroke-width="2" fill="none"/>
<circle cx="135.266" cy="17.5057" r="2.39598" stroke="yellow" stroke-width="2" fill="none"/>
<circle cx="148.269" cy="22.035" r="2.63789" stroke="yellow" stroke-width="2" fill="none"/>
<circle cx="148.269" cy="22.035" r="2.63789" stroke="yellow" stroke-width="2" fill="none"/>
<circle cx="118.009" cy="24.4275" r="2.87162" stroke="yellow" stroke-width="2" fill="none"/>
<circle cx="132.574" cy="28.4086" r="2.43311" stroke="yellow" stroke-width="2" fill="none"/>
<circle cx="368.654" cy="28.0238" r="2.39085" stroke="yellow" stroke-width="2" fill="none"/>
<circle cx="426.694" cy="28.0512" r="2.60096" stroke="yellow" stroke-width="2" fill="none"/>
<circle cx="140.111" cy="29.9099" r="2.58331" stroke="yellow" stroke-width="2" fill="none"/>
<circle cx="140.111" cy="29.9099" r="2.58331" stroke="yellow" stroke-width="2" fill="none"/>
<circle cx="134.335" cy="35.9609" r="2.72854" stroke="yellow" stroke-width="2" fill="none"/>
<circle cx="134.335" cy="35.9609" r="2.72854" stroke="yellow" stroke-width="2" fill="none"/>
<circle cx="121.492" cy="39.4933" r="2.36522" stroke="yellow" stroke-width="2" fill="none"/>
<circle cx="128.405" cy="41.5922" r="2.42634" stroke="yellow" stroke-width="2" fill="none"/>
<circle cx="128.405" cy="41.5922" r="2.42634" stroke="yellow" stroke-width="2" fill="none"/>
<circle cx="105.525" cy="47.5362" r="2.36342" stroke="yellow" stroke-width="2" fill="none"/>
<circle cx="132.101" cy="48.7174" r="2.75798" stroke="yellow" stroke-width="2" fill="none"/>
<circle cx="346.228" cy="48.867" r="2.48615" stroke="yellow" stroke-width="2" fill="none"/>
<circle cx="346.228" cy="48.867" r="2.48615" stroke="yellow" stroke-width="2" fill="none"/>
<circle cx="99.2851" cy="53.6878" r="2.42585" stroke="yellow" stroke-width="2" fill="none"/>
<circle cx="302.604" cy="53.6275" r="2.42932" stroke="yellow" stroke-width="2" fill="none"/>
<circle cx="125.191" cy="56.0794" r="2.60629" stroke="yellow" stroke-width="2" fill="none"/>
<circle cx="71.815" cy="69.4345" r="2.86689" stroke="yellow" stroke-width="2" fill="none"/>
<circle cx="77.3072" cy="74.9175" r="2.27049" stroke="yellow" stroke-width="2" fill="none"/>
<circle cx="13.1838" cy="81.8552" r="2.34619" stroke="yellow" stroke-width="2" fill="none"/>
<circle cx="68.6116" cy="83.6298" r="2.4069" stroke="yellow" stroke-width="2" fill="none"/>
<circle cx="68.6116" cy="83.6298" r="2.4069" stroke="yellow" stroke-width="2" fill="none"/>
<circle cx="74.4659" cy="86.5361" r="2.17618" stroke="yellow" stroke-width="2" fill="none"/>
<circle cx="63.6888" cy="88.4688" r="2.24181" stroke="yellow" stroke-width="2" fill="none"/>
<circle cx="63.6888" cy="88.4688" r="2.24181" stroke="yellow" stroke-width="2" fill="none"/>
<circle cx="450.354" cy="95.061" r="2.43625" stroke="yellow" stroke-width="2" fill="none"/>
<circle cx="183.79" cy="96.2685" r="2.37303" stroke="yellow" stroke-width="2" fill="none"/>
<circle cx="327.486" cy="102.712" r="2.71325" stroke="yellow" stroke-width="2" fill="none"/>
<circle cx="432.5" cy="102.889" r="2.33498" stroke="yellow" stroke-width="2" fill="none"/>
<circle cx="206.141" cy="104.754" r="2.90448" stroke="yellow" stroke-width="2" fill="none"/>
<circle cx="250.836" cy="108.518" r="2.20521" stroke="yellow" stroke-width="2" fill="none"/>
<circle cx="302.614" cy="108.256" r="2.53787" stroke="yellow" stroke-width="2" fill="none"/>
<circle cx="497.114" cy="111.76" r="2.84776" stroke="yellow" stroke-width="2" fill="none"/>
<circle cx="488.782" cy="114.418" r="2.42798" stroke="yellow" stroke-width="2" fill="none"/>
<circle cx="310.012" cy="130.086" r="2.31547" stroke="yellow" stroke-width="2" fill="none"/>
<circle cx="320.016" cy="129.975" r="2.57186" stroke="yellow" stroke-width="2" fill="none"/>
<circle cx="293.708" cy="135.451" r="2.43506" stroke="yellow" stroke-width="2" fill="none"/>
<circle cx="431.829" cy="148.853" r="2.56754" stroke="yellow" stroke-width="2" fill="none"/>
<circle cx="398.165" cy="159.243" r="2.58987" stroke="yellow" stroke-width="2" fill="none"/>
<circle cx="383.404" cy="161.493" r="2.55246" stroke="yellow" stroke-width="2" fill="none"/>
<circle cx="473.674" cy="160.752" r="2.6248" stroke="yellow" stroke-width="2" fill="none"/>
<circle cx="388.08" cy="168.068" r="2.63199" stroke="yellow" stroke-width="2" fill="none"/>
<circle cx="261.594" cy="169.538" r="2.43674" stroke="yellow" stroke-width="2" fill="none"/>
<circle cx="172.223" cy="173.951" r="2.36759" stroke="yellow" stroke-width="2" fill="none"/>
<circle cx="280" cy="177.369" r="2.65974" stroke="yellow" stroke-width="2" fill="none"/>
<circle cx="388.295" cy="177.044" r="2.66161" stroke="yellow" stroke-width="2" fill="none"/>
<circle cx="345.641" cy="185.274" r="2.11064" stroke="yellow" stroke-width="2" fill="none"/>
<circle cx="345.641" cy="185.274" r="2.11064" stroke="yellow" stroke-width="2" fill="none"/>
<circle cx="385.99" cy="192.57" r="2.69929" stroke="yellow" stroke-width="2" fill="none"/>
<circle cx="191.627" cy="193.846" r="2.54121" stroke="yellow" stroke-width="2" fill="none"/>
<circle cx="368.306" cy="198.223" r="2.26484" stroke="yellow" stroke-width="2" fill="none"/>
<circle cx="380.603" cy="198.479" r="2.24537" stroke="yellow" stroke-width="2" fill="none"/>
<circle cx="301.811" cy="209.585" r="2.5677" stroke="yellow" stroke-width="2" fill="none"/>
<circle cx="175.231" cy="213.476" r="2.77843" stroke="yellow" stroke-width="2" fill="none"/>
<circle cx="200.908" cy="219.291" r="2.37585" stroke="yellow" stroke-width="2" fill="none"/>
<circle cx="299.535" cy="225.733" r="2.36024" stroke="yellow" stroke-width="2" fill="none"/>
<circle cx="299.535" cy="225.733" r="2.36024" stroke="yellow" stroke-width="2" fill="none"/>
<circle cx="38.33" cy="231.029" r="2.25861" stroke="yellow" stroke-width="2" fill="none"/>
<circle cx="143.05" cy="242.892" r="2.30645" stroke="yellow" stroke-width="2" fill="none"/>
<circle cx="126.732" cy="247.97" r="2.41625" stroke="yellow" stroke-width="2" fill="none"/>
<circle cx="223.427" cy="257.321" r="2.50587" stroke="yellow" stroke-width="2" fill="none"/>
<circle cx="332.576" cy="272.455" r="2.68418" stroke="yellow" stroke-width="2" fill="none"/>
<circle cx="563.329" cy="272.866" r="2.45107" stroke="yellow" stroke-width="2" fill="none"/>
<circle cx="260.435" cy="276.039" r="2.75038" stroke="yellow" stroke-width="2" fill="none"/>
<circle cx="255.059" cy="282.3" r="2.68391" stroke="yellow" stroke-width="2" fill="none"/>
<circle cx="389.97" cy="291.627" r="2.62761" stroke="yellow" stroke-width="2" fill="none"/>
<circle cx="415.249" cy="301.94" r="2.67226" stroke="yellow" stroke-width="2" fill="none"/>
<circle cx="242.672" cy="303.724" r="2.32409" stroke="yellow" stroke-width="2" fill="none"/>
<circle cx="265.902" cy="303.936" r="2.58378" stroke="yellow" stroke-width="2" fill="none"/>
<circle cx="258.971" cy="305.587" r="2.54784" stroke="yellow" stroke-width="2" fill="none"/>
<circle cx="258.971" cy="305.587" r="2.54784" stroke="yellow" stroke-width="2" fill="none"/>
<circle cx="337.074" cy="315.445" r="2.73679" stroke="yellow" stroke-width="2" fill="none"/>
<circle cx="337.074" cy="315.445" r="2.73679" stroke="yellow" stroke-width="2" fill="none"/>
<circle cx="291.75" cy="327.373" r="2.32786" stroke="yellow" stroke-width="2" fill="none"/>
<circle cx="218.472" cy="348.494" r="2.5188" stroke="yellow" stroke-width="2" fill="none"/>
<circle cx="466.037" cy="350.881" r="2.31896" stroke="yellow" stroke-width="2" fill="none"/>
<circle cx="466.037" cy="350.881" r="2.31896" stroke="yellow" stroke-width="2" fill="none"/>
<circle cx="134.518" cy="8.59753" r="3.01902" stroke="yellow" stroke-width="2" fill="none"/>
<circle cx="280.919" cy="10.8971" r="3.0782" stroke="yellow" stroke-width="2" fill="none"/>
<circle cx="124.138" cy="47.3476" r="2.96375" stroke="yellow" stroke-width="2" fill="none"/>
<circle cx="124.138" cy="47.3476" r="2.96375" stroke="yellow" stroke-width="2" fill="none"/>
<circle cx="255.208" cy="65.116" r="3.62428" stroke="yellow" stroke-width="2" fill="none"/>
<circle cx="116.353" cy="65.2804" r="2.97005" stroke="yellow" stroke-width="2" fill="none"/>
<circle cx="408.866" cy="70.0363" r="2.92492" stroke="yellow" stroke-width="2" fill="none"/>
<circle cx="547.222" cy="70.5769" r="3.98107" stroke="yellow" stroke-width="2" fill="none"/>
<circle cx="252.019" cy="77.5122" r="3.71407" stroke="yellow" stroke-width="2" fill="none"/>
<circle cx="215.361" cy="109.301" r="2.97989" stroke="yellow" stroke-width="2" fill="none"/>
<circle cx="312.679" cy="108.574" r="3.54869" stroke="yellow" stroke-width="2" fill="none"/>
<circle cx="538.032" cy="121.938" r="3.24465" stroke="yellow" stroke-width="2" fill="none"/>
<circle cx="319.334" cy="129.019" r="2.73886" stroke="yellow" stroke-width="2" fill="none"/>
<circle cx="301.111" cy="131.054" r="3.22217" stroke="yellow" stroke-width="2" fill="none"/>
<circle cx="268.712" cy="135.424" r="3.36661" stroke="yellow" stroke-width="2" fill="none"/>
<circle cx="391.66" cy="139.155" r="3.40318" stroke="yellow" stroke-width="2" fill="none"/>
<circle cx="461.795" cy="145.294" r="3.45392" stroke="yellow" stroke-width="2" fill="none"/>
<circle cx="461.795" cy="145.294" r="3.45392" stroke="yellow" stroke-width="2" fill="none"/>
<circle cx="233.153" cy="149.627" r="3.13501" stroke="yellow" stroke-width="2" fill="none"/>
<circle cx="429.675" cy="156.797" r="3.59104" stroke="yellow" stroke-width="2" fill="none"/>
<circle cx="556.999" cy="158.941" r="3.47096" stroke="yellow" stroke-width="2" fill="none"/>
<circle cx="263.981" cy="159.037" r="3.41823" stroke="yellow" stroke-width="2" fill="none"/>
<circle cx="244.545" cy="172.813" r="3.58092" stroke="yellow" stroke-width="2" fill="none"/>
<circle cx="183.841" cy="179.358" r="3.61208" stroke="yellow" stroke-width="2" fill="none"/>
<circle cx="402.043" cy="180.316" r="3.12733" stroke="yellow" stroke-width="2" fill="none"/>
<circle cx="334.964" cy="181.827" r="2.86086" stroke="yellow" stroke-width="2" fill="none"/>
<circle cx="338.023" cy="192.745" r="3.58571" stroke="yellow" stroke-width="2" fill="none"/>
<circle cx="152.742" cy="209.836" r="3.40222" stroke="yellow" stroke-width="2" fill="none"/>
<circle cx="152.742" cy="209.836" r="3.40222" stroke="yellow" stroke-width="2" fill="none"/>
<circle cx="145.557" cy="213.64" r="3.04705" stroke="yellow" stroke-width="2" fill="none"/>
<circle cx="213.789" cy="215.156" r="2.87107" stroke="yellow" stroke-width="2" fill="none"/>
<circle cx="357.638" cy="215.699" r="3.16682" stroke="yellow" stroke-width="2" fill="none"/>
<circle cx="138.516" cy="217.787" r="2.91572" stroke="yellow" stroke-width="2" fill="none"/>
<circle cx="214.86" cy="230.23" r="3.63186" stroke="yellow" stroke-width="2" fill="none"/>
<circle cx="139.105" cy="231.748" r="2.9431" stroke="yellow" stroke-width="2" fill="none"/>
<circle cx="295.906" cy="238.834" r="3.35041" stroke="yellow" stroke-width="2" fill="none"/>
<circle cx="272.54" cy="248.24" r="2.97193" stroke="yellow" stroke-width="2" fill="none"/>
<circle cx="9.44383" cy="253.806" r="3.31378" stroke="yellow" stroke-width="2" fill="none"/>
<circle cx="163.827" cy="258.631" r="3.10239" stroke="yellow" stroke-width="2" fill="none"/>
<circle cx="289.093" cy="274.48" r="2.92627" stroke="yellow" stroke-width="2" fill="none"/>
<circle cx="385.081" cy="279.241" r="3.18442" stroke="yellow" stroke-width="2" fill="none"/>
<circle cx="385.081" cy="279.241" r="3.18442" stroke="yellow" stroke-width="2" fill="none"/>
<circle cx="228.671" cy="280.275" r="2.80924" stroke="yellow" stroke-width="2" fill="none"/>
<circle cx="332.897" cy="280.467" r="2.97307" stroke="yellow" stroke-width="2" fill="none"/>
<circle cx="335.898" cy="307.029" r="3.12815" stroke="yellow" stroke-width="2" fill="none"/>
<circle cx="256.369" cy="314.332" r="3.05345" stroke="yellow" stroke-width="2" fill="none"/>
<circle cx="256.369" cy="314.332" r="3.05345" stroke="yellow" stroke-width="2" fill="none"/>
<circle cx="336.881" cy="315.664" r="2.78412" stroke="yellow" stroke-width="2" fill="none"/>
<circle cx="565.461" cy="342.486" r="3.29084" stroke="yellow" stroke-width="2" fill="none"/>
<circle cx="461.118" cy="358.923" r="3.37867" stroke="yellow" stroke-width="2" fill="none"/>
<circle cx="325.781" cy="362.323" r="3.36168" stroke="yellow" stroke-width="2" fill="none"/>
<circle cx="551.605" cy="403.435" r="3.48814" stroke="yellow" stroke-width="2" fill="none"/>
<circle cx="433.408" cy="417.044" r="3.57946" stroke="yellow" stroke-width="2" fill="none"/>
<circle cx="16.7548" cy="462.159" r="2.78953" stroke="yellow" stroke-width="2" fill="none"/>
<circle cx="16.7548" cy="462.159" r="2.78953" stroke="yellow" stroke-width="2" fill="none"/>
<circle cx="272.308" cy="14.0903" r="4.01657" stroke="yellow" stroke-width="2" fill="none"/>
<circle cx="106.048" cy="37.6121" r="3.60493" stroke="yellow" stroke-width="2" fill="none"/>
<circle cx="106.573" cy="74.4684" r="3.57656" stroke="yellow" stroke-width="2" fill="none"/>
<circle cx="203.264" cy="75.893" r="3.80088" stroke="yellow" stroke-width="2" fill="none"/>
<circle cx="298.455" cy="99.5059" r="4.20639" stroke="yellow" stroke-width="2" fill="none"/>
<circle cx="428.137" cy="106.327" r="3.93384" stroke="yellow" stroke-width="2" fill="none"/>
<circle cx="254.946" cy="116.203" r="4.0664" stroke="yellow" stroke-width="2" fill="none"/>
<circle cx="313.763" cy="121.135" r="3.95473" stroke="yellow" stroke-width="2" fill="none"/>
<circle cx="267.728" cy="136.043" r="3.67985" stroke="yellow" stroke-width="2" fill="none"/>
<circle cx="432.181" cy="145.551" r="3.74186" stroke="yellow" stroke-width="2" fill="none"/>
<circle cx="195.776" cy="147.04" r="4.76661" stroke="yellow" stroke-width="2" fill="none"/>
<circle cx="429.757" cy="156.695" r="3.68029" stroke="yellow" stroke-width="2" fill="none"/>
<circle cx="383.464" cy="157.858" r="4.19356" stroke="yellow" stroke-width="2" fill="none"/>
<circle cx="244.425" cy="172.799" r="3.62374" stroke="yellow" stroke-width="2" fill="none"/>
<circle cx="131.918" cy="177.846" r="3.96931" stroke="yellow" stroke-width="2" fill="none"/>
<circle cx="183.765" cy="179.472" r="3.62411" stroke="yellow" stroke-width="2" fill="none"/>
<circle cx="316.929" cy="186.231" r="3.89555" stroke="yellow" stroke-width="2" fill="none"/>
<circle cx="338.396" cy="192.768" r="3.60901" stroke="yellow" stroke-width="2" fill="none"/>
<circle cx="152.313" cy="208.897" r="3.64779" stroke="yellow" stroke-width="2" fill="none"/>
<circle cx="369.176" cy="209.05" r="3.78051" stroke="yellow" stroke-width="2" fill="none"/>
<circle cx="164.947" cy="211.449" r="4.33998" stroke="yellow" stroke-width="2" fill="none"/>
<circle cx="324.148" cy="214.464" r="4.00834" stroke="yellow" stroke-width="2" fill="none"/>
<circle cx="467.503" cy="215.944" r="3.85496" stroke="yellow" stroke-width="2" fill="none"/>
<circle cx="222.101" cy="222.419" r="3.78894" stroke="yellow" stroke-width="2" fill="none"/>
<circle cx="154.326" cy="230.511" r="3.78665" stroke="yellow" stroke-width="2" fill="none"/>
<circle cx="214.669" cy="230.505" r="3.73536" stroke="yellow" stroke-width="2" fill="none"/>
<circle cx="557.671" cy="238.126" r="4.2091" stroke="yellow" stroke-width="2" fill="none"/>
<circle cx="557.671" cy="238.126" r="4.2091" stroke="yellow" stroke-width="2" fill="none"/>
<circle cx="134.43" cy="245.14" r="4.66501" stroke="yellow" stroke-width="2" fill="none"/>
<circle cx="219.14" cy="250.108" r="3.56549" stroke="yellow" stroke-width="2" fill="none"/>
<circle cx="338.979" cy="252.927" r="4.36235" stroke="yellow" stroke-width="2" fill="none"/>
<circle cx="396.531" cy="286.087" r="4.14338" stroke="yellow" stroke-width="2" fill="none"/>
<circle cx="345.97" cy="298.548" r="4.33102" stroke="yellow" stroke-width="2" fill="none"/>
<circle cx="345.97" cy="298.548" r="4.33102" stroke="yellow" stroke-width="2" fill="none"/>
<circle cx="203.604" cy="365.408" r="3.781" stroke="yellow" stroke-width="2" fill="none"/>
<circle cx="491.707" cy="429.757" r="3.7482" stroke="yellow" stroke-width="2" fill="none"/>
<circle cx="487.52" cy="439.468" r="4.2475" stroke="yellow" stroke-width="2" fill="none"/>
<circle cx="519.2" cy="444.489" r="4.19455" stroke="yellow" stroke-width="2" fill="none"/>
<circle cx="26.3199" cy="471.433" r="3.83599" stroke="yellow" stroke-width="2" fill="none"/>
<circle cx="164.415" cy="11.2561" r="5.61326" stroke="yellow" stroke-width="2" fill="none"/>
<circle cx="384.711" cy="14.0973" r="5.86625" stroke="yellow" stroke-width="2" fill="none"/>
<circle cx="291.481" cy="37.5629" r="4.99184" stroke="yellow" stroke-width="2" fill="none"/>
<circle cx="400.831" cy="117.839" r="4.59528" stroke="yellow" stroke-width="2" fill="none"/>
<circle cx="252.388" cy="162.467" r="4.97056" stroke="yellow" stroke-width="2" fill="none"/>
<circle cx="363.15" cy="169.671" r="4.97248" stroke="yellow" stroke-width="2" fill="none"/>
<circle cx="380.037" cy="169.993" r="5.34714" stroke="yellow" stroke-width="2" fill="none"/>
<circle cx="314.826" cy="172.554" r="5.42731" stroke="yellow" stroke-width="2" fill="none"/>
<circle cx="351.444" cy="175.218" r="4.77786" stroke="yellow" stroke-width="2" fill="none"/>
<circle cx="389.601" cy="180.486" r="4.84492" stroke="yellow" stroke-width="2" fill="none"/>
<circle cx="139.913" cy="189.745" r="4.73104" stroke="yellow" stroke-width="2" fill="none"/>
<circle cx="471.961" cy="194.221" r="4.91075" stroke="yellow" stroke-width="2" fill="none"/>
<circle cx="134.799" cy="204.048" r="4.9968" stroke="yellow" stroke-width="2" fill="none"/>
<circle cx="505.395" cy="301.195" r="4.76779" stroke="yellow" stroke-width="2" fill="none"/>
<circle cx="414.613" cy="346.247" r="5.23003" stroke="yellow" stroke-width="2" fill="none"/>
<circle cx="215.329" cy="378.869" r="4.81884" stroke="yellow" stroke-width="2" fill="none"/>
<circle cx="521.762" cy="431.657" r="4.81395" stroke="yellow" stroke-width="2" fill="none"/>
<circle cx="524.164" cy="459.38" r="5.3996" stroke="yellow" stroke-width="2" fill="none"/>
<circle cx="127.451" cy="21.5909" r="6.62865" stroke="yellow" stroke-width="2" fill="none"/>
<circle cx="278.616" cy="46.184" r="6.16745" stroke="yellow" stroke-width="2" fill="none"/>
<circle cx="240.307" cy="118.317" r="6.36612" stroke="yellow" stroke-width="2" fill="none"/>
<circle cx="269.463" cy="124.224" r="6.97494" stroke="yellow" stroke-width="2" fill="none"/>
<circle cx="469.128" cy="175.636" r="6.87274" stroke="yellow" stroke-width="2" fill="none"/>
<circle cx="451.276" cy="181.218" r="6.47588" stroke="yellow" stroke-width="2" fill="none"/>
<circle cx="372.906" cy="186.604" r="6.67976" stroke="yellow" stroke-width="2" fill="none"/>
<circle cx="165.386" cy="201.966" r="5.59314" stroke="yellow" stroke-width="2" fill="none"/>
<circle cx="317.959" cy="201.953" r="7.08863" stroke="yellow" stroke-width="2" fill="none"/>
<circle cx="478.833" cy="215.105" r="5.99069" stroke="yellow" stroke-width="2" fill="none"/>
<circle cx="529.079" cy="258.107" r="5.8638" stroke="yellow" stroke-width="2" fill="none"/>
<circle cx="188.968" cy="294.454" r="6.98317" stroke="yellow" stroke-width="2" fill="none"/>
<circle cx="365" cy="306.833" r="7.19958" stroke="yellow" stroke-width="2" fill="none"/>
<circle cx="425.914" cy="306.885" r="7.24141" stroke="yellow" stroke-width="2" fill="none"/>
<circle cx="299.834" cy="311.604" r="5.8463" stroke="yellow" stroke-width="2" fill="none"/>
<circle cx="299.834" cy="311.604" r="5.8463" stroke="yellow" stroke-width="2" fill="none"/>
<circle cx="353.933" cy="323.018" r="6.43397" stroke="yellow" stroke-width="2" fill="none"/>
<circle cx="325.883" cy="323.192" r="6.02959" stroke="yellow" stroke-width="2" fill="none"/>
<circle cx="473.404" cy="362.489" r="6.01612" stroke="yellow" stroke-width="2" fill="none"/>
<circle cx="452.79" cy="402.787" r="6.2647" stroke="yellow" stroke-width="2" fill="none"/>
<circle cx="452.79" cy="402.787" r="6.2647" stroke="yellow" stroke-width="2" fill="none"/>
<circle cx="167.511" cy="406.048" r="6.96088" stroke="yellow" stroke-width="2" fill="none"/>
<circle cx="555.195" cy="63.1242" r="7.66939" stroke="yellow" stroke-width="2" fill="none"/>
<circle cx="493.643" cy="100.208" r="8.56262" stroke="yellow" stroke-width="2" fill="none"/>
<circle cx="293.07" cy="120.641" r="8.35541" stroke="yellow" stroke-width="2" fill="none"/>
<circle cx="293.07" cy="120.641" r="8.35541" stroke="yellow" stroke-width="2" fill="none"/>
<circle cx="269.239" cy="124.387" r="7.04617" stroke="yellow" stroke-width="2" fill="none"/>
<circle cx="332.019" cy="124.023" r="9.00019" stroke="yellow" stroke-width="2" fill="none"/>
<circle cx="560.955" cy="133.273" r="8.42241" stroke="yellow" stroke-width="2" fill="none"/>
<circle cx="229.622" cy="136.037" r="7.83684" stroke="yellow" stroke-width="2" fill="none"/>
<circle cx="180.972" cy="159.614" r="7.90417" stroke="yellow" stroke-width="2" fill="none"/>
<circle cx="23.2839" cy="216.676" r="8.14839" stroke="yellow" stroke-width="2" fill="none"/>
<circle cx="21.0833" cy="256.212" r="8.81433" stroke="yellow" stroke-width="2" fill="none"/>
<circle cx="281.827" cy="263.132" r="8.11283" stroke="yellow" stroke-width="2" fill="none"/>
<circle cx="267.301" cy="287.507" r="8.30589" stroke="yellow" stroke-width="2" fill="none"/>
<circle cx="559.429" cy="306.822" r="7.81356" stroke="yellow" stroke-width="2" fill="none"/>
<circle cx="269.156" cy="323.795" r="7.87604" stroke="yellow" stroke-width="2" fill="none"/>
<circle cx="413.858" cy="418.954" r="7.23285" stroke="yellow" stroke-width="2" fill="none"/>
<circle cx="290.309" cy="71.4585" r="10.9379" stroke="yellow" stroke-width="2" fill="none"/>
<circle cx="430.447" cy="88.048" r="9.58109" stroke="yellow" stroke-width="2" fill="none"/>
<circle cx="192.079" cy="121.845" r="10.3525" stroke="yellow" stroke-width="2" fill="none"/>
<circle cx="189.056" cy="154.825" r="10.5804" stroke="yellow" stroke-width="2" fill="none"/>
<circle cx="31.7166" cy="182.322" r="10.2216" stroke="yellow" stroke-width="2" fill="none"/>
<circle cx="211.768" cy="193.491" r="10.7864" stroke="yellow" stroke-width="2" fill="none"/>
<circle cx="334.821" cy="228.141" r="9.1542" stroke="yellow" stroke-width="2" fill="none"/>
<circle cx="127.365" cy="277.419" r="10.6381" stroke="yellow" stroke-width="2" fill="none"/>
<circle cx="158.141" cy="278.464" r="10.3059" stroke="yellow" stroke-width="2" fill="none"/>
<circle cx="206.625" cy="275.824" r="9.74267" stroke="yellow" stroke-width="2" fill="none"/>
<circle cx="242.969" cy="297.206" r="9.22693" stroke="yellow" stroke-width="2" fill="none"/>
<circle cx="20.0316" cy="434.052" r="10.7443" stroke="yellow" stroke-width="2" fill="none"/>
<circle cx="265.741" cy="31.3776" r="14.297" stroke="yellow" stroke-width="2" fill="none"/>
<circle cx="577.791" cy="44.2672" r="14.8272" stroke="yellow" stroke-width="2" fill="none"/>
<circle cx="577.791" cy="44.2672" r="14.8272" stroke="yellow" stroke-width="2" fill="none"/>
<circle cx="56.2853" cy="107.972" r="14.1426" stroke="yellow" stroke-width="2" fill="none"/>
<circle cx="380.149" cy="134.32" r="13.1813" stroke="yellow" stroke-width="2" fill="none"/>
<circle cx="176.495" cy="189.568" r="12.0337" stroke="yellow" stroke-width="2" fill="none"/>
<circle cx="393.547" cy="205.773" r="11.7549" stroke="yellow" stroke-width="2" fill="none"/>
<circle cx="556.157" cy="306.643" r="11.3557" stroke="yellow" stroke-width="2" fill="none"/>
<circle cx="205.322" cy="313.32" r="12.4781" stroke="yellow" stroke-width="2" fill="none"/>
<circle cx="453.561" cy="335.596" r="15.089" stroke="yellow" stroke-width="2" fill="none"/>
<circle cx="453.561" cy="335.596" r="15.089" stroke="yellow" stroke-width="2" fill="none"/>
<circle cx="349.778" cy="335.898" r="14.1029" stroke="yellow" stroke-width="2" fill="none"/>
<circle cx="542.308" cy="419.37" r="11.9622" stroke="yellow" stroke-width="2" fill="none"/>
<circle cx="581.713" cy="40.7373" r="15.5747" stroke="yellow" stroke-width="2" fill="none"/>
<circle cx="94.7155" cy="63.1772" r="15.239" stroke="yellow" stroke-width="2" fill="none"/>
<circle cx="94.7155" cy="63.1772" r="15.239" stroke="yellow" stroke-width="2" fill="none"/>
<circle cx="54.8544" cy="108.872" r="14.1802" stroke="yellow" stroke-width="2" fill="none"/>
<circle cx="453.462" cy="115.866" r="16.2041" stroke="yellow" stroke-width="2" fill="none"/>
<circle cx="101.432" cy="323.58" r="18.0517" stroke="yellow" stroke-width="2" fill="none"/>
<circle cx="425.072" cy="369.266" r="16.4651" stroke="yellow" stroke-width="2" fill="none"/>
<circle cx="440.929" cy="201.67" r="20.9066" stroke="yellow" stroke-width="2" fill="none"/>
<circle cx="245.199" cy="254.372" r="19.6024" stroke="yellow" stroke-width="2" fill="none"/>
<circle cx="396.143" cy="317.908" r="17.6944" stroke="yellow" stroke-width="2" fill="none"/>
<circle cx="471.889" cy="339.152" r="19.7243" stroke="yellow" stroke-width="2" fill="none"/>
<circle cx="471.889" cy="339.152" r="19.7243" stroke="yellow" stroke-width="2" fill="none"/>
<circle cx="222.329" cy="145.349" r="23.2961" stroke="yellow" stroke-width="2" fill="none"/>
<circle cx="459.8" cy="275.594" r="27.7854" stroke="yellow" stroke-width="2" fill="none"/>
<circle cx="398.614" cy="248.874" r="31.4388" stroke="yellow" stroke-width="2" fill="none"/>
<circle cx="232.961" cy="21.5227" r="48.6654" stroke="yellow" stroke-width="2" fill="none"/>
<circle cx="477.717" cy="161.781" r="46.4839" stroke="yellow" stroke-width="2" fill="none"/>
<circle cx="79.2492" cy="233.603" r="53.1176" stroke="yellow" stroke-width="2" fill="none"/>
<circle cx="81.9491" cy="232.338" r="56.1713" stroke="yellow" stroke-width="2" fill="none"/>
</svg>