<?xml version="1.0" standalone="yes"?>
<!-- SVG graphic -->
<svg xmlns='http://www.w3.org/2000/svg' xmlns:xlink='http://www.w3.org/1999/xlink'
width="640px" height="480px" preserveAspectRatio="xMinYMin meet" viewBox="0 0 640 480" version="1.1">
<image x="0" y="0" width="640px" height="480px" opacity="1" xlink:href="E:\fengbing\reconstraction\sources\data\et\et003.jpg"/>
<circle cx="562.255" cy="3.01292" r="1.91023" stroke="yellow" stroke-width="2" fill="none"/>
<circle cx="524.641" cy="4.31963" r="2.01745" stroke="yellow" stroke-width="2" fill="none"/>
<circle cx="540.325" cy="4.64313" r="1.8621" stroke="yellow" stroke-width="2" fill="none"/>
<circle cx="566.123" cy="17.3325" r="2.1013" stroke="yellow" stroke-width="2" fill="none"/>
<circle cx="620.106" cy="17.097" r="2.13695" stroke="yellow" stroke-width="2" fill="none"/>
<circle cx="554.689" cy="17.6735" r="1.9026" stroke="yellow" stroke-width="2" fill="none"/>
<circle cx="633.12" cy="46.4891" r="1.90541" stroke="yellow" stroke-width="2" fill="none"/>
<circle cx="562.75" cy="77.6103" r="1.93856" stroke="yellow" stroke-width="2" fill="none"/>
<circle cx="575.083" cy="81.3785" r="1.96955" stroke="yellow" stroke-width="2" fill="none"/>
<circle cx="569.769" cy="84.6827" r="1.99831" stroke="yellow" stroke-width="2" fill="none"/>
<circle cx="574.251" cy="88.885" r="2.12992" stroke="yellow" stroke-width="2" fill="none"/>
<circle cx="595.568" cy="100.042" r="2.23059" stroke="yellow" stroke-width="2" fill="none"/>
<circle cx="592.232" cy="105.981" r="2.23617" stroke="yellow" stroke-width="2" fill="none"/>
<circle cx="321.095" cy="107.86" r="1.91948" stroke="yellow" stroke-width="2" fill="none"/>
<circle cx="157.219" cy="109.652" r="2.23429" stroke="yellow" stroke-width="2" fill="none"/>
<circle cx="601.371" cy="114.844" r="2.16877" stroke="yellow" stroke-width="2" fill="none"/>
<circle cx="247.186" cy="122.226" r="1.91507" stroke="yellow" stroke-width="2" fill="none"/>
<circle cx="132.33" cy="123.326" r="2.34559" stroke="yellow" stroke-width="2" fill="none"/>
<circle cx="386.145" cy="125.59" r="1.78078" stroke="yellow" stroke-width="2" fill="none"/>
<circle cx="158.881" cy="126.995" r="2.15514" stroke="yellow" stroke-width="2" fill="none"/>
<circle cx="620.368" cy="133.872" r="2.11834" stroke="yellow" stroke-width="2" fill="none"/>
<circle cx="224.692" cy="139.031" r="1.78124" stroke="yellow" stroke-width="2" fill="none"/>
<circle cx="252.191" cy="142.944" r="2.06828" stroke="yellow" stroke-width="2" fill="none"/>
<circle cx="479.602" cy="142.997" r="1.93204" stroke="yellow" stroke-width="2" fill="none"/>
<circle cx="626.205" cy="143.954" r="1.88261" stroke="yellow" stroke-width="2" fill="none"/>
<circle cx="452.414" cy="151.15" r="2.08716" stroke="yellow" stroke-width="2" fill="none"/>
<circle cx="411.389" cy="156.91" r="2.24158" stroke="yellow" stroke-width="2" fill="none"/>
<circle cx="361.572" cy="158.9" r="2.2187" stroke="yellow" stroke-width="2" fill="none"/>
<circle cx="109.812" cy="159.964" r="2.01781" stroke="yellow" stroke-width="2" fill="none"/>
<circle cx="216.768" cy="163.296" r="2.29005" stroke="yellow" stroke-width="2" fill="none"/>
<circle cx="294.585" cy="163.522" r="2.52231" stroke="yellow" stroke-width="2" fill="none"/>
<circle cx="409.273" cy="163.772" r="2.13702" stroke="yellow" stroke-width="2" fill="none"/>
<circle cx="423.089" cy="170.625" r="2.43621" stroke="yellow" stroke-width="2" fill="none"/>
<circle cx="185.468" cy="172.52" r="1.87031" stroke="yellow" stroke-width="2" fill="none"/>
<circle cx="357.848" cy="172.732" r="2.01292" stroke="yellow" stroke-width="2" fill="none"/>
<circle cx="211.468" cy="173.928" r="1.89975" stroke="yellow" stroke-width="2" fill="none"/>
<circle cx="226.048" cy="174.893" r="1.92475" stroke="yellow" stroke-width="2" fill="none"/>
<circle cx="192.409" cy="175.778" r="1.87376" stroke="yellow" stroke-width="2" fill="none"/>
<circle cx="192.409" cy="175.778" r="1.87376" stroke="yellow" stroke-width="2" fill="none"/>
<circle cx="237.785" cy="176.557" r="2.16582" stroke="yellow" stroke-width="2" fill="none"/>
<circle cx="209.25" cy="179.581" r="1.79116" stroke="yellow" stroke-width="2" fill="none"/>
<circle cx="467.159" cy="178.553" r="1.83766" stroke="yellow" stroke-width="2" fill="none"/>
<circle cx="471.897" cy="181.097" r="1.79663" stroke="yellow" stroke-width="2" fill="none"/>
<circle cx="195.545" cy="182.313" r="1.90031" stroke="yellow" stroke-width="2" fill="none"/>
<circle cx="238.567" cy="186.366" r="1.88627" stroke="yellow" stroke-width="2" fill="none"/>
<circle cx="188.45" cy="189.47" r="1.84315" stroke="yellow" stroke-width="2" fill="none"/>
<circle cx="329.663" cy="194.844" r="2.07639" stroke="yellow" stroke-width="2" fill="none"/>
<circle cx="564.551" cy="202.085" r="1.83379" stroke="yellow" stroke-width="2" fill="none"/>
<circle cx="564.551" cy="202.085" r="1.83379" stroke="yellow" stroke-width="2" fill="none"/>
<circle cx="262.305" cy="205.331" r="1.97727" stroke="yellow" stroke-width="2" fill="none"/>
<circle cx="280.27" cy="205.016" r="2.01585" stroke="yellow" stroke-width="2" fill="none"/>
<circle cx="448.037" cy="206.414" r="1.96532" stroke="yellow" stroke-width="2" fill="none"/>
<circle cx="273.526" cy="208.367" r="1.93408" stroke="yellow" stroke-width="2" fill="none"/>
<circle cx="523.715" cy="209.298" r="2.01113" stroke="yellow" stroke-width="2" fill="none"/>
<circle cx="174.725" cy="211.373" r="1.80083" stroke="yellow" stroke-width="2" fill="none"/>
<circle cx="244.205" cy="212.389" r="2.2045" stroke="yellow" stroke-width="2" fill="none"/>
<circle cx="386.719" cy="214.237" r="2.09519" stroke="yellow" stroke-width="2" fill="none"/>
<circle cx="178.632" cy="220.21" r="1.8972" stroke="yellow" stroke-width="2" fill="none"/>
<circle cx="386.399" cy="219.529" r="1.93901" stroke="yellow" stroke-width="2" fill="none"/>
<circle cx="62.7934" cy="225.164" r="1.90636" stroke="yellow" stroke-width="2" fill="none"/>
<circle cx="593.454" cy="226.601" r="1.82963" stroke="yellow" stroke-width="2" fill="none"/>
<circle cx="593.454" cy="226.601" r="1.82963" stroke="yellow" stroke-width="2" fill="none"/>
<circle cx="4.93045" cy="228.495" r="2.09721" stroke="yellow" stroke-width="2" fill="none"/>
<circle cx="66.3256" cy="230.165" r="2.12107" stroke="yellow" stroke-width="2" fill="none"/>
<circle cx="66.3256" cy="230.165" r="2.12107" stroke="yellow" stroke-width="2" fill="none"/>
<circle cx="158.806" cy="232.92" r="2.14879" stroke="yellow" stroke-width="2" fill="none"/>
<circle cx="125.884" cy="235.195" r="2.04498" stroke="yellow" stroke-width="2" fill="none"/>
<circle cx="132.231" cy="236.147" r="2.07676" stroke="yellow" stroke-width="2" fill="none"/>
<circle cx="86.6123" cy="238.053" r="1.87378" stroke="yellow" stroke-width="2" fill="none"/>
<circle cx="86.6123" cy="238.053" r="1.87378" stroke="yellow" stroke-width="2" fill="none"/>
<circle cx="317.846" cy="238.656" r="1.78656" stroke="yellow" stroke-width="2" fill="none"/>
<circle cx="63.7688" cy="240.853" r="2.093" stroke="yellow" stroke-width="2" fill="none"/>
<circle cx="63.7688" cy="240.853" r="2.093" stroke="yellow" stroke-width="2" fill="none"/>
<circle cx="56.4092" cy="247.519" r="1.86151" stroke="yellow" stroke-width="2" fill="none"/>
<circle cx="332.553" cy="252.493" r="1.9967" stroke="yellow" stroke-width="2" fill="none"/>
<circle cx="298.801" cy="256.193" r="1.90613" stroke="yellow" stroke-width="2" fill="none"/>
<circle cx="93.6347" cy="259.09" r="1.94173" stroke="yellow" stroke-width="2" fill="none"/>
<circle cx="57.5013" cy="266.09" r="2.07323" stroke="yellow" stroke-width="2" fill="none"/>
<circle cx="57.5013" cy="266.09" r="2.07323" stroke="yellow" stroke-width="2" fill="none"/>
<circle cx="105.586" cy="266.099" r="2.19977" stroke="yellow" stroke-width="2" fill="none"/>
<circle cx="144.21" cy="265.69" r="2.09065" stroke="yellow" stroke-width="2" fill="none"/>
<circle cx="574.864" cy="270.397" r="2.16987" stroke="yellow" stroke-width="2" fill="none"/>
<circle cx="51.4247" cy="270.541" r="1.92432" stroke="yellow" stroke-width="2" fill="none"/>
<circle cx="572.157" cy="275.683" r="1.87562" stroke="yellow" stroke-width="2" fill="none"/>
<circle cx="82.1814" cy="276.477" r="1.82273" stroke="yellow" stroke-width="2" fill="none"/>
<circle cx="105.696" cy="276.822" r="1.88859" stroke="yellow" stroke-width="2" fill="none"/>
<circle cx="113.884" cy="277.323" r="2.06911" stroke="yellow" stroke-width="2" fill="none"/>
<circle cx="567.173" cy="279.152" r="1.97736" stroke="yellow" stroke-width="2" fill="none"/>
<circle cx="52.8919" cy="286.221" r="1.97033" stroke="yellow" stroke-width="2" fill="none"/>
<circle cx="45.7882" cy="291.639" r="1.88278" stroke="yellow" stroke-width="2" fill="none"/>
<circle cx="45.7882" cy="291.639" r="1.88278" stroke="yellow" stroke-width="2" fill="none"/>
<circle cx="257.956" cy="303.077" r="1.97274" stroke="yellow" stroke-width="2" fill="none"/>
<circle cx="47.7581" cy="309.062" r="2.03932" stroke="yellow" stroke-width="2" fill="none"/>
<circle cx="252.425" cy="314.935" r="2.02595" stroke="yellow" stroke-width="2" fill="none"/>
<circle cx="261.408" cy="314.712" r="2.02" stroke="yellow" stroke-width="2" fill="none"/>
<circle cx="40.5174" cy="315.029" r="1.86916" stroke="yellow" stroke-width="2" fill="none"/>
<circle cx="261.73" cy="320.161" r="2.15063" stroke="yellow" stroke-width="2" fill="none"/>
<circle cx="196.372" cy="329.695" r="2.00878" stroke="yellow" stroke-width="2" fill="none"/>
<circle cx="237.114" cy="330.016" r="2.19409" stroke="yellow" stroke-width="2" fill="none"/>
<circle cx="64.1672" cy="331.209" r="1.897" stroke="yellow" stroke-width="2" fill="none"/>
<circle cx="366.281" cy="333.925" r="2.24432" stroke="yellow" stroke-width="2" fill="none"/>
<circle cx="41.0831" cy="334.561" r="1.80491" stroke="yellow" stroke-width="2" fill="none"/>
<circle cx="41.0831" cy="334.561" r="1.80491" stroke="yellow" stroke-width="2" fill="none"/>
<circle cx="207.394" cy="335.527" r="2.66173" stroke="yellow" stroke-width="2" fill="none"/>
<circle cx="557.637" cy="343.049" r="2.1334" stroke="yellow" stroke-width="2" fill="none"/>
<circle cx="51.9178" cy="353.568" r="2.24309" stroke="yellow" stroke-width="2" fill="none"/>
<circle cx="509.36" cy="367.003" r="1.78789" stroke="yellow" stroke-width="2" fill="none"/>
<circle cx="265.844" cy="370.65" r="1.91571" stroke="yellow" stroke-width="2" fill="none"/>
<circle cx="498.99" cy="371.671" r="2.10387" stroke="yellow" stroke-width="2" fill="none"/>
<circle cx="230.381" cy="376.513" r="1.82762" stroke="yellow" stroke-width="2" fill="none"/>
<circle cx="311.83" cy="377.335" r="1.84375" stroke="yellow" stroke-width="2" fill="none"/>
<circle cx="175.108" cy="379.88" r="2.13279" stroke="yellow" stroke-width="2" fill="none"/>
<circle cx="233.46" cy="381.392" r="2.08979" stroke="yellow" stroke-width="2" fill="none"/>
<circle cx="171.541" cy="386.426" r="1.76941" stroke="yellow" stroke-width="2" fill="none"/>
<circle cx="236.611" cy="387.183" r="2.05969" stroke="yellow" stroke-width="2" fill="none"/>
<circle cx="166.973" cy="390.235" r="1.991" stroke="yellow" stroke-width="2" fill="none"/>
<circle cx="306.439" cy="391.323" r="2.29863" stroke="yellow" stroke-width="2" fill="none"/>
<circle cx="180.127" cy="391.579" r="2.19295" stroke="yellow" stroke-width="2" fill="none"/>
<circle cx="180.127" cy="391.579" r="2.19295" stroke="yellow" stroke-width="2" fill="none"/>
<circle cx="301.624" cy="398.723" r="1.92171" stroke="yellow" stroke-width="2" fill="none"/>
<circle cx="511.159" cy="398.611" r="2.04295" stroke="yellow" stroke-width="2" fill="none"/>
<circle cx="135.669" cy="403.9" r="1.91392" stroke="yellow" stroke-width="2" fill="none"/>
<circle cx="135.669" cy="403.9" r="1.91392" stroke="yellow" stroke-width="2" fill="none"/>
<circle cx="179.496" cy="403.749" r="2.05299" stroke="yellow" stroke-width="2" fill="none"/>
<circle cx="250.488" cy="419.059" r="2.5229" stroke="yellow" stroke-width="2" fill="none"/>
<circle cx="472.235" cy="420.179" r="2.0303" stroke="yellow" stroke-width="2" fill="none"/>
<circle cx="475.776" cy="429.201" r="2.26808" stroke="yellow" stroke-width="2" fill="none"/>
<circle cx="207.626" cy="431.188" r="1.83773" stroke="yellow" stroke-width="2" fill="none"/>
<circle cx="194.117" cy="436.446" r="1.99472" stroke="yellow" stroke-width="2" fill="none"/>
<circle cx="417.098" cy="448.971" r="2.21467" stroke="yellow" stroke-width="2" fill="none"/>
<circle cx="118.461" cy="452.964" r="2.28948" stroke="yellow" stroke-width="2" fill="none"/>
<circle cx="69.0052" cy="454.167" r="2.11807" stroke="yellow" stroke-width="2" fill="none"/>
<circle cx="481.158" cy="454.687" r="1.98103" stroke="yellow" stroke-width="2" fill="none"/>
<circle cx="423.988" cy="457.593" r="2.178" stroke="yellow" stroke-width="2" fill="none"/>
<circle cx="424.983" cy="466.47" r="1.98611" stroke="yellow" stroke-width="2" fill="none"/>
<circle cx="444.588" cy="472.341" r="1.73993" stroke="yellow" stroke-width="2" fill="none"/>
<circle cx="455.747" cy="477.118" r="2.2175" stroke="yellow" stroke-width="2" fill="none"/>
<circle cx="401.047" cy="39.8395" r="2.32916" stroke="yellow" stroke-width="2" fill="none"/>
<circle cx="563.828" cy="60.1556" r="2.5371" stroke="yellow" stroke-width="2" fill="none"/>
<circle cx="558.892" cy="65.3803" r="2.558" stroke="yellow" stroke-width="2" fill="none"/>
<circle cx="557.626" cy="81.9307" r="2.85683" stroke="yellow" stroke-width="2" fill="none"/>
<circle cx="557.626" cy="81.9307" r="2.85683" stroke="yellow" stroke-width="2" fill="none"/>
<circle cx="213.194" cy="105.674" r="2.80394" stroke="yellow" stroke-width="2" fill="none"/>
<circle cx="596.154" cy="110.004" r="2.27327" stroke="yellow" stroke-width="2" fill="none"/>
<circle cx="576.014" cy="111.359" r="2.86775" stroke="yellow" stroke-width="2" fill="none"/>
<circle cx="227.181" cy="115.531" r="2.44106" stroke="yellow" stroke-width="2" fill="none"/>
<circle cx="613.848" cy="117.809" r="2.62765" stroke="yellow" stroke-width="2" fill="none"/>
<circle cx="583.932" cy="119.405" r="2.33236" stroke="yellow" stroke-width="2" fill="none"/>
<circle cx="607.056" cy="120.862" r="2.3896" stroke="yellow" stroke-width="2" fill="none"/>
<circle cx="419.849" cy="125.852" r="2.6034" stroke="yellow" stroke-width="2" fill="none"/>
<circle cx="615.123" cy="128.103" r="2.67751" stroke="yellow" stroke-width="2" fill="none"/>
<circle cx="628.284" cy="130.81" r="2.59285" stroke="yellow" stroke-width="2" fill="none"/>
<circle cx="625.094" cy="137.472" r="2.28299" stroke="yellow" stroke-width="2" fill="none"/>
<circle cx="403.338" cy="138.857" r="2.8218" stroke="yellow" stroke-width="2" fill="none"/>
<circle cx="493.205" cy="142.362" r="2.36765" stroke="yellow" stroke-width="2" fill="none"/>
<circle cx="302.248" cy="146.137" r="2.27062" stroke="yellow" stroke-width="2" fill="none"/>
<circle cx="324.194" cy="147.348" r="2.31988" stroke="yellow" stroke-width="2" fill="none"/>
<circle cx="446.355" cy="148.167" r="2.4815" stroke="yellow" stroke-width="2" fill="none"/>
<circle cx="446.355" cy="148.167" r="2.4815" stroke="yellow" stroke-width="2" fill="none"/>
<circle cx="170.446" cy="160.056" r="2.41289" stroke="yellow" stroke-width="2" fill="none"/>
<circle cx="250.345" cy="166.514" r="2.57626" stroke="yellow" stroke-width="2" fill="none"/>
<circle cx="388.678" cy="168.285" r="2.26539" stroke="yellow" stroke-width="2" fill="none"/>
<circle cx="198.162" cy="171.061" r="2.56292" stroke="yellow" stroke-width="2" fill="none"/>
<circle cx="250.65" cy="174.559" r="2.46146" stroke="yellow" stroke-width="2" fill="none"/>
<circle cx="404.969" cy="174.001" r="2.72676" stroke="yellow" stroke-width="2" fill="none"/>
<circle cx="185.534" cy="179.312" r="2.75865" stroke="yellow" stroke-width="2" fill="none"/>
<circle cx="247.487" cy="181.494" r="2.40562" stroke="yellow" stroke-width="2" fill="none"/>
<circle cx="199.413" cy="184.949" r="2.39917" stroke="yellow" stroke-width="2" fill="none"/>
<circle cx="378.831" cy="186.322" r="2.66354" stroke="yellow" stroke-width="2" fill="none"/>
<circle cx="249.21" cy="189.116" r="2.48585" stroke="yellow" stroke-width="2" fill="none"/>
<circle cx="300.955" cy="195.504" r="2.68987" stroke="yellow" stroke-width="2" fill="none"/>
<circle cx="300.955" cy="195.504" r="2.68987" stroke="yellow" stroke-width="2" fill="none"/>
<circle cx="516.304" cy="207.308" r="2.49755" stroke="yellow" stroke-width="2" fill="none"/>
<circle cx="209.029" cy="213.903" r="2.4335" stroke="yellow" stroke-width="2" fill="none"/>
<circle cx="7.01319" cy="218.083" r="2.60742" stroke="yellow" stroke-width="2" fill="none"/>
<circle cx="300.328" cy="229.391" r="2.73792" stroke="yellow" stroke-width="2" fill="none"/>
<circle cx="190.548" cy="230.597" r="2.78263" stroke="yellow" stroke-width="2" fill="none"/>
<circle cx="268.306" cy="231.162" r="2.74301" stroke="yellow" stroke-width="2" fill="none"/>
<circle cx="445.306" cy="230.66" r="2.59446" stroke="yellow" stroke-width="2" fill="none"/>
<circle cx="315.401" cy="234.228" r="2.39368" stroke="yellow" stroke-width="2" fill="none"/>
<circle cx="193.694" cy="237.444" r="2.41551" stroke="yellow" stroke-width="2" fill="none"/>
<circle cx="193.694" cy="237.444" r="2.41551" stroke="yellow" stroke-width="2" fill="none"/>
<circle cx="443.783" cy="237.136" r="2.46094" stroke="yellow" stroke-width="2" fill="none"/>
<circle cx="184.337" cy="238.25" r="2.57137" stroke="yellow" stroke-width="2" fill="none"/>
<circle cx="84.4854" cy="249.048" r="2.40519" stroke="yellow" stroke-width="2" fill="none"/>
<circle cx="379.278" cy="251.939" r="2.56168" stroke="yellow" stroke-width="2" fill="none"/>
<circle cx="492.127" cy="258.282" r="2.40345" stroke="yellow" stroke-width="2" fill="none"/>
<circle cx="585.578" cy="257.976" r="2.58691" stroke="yellow" stroke-width="2" fill="none"/>
<circle cx="109.036" cy="271.905" r="2.31987" stroke="yellow" stroke-width="2" fill="none"/>
<circle cx="574.737" cy="270.403" r="2.11264" stroke="yellow" stroke-width="2" fill="none"/>
<circle cx="366.743" cy="276.261" r="2.3378" stroke="yellow" stroke-width="2" fill="none"/>
<circle cx="43.5897" cy="277.646" r="2.85521" stroke="yellow" stroke-width="2" fill="none"/>
<circle cx="94.9054" cy="300.566" r="2.30338" stroke="yellow" stroke-width="2" fill="none"/>
<circle cx="42.8707" cy="305.294" r="2.32619" stroke="yellow" stroke-width="2" fill="none"/>
<circle cx="42.8707" cy="305.294" r="2.32619" stroke="yellow" stroke-width="2" fill="none"/>
<circle cx="588.614" cy="304.86" r="2.62128" stroke="yellow" stroke-width="2" fill="none"/>
<circle cx="101.769" cy="305.867" r="2.4129" stroke="yellow" stroke-width="2" fill="none"/>
<circle cx="47.4477" cy="309.952" r="2.27207" stroke="yellow" stroke-width="2" fill="none"/>
<circle cx="589.9" cy="313.902" r="2.78111" stroke="yellow" stroke-width="2" fill="none"/>
<circle cx="45.0904" cy="318.684" r="2.41752" stroke="yellow" stroke-width="2" fill="none"/>
<circle cx="45.0904" cy="318.684" r="2.41752" stroke="yellow" stroke-width="2" fill="none"/>
<circle cx="42.8394" cy="326.976" r="2.39324" stroke="yellow" stroke-width="2" fill="none"/>
<circle cx="42.8394" cy="326.976" r="2.39324" stroke="yellow" stroke-width="2" fill="none"/>
<circle cx="426.974" cy="333.414" r="2.53771" stroke="yellow" stroke-width="2" fill="none"/>
<circle cx="174.321" cy="334.841" r="2.40661" stroke="yellow" stroke-width="2" fill="none"/>
<circle cx="235.498" cy="336.276" r="2.64395" stroke="yellow" stroke-width="2" fill="none"/>
<circle cx="247.999" cy="336.313" r="2.66248" stroke="yellow" stroke-width="2" fill="none"/>
<circle cx="247.999" cy="336.313" r="2.66248" stroke="yellow" stroke-width="2" fill="none"/>
<circle cx="420.691" cy="336.688" r="2.6246" stroke="yellow" stroke-width="2" fill="none"/>
<circle cx="599.225" cy="339.418" r="2.39544" stroke="yellow" stroke-width="2" fill="none"/>
<circle cx="230.692" cy="342.903" r="2.56793" stroke="yellow" stroke-width="2" fill="none"/>
<circle cx="245.272" cy="343.34" r="2.58955" stroke="yellow" stroke-width="2" fill="none"/>
<circle cx="273.234" cy="342.536" r="2.28405" stroke="yellow" stroke-width="2" fill="none"/>
<circle cx="39.8887" cy="348.474" r="2.71567" stroke="yellow" stroke-width="2" fill="none"/>
<circle cx="39.8887" cy="348.474" r="2.71567" stroke="yellow" stroke-width="2" fill="none"/>
<circle cx="276.704" cy="351.081" r="2.49142" stroke="yellow" stroke-width="2" fill="none"/>
<circle cx="276.704" cy="351.081" r="2.49142" stroke="yellow" stroke-width="2" fill="none"/>
<circle cx="87.4721" cy="352.499" r="2.27086" stroke="yellow" stroke-width="2" fill="none"/>
<circle cx="260.06" cy="364.396" r="2.5156" stroke="yellow" stroke-width="2" fill="none"/>
<circle cx="260.06" cy="364.396" r="2.5156" stroke="yellow" stroke-width="2" fill="none"/>
<circle cx="224.067" cy="372.506" r="2.70447" stroke="yellow" stroke-width="2" fill="none"/>
<circle cx="247.062" cy="377.174" r="2.48791" stroke="yellow" stroke-width="2" fill="none"/>
<circle cx="373.868" cy="379.052" r="2.81529" stroke="yellow" stroke-width="2" fill="none"/>
<circle cx="29.7972" cy="379.578" r="2.27596" stroke="yellow" stroke-width="2" fill="none"/>
<circle cx="280.951" cy="380.852" r="2.39248" stroke="yellow" stroke-width="2" fill="none"/>
<circle cx="288.527" cy="380.547" r="2.35799" stroke="yellow" stroke-width="2" fill="none"/>
<circle cx="165.796" cy="383.836" r="2.88608" stroke="yellow" stroke-width="2" fill="none"/>
<circle cx="510.541" cy="382.056" r="2.42347" stroke="yellow" stroke-width="2" fill="none"/>
<circle cx="198.994" cy="387.452" r="2.58731" stroke="yellow" stroke-width="2" fill="none"/>
<circle cx="529.693" cy="397.199" r="2.55134" stroke="yellow" stroke-width="2" fill="none"/>
<circle cx="529.693" cy="397.199" r="2.55134" stroke="yellow" stroke-width="2" fill="none"/>
<circle cx="518.762" cy="402.376" r="2.29454" stroke="yellow" stroke-width="2" fill="none"/>
<circle cx="206.133" cy="421.405" r="2.79398" stroke="yellow" stroke-width="2" fill="none"/>
<circle cx="77.3151" cy="426.853" r="2.3189" stroke="yellow" stroke-width="2" fill="none"/>
<circle cx="77.3151" cy="426.853" r="2.3189" stroke="yellow" stroke-width="2" fill="none"/>
<circle cx="192.125" cy="430.346" r="2.63589" stroke="yellow" stroke-width="2" fill="none"/>
<circle cx="445.707" cy="452.702" r="2.60724" stroke="yellow" stroke-width="2" fill="none"/>
<circle cx="445.707" cy="452.702" r="2.60724" stroke="yellow" stroke-width="2" fill="none"/>
<circle cx="401.88" cy="453.41" r="2.40816" stroke="yellow" stroke-width="2" fill="none"/>
<circle cx="119.415" cy="465.579" r="2.39353" stroke="yellow" stroke-width="2" fill="none"/>
<circle cx="166.423" cy="468.053" r="2.67124" stroke="yellow" stroke-width="2" fill="none"/>
<circle cx="170.422" cy="473.814" r="2.42369" stroke="yellow" stroke-width="2" fill="none"/>
<circle cx="82.6771" cy="474.525" r="2.27984" stroke="yellow" stroke-width="2" fill="none"/>
<circle cx="82.6771" cy="474.525" r="2.27984" stroke="yellow" stroke-width="2" fill="none"/>
<circle cx="332.064" cy="8.78984" r="3.18047" stroke="yellow" stroke-width="2" fill="none"/>
<circle cx="348" cy="11.4347" r="3.0256" stroke="yellow" stroke-width="2" fill="none"/>
<circle cx="327.296" cy="16.4735" r="3.40389" stroke="yellow" stroke-width="2" fill="none"/>
<circle cx="327.296" cy="16.4735" r="3.40389" stroke="yellow" stroke-width="2" fill="none"/>
<circle cx="480.456" cy="35.1562" r="3.65088" stroke="yellow" stroke-width="2" fill="none"/>
<circle cx="480.456" cy="35.1562" r="3.65088" stroke="yellow" stroke-width="2" fill="none"/>
<circle cx="582.9" cy="34.0769" r="3.46878" stroke="yellow" stroke-width="2" fill="none"/>
<circle cx="417.942" cy="39.0831" r="2.87182" stroke="yellow" stroke-width="2" fill="none"/>
<circle cx="417.942" cy="39.0831" r="2.87182" stroke="yellow" stroke-width="2" fill="none"/>
<circle cx="350.439" cy="55.962" r="2.92536" stroke="yellow" stroke-width="2" fill="none"/>
<circle cx="463.8" cy="58.1144" r="3.46445" stroke="yellow" stroke-width="2" fill="none"/>
<circle cx="549.743" cy="82.5872" r="3.17588" stroke="yellow" stroke-width="2" fill="none"/>
<circle cx="557.949" cy="82.454" r="2.87661" stroke="yellow" stroke-width="2" fill="none"/>
<circle cx="557.949" cy="82.454" r="2.87661" stroke="yellow" stroke-width="2" fill="none"/>
<circle cx="567.914" cy="92.328" r="3.03286" stroke="yellow" stroke-width="2" fill="none"/>
<circle cx="331.539" cy="97.1113" r="3.44913" stroke="yellow" stroke-width="2" fill="none"/>
<circle cx="568.433" cy="102.585" r="3.32325" stroke="yellow" stroke-width="2" fill="none"/>
<circle cx="170.576" cy="114.9" r="3.24932" stroke="yellow" stroke-width="2" fill="none"/>
<circle cx="160.01" cy="116.258" r="3.10268" stroke="yellow" stroke-width="2" fill="none"/>
<circle cx="604.618" cy="117.109" r="2.92181" stroke="yellow" stroke-width="2" fill="none"/>
<circle cx="595.082" cy="118.99" r="3.32112" stroke="yellow" stroke-width="2" fill="none"/>
<circle cx="392.312" cy="121.011" r="3.10357" stroke="yellow" stroke-width="2" fill="none"/>
<circle cx="392.312" cy="121.011" r="3.10357" stroke="yellow" stroke-width="2" fill="none"/>
<circle cx="606.155" cy="129.806" r="3.17893" stroke="yellow" stroke-width="2" fill="none"/>
<circle cx="606.155" cy="129.806" r="3.17893" stroke="yellow" stroke-width="2" fill="none"/>
<circle cx="619.162" cy="142.8" r="3.40943" stroke="yellow" stroke-width="2" fill="none"/>
<circle cx="619.162" cy="142.8" r="3.40943" stroke="yellow" stroke-width="2" fill="none"/>
<circle cx="611.665" cy="147.745" r="3.0353" stroke="yellow" stroke-width="2" fill="none"/>
<circle cx="477.619" cy="150.725" r="3.51826" stroke="yellow" stroke-width="2" fill="none"/>
<circle cx="495.054" cy="152.869" r="3.34538" stroke="yellow" stroke-width="2" fill="none"/>
<circle cx="328.684" cy="163.549" r="3.57848" stroke="yellow" stroke-width="2" fill="none"/>
<circle cx="340.294" cy="163.19" r="3.06319" stroke="yellow" stroke-width="2" fill="none"/>
<circle cx="204.942" cy="165.414" r="3.62183" stroke="yellow" stroke-width="2" fill="none"/>
<circle cx="204.942" cy="165.414" r="3.62183" stroke="yellow" stroke-width="2" fill="none"/>
<circle cx="6.44279" cy="168.198" r="3.19104" stroke="yellow" stroke-width="2" fill="none"/>
<circle cx="172.43" cy="176.244" r="3.08354" stroke="yellow" stroke-width="2" fill="none"/>
<circle cx="174.965" cy="192.956" r="3.34108" stroke="yellow" stroke-width="2" fill="none"/>
<circle cx="278.837" cy="215.443" r="3.62974" stroke="yellow" stroke-width="2" fill="none"/>
<circle cx="310.275" cy="227.664" r="3.4142" stroke="yellow" stroke-width="2" fill="none"/>
<circle cx="310.275" cy="227.664" r="3.4142" stroke="yellow" stroke-width="2" fill="none"/>
<circle cx="211.808" cy="231.274" r="2.85838" stroke="yellow" stroke-width="2" fill="none"/>
<circle cx="232.936" cy="232.816" r="2.87768" stroke="yellow" stroke-width="2" fill="none"/>
<circle cx="277.065" cy="235.286" r="3.08019" stroke="yellow" stroke-width="2" fill="none"/>
<circle cx="306.028" cy="239.169" r="3.50428" stroke="yellow" stroke-width="2" fill="none"/>
<circle cx="66.8308" cy="258.341" r="3.30495" stroke="yellow" stroke-width="2" fill="none"/>
<circle cx="277.999" cy="266.591" r="3.14595" stroke="yellow" stroke-width="2" fill="none"/>
<circle cx="372.656" cy="270.478" r="3.0061" stroke="yellow" stroke-width="2" fill="none"/>
<circle cx="134.635" cy="279.568" r="3.30798" stroke="yellow" stroke-width="2" fill="none"/>
<circle cx="348.578" cy="282.306" r="2.96397" stroke="yellow" stroke-width="2" fill="none"/>
<circle cx="36.5641" cy="298.741" r="3.11604" stroke="yellow" stroke-width="2" fill="none"/>
<circle cx="587.54" cy="304.575" r="2.95047" stroke="yellow" stroke-width="2" fill="none"/>
<circle cx="32.563" cy="311.549" r="3.2981" stroke="yellow" stroke-width="2" fill="none"/>
<circle cx="90.3638" cy="324.098" r="3.46654" stroke="yellow" stroke-width="2" fill="none"/>
<circle cx="502.29" cy="324.396" r="3.21543" stroke="yellow" stroke-width="2" fill="none"/>
<circle cx="512.109" cy="325.081" r="3.27246" stroke="yellow" stroke-width="2" fill="none"/>
<circle cx="512.109" cy="325.081" r="3.27246" stroke="yellow" stroke-width="2" fill="none"/>
<circle cx="70.4644" cy="331.024" r="2.8602" stroke="yellow" stroke-width="2" fill="none"/>
<circle cx="124.509" cy="333.886" r="2.98552" stroke="yellow" stroke-width="2" fill="none"/>
<circle cx="144.9" cy="334.629" r="2.95874" stroke="yellow" stroke-width="2" fill="none"/>
<circle cx="479.57" cy="334.746" r="3.30273" stroke="yellow" stroke-width="2" fill="none"/>
<circle cx="419.987" cy="336.358" r="2.92515" stroke="yellow" stroke-width="2" fill="none"/>
<circle cx="266.927" cy="358.206" r="3.28326" stroke="yellow" stroke-width="2" fill="none"/>
<circle cx="446.727" cy="361.553" r="3.05176" stroke="yellow" stroke-width="2" fill="none"/>
<circle cx="446.727" cy="361.553" r="3.05176" stroke="yellow" stroke-width="2" fill="none"/>
<circle cx="453.875" cy="365.652" r="3.04483" stroke="yellow" stroke-width="2" fill="none"/>
<circle cx="372.12" cy="372.431" r="3.40967" stroke="yellow" stroke-width="2" fill="none"/>
<circle cx="28.5948" cy="371.994" r="3.63722" stroke="yellow" stroke-width="2" fill="none"/>
<circle cx="182.429" cy="373.315" r="3.33149" stroke="yellow" stroke-width="2" fill="none"/>
<circle cx="302.696" cy="380.648" r="3.14286" stroke="yellow" stroke-width="2" fill="none"/>
<circle cx="532.291" cy="385.321" r="3.04025" stroke="yellow" stroke-width="2" fill="none"/>
<circle cx="512.12" cy="388.749" r="3.07625" stroke="yellow" stroke-width="2" fill="none"/>
<circle cx="570.863" cy="391.538" r="3.00844" stroke="yellow" stroke-width="2" fill="none"/>
<circle cx="262.983" cy="397.801" r="3.20016" stroke="yellow" stroke-width="2" fill="none"/>
<circle cx="262.983" cy="397.801" r="3.20016" stroke="yellow" stroke-width="2" fill="none"/>
<circle cx="77.185" cy="401.886" r="3.22918" stroke="yellow" stroke-width="2" fill="none"/>
<circle cx="77.185" cy="401.886" r="3.22918" stroke="yellow" stroke-width="2" fill="none"/>
<circle cx="313.796" cy="403.164" r="3.50382" stroke="yellow" stroke-width="2" fill="none"/>
<circle cx="252.311" cy="418.346" r="3.58019" stroke="yellow" stroke-width="2" fill="none"/>
<circle cx="23.9484" cy="425.263" r="3.31128" stroke="yellow" stroke-width="2" fill="none"/>
<circle cx="23.9484" cy="425.263" r="3.31128" stroke="yellow" stroke-width="2" fill="none"/>
<circle cx="83.015" cy="450.494" r="3.11576" stroke="yellow" stroke-width="2" fill="none"/>
<circle cx="205.182" cy="465.21" r="3.32234" stroke="yellow" stroke-width="2" fill="none"/>
<circle cx="65.3249" cy="471.22" r="3.01079" stroke="yellow" stroke-width="2" fill="none"/>
<circle cx="65.3249" cy="471.22" r="3.01079" stroke="yellow" stroke-width="2" fill="none"/>
<circle cx="56.9792" cy="473.173" r="3.00503" stroke="yellow" stroke-width="2" fill="none"/>
<circle cx="73.6432" cy="472.868" r="3.05805" stroke="yellow" stroke-width="2" fill="none"/>
<circle cx="73.6432" cy="472.868" r="3.05805" stroke="yellow" stroke-width="2" fill="none"/>
<circle cx="595.656" cy="91.6172" r="3.71015" stroke="yellow" stroke-width="2" fill="none"/>
<circle cx="214.51" cy="104.153" r="4.25151" stroke="yellow" stroke-width="2" fill="none"/>
<circle cx="447.561" cy="105.519" r="4.3315" stroke="yellow" stroke-width="2" fill="none"/>
<circle cx="327.392" cy="110.67" r="4.28375" stroke="yellow" stroke-width="2" fill="none"/>
<circle cx="245.513" cy="117.427" r="4.19569" stroke="yellow" stroke-width="2" fill="none"/>
<circle cx="624.457" cy="117.583" r="3.66301" stroke="yellow" stroke-width="2" fill="none"/>
<circle cx="454.706" cy="121.754" r="4.25387" stroke="yellow" stroke-width="2" fill="none"/>
<circle cx="315.604" cy="130.564" r="4.24706" stroke="yellow" stroke-width="2" fill="none"/>
<circle cx="386.018" cy="146.505" r="4.22121" stroke="yellow" stroke-width="2" fill="none"/>
<circle cx="495.458" cy="152.814" r="3.55582" stroke="yellow" stroke-width="2" fill="none"/>
<circle cx="328.76" cy="163.629" r="3.61424" stroke="yellow" stroke-width="2" fill="none"/>
<circle cx="400.066" cy="164.433" r="4.30288" stroke="yellow" stroke-width="2" fill="none"/>
<circle cx="390.752" cy="165.715" r="4.46381" stroke="yellow" stroke-width="2" fill="none"/>
<circle cx="302.008" cy="167.732" r="4.2515" stroke="yellow" stroke-width="2" fill="none"/>
<circle cx="222.158" cy="171.531" r="4.07171" stroke="yellow" stroke-width="2" fill="none"/>
<circle cx="288.586" cy="172.034" r="3.75661" stroke="yellow" stroke-width="2" fill="none"/>
<circle cx="392.803" cy="176.232" r="4.0077" stroke="yellow" stroke-width="2" fill="none"/>
<circle cx="204.725" cy="188.949" r="4.35053" stroke="yellow" stroke-width="2" fill="none"/>
<circle cx="423.417" cy="198.707" r="3.91822" stroke="yellow" stroke-width="2" fill="none"/>
<circle cx="273.756" cy="199.347" r="3.87465" stroke="yellow" stroke-width="2" fill="none"/>
<circle cx="389.123" cy="206.981" r="3.94523" stroke="yellow" stroke-width="2" fill="none"/>
<circle cx="389.123" cy="206.981" r="3.94523" stroke="yellow" stroke-width="2" fill="none"/>
<circle cx="289.501" cy="218.509" r="3.82344" stroke="yellow" stroke-width="2" fill="none"/>
<circle cx="269.634" cy="221.883" r="4.05434" stroke="yellow" stroke-width="2" fill="none"/>
<circle cx="90.3954" cy="229.811" r="3.9126" stroke="yellow" stroke-width="2" fill="none"/>
<circle cx="90.3954" cy="229.811" r="3.9126" stroke="yellow" stroke-width="2" fill="none"/>
<circle cx="120.01" cy="229.264" r="3.70587" stroke="yellow" stroke-width="2" fill="none"/>
<circle cx="491.426" cy="247.569" r="4.07966" stroke="yellow" stroke-width="2" fill="none"/>
<circle cx="437.391" cy="254.175" r="4.28584" stroke="yellow" stroke-width="2" fill="none"/>
<circle cx="437.391" cy="254.175" r="4.28584" stroke="yellow" stroke-width="2" fill="none"/>
<circle cx="443.682" cy="264.627" r="4.14076" stroke="yellow" stroke-width="2" fill="none"/>
<circle cx="97.7741" cy="269.542" r="3.6748" stroke="yellow" stroke-width="2" fill="none"/>
<circle cx="99.7186" cy="279.837" r="3.92388" stroke="yellow" stroke-width="2" fill="none"/>
<circle cx="120.074" cy="307.791" r="4.50496" stroke="yellow" stroke-width="2" fill="none"/>
<circle cx="108.566" cy="334.146" r="3.79236" stroke="yellow" stroke-width="2" fill="none"/>
<circle cx="556.268" cy="345.372" r="3.93743" stroke="yellow" stroke-width="2" fill="none"/>
<circle cx="372.434" cy="374.689" r="4.27691" stroke="yellow" stroke-width="2" fill="none"/>
<circle cx="443.06" cy="376.491" r="3.56464" stroke="yellow" stroke-width="2" fill="none"/>
<circle cx="443.06" cy="376.491" r="3.56464" stroke="yellow" stroke-width="2" fill="none"/>
<circle cx="47.3587" cy="378.451" r="4.05713" stroke="yellow" stroke-width="2" fill="none"/>
<circle cx="456.236" cy="392.339" r="4.18664" stroke="yellow" stroke-width="2" fill="none"/>
<circle cx="456.236" cy="392.339" r="4.18664" stroke="yellow" stroke-width="2" fill="none"/>
<circle cx="263.746" cy="400.143" r="4.41784" stroke="yellow" stroke-width="2" fill="none"/>
<circle cx="263.746" cy="400.143" r="4.41784" stroke="yellow" stroke-width="2" fill="none"/>
<circle cx="305.255" cy="409.128" r="4.17388" stroke="yellow" stroke-width="2" fill="none"/>
<circle cx="612.177" cy="416.585" r="4.3002" stroke="yellow" stroke-width="2" fill="none"/>
<circle cx="473.442" cy="429.598" r="4.46403" stroke="yellow" stroke-width="2" fill="none"/>
<circle cx="27.7931" cy="435.961" r="4.19486" stroke="yellow" stroke-width="2" fill="none"/>
<circle cx="27.7931" cy="435.961" r="4.19486" stroke="yellow" stroke-width="2" fill="none"/>
<circle cx="490.37" cy="447.559" r="3.70644" stroke="yellow" stroke-width="2" fill="none"/>
<circle cx="230.053" cy="460.726" r="4.0239" stroke="yellow" stroke-width="2" fill="none"/>
<circle cx="150.85" cy="467.49" r="3.97726" stroke="yellow" stroke-width="2" fill="none"/>
<circle cx="487.992" cy="60.5286" r="4.8791" stroke="yellow" stroke-width="2" fill="none"/>
<circle cx="318.836" cy="98.5213" r="4.99711" stroke="yellow" stroke-width="2" fill="none"/>
<circle cx="401.482" cy="111.378" r="5.30436" stroke="yellow" stroke-width="2" fill="none"/>
<circle cx="401.482" cy="111.378" r="5.30436" stroke="yellow" stroke-width="2" fill="none"/>
<circle cx="408.247" cy="126.422" r="5.15719" stroke="yellow" stroke-width="2" fill="none"/>
<circle cx="408.247" cy="126.422" r="5.15719" stroke="yellow" stroke-width="2" fill="none"/>
<circle cx="402.886" cy="150.911" r="4.86995" stroke="yellow" stroke-width="2" fill="none"/>
<circle cx="484.47" cy="165.57" r="4.64324" stroke="yellow" stroke-width="2" fill="none"/>
<circle cx="10.2877" cy="190.921" r="4.58756" stroke="yellow" stroke-width="2" fill="none"/>
<circle cx="190.431" cy="195.333" r="5.75695" stroke="yellow" stroke-width="2" fill="none"/>
<circle cx="190.431" cy="195.333" r="5.75695" stroke="yellow" stroke-width="2" fill="none"/>
<circle cx="187.475" cy="209.673" r="4.95443" stroke="yellow" stroke-width="2" fill="none"/>
<circle cx="301.857" cy="216.647" r="4.75224" stroke="yellow" stroke-width="2" fill="none"/>
<circle cx="301.857" cy="216.647" r="4.75224" stroke="yellow" stroke-width="2" fill="none"/>
<circle cx="219.949" cy="236.318" r="4.97916" stroke="yellow" stroke-width="2" fill="none"/>
<circle cx="359.87" cy="244.064" r="5.51289" stroke="yellow" stroke-width="2" fill="none"/>
<circle cx="77.0977" cy="257.439" r="4.60659" stroke="yellow" stroke-width="2" fill="none"/>
<circle cx="142.573" cy="270.38" r="5.17011" stroke="yellow" stroke-width="2" fill="none"/>
<circle cx="292.756" cy="282.298" r="5.35713" stroke="yellow" stroke-width="2" fill="none"/>
<circle cx="364.607" cy="291.144" r="5.3296" stroke="yellow" stroke-width="2" fill="none"/>
<circle cx="256.544" cy="324.818" r="5.40301" stroke="yellow" stroke-width="2" fill="none"/>
<circle cx="588.683" cy="327.897" r="4.67721" stroke="yellow" stroke-width="2" fill="none"/>
<circle cx="272.852" cy="346.65" r="4.93438" stroke="yellow" stroke-width="2" fill="none"/>
<circle cx="63.538" cy="397.151" r="5.19478" stroke="yellow" stroke-width="2" fill="none"/>
<circle cx="185.129" cy="415.258" r="5.49283" stroke="yellow" stroke-width="2" fill="none"/>
<circle cx="548.673" cy="419.958" r="4.90212" stroke="yellow" stroke-width="2" fill="none"/>
<circle cx="548.673" cy="419.958" r="4.90212" stroke="yellow" stroke-width="2" fill="none"/>
<circle cx="80.1076" cy="437.989" r="5.30884" stroke="yellow" stroke-width="2" fill="none"/>
<circle cx="215.815" cy="438.812" r="5.58759" stroke="yellow" stroke-width="2" fill="none"/>
<circle cx="129.844" cy="467.434" r="4.81805" stroke="yellow" stroke-width="2" fill="none"/>
<circle cx="482.698" cy="40.9669" r="6.36554" stroke="yellow" stroke-width="2" fill="none"/>
<circle cx="482.698" cy="40.9669" r="6.36554" stroke="yellow" stroke-width="2" fill="none"/>
<circle cx="145.771" cy="119.041" r="6.16843" stroke="yellow" stroke-width="2" fill="none"/>
<circle cx="236.005" cy="126.564" r="6.81545" stroke="yellow" stroke-width="2" fill="none"/>
<circle cx="18.171" cy="163.23" r="6.01659" stroke="yellow" stroke-width="2" fill="none"/>
<circle cx="304.227" cy="162.921" r="6.72443" stroke="yellow" stroke-width="2" fill="none"/>
<circle cx="409.384" cy="176.179" r="6.12768" stroke="yellow" stroke-width="2" fill="none"/>
<circle cx="176.882" cy="180.668" r="6.0164" stroke="yellow" stroke-width="2" fill="none"/>
<circle cx="512.04" cy="245.354" r="6.10089" stroke="yellow" stroke-width="2" fill="none"/>
<circle cx="173.022" cy="247.582" r="6.52757" stroke="yellow" stroke-width="2" fill="none"/>
<circle cx="349.429" cy="258.588" r="6.01967" stroke="yellow" stroke-width="2" fill="none"/>
<circle cx="156.087" cy="260.924" r="6.2571" stroke="yellow" stroke-width="2" fill="none"/>
<circle cx="120.545" cy="269.2" r="6.71305" stroke="yellow" stroke-width="2" fill="none"/>
<circle cx="220.291" cy="308.88" r="5.56297" stroke="yellow" stroke-width="2" fill="none"/>
<circle cx="106.903" cy="320.578" r="7.17457" stroke="yellow" stroke-width="2" fill="none"/>
<circle cx="12.5971" cy="328.967" r="6.82538" stroke="yellow" stroke-width="2" fill="none"/>
<circle cx="412.531" cy="331.927" r="6.2589" stroke="yellow" stroke-width="2" fill="none"/>
<circle cx="20.3623" cy="351.214" r="6.29671" stroke="yellow" stroke-width="2" fill="none"/>
<circle cx="20.3623" cy="351.214" r="6.29671" stroke="yellow" stroke-width="2" fill="none"/>
<circle cx="36.1173" cy="365.841" r="6.79049" stroke="yellow" stroke-width="2" fill="none"/>
<circle cx="516.698" cy="378.886" r="6.56234" stroke="yellow" stroke-width="2" fill="none"/>
<circle cx="258.866" cy="387.364" r="6.17243" stroke="yellow" stroke-width="2" fill="none"/>
<circle cx="331.129" cy="24.6173" r="7.72891" stroke="yellow" stroke-width="2" fill="none"/>
<circle cx="507.883" cy="63.5272" r="8.10696" stroke="yellow" stroke-width="2" fill="none"/>
<circle cx="325.22" cy="72.165" r="9.07944" stroke="yellow" stroke-width="2" fill="none"/>
<circle cx="431.711" cy="116.306" r="7.40309" stroke="yellow" stroke-width="2" fill="none"/>
<circle cx="236.55" cy="126.716" r="6.53536" stroke="yellow" stroke-width="2" fill="none"/>
<circle cx="441.072" cy="136.979" r="8.24963" stroke="yellow" stroke-width="2" fill="none"/>
<circle cx="377.363" cy="180.092" r="7.96083" stroke="yellow" stroke-width="2" fill="none"/>
<circle cx="488.044" cy="187.765" r="7.96911" stroke="yellow" stroke-width="2" fill="none"/>
<circle cx="251.782" cy="224.979" r="8.17587" stroke="yellow" stroke-width="2" fill="none"/>
<circle cx="290.598" cy="243.656" r="8.72061" stroke="yellow" stroke-width="2" fill="none"/>
<circle cx="121.764" cy="246.041" r="10.9924" stroke="yellow" stroke-width="2" fill="none"/>
<circle cx="300.627" cy="267.294" r="8.06633" stroke="yellow" stroke-width="2" fill="none"/>
<circle cx="300.627" cy="267.294" r="8.06633" stroke="yellow" stroke-width="2" fill="none"/>
<circle cx="336.603" cy="280.991" r="8.03361" stroke="yellow" stroke-width="2" fill="none"/>
<circle cx="16.3537" cy="318.227" r="8.30581" stroke="yellow" stroke-width="2" fill="none"/>
<circle cx="107.865" cy="320.655" r="7.38698" stroke="yellow" stroke-width="2" fill="none"/>
<circle cx="575.064" cy="320.723" r="7.32457" stroke="yellow" stroke-width="2" fill="none"/>
<circle cx="330.533" cy="334.808" r="8.30772" stroke="yellow" stroke-width="2" fill="none"/>
<circle cx="572.471" cy="342.953" r="7.93893" stroke="yellow" stroke-width="2" fill="none"/>
<circle cx="359.504" cy="356.728" r="8.11766" stroke="yellow" stroke-width="2" fill="none"/>
<circle cx="359.504" cy="356.728" r="8.11766" stroke="yellow" stroke-width="2" fill="none"/>
<circle cx="59.4387" cy="361.698" r="8.32801" stroke="yellow" stroke-width="2" fill="none"/>
<circle cx="540.383" cy="360.703" r="7.77514" stroke="yellow" stroke-width="2" fill="none"/>
<circle cx="252.356" cy="363.639" r="7.77431" stroke="yellow" stroke-width="2" fill="none"/>
<circle cx="252.356" cy="363.639" r="7.77431" stroke="yellow" stroke-width="2" fill="none"/>
<circle cx="180.451" cy="392.551" r="8.12161" stroke="yellow" stroke-width="2" fill="none"/>
<circle cx="180.451" cy="392.551" r="8.12161" stroke="yellow" stroke-width="2" fill="none"/>
<circle cx="287.407" cy="393.577" r="8.42904" stroke="yellow" stroke-width="2" fill="none"/>
<circle cx="96.2321" cy="461.78" r="8.51997" stroke="yellow" stroke-width="2" fill="none"/>
<circle cx="96.2321" cy="461.78" r="8.51997" stroke="yellow" stroke-width="2" fill="none"/>
<circle cx="124.849" cy="150.287" r="11.1937" stroke="yellow" stroke-width="2" fill="none"/>
<circle cx="246.497" cy="156.71" r="9.1485" stroke="yellow" stroke-width="2" fill="none"/>
<circle cx="382.995" cy="158.556" r="9.46236" stroke="yellow" stroke-width="2" fill="none"/>
<circle cx="382.995" cy="158.556" r="9.46236" stroke="yellow" stroke-width="2" fill="none"/>
<circle cx="290.312" cy="189.993" r="9.89394" stroke="yellow" stroke-width="2" fill="none"/>
<circle cx="468.334" cy="203.729" r="10.2857" stroke="yellow" stroke-width="2" fill="none"/>
<circle cx="468.334" cy="203.729" r="10.2857" stroke="yellow" stroke-width="2" fill="none"/>
<circle cx="119.28" cy="244.023" r="10.4485" stroke="yellow" stroke-width="2" fill="none"/>
<circle cx="308.999" cy="263.968" r="10.9891" stroke="yellow" stroke-width="2" fill="none"/>
<circle cx="406.185" cy="327.771" r="10.2954" stroke="yellow" stroke-width="2" fill="none"/>
<circle cx="277.887" cy="366.156" r="9.53874" stroke="yellow" stroke-width="2" fill="none"/>
<circle cx="201.639" cy="367.825" r="10.4402" stroke="yellow" stroke-width="2" fill="none"/>
<circle cx="173.428" cy="418.926" r="9.54251" stroke="yellow" stroke-width="2" fill="none"/>
<circle cx="298.407" cy="47.0269" r="13.5716" stroke="yellow" stroke-width="2" fill="none"/>
<circle cx="540.574" cy="60.3177" r="11.5404" stroke="yellow" stroke-width="2" fill="none"/>
<circle cx="102.969" cy="179.603" r="13.4602" stroke="yellow" stroke-width="2" fill="none"/>
<circle cx="439.68" cy="178.775" r="13.6214" stroke="yellow" stroke-width="2" fill="none"/>
<circle cx="548.7" cy="226.242" r="12.5521" stroke="yellow" stroke-width="2" fill="none"/>
<circle cx="372.882" cy="278.082" r="12.6375" stroke="yellow" stroke-width="2" fill="none"/>
<circle cx="268.62" cy="428.088" r="14.3711" stroke="yellow" stroke-width="2" fill="none"/>
<circle cx="293.08" cy="48.7084" r="15.9095" stroke="yellow" stroke-width="2" fill="none"/>
<circle cx="49.9578" cy="136.539" r="15.5656" stroke="yellow" stroke-width="2" fill="none"/>
<circle cx="34.5245" cy="268.122" r="14.6405" stroke="yellow" stroke-width="2" fill="none"/>
<circle cx="324.874" cy="300.776" r="17.492" stroke="yellow" stroke-width="2" fill="none"/>
<circle cx="25.9326" cy="312.999" r="17.2456" stroke="yellow" stroke-width="2" fill="none"/>
<circle cx="271.348" cy="429.781" r="15.2003" stroke="yellow" stroke-width="2" fill="none"/>
<circle cx="193.926" cy="440.356" r="16.4972" stroke="yellow" stroke-width="2" fill="none"/>
<circle cx="334.225" cy="49.9774" r="19.1515" stroke="yellow" stroke-width="2" fill="none"/>
<circle cx="182.214" cy="281.703" r="20.7438" stroke="yellow" stroke-width="2" fill="none"/>
<circle cx="516.563" cy="290.93" r="20.169" stroke="yellow" stroke-width="2" fill="none"/>
<circle cx="45.379" cy="387.919" r="19.7283" stroke="yellow" stroke-width="2" fill="none"/>
<circle cx="468.039" cy="416.924" r="17.7596" stroke="yellow" stroke-width="2" fill="none"/>
<circle cx="467.565" cy="234.64" r="26.8037" stroke="yellow" stroke-width="2" fill="none"/>
<circle cx="244.745" cy="266.35" r="28.6365" stroke="yellow" stroke-width="2" fill="none"/>
<circle cx="242.351" cy="266.385" r="28.2029" stroke="yellow" stroke-width="2" fill="none"/>
<circle cx="553.726" cy="406.689" r="32.6686" stroke="yellow" stroke-width="2" fill="none"/>
<circle cx="261.25" cy="378.051" r="37.1534" stroke="yellow" stroke-width="2" fill="none"/>
<circle cx="512.685" cy="126.675" r="52.2629" stroke="yellow" stroke-width="2" fill="none"/>
<circle cx="175.666" cy="172.043" r="46.3961" stroke="yellow" stroke-width="2" fill="none"/>
<circle cx="175.666" cy="172.043" r="46.3961" stroke="yellow" stroke-width="2" fill="none"/>
<circle cx="437.104" cy="317.717" r="63.8777" stroke="yellow" stroke-width="2" fill="none"/>
</svg>