<?xml version="1.0" standalone="yes"?>
<!-- SVG graphic -->
<svg xmlns='http://www.w3.org/2000/svg' xmlns:xlink='http://www.w3.org/1999/xlink'
width="640px" height="480px" preserveAspectRatio="xMinYMin meet" viewBox="0 0 640 480" version="1.1">
<image x="0" y="0" width="640px" height="480px" opacity="1" xlink:href="E:\fengbing\reconstraction\sources\data\et\et000.jpg"/>
<circle cx="614.123" cy="4.59507" r="1.98453" stroke="yellow" stroke-width="2" fill="none"/>
<circle cx="633.919" cy="17.3474" r="2.24441" stroke="yellow" stroke-width="2" fill="none"/>
<circle cx="445.783" cy="27.7622" r="1.97011" stroke="yellow" stroke-width="2" fill="none"/>
<circle cx="632.253" cy="30.6701" r="1.68264" stroke="yellow" stroke-width="2" fill="none"/>
<circle cx="431.605" cy="43.6658" r="2.03996" stroke="yellow" stroke-width="2" fill="none"/>
<circle cx="548.698" cy="43.8805" r="2.01477" stroke="yellow" stroke-width="2" fill="none"/>
<circle cx="284.847" cy="45.1585" r="2.04673" stroke="yellow" stroke-width="2" fill="none"/>
<circle cx="561.614" cy="47.9836" r="2.03729" stroke="yellow" stroke-width="2" fill="none"/>
<circle cx="556.243" cy="51.4433" r="2.21384" stroke="yellow" stroke-width="2" fill="none"/>
<circle cx="561.069" cy="56.0009" r="2.21232" stroke="yellow" stroke-width="2" fill="none"/>
<circle cx="534.97" cy="56.6891" r="1.73674" stroke="yellow" stroke-width="2" fill="none"/>
<circle cx="292.089" cy="63.0046" r="1.80619" stroke="yellow" stroke-width="2" fill="none"/>
<circle cx="569.427" cy="64.5176" r="1.91139" stroke="yellow" stroke-width="2" fill="none"/>
<circle cx="279.863" cy="66.198" r="2.02479" stroke="yellow" stroke-width="2" fill="none"/>
<circle cx="583.057" cy="67.5385" r="2.18924" stroke="yellow" stroke-width="2" fill="none"/>
<circle cx="410.695" cy="80.1026" r="2.14945" stroke="yellow" stroke-width="2" fill="none"/>
<circle cx="145.754" cy="90.033" r="1.91258" stroke="yellow" stroke-width="2" fill="none"/>
<circle cx="164.442" cy="99.1487" r="2.21552" stroke="yellow" stroke-width="2" fill="none"/>
<circle cx="214.15" cy="99.9979" r="2.26507" stroke="yellow" stroke-width="2" fill="none"/>
<circle cx="230.813" cy="102.548" r="2.28935" stroke="yellow" stroke-width="2" fill="none"/>
<circle cx="609.307" cy="103.037" r="2.25543" stroke="yellow" stroke-width="2" fill="none"/>
<circle cx="371.693" cy="110.894" r="1.89032" stroke="yellow" stroke-width="2" fill="none"/>
<circle cx="299.308" cy="113.276" r="1.99176" stroke="yellow" stroke-width="2" fill="none"/>
<circle cx="481.784" cy="114.592" r="2.03547" stroke="yellow" stroke-width="2" fill="none"/>
<circle cx="469.837" cy="117.933" r="2.03887" stroke="yellow" stroke-width="2" fill="none"/>
<circle cx="296.774" cy="118.573" r="1.84205" stroke="yellow" stroke-width="2" fill="none"/>
<circle cx="268.036" cy="119.769" r="2.22991" stroke="yellow" stroke-width="2" fill="none"/>
<circle cx="101.597" cy="124.266" r="2.1077" stroke="yellow" stroke-width="2" fill="none"/>
<circle cx="215.375" cy="127.067" r="1.77612" stroke="yellow" stroke-width="2" fill="none"/>
<circle cx="379.81" cy="127.16" r="2.09144" stroke="yellow" stroke-width="2" fill="none"/>
<circle cx="379.81" cy="127.16" r="2.09144" stroke="yellow" stroke-width="2" fill="none"/>
<circle cx="216.246" cy="133.445" r="1.92572" stroke="yellow" stroke-width="2" fill="none"/>
<circle cx="381.835" cy="133.078" r="1.97549" stroke="yellow" stroke-width="2" fill="none"/>
<circle cx="302.534" cy="134.019" r="1.97208" stroke="yellow" stroke-width="2" fill="none"/>
<circle cx="126.106" cy="137.307" r="1.96828" stroke="yellow" stroke-width="2" fill="none"/>
<circle cx="393.56" cy="146.334" r="2.40482" stroke="yellow" stroke-width="2" fill="none"/>
<circle cx="306.892" cy="147.951" r="2.10179" stroke="yellow" stroke-width="2" fill="none"/>
<circle cx="411.082" cy="151.014" r="2.00296" stroke="yellow" stroke-width="2" fill="none"/>
<circle cx="209.559" cy="152.827" r="2.15599" stroke="yellow" stroke-width="2" fill="none"/>
<circle cx="460.939" cy="156.169" r="2.23177" stroke="yellow" stroke-width="2" fill="none"/>
<circle cx="241.635" cy="161.945" r="1.91446" stroke="yellow" stroke-width="2" fill="none"/>
<circle cx="178.241" cy="163.766" r="1.96922" stroke="yellow" stroke-width="2" fill="none"/>
<circle cx="219.047" cy="163.826" r="2.01038" stroke="yellow" stroke-width="2" fill="none"/>
<circle cx="230.679" cy="164.701" r="2.10223" stroke="yellow" stroke-width="2" fill="none"/>
<circle cx="188.727" cy="173.116" r="1.8102" stroke="yellow" stroke-width="2" fill="none"/>
<circle cx="242.55" cy="174.93" r="2.12469" stroke="yellow" stroke-width="2" fill="none"/>
<circle cx="188.848" cy="179.063" r="2.30716" stroke="yellow" stroke-width="2" fill="none"/>
<circle cx="441.775" cy="183.219" r="1.83403" stroke="yellow" stroke-width="2" fill="none"/>
<circle cx="272.074" cy="185.75" r="2.25608" stroke="yellow" stroke-width="2" fill="none"/>
<circle cx="254.955" cy="187.703" r="1.96852" stroke="yellow" stroke-width="2" fill="none"/>
<circle cx="266.227" cy="189.335" r="1.93699" stroke="yellow" stroke-width="2" fill="none"/>
<circle cx="266.227" cy="189.335" r="1.93699" stroke="yellow" stroke-width="2" fill="none"/>
<circle cx="276.887" cy="190.236" r="2.31508" stroke="yellow" stroke-width="2" fill="none"/>
<circle cx="276.887" cy="190.236" r="2.31508" stroke="yellow" stroke-width="2" fill="none"/>
<circle cx="379.697" cy="189.943" r="2.18714" stroke="yellow" stroke-width="2" fill="none"/>
<circle cx="377.976" cy="195.057" r="1.85161" stroke="yellow" stroke-width="2" fill="none"/>
<circle cx="39.7935" cy="198.581" r="2.12762" stroke="yellow" stroke-width="2" fill="none"/>
<circle cx="39.7935" cy="198.581" r="2.12762" stroke="yellow" stroke-width="2" fill="none"/>
<circle cx="305.446" cy="200.503" r="1.91873" stroke="yellow" stroke-width="2" fill="none"/>
<circle cx="170.416" cy="204.259" r="1.7935" stroke="yellow" stroke-width="2" fill="none"/>
<circle cx="174.712" cy="207.207" r="1.85407" stroke="yellow" stroke-width="2" fill="none"/>
<circle cx="174.884" cy="213.017" r="2.02026" stroke="yellow" stroke-width="2" fill="none"/>
<circle cx="437.703" cy="213.034" r="1.86048" stroke="yellow" stroke-width="2" fill="none"/>
<circle cx="592.222" cy="214.356" r="1.7696" stroke="yellow" stroke-width="2" fill="none"/>
<circle cx="272.007" cy="216.251" r="2.14984" stroke="yellow" stroke-width="2" fill="none"/>
<circle cx="311.391" cy="217.84" r="1.85721" stroke="yellow" stroke-width="2" fill="none"/>
<circle cx="122.13" cy="221.032" r="2.00761" stroke="yellow" stroke-width="2" fill="none"/>
<circle cx="69.4067" cy="226.615" r="1.77237" stroke="yellow" stroke-width="2" fill="none"/>
<circle cx="155.197" cy="226.651" r="1.76501" stroke="yellow" stroke-width="2" fill="none"/>
<circle cx="155.197" cy="226.651" r="1.76501" stroke="yellow" stroke-width="2" fill="none"/>
<circle cx="568.703" cy="227.397" r="2.00203" stroke="yellow" stroke-width="2" fill="none"/>
<circle cx="597.454" cy="228.773" r="1.77893" stroke="yellow" stroke-width="2" fill="none"/>
<circle cx="597.454" cy="228.773" r="1.77893" stroke="yellow" stroke-width="2" fill="none"/>
<circle cx="374.832" cy="229.837" r="2.19777" stroke="yellow" stroke-width="2" fill="none"/>
<circle cx="294.098" cy="235.378" r="2.01903" stroke="yellow" stroke-width="2" fill="none"/>
<circle cx="173.871" cy="236.187" r="2.33587" stroke="yellow" stroke-width="2" fill="none"/>
<circle cx="27.8353" cy="240.788" r="2.13747" stroke="yellow" stroke-width="2" fill="none"/>
<circle cx="304.07" cy="242.831" r="2.19439" stroke="yellow" stroke-width="2" fill="none"/>
<circle cx="304.07" cy="242.831" r="2.19439" stroke="yellow" stroke-width="2" fill="none"/>
<circle cx="59.5993" cy="245.522" r="1.81135" stroke="yellow" stroke-width="2" fill="none"/>
<circle cx="30.8262" cy="256.627" r="2.05956" stroke="yellow" stroke-width="2" fill="none"/>
<circle cx="30.8262" cy="256.627" r="2.05956" stroke="yellow" stroke-width="2" fill="none"/>
<circle cx="23.5584" cy="263.427" r="2.24468" stroke="yellow" stroke-width="2" fill="none"/>
<circle cx="23.5584" cy="263.427" r="2.24468" stroke="yellow" stroke-width="2" fill="none"/>
<circle cx="232.959" cy="275.005" r="1.86486" stroke="yellow" stroke-width="2" fill="none"/>
<circle cx="20.4391" cy="287.429" r="2.13168" stroke="yellow" stroke-width="2" fill="none"/>
<circle cx="218.069" cy="290.973" r="2.19085" stroke="yellow" stroke-width="2" fill="none"/>
<circle cx="228.448" cy="290.757" r="2.02547" stroke="yellow" stroke-width="2" fill="none"/>
<circle cx="177.183" cy="292.665" r="2.03224" stroke="yellow" stroke-width="2" fill="none"/>
<circle cx="148.752" cy="293.952" r="2.05602" stroke="yellow" stroke-width="2" fill="none"/>
<circle cx="46.0536" cy="302.438" r="1.90709" stroke="yellow" stroke-width="2" fill="none"/>
<circle cx="255.13" cy="301.82" r="2.13683" stroke="yellow" stroke-width="2" fill="none"/>
<circle cx="23.0764" cy="307.387" r="1.98855" stroke="yellow" stroke-width="2" fill="none"/>
<circle cx="23.0764" cy="307.387" r="1.98855" stroke="yellow" stroke-width="2" fill="none"/>
<circle cx="549.51" cy="307.621" r="1.75794" stroke="yellow" stroke-width="2" fill="none"/>
<circle cx="33.2804" cy="342.271" r="2.29497" stroke="yellow" stroke-width="2" fill="none"/>
<circle cx="220.548" cy="344.383" r="2.09461" stroke="yellow" stroke-width="2" fill="none"/>
<circle cx="223.653" cy="350.255" r="1.93267" stroke="yellow" stroke-width="2" fill="none"/>
<circle cx="292.642" cy="350.24" r="2.18824" stroke="yellow" stroke-width="2" fill="none"/>
<circle cx="14.3197" cy="353.242" r="1.91931" stroke="yellow" stroke-width="2" fill="none"/>
<circle cx="518.262" cy="355.815" r="1.84677" stroke="yellow" stroke-width="2" fill="none"/>
<circle cx="498.762" cy="356.751" r="1.99124" stroke="yellow" stroke-width="2" fill="none"/>
<circle cx="168.004" cy="357.716" r="2.07753" stroke="yellow" stroke-width="2" fill="none"/>
<circle cx="508.943" cy="360.445" r="1.83051" stroke="yellow" stroke-width="2" fill="none"/>
<circle cx="288.989" cy="361" r="1.84919" stroke="yellow" stroke-width="2" fill="none"/>
<circle cx="503.598" cy="359.999" r="2.34449" stroke="yellow" stroke-width="2" fill="none"/>
<circle cx="511.578" cy="364.373" r="2.26991" stroke="yellow" stroke-width="2" fill="none"/>
<circle cx="167.997" cy="369.951" r="1.99271" stroke="yellow" stroke-width="2" fill="none"/>
<circle cx="544.609" cy="372.862" r="2.11622" stroke="yellow" stroke-width="2" fill="none"/>
<circle cx="544.609" cy="372.862" r="2.11622" stroke="yellow" stroke-width="2" fill="none"/>
<circle cx="227.128" cy="375.334" r="2.13321" stroke="yellow" stroke-width="2" fill="none"/>
<circle cx="215.759" cy="398.374" r="2.22978" stroke="yellow" stroke-width="2" fill="none"/>
<circle cx="474.688" cy="414.936" r="1.90528" stroke="yellow" stroke-width="2" fill="none"/>
<circle cx="417.58" cy="417.011" r="2.17904" stroke="yellow" stroke-width="2" fill="none"/>
<circle cx="442.767" cy="418.446" r="1.89321" stroke="yellow" stroke-width="2" fill="none"/>
<circle cx="442.767" cy="418.446" r="1.89321" stroke="yellow" stroke-width="2" fill="none"/>
<circle cx="445.027" cy="424.116" r="2.04592" stroke="yellow" stroke-width="2" fill="none"/>
<circle cx="445.027" cy="424.116" r="2.04592" stroke="yellow" stroke-width="2" fill="none"/>
<circle cx="450.169" cy="435.474" r="2.17064" stroke="yellow" stroke-width="2" fill="none"/>
<circle cx="128.092" cy="439.022" r="2.15225" stroke="yellow" stroke-width="2" fill="none"/>
<circle cx="454.95" cy="446.131" r="1.98051" stroke="yellow" stroke-width="2" fill="none"/>
<circle cx="454.95" cy="446.131" r="1.98051" stroke="yellow" stroke-width="2" fill="none"/>
<circle cx="97.6644" cy="460.994" r="2.25466" stroke="yellow" stroke-width="2" fill="none"/>
<circle cx="321.406" cy="466.767" r="1.79522" stroke="yellow" stroke-width="2" fill="none"/>
<circle cx="523.124" cy="469.635" r="2.09586" stroke="yellow" stroke-width="2" fill="none"/>
<circle cx="620.208" cy="8.93059" r="2.42815" stroke="yellow" stroke-width="2" fill="none"/>
<circle cx="549.885" cy="25.9345" r="2.6813" stroke="yellow" stroke-width="2" fill="none"/>
<circle cx="544.137" cy="30.7221" r="2.50811" stroke="yellow" stroke-width="2" fill="none"/>
<circle cx="543.419" cy="47.7603" r="2.86025" stroke="yellow" stroke-width="2" fill="none"/>
<circle cx="543.419" cy="47.7603" r="2.86025" stroke="yellow" stroke-width="2" fill="none"/>
<circle cx="630.188" cy="49.3234" r="2.53081" stroke="yellow" stroke-width="2" fill="none"/>
<circle cx="568.541" cy="73.1051" r="2.82218" stroke="yellow" stroke-width="2" fill="none"/>
<circle cx="568.541" cy="73.1051" r="2.82218" stroke="yellow" stroke-width="2" fill="none"/>
<circle cx="579.407" cy="73.5784" r="2.23482" stroke="yellow" stroke-width="2" fill="none"/>
<circle cx="422.402" cy="77.9499" r="2.71788" stroke="yellow" stroke-width="2" fill="none"/>
<circle cx="584.019" cy="78.3111" r="2.36082" stroke="yellow" stroke-width="2" fill="none"/>
<circle cx="589.561" cy="83.2392" r="2.40248" stroke="yellow" stroke-width="2" fill="none"/>
<circle cx="402.97" cy="85.9924" r="2.79087" stroke="yellow" stroke-width="2" fill="none"/>
<circle cx="602.066" cy="86.2709" r="2.67597" stroke="yellow" stroke-width="2" fill="none"/>
<circle cx="571.201" cy="86.8133" r="2.61379" stroke="yellow" stroke-width="2" fill="none"/>
<circle cx="595.343" cy="89.5838" r="2.39223" stroke="yellow" stroke-width="2" fill="none"/>
<circle cx="405.21" cy="95.6882" r="2.62512" stroke="yellow" stroke-width="2" fill="none"/>
<circle cx="143.231" cy="96.5881" r="2.70082" stroke="yellow" stroke-width="2" fill="none"/>
<circle cx="143.231" cy="96.5881" r="2.70082" stroke="yellow" stroke-width="2" fill="none"/>
<circle cx="603.549" cy="96.9189" r="2.75301" stroke="yellow" stroke-width="2" fill="none"/>
<circle cx="617.012" cy="99.9786" r="2.61099" stroke="yellow" stroke-width="2" fill="none"/>
<circle cx="367.855" cy="106.547" r="2.54445" stroke="yellow" stroke-width="2" fill="none"/>
<circle cx="388.783" cy="108.751" r="2.70412" stroke="yellow" stroke-width="2" fill="none"/>
<circle cx="351.778" cy="134.874" r="2.5002" stroke="yellow" stroke-width="2" fill="none"/>
<circle cx="369.115" cy="137.21" r="2.44631" stroke="yellow" stroke-width="2" fill="none"/>
<circle cx="378.163" cy="141.524" r="2.82472" stroke="yellow" stroke-width="2" fill="none"/>
<circle cx="320.622" cy="146.062" r="2.17361" stroke="yellow" stroke-width="2" fill="none"/>
<circle cx="161.505" cy="151.444" r="2.3724" stroke="yellow" stroke-width="2" fill="none"/>
<circle cx="279.764" cy="153.783" r="2.59777" stroke="yellow" stroke-width="2" fill="none"/>
<circle cx="368.196" cy="160.966" r="2.30437" stroke="yellow" stroke-width="2" fill="none"/>
<circle cx="191.658" cy="162.01" r="2.59181" stroke="yellow" stroke-width="2" fill="none"/>
<circle cx="191.658" cy="162.01" r="2.59181" stroke="yellow" stroke-width="2" fill="none"/>
<circle cx="240.676" cy="168.361" r="2.44037" stroke="yellow" stroke-width="2" fill="none"/>
<circle cx="503.218" cy="172.081" r="2.40024" stroke="yellow" stroke-width="2" fill="none"/>
<circle cx="290.782" cy="176.128" r="3.26193" stroke="yellow" stroke-width="2" fill="none"/>
<circle cx="290.782" cy="176.128" r="3.26193" stroke="yellow" stroke-width="2" fill="none"/>
<circle cx="205.159" cy="204.673" r="2.46557" stroke="yellow" stroke-width="2" fill="none"/>
<circle cx="293.924" cy="209.042" r="2.61494" stroke="yellow" stroke-width="2" fill="none"/>
<circle cx="293.924" cy="209.042" r="2.61494" stroke="yellow" stroke-width="2" fill="none"/>
<circle cx="309.147" cy="212.95" r="2.44023" stroke="yellow" stroke-width="2" fill="none"/>
<circle cx="59.6299" cy="217.384" r="2.51101" stroke="yellow" stroke-width="2" fill="none"/>
<circle cx="208.861" cy="221.918" r="2.71655" stroke="yellow" stroke-width="2" fill="none"/>
<circle cx="575.985" cy="225.257" r="2.76502" stroke="yellow" stroke-width="2" fill="none"/>
<circle cx="484.031" cy="227.614" r="2.74067" stroke="yellow" stroke-width="2" fill="none"/>
<circle cx="191.191" cy="229.372" r="2.3214" stroke="yellow" stroke-width="2" fill="none"/>
<circle cx="191.191" cy="229.372" r="2.3214" stroke="yellow" stroke-width="2" fill="none"/>
<circle cx="181.931" cy="230.755" r="2.47515" stroke="yellow" stroke-width="2" fill="none"/>
<circle cx="81.668" cy="232.98" r="2.28161" stroke="yellow" stroke-width="2" fill="none"/>
<circle cx="81.668" cy="232.98" r="2.28161" stroke="yellow" stroke-width="2" fill="none"/>
<circle cx="375.778" cy="245.014" r="2.26904" stroke="yellow" stroke-width="2" fill="none"/>
<circle cx="362.986" cy="254.021" r="2.30348" stroke="yellow" stroke-width="2" fill="none"/>
<circle cx="580.041" cy="272.135" r="2.43927" stroke="yellow" stroke-width="2" fill="none"/>
<circle cx="21.7745" cy="277.36" r="2.62779" stroke="yellow" stroke-width="2" fill="none"/>
<circle cx="21.7745" cy="277.36" r="2.62779" stroke="yellow" stroke-width="2" fill="none"/>
<circle cx="581.4" cy="280.308" r="2.79482" stroke="yellow" stroke-width="2" fill="none"/>
<circle cx="27.2024" cy="281.589" r="2.36243" stroke="yellow" stroke-width="2" fill="none"/>
<circle cx="27.2024" cy="281.589" r="2.36243" stroke="yellow" stroke-width="2" fill="none"/>
<circle cx="25.7739" cy="291.025" r="2.50718" stroke="yellow" stroke-width="2" fill="none"/>
<circle cx="25.7739" cy="291.025" r="2.50718" stroke="yellow" stroke-width="2" fill="none"/>
<circle cx="217.824" cy="297.362" r="2.78747" stroke="yellow" stroke-width="2" fill="none"/>
<circle cx="52.3174" cy="301.452" r="2.70907" stroke="yellow" stroke-width="2" fill="none"/>
<circle cx="238.797" cy="303.496" r="2.6818" stroke="yellow" stroke-width="2" fill="none"/>
<circle cx="59.2905" cy="303.601" r="2.785" stroke="yellow" stroke-width="2" fill="none"/>
<circle cx="213.208" cy="304.286" r="2.40078" stroke="yellow" stroke-width="2" fill="none"/>
<circle cx="228.093" cy="304.141" r="2.57075" stroke="yellow" stroke-width="2" fill="none"/>
<circle cx="591.187" cy="305.068" r="2.45259" stroke="yellow" stroke-width="2" fill="none"/>
<circle cx="16.9533" cy="307.818" r="2.31243" stroke="yellow" stroke-width="2" fill="none"/>
<circle cx="259.378" cy="310.434" r="2.23875" stroke="yellow" stroke-width="2" fill="none"/>
<circle cx="259.378" cy="310.434" r="2.23875" stroke="yellow" stroke-width="2" fill="none"/>
<circle cx="23.0572" cy="321.184" r="2.63445" stroke="yellow" stroke-width="2" fill="none"/>
<circle cx="23.0572" cy="321.184" r="2.63445" stroke="yellow" stroke-width="2" fill="none"/>
<circle cx="233.606" cy="339.781" r="2.45605" stroke="yellow" stroke-width="2" fill="none"/>
<circle cx="274.559" cy="341.108" r="2.56011" stroke="yellow" stroke-width="2" fill="none"/>
<circle cx="242.236" cy="341.781" r="2.31047" stroke="yellow" stroke-width="2" fill="none"/>
<circle cx="266.975" cy="341.711" r="2.55839" stroke="yellow" stroke-width="2" fill="none"/>
<circle cx="175.329" cy="346.163" r="2.7825" stroke="yellow" stroke-width="2" fill="none"/>
<circle cx="522.56" cy="359.445" r="2.5335" stroke="yellow" stroke-width="2" fill="none"/>
<circle cx="72.7221" cy="373.489" r="2.63779" stroke="yellow" stroke-width="2" fill="none"/>
<circle cx="72.7221" cy="373.489" r="2.63779" stroke="yellow" stroke-width="2" fill="none"/>
<circle cx="66.1828" cy="396.134" r="2.95729" stroke="yellow" stroke-width="2" fill="none"/>
<circle cx="66.1828" cy="396.134" r="2.95729" stroke="yellow" stroke-width="2" fill="none"/>
<circle cx="182.606" cy="395.191" r="2.52027" stroke="yellow" stroke-width="2" fill="none"/>
<circle cx="112.015" cy="434.037" r="2.46155" stroke="yellow" stroke-width="2" fill="none"/>
<circle cx="118.255" cy="439.579" r="2.76289" stroke="yellow" stroke-width="2" fill="none"/>
<circle cx="310.424" cy="443.832" r="2.61524" stroke="yellow" stroke-width="2" fill="none"/>
<circle cx="75.7016" cy="444.973" r="2.73192" stroke="yellow" stroke-width="2" fill="none"/>
<circle cx="75.7016" cy="444.973" r="2.73192" stroke="yellow" stroke-width="2" fill="none"/>
<circle cx="48.9697" cy="447.845" r="2.84981" stroke="yellow" stroke-width="2" fill="none"/>
<circle cx="320.157" cy="10.7039" r="2.98941" stroke="yellow" stroke-width="2" fill="none"/>
<circle cx="438.638" cy="44.0217" r="3.26092" stroke="yellow" stroke-width="2" fill="none"/>
<circle cx="302.284" cy="51.4324" r="3.55514" stroke="yellow" stroke-width="2" fill="none"/>
<circle cx="444.091" cy="51.3848" r="2.98179" stroke="yellow" stroke-width="2" fill="none"/>
<circle cx="554.77" cy="69.2025" r="3.44466" stroke="yellow" stroke-width="2" fill="none"/>
<circle cx="563.002" cy="78.425" r="2.99802" stroke="yellow" stroke-width="2" fill="none"/>
<circle cx="582.806" cy="86.7509" r="3.23708" stroke="yellow" stroke-width="2" fill="none"/>
<circle cx="201.154" cy="90.8597" r="3.47596" stroke="yellow" stroke-width="2" fill="none"/>
<circle cx="377.115" cy="92.4428" r="2.89088" stroke="yellow" stroke-width="2" fill="none"/>
<circle cx="377.115" cy="92.4428" r="2.89088" stroke="yellow" stroke-width="2" fill="none"/>
<circle cx="440.013" cy="93.3711" r="2.95373" stroke="yellow" stroke-width="2" fill="none"/>
<circle cx="589.091" cy="93.2739" r="3.0527" stroke="yellow" stroke-width="2" fill="none"/>
<circle cx="589.091" cy="93.2739" r="3.0527" stroke="yellow" stroke-width="2" fill="none"/>
<circle cx="594.842" cy="98.5065" r="3.12965" stroke="yellow" stroke-width="2" fill="none"/>
<circle cx="594.842" cy="98.5065" r="3.12965" stroke="yellow" stroke-width="2" fill="none"/>
<circle cx="146.439" cy="104.221" r="3.43985" stroke="yellow" stroke-width="2" fill="none"/>
<circle cx="146.439" cy="104.221" r="3.43985" stroke="yellow" stroke-width="2" fill="none"/>
<circle cx="295.958" cy="106.425" r="3.28402" stroke="yellow" stroke-width="2" fill="none"/>
<circle cx="608.338" cy="111.826" r="3.33839" stroke="yellow" stroke-width="2" fill="none"/>
<circle cx="608.338" cy="111.826" r="3.33839" stroke="yellow" stroke-width="2" fill="none"/>
<circle cx="162.778" cy="113.28" r="3.5147" stroke="yellow" stroke-width="2" fill="none"/>
<circle cx="432.632" cy="115.416" r="3.39881" stroke="yellow" stroke-width="2" fill="none"/>
<circle cx="468.5" cy="125.934" r="3.60528" stroke="yellow" stroke-width="2" fill="none"/>
<circle cx="249.627" cy="127.429" r="3.58337" stroke="yellow" stroke-width="2" fill="none"/>
<circle cx="314.096" cy="137.138" r="3.40453" stroke="yellow" stroke-width="2" fill="none"/>
<circle cx="417.729" cy="141.705" r="3.05644" stroke="yellow" stroke-width="2" fill="none"/>
<circle cx="393.552" cy="146.946" r="2.88044" stroke="yellow" stroke-width="2" fill="none"/>
<circle cx="146.829" cy="158.853" r="3.45427" stroke="yellow" stroke-width="2" fill="none"/>
<circle cx="191.675" cy="161.853" r="2.51042" stroke="yellow" stroke-width="2" fill="none"/>
<circle cx="164.226" cy="168.353" r="3.29117" stroke="yellow" stroke-width="2" fill="none"/>
<circle cx="178.47" cy="170.709" r="2.88165" stroke="yellow" stroke-width="2" fill="none"/>
<circle cx="291.313" cy="175.565" r="2.84363" stroke="yellow" stroke-width="2" fill="none"/>
<circle cx="291.313" cy="175.565" r="2.84363" stroke="yellow" stroke-width="2" fill="none"/>
<circle cx="266.467" cy="179.968" r="3.48106" stroke="yellow" stroke-width="2" fill="none"/>
<circle cx="385.056" cy="183.767" r="3.33742" stroke="yellow" stroke-width="2" fill="none"/>
<circle cx="385.056" cy="183.767" r="3.33742" stroke="yellow" stroke-width="2" fill="none"/>
<circle cx="304.416" cy="206.936" r="2.97163" stroke="yellow" stroke-width="2" fill="none"/>
<circle cx="304.416" cy="206.936" r="2.97163" stroke="yellow" stroke-width="2" fill="none"/>
<circle cx="42.5342" cy="227.773" r="3.30467" stroke="yellow" stroke-width="2" fill="none"/>
<circle cx="576.229" cy="225.602" r="2.96294" stroke="yellow" stroke-width="2" fill="none"/>
<circle cx="484.142" cy="228.495" r="3.02869" stroke="yellow" stroke-width="2" fill="none"/>
<circle cx="74.3997" cy="237.447" r="3.45139" stroke="yellow" stroke-width="2" fill="none"/>
<circle cx="563.833" cy="239.405" r="3.13936" stroke="yellow" stroke-width="2" fill="none"/>
<circle cx="112.199" cy="244.433" r="3.19391" stroke="yellow" stroke-width="2" fill="none"/>
<circle cx="48.3135" cy="245.552" r="3.21701" stroke="yellow" stroke-width="2" fill="none"/>
<circle cx="367.782" cy="247.86" r="2.94794" stroke="yellow" stroke-width="2" fill="none"/>
<circle cx="20.2509" cy="248.663" r="3.10293" stroke="yellow" stroke-width="2" fill="none"/>
<circle cx="11.9108" cy="283.768" r="3.38116" stroke="yellow" stroke-width="2" fill="none"/>
<circle cx="495.289" cy="291.143" r="3.06574" stroke="yellow" stroke-width="2" fill="none"/>
<circle cx="505.144" cy="291.357" r="3.22139" stroke="yellow" stroke-width="2" fill="none"/>
<circle cx="70.7453" cy="291.957" r="3.51898" stroke="yellow" stroke-width="2" fill="none"/>
<circle cx="40.5891" cy="297.198" r="3.06573" stroke="yellow" stroke-width="2" fill="none"/>
<circle cx="32.383" cy="298.185" r="3.36184" stroke="yellow" stroke-width="2" fill="none"/>
<circle cx="127.229" cy="300.62" r="3.24791" stroke="yellow" stroke-width="2" fill="none"/>
<circle cx="511.469" cy="337.959" r="3.35225" stroke="yellow" stroke-width="2" fill="none"/>
<circle cx="5.43105" cy="341.485" r="2.93286" stroke="yellow" stroke-width="2" fill="none"/>
<circle cx="289.049" cy="341.029" r="3.39562" stroke="yellow" stroke-width="2" fill="none"/>
<circle cx="25.5135" cy="344.93" r="3.36863" stroke="yellow" stroke-width="2" fill="none"/>
<circle cx="12.7049" cy="346.544" r="3.26746" stroke="yellow" stroke-width="2" fill="none"/>
<circle cx="504.379" cy="350.898" r="3.03111" stroke="yellow" stroke-width="2" fill="none"/>
<circle cx="300.181" cy="363.846" r="3.11814" stroke="yellow" stroke-width="2" fill="none"/>
<circle cx="64.771" cy="371.443" r="3.2262" stroke="yellow" stroke-width="2" fill="none"/>
<circle cx="243.08" cy="382.67" r="3.48292" stroke="yellow" stroke-width="2" fill="none"/>
<circle cx="11.143" cy="396.522" r="3.32237" stroke="yellow" stroke-width="2" fill="none"/>
<circle cx="11.143" cy="396.522" r="3.32237" stroke="yellow" stroke-width="2" fill="none"/>
<circle cx="484.127" cy="407.849" r="3.51803" stroke="yellow" stroke-width="2" fill="none"/>
<circle cx="57.4626" cy="443.867" r="3.41526" stroke="yellow" stroke-width="2" fill="none"/>
<circle cx="57.4626" cy="443.867" r="3.41526" stroke="yellow" stroke-width="2" fill="none"/>
<circle cx="66.4842" cy="445.436" r="2.95257" stroke="yellow" stroke-width="2" fill="none"/>
<circle cx="66.4842" cy="445.436" r="2.95257" stroke="yellow" stroke-width="2" fill="none"/>
<circle cx="543.418" cy="445.984" r="3.4016" stroke="yellow" stroke-width="2" fill="none"/>
<circle cx="205.097" cy="461.402" r="3.23494" stroke="yellow" stroke-width="2" fill="none"/>
<circle cx="560.246" cy="37.3707" r="3.46808" stroke="yellow" stroke-width="2" fill="none"/>
<circle cx="583.415" cy="59.2629" r="3.77016" stroke="yellow" stroke-width="2" fill="none"/>
<circle cx="297.915" cy="66.4222" r="4.48269" stroke="yellow" stroke-width="2" fill="none"/>
<circle cx="202.058" cy="90.0367" r="4.30168" stroke="yellow" stroke-width="2" fill="none"/>
<circle cx="156.049" cy="102.195" r="3.91684" stroke="yellow" stroke-width="2" fill="none"/>
<circle cx="444.472" cy="103.297" r="4.24823" stroke="yellow" stroke-width="2" fill="none"/>
<circle cx="266.288" cy="117.87" r="3.70897" stroke="yellow" stroke-width="2" fill="none"/>
<circle cx="311.626" cy="118.967" r="4.27511" stroke="yellow" stroke-width="2" fill="none"/>
<circle cx="468.484" cy="126.473" r="3.76951" stroke="yellow" stroke-width="2" fill="none"/>
<circle cx="251.023" cy="128.392" r="4.33456" stroke="yellow" stroke-width="2" fill="none"/>
<circle cx="388.917" cy="137.921" r="4.04335" stroke="yellow" stroke-width="2" fill="none"/>
<circle cx="315.434" cy="138.902" r="4.13385" stroke="yellow" stroke-width="2" fill="none"/>
<circle cx="476.114" cy="141.671" r="3.83986" stroke="yellow" stroke-width="2" fill="none"/>
<circle cx="476.114" cy="141.671" r="3.83986" stroke="yellow" stroke-width="2" fill="none"/>
<circle cx="382.878" cy="149.74" r="3.92058" stroke="yellow" stroke-width="2" fill="none"/>
<circle cx="240.448" cy="179.451" r="4.07906" stroke="yellow" stroke-width="2" fill="none"/>
<circle cx="265.803" cy="179.646" r="3.73673" stroke="yellow" stroke-width="2" fill="none"/>
<circle cx="168.334" cy="185.989" r="3.84543" stroke="yellow" stroke-width="2" fill="none"/>
<circle cx="106.158" cy="195.214" r="4.01227" stroke="yellow" stroke-width="2" fill="none"/>
<circle cx="271.29" cy="197.064" r="3.91451" stroke="yellow" stroke-width="2" fill="none"/>
<circle cx="64.1089" cy="197.129" r="3.82952" stroke="yellow" stroke-width="2" fill="none"/>
<circle cx="64.1089" cy="197.129" r="3.82952" stroke="yellow" stroke-width="2" fill="none"/>
<circle cx="282.531" cy="199.097" r="3.79715" stroke="yellow" stroke-width="2" fill="none"/>
<circle cx="263.058" cy="204.629" r="3.73857" stroke="yellow" stroke-width="2" fill="none"/>
<circle cx="300.816" cy="218.223" r="3.76295" stroke="yellow" stroke-width="2" fill="none"/>
<circle cx="111.188" cy="234.931" r="4.51989" stroke="yellow" stroke-width="2" fill="none"/>
<circle cx="438.962" cy="240.899" r="3.78307" stroke="yellow" stroke-width="2" fill="none"/>
<circle cx="361.487" cy="267.467" r="4.44687" stroke="yellow" stroke-width="2" fill="none"/>
<circle cx="580.496" cy="280.791" r="3.2044" stroke="yellow" stroke-width="2" fill="none"/>
<circle cx="69.9018" cy="291.489" r="4.0884" stroke="yellow" stroke-width="2" fill="none"/>
<circle cx="547.94" cy="310.08" r="3.67233" stroke="yellow" stroke-width="2" fill="none"/>
<circle cx="33.1982" cy="351.341" r="3.92383" stroke="yellow" stroke-width="2" fill="none"/>
<circle cx="293.021" cy="370.019" r="3.98584" stroke="yellow" stroke-width="2" fill="none"/>
<circle cx="243.613" cy="382.267" r="3.70645" stroke="yellow" stroke-width="2" fill="none"/>
<circle cx="16.4576" cy="406.304" r="4.06656" stroke="yellow" stroke-width="2" fill="none"/>
<circle cx="16.4576" cy="406.304" r="4.06656" stroke="yellow" stroke-width="2" fill="none"/>
<circle cx="543.966" cy="446.205" r="3.8031" stroke="yellow" stroke-width="2" fill="none"/>
<circle cx="205.161" cy="462.078" r="3.50241" stroke="yellow" stroke-width="2" fill="none"/>
<circle cx="266.487" cy="472.441" r="3.78474" stroke="yellow" stroke-width="2" fill="none"/>
<circle cx="470.43" cy="24.1961" r="4.97165" stroke="yellow" stroke-width="2" fill="none"/>
<circle cx="455.452" cy="26.6278" r="5.26027" stroke="yellow" stroke-width="2" fill="none"/>
<circle cx="289.084" cy="54.285" r="4.98139" stroke="yellow" stroke-width="2" fill="none"/>
<circle cx="385.773" cy="82.3397" r="5.37137" stroke="yellow" stroke-width="2" fill="none"/>
<circle cx="385.773" cy="82.3397" r="5.37137" stroke="yellow" stroke-width="2" fill="none"/>
<circle cx="393.453" cy="96.2301" r="5.23093" stroke="yellow" stroke-width="2" fill="none"/>
<circle cx="279.069" cy="112.745" r="5.4567" stroke="yellow" stroke-width="2" fill="none"/>
<circle cx="141.409" cy="118.966" r="5.25579" stroke="yellow" stroke-width="2" fill="none"/>
<circle cx="612.074" cy="124.924" r="5.51895" stroke="yellow" stroke-width="2" fill="none"/>
<circle cx="131.398" cy="129.703" r="4.64728" stroke="yellow" stroke-width="2" fill="none"/>
<circle cx="508.027" cy="159.249" r="4.6293" stroke="yellow" stroke-width="2" fill="none"/>
<circle cx="199.769" cy="180.637" r="4.83136" stroke="yellow" stroke-width="2" fill="none"/>
<circle cx="294.528" cy="196.327" r="4.64216" stroke="yellow" stroke-width="2" fill="none"/>
<circle cx="294.528" cy="196.327" r="4.64216" stroke="yellow" stroke-width="2" fill="none"/>
<circle cx="182.61" cy="201.304" r="4.76768" stroke="yellow" stroke-width="2" fill="none"/>
<circle cx="217.186" cy="225.875" r="4.76018" stroke="yellow" stroke-width="2" fill="none"/>
<circle cx="94.3289" cy="235.115" r="5.49496" stroke="yellow" stroke-width="2" fill="none"/>
<circle cx="100.331" cy="274.396" r="5.11233" stroke="yellow" stroke-width="2" fill="none"/>
<circle cx="236.731" cy="284.357" r="5.63142" stroke="yellow" stroke-width="2" fill="none"/>
<circle cx="580.526" cy="293.891" r="4.61066" stroke="yellow" stroke-width="2" fill="none"/>
<circle cx="561.558" cy="304.799" r="5.21495" stroke="yellow" stroke-width="2" fill="none"/>
<circle cx="61.4141" cy="316.242" r="4.71041" stroke="yellow" stroke-width="2" fill="none"/>
<circle cx="247.656" cy="352.577" r="5.65903" stroke="yellow" stroke-width="2" fill="none"/>
<circle cx="247.656" cy="352.577" r="5.65903" stroke="yellow" stroke-width="2" fill="none"/>
<circle cx="541.942" cy="381.908" r="4.84496" stroke="yellow" stroke-width="2" fill="none"/>
<circle cx="541.942" cy="381.908" r="4.84496" stroke="yellow" stroke-width="2" fill="none"/>
<circle cx="541.942" cy="381.908" r="4.84496" stroke="yellow" stroke-width="2" fill="none"/>
<circle cx="466.56" cy="390.774" r="5.28609" stroke="yellow" stroke-width="2" fill="none"/>
<circle cx="208.629" cy="403.087" r="5.65806" stroke="yellow" stroke-width="2" fill="none"/>
<circle cx="464.545" cy="417.214" r="5.41265" stroke="yellow" stroke-width="2" fill="none"/>
<circle cx="464.545" cy="417.214" r="5.41265" stroke="yellow" stroke-width="2" fill="none"/>
<circle cx="464.545" cy="417.214" r="5.41265" stroke="yellow" stroke-width="2" fill="none"/>
<circle cx="464.545" cy="417.214" r="5.41265" stroke="yellow" stroke-width="2" fill="none"/>
<circle cx="122.849" cy="435.636" r="5.18547" stroke="yellow" stroke-width="2" fill="none"/>
<circle cx="511.638" cy="467.228" r="5.21147" stroke="yellow" stroke-width="2" fill="none"/>
<circle cx="489.463" cy="25.7414" r="7.66126" stroke="yellow" stroke-width="2" fill="none"/>
<circle cx="613.051" cy="125.213" r="5.85129" stroke="yellow" stroke-width="2" fill="none"/>
<circle cx="92.5757" cy="131.617" r="6.50825" stroke="yellow" stroke-width="2" fill="none"/>
<circle cx="367.236" cy="152.49" r="6.23618" stroke="yellow" stroke-width="2" fill="none"/>
<circle cx="477.464" cy="159.335" r="6.5294" stroke="yellow" stroke-width="2" fill="none"/>
<circle cx="105.426" cy="172.336" r="6.49087" stroke="yellow" stroke-width="2" fill="none"/>
<circle cx="184.364" cy="186.883" r="5.97722" stroke="yellow" stroke-width="2" fill="none"/>
<circle cx="184.364" cy="186.883" r="5.97722" stroke="yellow" stroke-width="2" fill="none"/>
<circle cx="246.373" cy="206.282" r="6.99654" stroke="yellow" stroke-width="2" fill="none"/>
<circle cx="501.499" cy="212.44" r="6.60637" stroke="yellow" stroke-width="2" fill="none"/>
<circle cx="354.333" cy="221.654" r="6.06277" stroke="yellow" stroke-width="2" fill="none"/>
<circle cx="171.08" cy="240.184" r="5.75624" stroke="yellow" stroke-width="2" fill="none"/>
<circle cx="289.147" cy="264.481" r="6.27396" stroke="yellow" stroke-width="2" fill="none"/>
<circle cx="532.352" cy="324.011" r="7.1992" stroke="yellow" stroke-width="2" fill="none"/>
<circle cx="20.3941" cy="339.003" r="7.05374" stroke="yellow" stroke-width="2" fill="none"/>
<circle cx="508.831" cy="342.422" r="6.54317" stroke="yellow" stroke-width="2" fill="none"/>
<circle cx="566.539" cy="351.645" r="6.16243" stroke="yellow" stroke-width="2" fill="none"/>
<circle cx="465.387" cy="2.01678" r="7.6285" stroke="yellow" stroke-width="2" fill="none"/>
<circle cx="490.612" cy="27.1799" r="7.99565" stroke="yellow" stroke-width="2" fill="none"/>
<circle cx="425.235" cy="63.5469" r="8.12124" stroke="yellow" stroke-width="2" fill="none"/>
<circle cx="416.308" cy="85.2808" r="7.4843" stroke="yellow" stroke-width="2" fill="none"/>
<circle cx="428.714" cy="104.771" r="7.55602" stroke="yellow" stroke-width="2" fill="none"/>
<circle cx="428.714" cy="104.771" r="7.55602" stroke="yellow" stroke-width="2" fill="none"/>
<circle cx="239.009" cy="144.047" r="8.25022" stroke="yellow" stroke-width="2" fill="none"/>
<circle cx="104.105" cy="172.304" r="7.15838" stroke="yellow" stroke-width="2" fill="none"/>
<circle cx="461.37" cy="171.754" r="7.99091" stroke="yellow" stroke-width="2" fill="none"/>
<circle cx="74.578" cy="215.232" r="8.24593" stroke="yellow" stroke-width="2" fill="none"/>
<circle cx="103.479" cy="212.218" r="9.24795" stroke="yellow" stroke-width="2" fill="none"/>
<circle cx="285.342" cy="223.937" r="8.40807" stroke="yellow" stroke-width="2" fill="none"/>
<circle cx="580.557" cy="239.88" r="8.06631" stroke="yellow" stroke-width="2" fill="none"/>
<circle cx="88.1836" cy="288.574" r="7.45023" stroke="yellow" stroke-width="2" fill="none"/>
<circle cx="565.008" cy="308.358" r="7.88767" stroke="yellow" stroke-width="2" fill="none"/>
<circle cx="593.061" cy="312.397" r="7.43333" stroke="yellow" stroke-width="2" fill="none"/>
<circle cx="532.48" cy="324.474" r="7.38685" stroke="yellow" stroke-width="2" fill="none"/>
<circle cx="43.5198" cy="334.304" r="8.08301" stroke="yellow" stroke-width="2" fill="none"/>
<circle cx="43.5198" cy="334.304" r="8.08301" stroke="yellow" stroke-width="2" fill="none"/>
<circle cx="273.959" cy="354.631" r="8.60795" stroke="yellow" stroke-width="2" fill="none"/>
<circle cx="273.959" cy="354.631" r="8.60795" stroke="yellow" stroke-width="2" fill="none"/>
<circle cx="167.952" cy="358.583" r="7.46152" stroke="yellow" stroke-width="2" fill="none"/>
<circle cx="167.952" cy="358.583" r="7.46152" stroke="yellow" stroke-width="2" fill="none"/>
<circle cx="68.1816" cy="410.516" r="7.81901" stroke="yellow" stroke-width="2" fill="none"/>
<circle cx="89.353" cy="433.81" r="8.97481" stroke="yellow" stroke-width="2" fill="none"/>
<circle cx="77.1331" cy="455.08" r="8.73383" stroke="yellow" stroke-width="2" fill="none"/>
<circle cx="77.1331" cy="455.08" r="8.73383" stroke="yellow" stroke-width="2" fill="none"/>
<circle cx="294.238" cy="26.6103" r="9.46341" stroke="yellow" stroke-width="2" fill="none"/>
<circle cx="292.634" cy="76.577" r="10.1201" stroke="yellow" stroke-width="2" fill="none"/>
<circle cx="366.098" cy="131.375" r="10.3489" stroke="yellow" stroke-width="2" fill="none"/>
<circle cx="366.098" cy="131.375" r="10.3489" stroke="yellow" stroke-width="2" fill="none"/>
<circle cx="112.175" cy="139.895" r="10.3889" stroke="yellow" stroke-width="2" fill="none"/>
<circle cx="281.356" cy="168.656" r="9.90686" stroke="yellow" stroke-width="2" fill="none"/>
<circle cx="504.029" cy="205.166" r="10.7677" stroke="yellow" stroke-width="2" fill="none"/>
<circle cx="262.47" cy="326.816" r="10.1888" stroke="yellow" stroke-width="2" fill="none"/>
<circle cx="527.714" cy="27.6636" r="11.4842" stroke="yellow" stroke-width="2" fill="none"/>
<circle cx="565.654" cy="59.3612" r="12.5195" stroke="yellow" stroke-width="2" fill="none"/>
<circle cx="269.639" cy="139.862" r="13.3679" stroke="yellow" stroke-width="2" fill="none"/>
<circle cx="269.639" cy="139.862" r="13.3679" stroke="yellow" stroke-width="2" fill="none"/>
<circle cx="215.654" cy="191.984" r="14.0786" stroke="yellow" stroke-width="2" fill="none"/>
<circle cx="537.413" cy="193.171" r="12.5821" stroke="yellow" stroke-width="2" fill="none"/>
<circle cx="308.945" cy="241.207" r="11.4936" stroke="yellow" stroke-width="2" fill="none"/>
<circle cx="370.157" cy="253.815" r="12.2208" stroke="yellow" stroke-width="2" fill="none"/>
<circle cx="261.075" cy="385.809" r="13.0334" stroke="yellow" stroke-width="2" fill="none"/>
<circle cx="118.845" cy="138.258" r="15.1011" stroke="yellow" stroke-width="2" fill="none"/>
<circle cx="270.261" cy="138.181" r="13.9638" stroke="yellow" stroke-width="2" fill="none"/>
<circle cx="270.261" cy="138.181" r="13.9638" stroke="yellow" stroke-width="2" fill="none"/>
<circle cx="433.018" cy="152.439" r="15.0871" stroke="yellow" stroke-width="2" fill="none"/>
<circle cx="183.262" cy="407.9" r="17.5691" stroke="yellow" stroke-width="2" fill="none"/>
<circle cx="422.455" cy="31.723" r="18.6807" stroke="yellow" stroke-width="2" fill="none"/>
<circle cx="148.001" cy="74.5505" r="18.5301" stroke="yellow" stroke-width="2" fill="none"/>
<circle cx="248.44" cy="237.739" r="21.9332" stroke="yellow" stroke-width="2" fill="none"/>
<circle cx="511.076" cy="257.427" r="19.3327" stroke="yellow" stroke-width="2" fill="none"/>
<circle cx="326.84" cy="282.648" r="19.7129" stroke="yellow" stroke-width="2" fill="none"/>
<circle cx="464.092" cy="205.871" r="26.587" stroke="yellow" stroke-width="2" fill="none"/>
<circle cx="373.743" cy="421.686" r="27.0892" stroke="yellow" stroke-width="2" fill="none"/>
<circle cx="545.866" cy="375.138" r="33.5827" stroke="yellow" stroke-width="2" fill="none"/>
<circle cx="122.65" cy="383.537" r="37.5924" stroke="yellow" stroke-width="2" fill="none"/>
<circle cx="497.297" cy="96.9215" r="51.1542" stroke="yellow" stroke-width="2" fill="none"/>
<circle cx="167.283" cy="158.456" r="47.5563" stroke="yellow" stroke-width="2" fill="none"/>
<circle cx="422.737" cy="293.521" r="67.4789" stroke="yellow" stroke-width="2" fill="none"/>
</svg>