<?xml version="1.0" standalone="yes"?>
<!-- SVG graphic -->
<svg xmlns='http://www.w3.org/2000/svg' xmlns:xlink='http://www.w3.org/1999/xlink'
width="640px" height="480px" preserveAspectRatio="xMinYMin meet" viewBox="0 0 640 480" version="1.1">
<image x="0" y="0" width="640px" height="480px" opacity="1" xlink:href="E:\fengbing\reconstraction\sources\data\et\et005.jpg"/>
<circle cx="24.2221" cy="7.67413" r="1.83153" stroke="yellow" stroke-width="2" fill="none"/>
<circle cx="430.885" cy="21.8955" r="2.086" stroke="yellow" stroke-width="2" fill="none"/>
<circle cx="432.91" cy="27.8532" r="2.07472" stroke="yellow" stroke-width="2" fill="none"/>
<circle cx="445.809" cy="28.8236" r="2.3383" stroke="yellow" stroke-width="2" fill="none"/>
<circle cx="530.756" cy="97.6509" r="2.11943" stroke="yellow" stroke-width="2" fill="none"/>
<circle cx="530.756" cy="97.6509" r="2.11943" stroke="yellow" stroke-width="2" fill="none"/>
<circle cx="479.38" cy="97.9755" r="1.60033" stroke="yellow" stroke-width="2" fill="none"/>
<circle cx="527.931" cy="103.162" r="2.05424" stroke="yellow" stroke-width="2" fill="none"/>
<circle cx="527.931" cy="103.162" r="2.05424" stroke="yellow" stroke-width="2" fill="none"/>
<circle cx="381.698" cy="105.987" r="1.9802" stroke="yellow" stroke-width="2" fill="none"/>
<circle cx="194.438" cy="113.595" r="1.80861" stroke="yellow" stroke-width="2" fill="none"/>
<circle cx="212.699" cy="115.441" r="2.02067" stroke="yellow" stroke-width="2" fill="none"/>
<circle cx="217.809" cy="115.557" r="2.17821" stroke="yellow" stroke-width="2" fill="none"/>
<circle cx="195.162" cy="119.113" r="2.21772" stroke="yellow" stroke-width="2" fill="none"/>
<circle cx="200.539" cy="122.702" r="1.82645" stroke="yellow" stroke-width="2" fill="none"/>
<circle cx="182.72" cy="127.214" r="1.78532" stroke="yellow" stroke-width="2" fill="none"/>
<circle cx="248.563" cy="127.515" r="1.89283" stroke="yellow" stroke-width="2" fill="none"/>
<circle cx="393.164" cy="131.12" r="1.90968" stroke="yellow" stroke-width="2" fill="none"/>
<circle cx="246.868" cy="132.368" r="1.87002" stroke="yellow" stroke-width="2" fill="none"/>
<circle cx="376.183" cy="136.204" r="1.94263" stroke="yellow" stroke-width="2" fill="none"/>
<circle cx="385.727" cy="135.552" r="1.91935" stroke="yellow" stroke-width="2" fill="none"/>
<circle cx="217.19" cy="143.471" r="2.2006" stroke="yellow" stroke-width="2" fill="none"/>
<circle cx="211.104" cy="144.529" r="2.21301" stroke="yellow" stroke-width="2" fill="none"/>
<circle cx="230.099" cy="153.14" r="2.1826" stroke="yellow" stroke-width="2" fill="none"/>
<circle cx="367.861" cy="157.024" r="1.9293" stroke="yellow" stroke-width="2" fill="none"/>
<circle cx="214.503" cy="161.992" r="2.05582" stroke="yellow" stroke-width="2" fill="none"/>
<circle cx="316.007" cy="163.301" r="1.96241" stroke="yellow" stroke-width="2" fill="none"/>
<circle cx="433.74" cy="177.857" r="2.06445" stroke="yellow" stroke-width="2" fill="none"/>
<circle cx="134.017" cy="179.696" r="1.81707" stroke="yellow" stroke-width="2" fill="none"/>
<circle cx="216.312" cy="181.408" r="1.9933" stroke="yellow" stroke-width="2" fill="none"/>
<circle cx="215.85" cy="187.335" r="1.86968" stroke="yellow" stroke-width="2" fill="none"/>
<circle cx="69.089" cy="207.915" r="2.06657" stroke="yellow" stroke-width="2" fill="none"/>
<circle cx="305.33" cy="208.949" r="1.98242" stroke="yellow" stroke-width="2" fill="none"/>
<circle cx="129.86" cy="210.7" r="1.7921" stroke="yellow" stroke-width="2" fill="none"/>
<circle cx="278.194" cy="215.345" r="2.01991" stroke="yellow" stroke-width="2" fill="none"/>
<circle cx="80.9288" cy="215.832" r="2.09554" stroke="yellow" stroke-width="2" fill="none"/>
<circle cx="75.2645" cy="218.076" r="2.18716" stroke="yellow" stroke-width="2" fill="none"/>
<circle cx="120.617" cy="220.434" r="1.84638" stroke="yellow" stroke-width="2" fill="none"/>
<circle cx="504.522" cy="220.144" r="2.08277" stroke="yellow" stroke-width="2" fill="none"/>
<circle cx="392.86" cy="225.099" r="1.75028" stroke="yellow" stroke-width="2" fill="none"/>
<circle cx="399.378" cy="229.126" r="1.88264" stroke="yellow" stroke-width="2" fill="none"/>
<circle cx="68.0725" cy="230.081" r="1.99722" stroke="yellow" stroke-width="2" fill="none"/>
<circle cx="68.0725" cy="230.081" r="1.99722" stroke="yellow" stroke-width="2" fill="none"/>
<circle cx="359.021" cy="230.954" r="2.22311" stroke="yellow" stroke-width="2" fill="none"/>
<circle cx="409.264" cy="234.423" r="2.01427" stroke="yellow" stroke-width="2" fill="none"/>
<circle cx="394.073" cy="239.887" r="1.96737" stroke="yellow" stroke-width="2" fill="none"/>
<circle cx="448.068" cy="241.756" r="2.04509" stroke="yellow" stroke-width="2" fill="none"/>
<circle cx="464.469" cy="244.227" r="1.97817" stroke="yellow" stroke-width="2" fill="none"/>
<circle cx="628.558" cy="247.531" r="1.97089" stroke="yellow" stroke-width="2" fill="none"/>
<circle cx="458.07" cy="247.703" r="2.21357" stroke="yellow" stroke-width="2" fill="none"/>
<circle cx="458.07" cy="247.703" r="2.21357" stroke="yellow" stroke-width="2" fill="none"/>
<circle cx="285.388" cy="251.042" r="1.83991" stroke="yellow" stroke-width="2" fill="none"/>
<circle cx="426.49" cy="254.865" r="2.11567" stroke="yellow" stroke-width="2" fill="none"/>
<circle cx="264.176" cy="255.624" r="1.824" stroke="yellow" stroke-width="2" fill="none"/>
<circle cx="326.431" cy="263.729" r="1.95574" stroke="yellow" stroke-width="2" fill="none"/>
<circle cx="359.195" cy="263.733" r="1.80931" stroke="yellow" stroke-width="2" fill="none"/>
<circle cx="540.912" cy="265.592" r="1.93337" stroke="yellow" stroke-width="2" fill="none"/>
<circle cx="540.912" cy="265.592" r="1.93337" stroke="yellow" stroke-width="2" fill="none"/>
<circle cx="629.832" cy="265.167" r="2.06806" stroke="yellow" stroke-width="2" fill="none"/>
<circle cx="475.605" cy="265.757" r="1.89394" stroke="yellow" stroke-width="2" fill="none"/>
<circle cx="505.899" cy="266.814" r="2.02412" stroke="yellow" stroke-width="2" fill="none"/>
<circle cx="422.992" cy="267.825" r="2.20799" stroke="yellow" stroke-width="2" fill="none"/>
<circle cx="469.883" cy="268.01" r="1.82399" stroke="yellow" stroke-width="2" fill="none"/>
<circle cx="634.429" cy="269.981" r="2.27333" stroke="yellow" stroke-width="2" fill="none"/>
<circle cx="625.757" cy="271.34" r="1.88649" stroke="yellow" stroke-width="2" fill="none"/>
<circle cx="507.046" cy="273.162" r="1.98803" stroke="yellow" stroke-width="2" fill="none"/>
<circle cx="167.892" cy="278.749" r="2.15008" stroke="yellow" stroke-width="2" fill="none"/>
<circle cx="622.492" cy="281.232" r="2.12984" stroke="yellow" stroke-width="2" fill="none"/>
<circle cx="187.132" cy="285.636" r="2.13448" stroke="yellow" stroke-width="2" fill="none"/>
<circle cx="206.271" cy="292.902" r="2.01771" stroke="yellow" stroke-width="2" fill="none"/>
<circle cx="624.547" cy="293.237" r="2.19365" stroke="yellow" stroke-width="2" fill="none"/>
<circle cx="624.547" cy="293.237" r="2.19365" stroke="yellow" stroke-width="2" fill="none"/>
<circle cx="348.474" cy="296.997" r="2.03493" stroke="yellow" stroke-width="2" fill="none"/>
<circle cx="492.988" cy="297.995" r="2.06976" stroke="yellow" stroke-width="2" fill="none"/>
<circle cx="337.175" cy="301.218" r="2.24981" stroke="yellow" stroke-width="2" fill="none"/>
<circle cx="417.836" cy="313.722" r="2.08427" stroke="yellow" stroke-width="2" fill="none"/>
<circle cx="417.836" cy="313.722" r="2.08427" stroke="yellow" stroke-width="2" fill="none"/>
<circle cx="608.517" cy="314.296" r="2.30339" stroke="yellow" stroke-width="2" fill="none"/>
<circle cx="380.565" cy="314.857" r="2.25318" stroke="yellow" stroke-width="2" fill="none"/>
<circle cx="488.948" cy="319.367" r="1.80224" stroke="yellow" stroke-width="2" fill="none"/>
<circle cx="353.808" cy="321.301" r="1.8052" stroke="yellow" stroke-width="2" fill="none"/>
<circle cx="601.292" cy="329.795" r="2.10108" stroke="yellow" stroke-width="2" fill="none"/>
<circle cx="425.167" cy="331.133" r="2.00253" stroke="yellow" stroke-width="2" fill="none"/>
<circle cx="360.925" cy="334.803" r="1.99525" stroke="yellow" stroke-width="2" fill="none"/>
<circle cx="204.054" cy="340.593" r="1.94718" stroke="yellow" stroke-width="2" fill="none"/>
<circle cx="204.054" cy="340.593" r="1.94718" stroke="yellow" stroke-width="2" fill="none"/>
<circle cx="366.86" cy="341.696" r="1.84979" stroke="yellow" stroke-width="2" fill="none"/>
<circle cx="264.296" cy="350.309" r="2.15017" stroke="yellow" stroke-width="2" fill="none"/>
<circle cx="461.594" cy="350.761" r="2.00051" stroke="yellow" stroke-width="2" fill="none"/>
<circle cx="279.215" cy="356.036" r="1.85643" stroke="yellow" stroke-width="2" fill="none"/>
<circle cx="338.845" cy="361.392" r="1.80241" stroke="yellow" stroke-width="2" fill="none"/>
<circle cx="199.891" cy="362.035" r="1.78943" stroke="yellow" stroke-width="2" fill="none"/>
<circle cx="409.495" cy="394.708" r="1.9216" stroke="yellow" stroke-width="2" fill="none"/>
<circle cx="574.969" cy="422.598" r="2.04728" stroke="yellow" stroke-width="2" fill="none"/>
<circle cx="632.145" cy="455.868" r="1.91823" stroke="yellow" stroke-width="2" fill="none"/>
<circle cx="461.413" cy="460.03" r="1.83256" stroke="yellow" stroke-width="2" fill="none"/>
<circle cx="576.284" cy="471.947" r="1.9985" stroke="yellow" stroke-width="2" fill="none"/>
<circle cx="50.6911" cy="17.9692" r="2.59204" stroke="yellow" stroke-width="2" fill="none"/>
<circle cx="50.6911" cy="17.9692" r="2.59204" stroke="yellow" stroke-width="2" fill="none"/>
<circle cx="80.4916" cy="19.4301" r="2.88581" stroke="yellow" stroke-width="2" fill="none"/>
<circle cx="102.392" cy="23.1905" r="2.26567" stroke="yellow" stroke-width="2" fill="none"/>
<circle cx="424.638" cy="25.0877" r="2.60535" stroke="yellow" stroke-width="2" fill="none"/>
<circle cx="86.7168" cy="27.4412" r="2.60143" stroke="yellow" stroke-width="2" fill="none"/>
<circle cx="100.157" cy="29.4944" r="2.71159" stroke="yellow" stroke-width="2" fill="none"/>
<circle cx="446.011" cy="28.7454" r="2.4035" stroke="yellow" stroke-width="2" fill="none"/>
<circle cx="631.979" cy="53.0697" r="2.47402" stroke="yellow" stroke-width="2" fill="none"/>
<circle cx="440.674" cy="53.1083" r="2.87414" stroke="yellow" stroke-width="2" fill="none"/>
<circle cx="369.713" cy="75.9094" r="2.57336" stroke="yellow" stroke-width="2" fill="none"/>
<circle cx="445.976" cy="78.106" r="2.44602" stroke="yellow" stroke-width="2" fill="none"/>
<circle cx="520.019" cy="85.5582" r="2.83558" stroke="yellow" stroke-width="2" fill="none"/>
<circle cx="535.403" cy="87.19" r="2.55356" stroke="yellow" stroke-width="2" fill="none"/>
<circle cx="505.008" cy="99.2595" r="2.34916" stroke="yellow" stroke-width="2" fill="none"/>
<circle cx="536.703" cy="102.879" r="2.34595" stroke="yellow" stroke-width="2" fill="none"/>
<circle cx="228.834" cy="118.904" r="2.37178" stroke="yellow" stroke-width="2" fill="none"/>
<circle cx="211.351" cy="135.02" r="2.54711" stroke="yellow" stroke-width="2" fill="none"/>
<circle cx="206.24" cy="147.212" r="2.42623" stroke="yellow" stroke-width="2" fill="none"/>
<circle cx="287.491" cy="150.595" r="2.84246" stroke="yellow" stroke-width="2" fill="none"/>
<circle cx="201.738" cy="153.153" r="2.62815" stroke="yellow" stroke-width="2" fill="none"/>
<circle cx="231.942" cy="159.501" r="2.8123" stroke="yellow" stroke-width="2" fill="none"/>
<circle cx="201.959" cy="163.737" r="2.50754" stroke="yellow" stroke-width="2" fill="none"/>
<circle cx="367.179" cy="164.187" r="2.37074" stroke="yellow" stroke-width="2" fill="none"/>
<circle cx="367.179" cy="164.187" r="2.37074" stroke="yellow" stroke-width="2" fill="none"/>
<circle cx="374.624" cy="164.307" r="2.19395" stroke="yellow" stroke-width="2" fill="none"/>
<circle cx="262.888" cy="167.511" r="2.60752" stroke="yellow" stroke-width="2" fill="none"/>
<circle cx="342.812" cy="170.337" r="2.38266" stroke="yellow" stroke-width="2" fill="none"/>
<circle cx="304.053" cy="171.239" r="2.43987" stroke="yellow" stroke-width="2" fill="none"/>
<circle cx="448.933" cy="173.573" r="2.68958" stroke="yellow" stroke-width="2" fill="none"/>
<circle cx="264.693" cy="181.321" r="2.35575" stroke="yellow" stroke-width="2" fill="none"/>
<circle cx="143.94" cy="192.965" r="2.69826" stroke="yellow" stroke-width="2" fill="none"/>
<circle cx="233.234" cy="192.57" r="2.35246" stroke="yellow" stroke-width="2" fill="none"/>
<circle cx="233.234" cy="192.57" r="2.35246" stroke="yellow" stroke-width="2" fill="none"/>
<circle cx="217.212" cy="194.803" r="2.35139" stroke="yellow" stroke-width="2" fill="none"/>
<circle cx="277.499" cy="196.761" r="2.32214" stroke="yellow" stroke-width="2" fill="none"/>
<circle cx="424.478" cy="232.471" r="2.74219" stroke="yellow" stroke-width="2" fill="none"/>
<circle cx="298.583" cy="236.186" r="2.29168" stroke="yellow" stroke-width="2" fill="none"/>
<circle cx="405.47" cy="251.041" r="2.85789" stroke="yellow" stroke-width="2" fill="none"/>
<circle cx="626.652" cy="253.875" r="2.44331" stroke="yellow" stroke-width="2" fill="none"/>
<circle cx="626.652" cy="253.875" r="2.44331" stroke="yellow" stroke-width="2" fill="none"/>
<circle cx="420.964" cy="260.515" r="2.34712" stroke="yellow" stroke-width="2" fill="none"/>
<circle cx="420.964" cy="260.515" r="2.34712" stroke="yellow" stroke-width="2" fill="none"/>
<circle cx="614.646" cy="261.788" r="2.80209" stroke="yellow" stroke-width="2" fill="none"/>
<circle cx="266.124" cy="263.237" r="2.69495" stroke="yellow" stroke-width="2" fill="none"/>
<circle cx="377.641" cy="269.403" r="2.80963" stroke="yellow" stroke-width="2" fill="none"/>
<circle cx="250.044" cy="272.461" r="2.59336" stroke="yellow" stroke-width="2" fill="none"/>
<circle cx="609.928" cy="273.822" r="2.878" stroke="yellow" stroke-width="2" fill="none"/>
<circle cx="605.659" cy="283.773" r="2.7949" stroke="yellow" stroke-width="2" fill="none"/>
<circle cx="627.941" cy="285.028" r="2.26256" stroke="yellow" stroke-width="2" fill="none"/>
<circle cx="619.449" cy="288.881" r="2.50383" stroke="yellow" stroke-width="2" fill="none"/>
<circle cx="611.544" cy="290.328" r="2.77108" stroke="yellow" stroke-width="2" fill="none"/>
<circle cx="611.544" cy="290.328" r="2.77108" stroke="yellow" stroke-width="2" fill="none"/>
<circle cx="463.953" cy="292.094" r="2.24727" stroke="yellow" stroke-width="2" fill="none"/>
<circle cx="216.158" cy="292.981" r="2.67489" stroke="yellow" stroke-width="2" fill="none"/>
<circle cx="467.631" cy="297.884" r="2.31631" stroke="yellow" stroke-width="2" fill="none"/>
<circle cx="615.645" cy="297.879" r="2.39113" stroke="yellow" stroke-width="2" fill="none"/>
<circle cx="326.395" cy="304.556" r="2.59546" stroke="yellow" stroke-width="2" fill="none"/>
<circle cx="611.622" cy="306.908" r="2.5969" stroke="yellow" stroke-width="2" fill="none"/>
<circle cx="385.15" cy="321.539" r="2.72523" stroke="yellow" stroke-width="2" fill="none"/>
<circle cx="605.247" cy="321.315" r="2.54234" stroke="yellow" stroke-width="2" fill="none"/>
<circle cx="597.357" cy="322.079" r="2.84518" stroke="yellow" stroke-width="2" fill="none"/>
<circle cx="597.357" cy="322.079" r="2.84518" stroke="yellow" stroke-width="2" fill="none"/>
<circle cx="604.314" cy="338.902" r="2.27209" stroke="yellow" stroke-width="2" fill="none"/>
<circle cx="432.973" cy="398.811" r="2.6773" stroke="yellow" stroke-width="2" fill="none"/>
<circle cx="465.193" cy="447.935" r="2.44532" stroke="yellow" stroke-width="2" fill="none"/>
<circle cx="560.649" cy="463.612" r="2.67307" stroke="yellow" stroke-width="2" fill="none"/>
<circle cx="459.111" cy="465.892" r="2.31205" stroke="yellow" stroke-width="2" fill="none"/>
<circle cx="479.134" cy="472.188" r="2.42945" stroke="yellow" stroke-width="2" fill="none"/>
<circle cx="511.367" cy="95.3253" r="3.19556" stroke="yellow" stroke-width="2" fill="none"/>
<circle cx="377.315" cy="111.863" r="3.24825" stroke="yellow" stroke-width="2" fill="none"/>
<circle cx="321.95" cy="144.572" r="2.94132" stroke="yellow" stroke-width="2" fill="none"/>
<circle cx="367.187" cy="147.383" r="3.58918" stroke="yellow" stroke-width="2" fill="none"/>
<circle cx="378.099" cy="154.717" r="2.97889" stroke="yellow" stroke-width="2" fill="none"/>
<circle cx="378.099" cy="154.717" r="2.97889" stroke="yellow" stroke-width="2" fill="none"/>
<circle cx="129.763" cy="155.433" r="3.48966" stroke="yellow" stroke-width="2" fill="none"/>
<circle cx="208.67" cy="156.235" r="3.45104" stroke="yellow" stroke-width="2" fill="none"/>
<circle cx="348.135" cy="161.63" r="3.03477" stroke="yellow" stroke-width="2" fill="none"/>
<circle cx="313.084" cy="169.203" r="2.96113" stroke="yellow" stroke-width="2" fill="none"/>
<circle cx="129.079" cy="169.612" r="3.48788" stroke="yellow" stroke-width="2" fill="none"/>
<circle cx="264.527" cy="174.393" r="3.03703" stroke="yellow" stroke-width="2" fill="none"/>
<circle cx="423.315" cy="182.626" r="3.38091" stroke="yellow" stroke-width="2" fill="none"/>
<circle cx="323.381" cy="185.22" r="3.14277" stroke="yellow" stroke-width="2" fill="none"/>
<circle cx="323.381" cy="185.22" r="3.14277" stroke="yellow" stroke-width="2" fill="none"/>
<circle cx="439.305" cy="196.074" r="3.44084" stroke="yellow" stroke-width="2" fill="none"/>
<circle cx="138.373" cy="198.63" r="3.09002" stroke="yellow" stroke-width="2" fill="none"/>
<circle cx="210.751" cy="207.43" r="3.45572" stroke="yellow" stroke-width="2" fill="none"/>
<circle cx="310.703" cy="213.185" r="2.89317" stroke="yellow" stroke-width="2" fill="none"/>
<circle cx="632.346" cy="220.725" r="3.05558" stroke="yellow" stroke-width="2" fill="none"/>
<circle cx="496.705" cy="223.89" r="3.19654" stroke="yellow" stroke-width="2" fill="none"/>
<circle cx="496.705" cy="223.89" r="3.19654" stroke="yellow" stroke-width="2" fill="none"/>
<circle cx="628.122" cy="230.267" r="3.17414" stroke="yellow" stroke-width="2" fill="none"/>
<circle cx="478.977" cy="241.992" r="3.44534" stroke="yellow" stroke-width="2" fill="none"/>
<circle cx="433.547" cy="246.111" r="3.45036" stroke="yellow" stroke-width="2" fill="none"/>
<circle cx="288.8" cy="257.283" r="3.3729" stroke="yellow" stroke-width="2" fill="none"/>
<circle cx="306.911" cy="260.458" r="2.85741" stroke="yellow" stroke-width="2" fill="none"/>
<circle cx="622.442" cy="263.689" r="2.85884" stroke="yellow" stroke-width="2" fill="none"/>
<circle cx="622.442" cy="263.689" r="2.85884" stroke="yellow" stroke-width="2" fill="none"/>
<circle cx="362.376" cy="264.706" r="3.31628" stroke="yellow" stroke-width="2" fill="none"/>
<circle cx="618.723" cy="270.334" r="3.34061" stroke="yellow" stroke-width="2" fill="none"/>
<circle cx="336.023" cy="275.635" r="2.95809" stroke="yellow" stroke-width="2" fill="none"/>
<circle cx="161.965" cy="283.429" r="3.39677" stroke="yellow" stroke-width="2" fill="none"/>
<circle cx="524.273" cy="287.312" r="2.75606" stroke="yellow" stroke-width="2" fill="none"/>
<circle cx="228.866" cy="289.282" r="3.45918" stroke="yellow" stroke-width="2" fill="none"/>
<circle cx="602.935" cy="291.101" r="3.04411" stroke="yellow" stroke-width="2" fill="none"/>
<circle cx="338.337" cy="293.493" r="3.09797" stroke="yellow" stroke-width="2" fill="none"/>
<circle cx="338.337" cy="293.493" r="3.09797" stroke="yellow" stroke-width="2" fill="none"/>
<circle cx="607.373" cy="299.948" r="2.9929" stroke="yellow" stroke-width="2" fill="none"/>
<circle cx="607.373" cy="299.948" r="2.9929" stroke="yellow" stroke-width="2" fill="none"/>
<circle cx="628.997" cy="302.636" r="3.06787" stroke="yellow" stroke-width="2" fill="none"/>
<circle cx="349.421" cy="306.272" r="2.9635" stroke="yellow" stroke-width="2" fill="none"/>
<circle cx="349.421" cy="306.272" r="2.9635" stroke="yellow" stroke-width="2" fill="none"/>
<circle cx="381.637" cy="349.961" r="3.47407" stroke="yellow" stroke-width="2" fill="none"/>
<circle cx="292.608" cy="364.035" r="2.94815" stroke="yellow" stroke-width="2" fill="none"/>
<circle cx="540.46" cy="382.034" r="3.21294" stroke="yellow" stroke-width="2" fill="none"/>
<circle cx="540.46" cy="382.034" r="3.21294" stroke="yellow" stroke-width="2" fill="none"/>
<circle cx="418.873" cy="409.926" r="3.02956" stroke="yellow" stroke-width="2" fill="none"/>
<circle cx="563.817" cy="454.37" r="3.46024" stroke="yellow" stroke-width="2" fill="none"/>
<circle cx="553.681" cy="465.697" r="2.71514" stroke="yellow" stroke-width="2" fill="none"/>
<circle cx="553.681" cy="465.697" r="2.71514" stroke="yellow" stroke-width="2" fill="none"/>
<circle cx="446.359" cy="80.2655" r="3.73623" stroke="yellow" stroke-width="2" fill="none"/>
<circle cx="518.272" cy="104.962" r="3.75678" stroke="yellow" stroke-width="2" fill="none"/>
<circle cx="383.196" cy="124.027" r="4.39698" stroke="yellow" stroke-width="2" fill="none"/>
<circle cx="543.637" cy="139.045" r="4.06306" stroke="yellow" stroke-width="2" fill="none"/>
<circle cx="356.183" cy="141.561" r="3.74407" stroke="yellow" stroke-width="2" fill="none"/>
<circle cx="525.775" cy="144.078" r="3.63189" stroke="yellow" stroke-width="2" fill="none"/>
<circle cx="366.222" cy="147.427" r="3.96367" stroke="yellow" stroke-width="2" fill="none"/>
<circle cx="128.859" cy="169.266" r="3.38047" stroke="yellow" stroke-width="2" fill="none"/>
<circle cx="253.093" cy="169.012" r="4.11506" stroke="yellow" stroke-width="2" fill="none"/>
<circle cx="433.669" cy="175.321" r="4.02614" stroke="yellow" stroke-width="2" fill="none"/>
<circle cx="265.596" cy="185.867" r="3.91635" stroke="yellow" stroke-width="2" fill="none"/>
<circle cx="371.178" cy="185.214" r="4.18289" stroke="yellow" stroke-width="2" fill="none"/>
<circle cx="210.348" cy="207.73" r="3.58029" stroke="yellow" stroke-width="2" fill="none"/>
<circle cx="124.096" cy="222.653" r="3.74905" stroke="yellow" stroke-width="2" fill="none"/>
<circle cx="623.511" cy="243.721" r="3.91102" stroke="yellow" stroke-width="2" fill="none"/>
<circle cx="434.382" cy="245.356" r="3.87488" stroke="yellow" stroke-width="2" fill="none"/>
<circle cx="357.184" cy="256.48" r="3.896" stroke="yellow" stroke-width="2" fill="none"/>
<circle cx="357.184" cy="256.48" r="3.896" stroke="yellow" stroke-width="2" fill="none"/>
<circle cx="319.883" cy="268.527" r="4.67159" stroke="yellow" stroke-width="2" fill="none"/>
<circle cx="327.366" cy="277.996" r="4.23629" stroke="yellow" stroke-width="2" fill="none"/>
<circle cx="245.963" cy="284.159" r="3.95223" stroke="yellow" stroke-width="2" fill="none"/>
<circle cx="228.903" cy="289.94" r="3.89178" stroke="yellow" stroke-width="2" fill="none"/>
<circle cx="355.751" cy="329.557" r="4.29099" stroke="yellow" stroke-width="2" fill="none"/>
<circle cx="397.394" cy="386.499" r="4.05484" stroke="yellow" stroke-width="2" fill="none"/>
<circle cx="552.042" cy="461.372" r="4.20666" stroke="yellow" stroke-width="2" fill="none"/>
<circle cx="68.4677" cy="14.7774" r="5.45109" stroke="yellow" stroke-width="2" fill="none"/>
<circle cx="311.552" cy="74.1876" r="4.66526" stroke="yellow" stroke-width="2" fill="none"/>
<circle cx="383.65" cy="88.1943" r="5.4087" stroke="yellow" stroke-width="2" fill="none"/>
<circle cx="95.1864" cy="105.454" r="5.15078" stroke="yellow" stroke-width="2" fill="none"/>
<circle cx="498.969" cy="118.349" r="5.40656" stroke="yellow" stroke-width="2" fill="none"/>
<circle cx="485.649" cy="123.908" r="5.64994" stroke="yellow" stroke-width="2" fill="none"/>
<circle cx="542.199" cy="150.55" r="5.53985" stroke="yellow" stroke-width="2" fill="none"/>
<circle cx="233.4" cy="151.848" r="4.75606" stroke="yellow" stroke-width="2" fill="none"/>
<circle cx="358.747" cy="152.849" r="4.79699" stroke="yellow" stroke-width="2" fill="none"/>
<circle cx="217.373" cy="178.265" r="4.698" stroke="yellow" stroke-width="2" fill="none"/>
<circle cx="372.433" cy="184.685" r="4.58364" stroke="yellow" stroke-width="2" fill="none"/>
<circle cx="443.356" cy="184.11" r="5.48971" stroke="yellow" stroke-width="2" fill="none"/>
<circle cx="443.356" cy="184.11" r="5.48971" stroke="yellow" stroke-width="2" fill="none"/>
<circle cx="298.156" cy="195.055" r="5.04921" stroke="yellow" stroke-width="2" fill="none"/>
<circle cx="312.597" cy="203.511" r="5.062" stroke="yellow" stroke-width="2" fill="none"/>
<circle cx="312.597" cy="203.511" r="5.062" stroke="yellow" stroke-width="2" fill="none"/>
<circle cx="473.631" cy="216.546" r="5.33298" stroke="yellow" stroke-width="2" fill="none"/>
<circle cx="472.874" cy="231.491" r="5.39394" stroke="yellow" stroke-width="2" fill="none"/>
<circle cx="403.012" cy="240.293" r="4.15492" stroke="yellow" stroke-width="2" fill="none"/>
<circle cx="441.461" cy="256.158" r="4.72933" stroke="yellow" stroke-width="2" fill="none"/>
<circle cx="367.87" cy="264.572" r="5.04213" stroke="yellow" stroke-width="2" fill="none"/>
<circle cx="367.87" cy="264.572" r="5.04213" stroke="yellow" stroke-width="2" fill="none"/>
<circle cx="367.87" cy="264.572" r="5.04213" stroke="yellow" stroke-width="2" fill="none"/>
<circle cx="496.081" cy="286.964" r="5.63259" stroke="yellow" stroke-width="2" fill="none"/>
<circle cx="329.611" cy="301.967" r="5.24115" stroke="yellow" stroke-width="2" fill="none"/>
<circle cx="98.682" cy="315.881" r="5.41315" stroke="yellow" stroke-width="2" fill="none"/>
<circle cx="584.323" cy="340.09" r="5.31603" stroke="yellow" stroke-width="2" fill="none"/>
<circle cx="367.455" cy="349.422" r="4.85696" stroke="yellow" stroke-width="2" fill="none"/>
<circle cx="457.91" cy="359.125" r="4.82345" stroke="yellow" stroke-width="2" fill="none"/>
<circle cx="386.992" cy="370.892" r="3.89057" stroke="yellow" stroke-width="2" fill="none"/>
<circle cx="143.101" cy="376.907" r="5.1774" stroke="yellow" stroke-width="2" fill="none"/>
<circle cx="617.014" cy="442.677" r="4.82648" stroke="yellow" stroke-width="2" fill="none"/>
<circle cx="479.648" cy="466.78" r="4.59558" stroke="yellow" stroke-width="2" fill="none"/>
<circle cx="436.705" cy="19.5614" r="5.79235" stroke="yellow" stroke-width="2" fill="none"/>
<circle cx="439.404" cy="38.4601" r="6.96532" stroke="yellow" stroke-width="2" fill="none"/>
<circle cx="104.249" cy="46.0832" r="5.80866" stroke="yellow" stroke-width="2" fill="none"/>
<circle cx="489.669" cy="105.329" r="6.47643" stroke="yellow" stroke-width="2" fill="none"/>
<circle cx="211.835" cy="137.552" r="6.32502" stroke="yellow" stroke-width="2" fill="none"/>
<circle cx="328.286" cy="198.686" r="6.43577" stroke="yellow" stroke-width="2" fill="none"/>
<circle cx="524.172" cy="223.723" r="6.68708" stroke="yellow" stroke-width="2" fill="none"/>
<circle cx="415.442" cy="244.151" r="6.71053" stroke="yellow" stroke-width="2" fill="none"/>
<circle cx="194.213" cy="249.868" r="6.03528" stroke="yellow" stroke-width="2" fill="none"/>
<circle cx="206.977" cy="271.149" r="5.97371" stroke="yellow" stroke-width="2" fill="none"/>
<circle cx="410.812" cy="309.301" r="6.78816" stroke="yellow" stroke-width="2" fill="none"/>
<circle cx="620.434" cy="310.15" r="6.80958" stroke="yellow" stroke-width="2" fill="none"/>
<circle cx="364.843" cy="320.437" r="5.82503" stroke="yellow" stroke-width="2" fill="none"/>
<circle cx="364.843" cy="320.437" r="5.82503" stroke="yellow" stroke-width="2" fill="none"/>
<circle cx="412.098" cy="327.243" r="6.26489" stroke="yellow" stroke-width="2" fill="none"/>
<circle cx="480.336" cy="327.812" r="6.11128" stroke="yellow" stroke-width="2" fill="none"/>
<circle cx="227.991" cy="400.722" r="6.44328" stroke="yellow" stroke-width="2" fill="none"/>
<circle cx="451.269" cy="448.751" r="7.73" stroke="yellow" stroke-width="2" fill="none"/>
<circle cx="622.019" cy="457.296" r="6.78338" stroke="yellow" stroke-width="2" fill="none"/>
<circle cx="514.496" cy="85.4238" r="7.53385" stroke="yellow" stroke-width="2" fill="none"/>
<circle cx="69.4114" cy="92.5536" r="8.14634" stroke="yellow" stroke-width="2" fill="none"/>
<circle cx="217.07" cy="156.701" r="7.62996" stroke="yellow" stroke-width="2" fill="none"/>
<circle cx="217.07" cy="156.701" r="7.62996" stroke="yellow" stroke-width="2" fill="none"/>
<circle cx="217.07" cy="156.701" r="7.62996" stroke="yellow" stroke-width="2" fill="none"/>
<circle cx="513.019" cy="203.556" r="8.88683" stroke="yellow" stroke-width="2" fill="none"/>
<circle cx="350.192" cy="242.175" r="7.32494" stroke="yellow" stroke-width="2" fill="none"/>
<circle cx="260.652" cy="278.76" r="8.56008" stroke="yellow" stroke-width="2" fill="none"/>
<circle cx="78.7457" cy="39.9557" r="10.7316" stroke="yellow" stroke-width="2" fill="none"/>
<circle cx="78.7457" cy="39.9557" r="10.7316" stroke="yellow" stroke-width="2" fill="none"/>
<circle cx="529.864" cy="67.0172" r="11.0339" stroke="yellow" stroke-width="2" fill="none"/>
<circle cx="397.172" cy="91.6681" r="10.0953" stroke="yellow" stroke-width="2" fill="none"/>
<circle cx="509.177" cy="171.763" r="10.1121" stroke="yellow" stroke-width="2" fill="none"/>
<circle cx="328.238" cy="174.304" r="9.81442" stroke="yellow" stroke-width="2" fill="none"/>
<circle cx="311.916" cy="231.383" r="10.6933" stroke="yellow" stroke-width="2" fill="none"/>
<circle cx="311.916" cy="231.383" r="10.6933" stroke="yellow" stroke-width="2" fill="none"/>
<circle cx="459.768" cy="64.3312" r="12.8829" stroke="yellow" stroke-width="2" fill="none"/>
<circle cx="125.412" cy="125.702" r="11.8663" stroke="yellow" stroke-width="2" fill="none"/>
<circle cx="435.951" cy="285.393" r="12.8612" stroke="yellow" stroke-width="2" fill="none"/>
<circle cx="95.1823" cy="299.574" r="13.0309" stroke="yellow" stroke-width="2" fill="none"/>
<circle cx="270.617" cy="368.913" r="13.5334" stroke="yellow" stroke-width="2" fill="none"/>
<circle cx="409.067" cy="406.532" r="11.7652" stroke="yellow" stroke-width="2" fill="none"/>
<circle cx="453.57" cy="418.944" r="11.8271" stroke="yellow" stroke-width="2" fill="none"/>
<circle cx="545.721" cy="445.117" r="11.8417" stroke="yellow" stroke-width="2" fill="none"/>
<circle cx="305.229" cy="133.776" r="18.3328" stroke="yellow" stroke-width="2" fill="none"/>
<circle cx="525.386" cy="398.272" r="17.4324" stroke="yellow" stroke-width="2" fill="none"/>
<circle cx="240.471" cy="124.907" r="22.6477" stroke="yellow" stroke-width="2" fill="none"/>
<circle cx="486.428" cy="212.672" r="22.3365" stroke="yellow" stroke-width="2" fill="none"/>
<circle cx="155.016" cy="246.573" r="20.871" stroke="yellow" stroke-width="2" fill="none"/>
<circle cx="383.201" cy="270.763" r="22.2646" stroke="yellow" stroke-width="2" fill="none"/>
<circle cx="98.5974" cy="214.866" r="25.4223" stroke="yellow" stroke-width="2" fill="none"/>
<circle cx="246.604" cy="237.883" r="27.8957" stroke="yellow" stroke-width="2" fill="none"/>
<circle cx="97.739" cy="118.897" r="28.2147" stroke="yellow" stroke-width="2" fill="none"/>
<circle cx="562.127" cy="254.177" r="34.4928" stroke="yellow" stroke-width="2" fill="none"/>
<circle cx="476.612" cy="354.231" r="53.6112" stroke="yellow" stroke-width="2" fill="none"/>
<circle cx="216.82" cy="200.308" r="63.8197" stroke="yellow" stroke-width="2" fill="none"/>
</svg>