<?xml version="1.0" standalone="yes"?>
<!-- SVG graphic -->
<svg xmlns='http://www.w3.org/2000/svg' xmlns:xlink='http://www.w3.org/1999/xlink'
width="640px" height="480px" preserveAspectRatio="xMinYMin meet" viewBox="0 0 640 480" version="1.1">
<image x="0" y="0" width="640px" height="480px" opacity="1" xlink:href="E:\fengbing\reconstraction\sources\data\et\et002.jpg"/>
<circle cx="92.8605" cy="10.5113" r="2.09029" stroke="yellow" stroke-width="2" fill="none"/>
<circle cx="92.8605" cy="10.5113" r="2.09029" stroke="yellow" stroke-width="2" fill="none"/>
<circle cx="92.8605" cy="10.5113" r="2.09029" stroke="yellow" stroke-width="2" fill="none"/>
<circle cx="491.205" cy="21.8865" r="1.66208" stroke="yellow" stroke-width="2" fill="none"/>
<circle cx="144.977" cy="29.1929" r="2.04222" stroke="yellow" stroke-width="2" fill="none"/>
<circle cx="486.715" cy="29.0013" r="1.93856" stroke="yellow" stroke-width="2" fill="none"/>
<circle cx="217.118" cy="31.5372" r="1.79347" stroke="yellow" stroke-width="2" fill="none"/>
<circle cx="240.075" cy="32.5957" r="1.98056" stroke="yellow" stroke-width="2" fill="none"/>
<circle cx="114.506" cy="39.8197" r="1.8934" stroke="yellow" stroke-width="2" fill="none"/>
<circle cx="109.215" cy="42.7953" r="1.80127" stroke="yellow" stroke-width="2" fill="none"/>
<circle cx="16.2243" cy="44.5521" r="2.07202" stroke="yellow" stroke-width="2" fill="none"/>
<circle cx="86.8199" cy="53.8076" r="2.08567" stroke="yellow" stroke-width="2" fill="none"/>
<circle cx="86.8199" cy="53.8076" r="2.08567" stroke="yellow" stroke-width="2" fill="none"/>
<circle cx="145.347" cy="69.9045" r="1.83742" stroke="yellow" stroke-width="2" fill="none"/>
<circle cx="602.647" cy="69.4334" r="2.07763" stroke="yellow" stroke-width="2" fill="none"/>
<circle cx="599.01" cy="74.1198" r="2.0311" stroke="yellow" stroke-width="2" fill="none"/>
<circle cx="23.2311" cy="74.9661" r="2.03616" stroke="yellow" stroke-width="2" fill="none"/>
<circle cx="441.058" cy="76.2124" r="1.96071" stroke="yellow" stroke-width="2" fill="none"/>
<circle cx="591.492" cy="86.3844" r="2.83226" stroke="yellow" stroke-width="2" fill="none"/>
<circle cx="398.983" cy="85.7566" r="2.36437" stroke="yellow" stroke-width="2" fill="none"/>
<circle cx="444.453" cy="87.9927" r="1.77136" stroke="yellow" stroke-width="2" fill="none"/>
<circle cx="444.453" cy="87.9927" r="1.77136" stroke="yellow" stroke-width="2" fill="none"/>
<circle cx="449.183" cy="91.8468" r="2.01053" stroke="yellow" stroke-width="2" fill="none"/>
<circle cx="449.183" cy="91.8468" r="2.01053" stroke="yellow" stroke-width="2" fill="none"/>
<circle cx="289.777" cy="96.2805" r="2.19182" stroke="yellow" stroke-width="2" fill="none"/>
<circle cx="431.814" cy="97.5418" r="1.7941" stroke="yellow" stroke-width="2" fill="none"/>
<circle cx="431.814" cy="97.5418" r="1.7941" stroke="yellow" stroke-width="2" fill="none"/>
<circle cx="599.686" cy="98.3679" r="1.88398" stroke="yellow" stroke-width="2" fill="none"/>
<circle cx="475.215" cy="98.8267" r="2.23432" stroke="yellow" stroke-width="2" fill="none"/>
<circle cx="481.258" cy="99.5948" r="1.91278" stroke="yellow" stroke-width="2" fill="none"/>
<circle cx="590.474" cy="104.175" r="2.28396" stroke="yellow" stroke-width="2" fill="none"/>
<circle cx="102.427" cy="104.959" r="1.84688" stroke="yellow" stroke-width="2" fill="none"/>
<circle cx="75.7426" cy="109.517" r="2.04568" stroke="yellow" stroke-width="2" fill="none"/>
<circle cx="75.7426" cy="109.517" r="2.04568" stroke="yellow" stroke-width="2" fill="none"/>
<circle cx="600.576" cy="118.641" r="1.83495" stroke="yellow" stroke-width="2" fill="none"/>
<circle cx="600.576" cy="118.641" r="1.83495" stroke="yellow" stroke-width="2" fill="none"/>
<circle cx="126.052" cy="122.38" r="1.91285" stroke="yellow" stroke-width="2" fill="none"/>
<circle cx="603.112" cy="127.358" r="2.26281" stroke="yellow" stroke-width="2" fill="none"/>
<circle cx="603.112" cy="127.358" r="2.26281" stroke="yellow" stroke-width="2" fill="none"/>
<circle cx="599.036" cy="132.84" r="2.11204" stroke="yellow" stroke-width="2" fill="none"/>
<circle cx="356.57" cy="139.472" r="2.16405" stroke="yellow" stroke-width="2" fill="none"/>
<circle cx="602.224" cy="143.117" r="2.24563" stroke="yellow" stroke-width="2" fill="none"/>
<circle cx="613.838" cy="144.838" r="1.85898" stroke="yellow" stroke-width="2" fill="none"/>
<circle cx="85.6428" cy="148.649" r="2.27206" stroke="yellow" stroke-width="2" fill="none"/>
<circle cx="85.6428" cy="148.649" r="2.27206" stroke="yellow" stroke-width="2" fill="none"/>
<circle cx="280.366" cy="149.414" r="1.89065" stroke="yellow" stroke-width="2" fill="none"/>
<circle cx="72.1117" cy="149.514" r="2.05516" stroke="yellow" stroke-width="2" fill="none"/>
<circle cx="604.876" cy="151.935" r="2.14941" stroke="yellow" stroke-width="2" fill="none"/>
<circle cx="611.408" cy="151.164" r="2.29631" stroke="yellow" stroke-width="2" fill="none"/>
<circle cx="616.858" cy="153.065" r="1.94439" stroke="yellow" stroke-width="2" fill="none"/>
<circle cx="75.1026" cy="154.019" r="1.94271" stroke="yellow" stroke-width="2" fill="none"/>
<circle cx="253.05" cy="154.212" r="2.16857" stroke="yellow" stroke-width="2" fill="none"/>
<circle cx="335.115" cy="156.945" r="1.88374" stroke="yellow" stroke-width="2" fill="none"/>
<circle cx="411.041" cy="157.232" r="1.7838" stroke="yellow" stroke-width="2" fill="none"/>
<circle cx="344.199" cy="163.347" r="2.31976" stroke="yellow" stroke-width="2" fill="none"/>
<circle cx="619.079" cy="163.099" r="1.81901" stroke="yellow" stroke-width="2" fill="none"/>
<circle cx="624.773" cy="164.1" r="1.64723" stroke="yellow" stroke-width="2" fill="none"/>
<circle cx="617.639" cy="173.862" r="2.13361" stroke="yellow" stroke-width="2" fill="none"/>
<circle cx="617.639" cy="173.862" r="2.13361" stroke="yellow" stroke-width="2" fill="none"/>
<circle cx="623.633" cy="176.1" r="2.19761" stroke="yellow" stroke-width="2" fill="none"/>
<circle cx="75.3445" cy="178.48" r="2.12767" stroke="yellow" stroke-width="2" fill="none"/>
<circle cx="625.786" cy="184.6" r="1.83225" stroke="yellow" stroke-width="2" fill="none"/>
<circle cx="501.647" cy="189.412" r="2.08817" stroke="yellow" stroke-width="2" fill="none"/>
<circle cx="628.887" cy="192.538" r="1.82086" stroke="yellow" stroke-width="2" fill="none"/>
<circle cx="286.87" cy="197.716" r="2.06027" stroke="yellow" stroke-width="2" fill="none"/>
<circle cx="251.861" cy="199.645" r="2.10119" stroke="yellow" stroke-width="2" fill="none"/>
<circle cx="336.699" cy="212.21" r="2.01169" stroke="yellow" stroke-width="2" fill="none"/>
<circle cx="430.281" cy="214.414" r="2.18585" stroke="yellow" stroke-width="2" fill="none"/>
<circle cx="163.627" cy="218.882" r="2.04658" stroke="yellow" stroke-width="2" fill="none"/>
<circle cx="222.528" cy="221.146" r="1.78494" stroke="yellow" stroke-width="2" fill="none"/>
<circle cx="298.072" cy="225.037" r="1.88845" stroke="yellow" stroke-width="2" fill="none"/>
<circle cx="468.208" cy="224.707" r="1.97842" stroke="yellow" stroke-width="2" fill="none"/>
<circle cx="14.2361" cy="232.709" r="1.83897" stroke="yellow" stroke-width="2" fill="none"/>
<circle cx="456.546" cy="235.053" r="1.98378" stroke="yellow" stroke-width="2" fill="none"/>
<circle cx="160.785" cy="240.131" r="2.23421" stroke="yellow" stroke-width="2" fill="none"/>
<circle cx="160.785" cy="240.131" r="2.23421" stroke="yellow" stroke-width="2" fill="none"/>
<circle cx="9.26287" cy="252.58" r="1.6774" stroke="yellow" stroke-width="2" fill="none"/>
<circle cx="166.665" cy="255.056" r="1.93236" stroke="yellow" stroke-width="2" fill="none"/>
<circle cx="569.186" cy="262.569" r="1.86823" stroke="yellow" stroke-width="2" fill="none"/>
<circle cx="254.132" cy="264.141" r="2.14334" stroke="yellow" stroke-width="2" fill="none"/>
<circle cx="200.834" cy="267.212" r="2.0773" stroke="yellow" stroke-width="2" fill="none"/>
<circle cx="225.943" cy="267.022" r="2.256" stroke="yellow" stroke-width="2" fill="none"/>
<circle cx="239.306" cy="285.219" r="2.19028" stroke="yellow" stroke-width="2" fill="none"/>
<circle cx="490.455" cy="292.125" r="2.12322" stroke="yellow" stroke-width="2" fill="none"/>
<circle cx="484.782" cy="292.667" r="2.05306" stroke="yellow" stroke-width="2" fill="none"/>
<circle cx="500.517" cy="313.029" r="1.91459" stroke="yellow" stroke-width="2" fill="none"/>
<circle cx="500.517" cy="313.029" r="1.91459" stroke="yellow" stroke-width="2" fill="none"/>
<circle cx="501.866" cy="327.387" r="1.87612" stroke="yellow" stroke-width="2" fill="none"/>
<circle cx="503.347" cy="334.479" r="1.88268" stroke="yellow" stroke-width="2" fill="none"/>
<circle cx="559.6" cy="335.108" r="2.14283" stroke="yellow" stroke-width="2" fill="none"/>
<circle cx="405.986" cy="337.848" r="1.87392" stroke="yellow" stroke-width="2" fill="none"/>
<circle cx="461.025" cy="347.142" r="1.95936" stroke="yellow" stroke-width="2" fill="none"/>
<circle cx="461.025" cy="347.142" r="1.95936" stroke="yellow" stroke-width="2" fill="none"/>
<circle cx="184.542" cy="364.953" r="1.82694" stroke="yellow" stroke-width="2" fill="none"/>
<circle cx="408.794" cy="378.152" r="1.82087" stroke="yellow" stroke-width="2" fill="none"/>
<circle cx="414.277" cy="380.561" r="2.12502" stroke="yellow" stroke-width="2" fill="none"/>
<circle cx="238.676" cy="401.381" r="1.97536" stroke="yellow" stroke-width="2" fill="none"/>
<circle cx="297.039" cy="402.754" r="2.15935" stroke="yellow" stroke-width="2" fill="none"/>
<circle cx="297.039" cy="402.754" r="2.15935" stroke="yellow" stroke-width="2" fill="none"/>
<circle cx="239.867" cy="413.86" r="2.07849" stroke="yellow" stroke-width="2" fill="none"/>
<circle cx="526.437" cy="418.861" r="1.74697" stroke="yellow" stroke-width="2" fill="none"/>
<circle cx="512.708" cy="424.292" r="2.10997" stroke="yellow" stroke-width="2" fill="none"/>
<circle cx="409.849" cy="427.896" r="1.80435" stroke="yellow" stroke-width="2" fill="none"/>
<circle cx="507.752" cy="7.54476" r="2.57236" stroke="yellow" stroke-width="2" fill="none"/>
<circle cx="127.348" cy="13.6325" r="2.37765" stroke="yellow" stroke-width="2" fill="none"/>
<circle cx="135.88" cy="16.9488" r="2.62156" stroke="yellow" stroke-width="2" fill="none"/>
<circle cx="282.616" cy="27.7486" r="2.76475" stroke="yellow" stroke-width="2" fill="none"/>
<circle cx="245.203" cy="38.5212" r="2.6019" stroke="yellow" stroke-width="2" fill="none"/>
<circle cx="283.587" cy="40.5132" r="2.52087" stroke="yellow" stroke-width="2" fill="none"/>
<circle cx="74.2196" cy="48.7178" r="2.65294" stroke="yellow" stroke-width="2" fill="none"/>
<circle cx="74.2196" cy="48.7178" r="2.65294" stroke="yellow" stroke-width="2" fill="none"/>
<circle cx="21.506" cy="53.2431" r="2.53018" stroke="yellow" stroke-width="2" fill="none"/>
<circle cx="15.9319" cy="62.5199" r="2.70673" stroke="yellow" stroke-width="2" fill="none"/>
<circle cx="15.9319" cy="62.5199" r="2.70673" stroke="yellow" stroke-width="2" fill="none"/>
<circle cx="23.1574" cy="62.6787" r="2.33334" stroke="yellow" stroke-width="2" fill="none"/>
<circle cx="281.801" cy="73.9762" r="2.28398" stroke="yellow" stroke-width="2" fill="none"/>
<circle cx="140.368" cy="78.3733" r="2.37009" stroke="yellow" stroke-width="2" fill="none"/>
<circle cx="605.964" cy="84.4174" r="2.4774" stroke="yellow" stroke-width="2" fill="none"/>
<circle cx="83.1646" cy="91.4181" r="2.38436" stroke="yellow" stroke-width="2" fill="none"/>
<circle cx="83.1646" cy="91.4181" r="2.38436" stroke="yellow" stroke-width="2" fill="none"/>
<circle cx="607.889" cy="92.1439" r="2.65756" stroke="yellow" stroke-width="2" fill="none"/>
<circle cx="268.014" cy="94.6544" r="2.74928" stroke="yellow" stroke-width="2" fill="none"/>
<circle cx="274.885" cy="94.9241" r="2.6174" stroke="yellow" stroke-width="2" fill="none"/>
<circle cx="114.921" cy="100.462" r="2.51973" stroke="yellow" stroke-width="2" fill="none"/>
<circle cx="108.29" cy="103.574" r="2.47205" stroke="yellow" stroke-width="2" fill="none"/>
<circle cx="260.154" cy="111.473" r="2.4308" stroke="yellow" stroke-width="2" fill="none"/>
<circle cx="300.532" cy="112.571" r="2.45741" stroke="yellow" stroke-width="2" fill="none"/>
<circle cx="170.029" cy="115.206" r="2.73731" stroke="yellow" stroke-width="2" fill="none"/>
<circle cx="253.594" cy="115.746" r="2.74507" stroke="yellow" stroke-width="2" fill="none"/>
<circle cx="74.8195" cy="120.301" r="2.40843" stroke="yellow" stroke-width="2" fill="none"/>
<circle cx="81.6046" cy="123.38" r="2.43637" stroke="yellow" stroke-width="2" fill="none"/>
<circle cx="81.6046" cy="123.38" r="2.43637" stroke="yellow" stroke-width="2" fill="none"/>
<circle cx="605.898" cy="136.245" r="2.99604" stroke="yellow" stroke-width="2" fill="none"/>
<circle cx="275.803" cy="140.839" r="2.50208" stroke="yellow" stroke-width="2" fill="none"/>
<circle cx="625.315" cy="144.823" r="2.38587" stroke="yellow" stroke-width="2" fill="none"/>
<circle cx="412.486" cy="145.786" r="2.38443" stroke="yellow" stroke-width="2" fill="none"/>
<circle cx="406.554" cy="147.94" r="2.2971" stroke="yellow" stroke-width="2" fill="none"/>
<circle cx="478.159" cy="153.978" r="2.77707" stroke="yellow" stroke-width="2" fill="none"/>
<circle cx="627.664" cy="153.907" r="2.63668" stroke="yellow" stroke-width="2" fill="none"/>
<circle cx="417.212" cy="158.926" r="2.65044" stroke="yellow" stroke-width="2" fill="none"/>
<circle cx="607.289" cy="158.91" r="2.31817" stroke="yellow" stroke-width="2" fill="none"/>
<circle cx="127.308" cy="165.844" r="2.5846" stroke="yellow" stroke-width="2" fill="none"/>
<circle cx="127.308" cy="165.844" r="2.5846" stroke="yellow" stroke-width="2" fill="none"/>
<circle cx="358.575" cy="174.085" r="2.62441" stroke="yellow" stroke-width="2" fill="none"/>
<circle cx="447.047" cy="178.721" r="2.68323" stroke="yellow" stroke-width="2" fill="none"/>
<circle cx="500.399" cy="180.316" r="2.50115" stroke="yellow" stroke-width="2" fill="none"/>
<circle cx="620.11" cy="183.062" r="2.34085" stroke="yellow" stroke-width="2" fill="none"/>
<circle cx="620.11" cy="183.062" r="2.34085" stroke="yellow" stroke-width="2" fill="none"/>
<circle cx="615.635" cy="189.85" r="2.32757" stroke="yellow" stroke-width="2" fill="none"/>
<circle cx="251.706" cy="198.921" r="2.30255" stroke="yellow" stroke-width="2" fill="none"/>
<circle cx="324.305" cy="204.312" r="2.75468" stroke="yellow" stroke-width="2" fill="none"/>
<circle cx="324.305" cy="204.312" r="2.75468" stroke="yellow" stroke-width="2" fill="none"/>
<circle cx="423.921" cy="209.36" r="2.6369" stroke="yellow" stroke-width="2" fill="none"/>
<circle cx="304.052" cy="211.652" r="2.77075" stroke="yellow" stroke-width="2" fill="none"/>
<circle cx="326.605" cy="211.86" r="2.25538" stroke="yellow" stroke-width="2" fill="none"/>
<circle cx="326.605" cy="211.86" r="2.25538" stroke="yellow" stroke-width="2" fill="none"/>
<circle cx="476.107" cy="224.917" r="2.84564" stroke="yellow" stroke-width="2" fill="none"/>
<circle cx="455.453" cy="242.042" r="2.71103" stroke="yellow" stroke-width="2" fill="none"/>
<circle cx="187.825" cy="262.187" r="2.58844" stroke="yellow" stroke-width="2" fill="none"/>
<circle cx="249.192" cy="267.013" r="2.33243" stroke="yellow" stroke-width="2" fill="none"/>
<circle cx="229.219" cy="272.826" r="2.44578" stroke="yellow" stroke-width="2" fill="none"/>
<circle cx="221.03" cy="285.778" r="2.41679" stroke="yellow" stroke-width="2" fill="none"/>
<circle cx="534.463" cy="306.454" r="2.09783" stroke="yellow" stroke-width="2" fill="none"/>
<circle cx="534.463" cy="306.454" r="2.09783" stroke="yellow" stroke-width="2" fill="none"/>
<circle cx="507.414" cy="327.144" r="2.55814" stroke="yellow" stroke-width="2" fill="none"/>
<circle cx="188.055" cy="337.453" r="2.69953" stroke="yellow" stroke-width="2" fill="none"/>
<circle cx="383.698" cy="384.128" r="2.42487" stroke="yellow" stroke-width="2" fill="none"/>
<circle cx="408.881" cy="389.229" r="2.43045" stroke="yellow" stroke-width="2" fill="none"/>
<circle cx="424.992" cy="404.337" r="2.83601" stroke="yellow" stroke-width="2" fill="none"/>
<circle cx="459.702" cy="418.499" r="2.51571" stroke="yellow" stroke-width="2" fill="none"/>
<circle cx="467.167" cy="425.043" r="2.25318" stroke="yellow" stroke-width="2" fill="none"/>
<circle cx="360.992" cy="441.286" r="2.44664" stroke="yellow" stroke-width="2" fill="none"/>
<circle cx="360.992" cy="441.286" r="2.44664" stroke="yellow" stroke-width="2" fill="none"/>
<circle cx="379.057" cy="467.651" r="1.8404" stroke="yellow" stroke-width="2" fill="none"/>
<circle cx="379.057" cy="467.651" r="1.8404" stroke="yellow" stroke-width="2" fill="none"/>
<circle cx="106.96" cy="2.75451" r="3.19194" stroke="yellow" stroke-width="2" fill="none"/>
<circle cx="537.409" cy="12.7932" r="3.06678" stroke="yellow" stroke-width="2" fill="none"/>
<circle cx="97.3677" cy="17.1878" r="3.17314" stroke="yellow" stroke-width="2" fill="none"/>
<circle cx="128.854" cy="22.5451" r="3.30168" stroke="yellow" stroke-width="2" fill="none"/>
<circle cx="527.721" cy="23.4418" r="3.30709" stroke="yellow" stroke-width="2" fill="none"/>
<circle cx="527.721" cy="23.4418" r="3.30709" stroke="yellow" stroke-width="2" fill="none"/>
<circle cx="165.726" cy="31.8496" r="3.48839" stroke="yellow" stroke-width="2" fill="none"/>
<circle cx="95.7202" cy="33.404" r="3.15805" stroke="yellow" stroke-width="2" fill="none"/>
<circle cx="76.0252" cy="35.619" r="3.08223" stroke="yellow" stroke-width="2" fill="none"/>
<circle cx="103.392" cy="38.3028" r="3.27407" stroke="yellow" stroke-width="2" fill="none"/>
<circle cx="101.867" cy="49.4543" r="3.19504" stroke="yellow" stroke-width="2" fill="none"/>
<circle cx="69.578" cy="77.0777" r="3.4949" stroke="yellow" stroke-width="2" fill="none"/>
<circle cx="134.717" cy="78.5797" r="3.64426" stroke="yellow" stroke-width="2" fill="none"/>
<circle cx="267.207" cy="80.6041" r="3.39224" stroke="yellow" stroke-width="2" fill="none"/>
<circle cx="125.065" cy="81.9839" r="3.5002" stroke="yellow" stroke-width="2" fill="none"/>
<circle cx="97.2661" cy="98.7012" r="3.04975" stroke="yellow" stroke-width="2" fill="none"/>
<circle cx="275.416" cy="112.863" r="3.22526" stroke="yellow" stroke-width="2" fill="none"/>
<circle cx="282.679" cy="113.039" r="3.38918" stroke="yellow" stroke-width="2" fill="none"/>
<circle cx="594.463" cy="114.442" r="2.90696" stroke="yellow" stroke-width="2" fill="none"/>
<circle cx="428.02" cy="120.171" r="2.99858" stroke="yellow" stroke-width="2" fill="none"/>
<circle cx="264.103" cy="121.302" r="3.2984" stroke="yellow" stroke-width="2" fill="none"/>
<circle cx="214.465" cy="122.883" r="2.89588" stroke="yellow" stroke-width="2" fill="none"/>
<circle cx="169.18" cy="125.41" r="3.29326" stroke="yellow" stroke-width="2" fill="none"/>
<circle cx="255.412" cy="125.564" r="3.48974" stroke="yellow" stroke-width="2" fill="none"/>
<circle cx="618.41" cy="127.146" r="3.07121" stroke="yellow" stroke-width="2" fill="none"/>
<circle cx="158.728" cy="129.13" r="3.0924" stroke="yellow" stroke-width="2" fill="none"/>
<circle cx="276.223" cy="130.174" r="3.6168" stroke="yellow" stroke-width="2" fill="none"/>
<circle cx="91.7016" cy="155.495" r="3.60553" stroke="yellow" stroke-width="2" fill="none"/>
<circle cx="91.7016" cy="155.495" r="3.60553" stroke="yellow" stroke-width="2" fill="none"/>
<circle cx="344.656" cy="156.185" r="3.28372" stroke="yellow" stroke-width="2" fill="none"/>
<circle cx="402.706" cy="161.35" r="3.13041" stroke="yellow" stroke-width="2" fill="none"/>
<circle cx="467.187" cy="161.607" r="3.05468" stroke="yellow" stroke-width="2" fill="none"/>
<circle cx="285.253" cy="165.595" r="2.79007" stroke="yellow" stroke-width="2" fill="none"/>
<circle cx="294.098" cy="183.712" r="3.34999" stroke="yellow" stroke-width="2" fill="none"/>
<circle cx="334.792" cy="191.975" r="2.99681" stroke="yellow" stroke-width="2" fill="none"/>
<circle cx="424.189" cy="200.462" r="3.40542" stroke="yellow" stroke-width="2" fill="none"/>
<circle cx="256.149" cy="204.789" r="3.22415" stroke="yellow" stroke-width="2" fill="none"/>
<circle cx="256.149" cy="204.789" r="3.22415" stroke="yellow" stroke-width="2" fill="none"/>
<circle cx="412.522" cy="206.635" r="3.61996" stroke="yellow" stroke-width="2" fill="none"/>
<circle cx="298.414" cy="217.926" r="3.51935" stroke="yellow" stroke-width="2" fill="none"/>
<circle cx="227.438" cy="238.198" r="3.58217" stroke="yellow" stroke-width="2" fill="none"/>
<circle cx="314.341" cy="240.008" r="3.14274" stroke="yellow" stroke-width="2" fill="none"/>
<circle cx="130.084" cy="245.438" r="3.03702" stroke="yellow" stroke-width="2" fill="none"/>
<circle cx="123.986" cy="255.014" r="3.24747" stroke="yellow" stroke-width="2" fill="none"/>
<circle cx="445.683" cy="258.751" r="2.86998" stroke="yellow" stroke-width="2" fill="none"/>
<circle cx="215.365" cy="265.148" r="3.42466" stroke="yellow" stroke-width="2" fill="none"/>
<circle cx="568.656" cy="266.199" r="3.2163" stroke="yellow" stroke-width="2" fill="none"/>
<circle cx="622.717" cy="281.059" r="3.00176" stroke="yellow" stroke-width="2" fill="none"/>
<circle cx="239.42" cy="286.391" r="2.58993" stroke="yellow" stroke-width="2" fill="none"/>
<circle cx="526.425" cy="304.147" r="3.42047" stroke="yellow" stroke-width="2" fill="none"/>
<circle cx="526.425" cy="304.147" r="3.42047" stroke="yellow" stroke-width="2" fill="none"/>
<circle cx="541.556" cy="316.181" r="3.14128" stroke="yellow" stroke-width="2" fill="none"/>
<circle cx="216.875" cy="323.448" r="3.36637" stroke="yellow" stroke-width="2" fill="none"/>
<circle cx="288.577" cy="323.246" r="3.17333" stroke="yellow" stroke-width="2" fill="none"/>
<circle cx="288.577" cy="323.246" r="3.17333" stroke="yellow" stroke-width="2" fill="none"/>
<circle cx="458.452" cy="328.251" r="3.17834" stroke="yellow" stroke-width="2" fill="none"/>
<circle cx="458.452" cy="328.251" r="3.17834" stroke="yellow" stroke-width="2" fill="none"/>
<circle cx="210.902" cy="332.493" r="3.20771" stroke="yellow" stroke-width="2" fill="none"/>
<circle cx="204.938" cy="341.38" r="2.97087" stroke="yellow" stroke-width="2" fill="none"/>
<circle cx="633.899" cy="358.1" r="3.41977" stroke="yellow" stroke-width="2" fill="none"/>
<circle cx="616.727" cy="372.871" r="3.20426" stroke="yellow" stroke-width="2" fill="none"/>
<circle cx="386.582" cy="471.328" r="3.17672" stroke="yellow" stroke-width="2" fill="none"/>
<circle cx="105.482" cy="27.7153" r="4.00144" stroke="yellow" stroke-width="2" fill="none"/>
<circle cx="124.61" cy="81.6804" r="3.79814" stroke="yellow" stroke-width="2" fill="none"/>
<circle cx="247.186" cy="102.838" r="4.68889" stroke="yellow" stroke-width="2" fill="none"/>
<circle cx="265.606" cy="103.196" r="4.14953" stroke="yellow" stroke-width="2" fill="none"/>
<circle cx="281.645" cy="112.879" r="3.39922" stroke="yellow" stroke-width="2" fill="none"/>
<circle cx="169.579" cy="126.305" r="4.08364" stroke="yellow" stroke-width="2" fill="none"/>
<circle cx="421.244" cy="149.543" r="4.15377" stroke="yellow" stroke-width="2" fill="none"/>
<circle cx="421.244" cy="149.543" r="4.15377" stroke="yellow" stroke-width="2" fill="none"/>
<circle cx="360.179" cy="156.626" r="3.81227" stroke="yellow" stroke-width="2" fill="none"/>
<circle cx="446.586" cy="177.254" r="3.66937" stroke="yellow" stroke-width="2" fill="none"/>
<circle cx="119.854" cy="198.504" r="4.19065" stroke="yellow" stroke-width="2" fill="none"/>
<circle cx="622.647" cy="205.018" r="4.44051" stroke="yellow" stroke-width="2" fill="none"/>
<circle cx="412.589" cy="206.643" r="3.60161" stroke="yellow" stroke-width="2" fill="none"/>
<circle cx="318.062" cy="222.866" r="4.4593" stroke="yellow" stroke-width="2" fill="none"/>
<circle cx="394.417" cy="239.176" r="4.1394" stroke="yellow" stroke-width="2" fill="none"/>
<circle cx="517.246" cy="312.78" r="4.81869" stroke="yellow" stroke-width="2" fill="none"/>
<circle cx="224.205" cy="313.165" r="3.92501" stroke="yellow" stroke-width="2" fill="none"/>
<circle cx="557.67" cy="320.9" r="3.96552" stroke="yellow" stroke-width="2" fill="none"/>
<circle cx="401.87" cy="335.885" r="4.56035" stroke="yellow" stroke-width="2" fill="none"/>
<circle cx="512.649" cy="362.613" r="4.13926" stroke="yellow" stroke-width="2" fill="none"/>
<circle cx="175.346" cy="367.229" r="3.81018" stroke="yellow" stroke-width="2" fill="none"/>
<circle cx="287.669" cy="402.313" r="4.01585" stroke="yellow" stroke-width="2" fill="none"/>
<circle cx="371.676" cy="409.221" r="4.2397" stroke="yellow" stroke-width="2" fill="none"/>
<circle cx="367.892" cy="469.011" r="4.23652" stroke="yellow" stroke-width="2" fill="none"/>
<circle cx="367.892" cy="469.011" r="4.23652" stroke="yellow" stroke-width="2" fill="none"/>
<circle cx="234.097" cy="23.007" r="5.56893" stroke="yellow" stroke-width="2" fill="none"/>
<circle cx="234.097" cy="23.007" r="5.56893" stroke="yellow" stroke-width="2" fill="none"/>
<circle cx="128.803" cy="33.4525" r="5.02362" stroke="yellow" stroke-width="2" fill="none"/>
<circle cx="15.8474" cy="56.3005" r="4.89214" stroke="yellow" stroke-width="2" fill="none"/>
<circle cx="15.8474" cy="56.3005" r="4.89214" stroke="yellow" stroke-width="2" fill="none"/>
<circle cx="585.79" cy="72.2332" r="5.18832" stroke="yellow" stroke-width="2" fill="none"/>
<circle cx="450.943" cy="80.1976" r="5.38371" stroke="yellow" stroke-width="2" fill="none"/>
<circle cx="430.46" cy="81.4662" r="5.26394" stroke="yellow" stroke-width="2" fill="none"/>
<circle cx="118.916" cy="99.7979" r="5.27656" stroke="yellow" stroke-width="2" fill="none"/>
<circle cx="239.22" cy="111.499" r="4.91076" stroke="yellow" stroke-width="2" fill="none"/>
<circle cx="419.734" cy="114.545" r="4.88945" stroke="yellow" stroke-width="2" fill="none"/>
<circle cx="203.82" cy="127.847" r="5.09547" stroke="yellow" stroke-width="2" fill="none"/>
<circle cx="203.82" cy="127.847" r="5.09547" stroke="yellow" stroke-width="2" fill="none"/>
<circle cx="278.209" cy="130.09" r="4.7955" stroke="yellow" stroke-width="2" fill="none"/>
<circle cx="263.819" cy="131.936" r="4.91507" stroke="yellow" stroke-width="2" fill="none"/>
<circle cx="119.24" cy="157.463" r="4.94368" stroke="yellow" stroke-width="2" fill="none"/>
<circle cx="625.178" cy="156.418" r="5.02452" stroke="yellow" stroke-width="2" fill="none"/>
<circle cx="319.488" cy="195.588" r="4.94492" stroke="yellow" stroke-width="2" fill="none"/>
<circle cx="303.237" cy="203.163" r="5.64937" stroke="yellow" stroke-width="2" fill="none"/>
<circle cx="160.24" cy="213.518" r="4.5904" stroke="yellow" stroke-width="2" fill="none"/>
<circle cx="228.579" cy="226.671" r="5.0854" stroke="yellow" stroke-width="2" fill="none"/>
<circle cx="228.579" cy="226.671" r="5.0854" stroke="yellow" stroke-width="2" fill="none"/>
<circle cx="376.259" cy="233.704" r="5.18349" stroke="yellow" stroke-width="2" fill="none"/>
<circle cx="170.605" cy="249.453" r="5.52647" stroke="yellow" stroke-width="2" fill="none"/>
<circle cx="140.512" cy="252.554" r="4.94186" stroke="yellow" stroke-width="2" fill="none"/>
<circle cx="46.7804" cy="257.211" r="5.7917" stroke="yellow" stroke-width="2" fill="none"/>
<circle cx="240.012" cy="292.503" r="5.28333" stroke="yellow" stroke-width="2" fill="none"/>
<circle cx="501.62" cy="297.971" r="5.34042" stroke="yellow" stroke-width="2" fill="none"/>
<circle cx="496.297" cy="313.001" r="4.98657" stroke="yellow" stroke-width="2" fill="none"/>
<circle cx="409.166" cy="419.741" r="5.29854" stroke="yellow" stroke-width="2" fill="none"/>
<circle cx="395.177" cy="432.31" r="5.25413" stroke="yellow" stroke-width="2" fill="none"/>
<circle cx="468.664" cy="450.159" r="5.02302" stroke="yellow" stroke-width="2" fill="none"/>
<circle cx="484.662" cy="466.809" r="4.90677" stroke="yellow" stroke-width="2" fill="none"/>
<circle cx="149.153" cy="20.2229" r="6.65468" stroke="yellow" stroke-width="2" fill="none"/>
<circle cx="149.153" cy="20.2229" r="6.65468" stroke="yellow" stroke-width="2" fill="none"/>
<circle cx="549.077" cy="19.4056" r="6.50156" stroke="yellow" stroke-width="2" fill="none"/>
<circle cx="229.845" cy="40.5431" r="7.25022" stroke="yellow" stroke-width="2" fill="none"/>
<circle cx="472.26" cy="39.3026" r="6.60517" stroke="yellow" stroke-width="2" fill="none"/>
<circle cx="452.429" cy="63.4212" r="6.70911" stroke="yellow" stroke-width="2" fill="none"/>
<circle cx="185.251" cy="81.0393" r="6.80269" stroke="yellow" stroke-width="2" fill="none"/>
<circle cx="183.188" cy="102.016" r="6.15284" stroke="yellow" stroke-width="2" fill="none"/>
<circle cx="63.4669" cy="116.723" r="5.76533" stroke="yellow" stroke-width="2" fill="none"/>
<circle cx="63.4669" cy="116.723" r="5.76533" stroke="yellow" stroke-width="2" fill="none"/>
<circle cx="63.4669" cy="116.723" r="5.76533" stroke="yellow" stroke-width="2" fill="none"/>
<circle cx="472.246" cy="134.497" r="6.06857" stroke="yellow" stroke-width="2" fill="none"/>
<circle cx="472.246" cy="134.497" r="6.06857" stroke="yellow" stroke-width="2" fill="none"/>
<circle cx="80.6875" cy="141.293" r="6.19561" stroke="yellow" stroke-width="2" fill="none"/>
<circle cx="297.007" cy="173.043" r="5.85689" stroke="yellow" stroke-width="2" fill="none"/>
<circle cx="462.562" cy="177.471" r="6.82318" stroke="yellow" stroke-width="2" fill="none"/>
<circle cx="333.21" cy="185.072" r="6.02444" stroke="yellow" stroke-width="2" fill="none"/>
<circle cx="161.09" cy="192.398" r="6.54738" stroke="yellow" stroke-width="2" fill="none"/>
<circle cx="276.574" cy="190.992" r="7.0337" stroke="yellow" stroke-width="2" fill="none"/>
<circle cx="119.75" cy="202.631" r="5.9086" stroke="yellow" stroke-width="2" fill="none"/>
<circle cx="13.1598" cy="213.244" r="6.50257" stroke="yellow" stroke-width="2" fill="none"/>
<circle cx="568.798" cy="275.3" r="6.45621" stroke="yellow" stroke-width="2" fill="none"/>
<circle cx="216.059" cy="279.189" r="7.13289" stroke="yellow" stroke-width="2" fill="none"/>
<circle cx="240.126" cy="294.191" r="5.82291" stroke="yellow" stroke-width="2" fill="none"/>
<circle cx="545.469" cy="324.89" r="6.40767" stroke="yellow" stroke-width="2" fill="none"/>
<circle cx="559.806" cy="340.479" r="6.29853" stroke="yellow" stroke-width="2" fill="none"/>
<circle cx="424.761" cy="380.807" r="7.54071" stroke="yellow" stroke-width="2" fill="none"/>
<circle cx="470.246" cy="450.056" r="5.7746" stroke="yellow" stroke-width="2" fill="none"/>
<circle cx="407.218" cy="98.0682" r="8.43782" stroke="yellow" stroke-width="2" fill="none"/>
<circle cx="207.786" cy="109.474" r="8.15028" stroke="yellow" stroke-width="2" fill="none"/>
<circle cx="409.229" cy="121.875" r="7.96938" stroke="yellow" stroke-width="2" fill="none"/>
<circle cx="119.729" cy="135.868" r="7.3307" stroke="yellow" stroke-width="2" fill="none"/>
<circle cx="100.601" cy="139.949" r="7.4512" stroke="yellow" stroke-width="2" fill="none"/>
<circle cx="464.829" cy="153.869" r="8.47696" stroke="yellow" stroke-width="2" fill="none"/>
<circle cx="285.766" cy="229.695" r="9.1484" stroke="yellow" stroke-width="2" fill="none"/>
<circle cx="482.772" cy="276.953" r="8.50136" stroke="yellow" stroke-width="2" fill="none"/>
<circle cx="212.196" cy="279.842" r="8.21574" stroke="yellow" stroke-width="2" fill="none"/>
<circle cx="374.084" cy="438.783" r="8.16947" stroke="yellow" stroke-width="2" fill="none"/>
<circle cx="374.084" cy="438.783" r="8.16947" stroke="yellow" stroke-width="2" fill="none"/>
<circle cx="374.084" cy="438.783" r="8.16947" stroke="yellow" stroke-width="2" fill="none"/>
<circle cx="374.084" cy="438.783" r="8.16947" stroke="yellow" stroke-width="2" fill="none"/>
<circle cx="227.899" cy="446.451" r="8.94032" stroke="yellow" stroke-width="2" fill="none"/>
<circle cx="268.289" cy="29.1155" r="9.9836" stroke="yellow" stroke-width="2" fill="none"/>
<circle cx="144.338" cy="81.8346" r="9.1335" stroke="yellow" stroke-width="2" fill="none"/>
<circle cx="461.769" cy="84.3793" r="10.3061" stroke="yellow" stroke-width="2" fill="none"/>
<circle cx="461.769" cy="84.3793" r="10.3061" stroke="yellow" stroke-width="2" fill="none"/>
<circle cx="483.974" cy="106.86" r="10.4769" stroke="yellow" stroke-width="2" fill="none"/>
<circle cx="483.974" cy="106.86" r="10.4769" stroke="yellow" stroke-width="2" fill="none"/>
<circle cx="602.574" cy="109.659" r="9.54971" stroke="yellow" stroke-width="2" fill="none"/>
<circle cx="337.503" cy="245.76" r="10.1933" stroke="yellow" stroke-width="2" fill="none"/>
<circle cx="114.324" cy="267.108" r="9.57208" stroke="yellow" stroke-width="2" fill="none"/>
<circle cx="390.165" cy="268.302" r="11.1865" stroke="yellow" stroke-width="2" fill="none"/>
<circle cx="352.016" cy="273.559" r="10.7347" stroke="yellow" stroke-width="2" fill="none"/>
<circle cx="208.145" cy="279.939" r="9.27226" stroke="yellow" stroke-width="2" fill="none"/>
<circle cx="359.199" cy="412.703" r="10.8839" stroke="yellow" stroke-width="2" fill="none"/>
<circle cx="454.705" cy="434.648" r="10.516" stroke="yellow" stroke-width="2" fill="none"/>
<circle cx="297.676" cy="147.138" r="13.3683" stroke="yellow" stroke-width="2" fill="none"/>
<circle cx="173.037" cy="151.395" r="14.9513" stroke="yellow" stroke-width="2" fill="none"/>
<circle cx="453.363" cy="154.468" r="13.2985" stroke="yellow" stroke-width="2" fill="none"/>
<circle cx="149.731" cy="193.052" r="14.038" stroke="yellow" stroke-width="2" fill="none"/>
<circle cx="551.852" cy="213.915" r="13.1729" stroke="yellow" stroke-width="2" fill="none"/>
<circle cx="254.424" cy="231.77" r="12.1954" stroke="yellow" stroke-width="2" fill="none"/>
<circle cx="390.59" cy="231.065" r="11.7277" stroke="yellow" stroke-width="2" fill="none"/>
<circle cx="56.131" cy="242.722" r="13.8908" stroke="yellow" stroke-width="2" fill="none"/>
<circle cx="314.117" cy="353.908" r="12.4912" stroke="yellow" stroke-width="2" fill="none"/>
<circle cx="394.938" cy="406.339" r="14.0366" stroke="yellow" stroke-width="2" fill="none"/>
<circle cx="394.938" cy="406.339" r="14.0366" stroke="yellow" stroke-width="2" fill="none"/>
<circle cx="60.9334" cy="87.9265" r="19.9651" stroke="yellow" stroke-width="2" fill="none"/>
<circle cx="173.331" cy="151.545" r="15.2733" stroke="yellow" stroke-width="2" fill="none"/>
<circle cx="452.746" cy="206.564" r="18.0667" stroke="yellow" stroke-width="2" fill="none"/>
<circle cx="511.016" cy="213.056" r="17.3809" stroke="yellow" stroke-width="2" fill="none"/>
<circle cx="187.09" cy="223.623" r="15.8356" stroke="yellow" stroke-width="2" fill="none"/>
<circle cx="289.924" cy="236.74" r="14.4217" stroke="yellow" stroke-width="2" fill="none"/>
<circle cx="510.199" cy="268.834" r="14.4249" stroke="yellow" stroke-width="2" fill="none"/>
<circle cx="596.638" cy="349.636" r="16.7448" stroke="yellow" stroke-width="2" fill="none"/>
<circle cx="212.557" cy="365.705" r="15.506" stroke="yellow" stroke-width="2" fill="none"/>
<circle cx="213.053" cy="408.845" r="15.6219" stroke="yellow" stroke-width="2" fill="none"/>
<circle cx="451.709" cy="137.427" r="20.9687" stroke="yellow" stroke-width="2" fill="none"/>
<circle cx="54.5157" cy="187.914" r="17.8981" stroke="yellow" stroke-width="2" fill="none"/>
<circle cx="343.037" cy="394.743" r="22.8841" stroke="yellow" stroke-width="2" fill="none"/>
<circle cx="576.816" cy="194.24" r="26.3813" stroke="yellow" stroke-width="2" fill="none"/>
<circle cx="452.77" cy="380.422" r="23.9875" stroke="yellow" stroke-width="2" fill="none"/>
<circle cx="455.572" cy="283.705" r="32.2864" stroke="yellow" stroke-width="2" fill="none"/>
<circle cx="531.602" cy="75.1935" r="40.8016" stroke="yellow" stroke-width="2" fill="none"/>
<circle cx="218.05" cy="174.779" r="45.0216" stroke="yellow" stroke-width="2" fill="none"/>
<circle cx="218.05" cy="174.779" r="45.0216" stroke="yellow" stroke-width="2" fill="none"/>
<circle cx="608.028" cy="288.844" r="56.7848" stroke="yellow" stroke-width="2" fill="none"/>
<circle cx="316.815" cy="300.097" r="51.926" stroke="yellow" stroke-width="2" fill="none"/>
</svg>