<?xml version="1.0" standalone="yes"?>
<!-- SVG graphic -->
<svg xmlns='http://www.w3.org/2000/svg' xmlns:xlink='http://www.w3.org/1999/xlink'
width="640px" height="480px" preserveAspectRatio="xMinYMin meet" viewBox="0 0 640 480" version="1.1">
<image x="0" y="0" width="640px" height="480px" opacity="1" xlink:href="E:\fengbing\reconstraction\sources\data\et\et007.jpg"/>
<circle cx="211.584" cy="23.1511" r="1.8197" stroke="yellow" stroke-width="2" fill="none"/>
<circle cx="333.316" cy="28.478" r="1.88333" stroke="yellow" stroke-width="2" fill="none"/>
<circle cx="190.83" cy="58.0993" r="2.07613" stroke="yellow" stroke-width="2" fill="none"/>
<circle cx="190.83" cy="58.0993" r="2.07613" stroke="yellow" stroke-width="2" fill="none"/>
<circle cx="166.111" cy="61.3341" r="1.89748" stroke="yellow" stroke-width="2" fill="none"/>
<circle cx="180.713" cy="61.6924" r="1.91709" stroke="yellow" stroke-width="2" fill="none"/>
<circle cx="475.669" cy="80.2304" r="2.10517" stroke="yellow" stroke-width="2" fill="none"/>
<circle cx="420.04" cy="100.679" r="2.19246" stroke="yellow" stroke-width="2" fill="none"/>
<circle cx="420.04" cy="100.679" r="2.19246" stroke="yellow" stroke-width="2" fill="none"/>
<circle cx="219.013" cy="107.607" r="2.1781" stroke="yellow" stroke-width="2" fill="none"/>
<circle cx="252.266" cy="112.719" r="1.93488" stroke="yellow" stroke-width="2" fill="none"/>
<circle cx="468.095" cy="124.171" r="1.97196" stroke="yellow" stroke-width="2" fill="none"/>
<circle cx="545.667" cy="127.019" r="1.89433" stroke="yellow" stroke-width="2" fill="none"/>
<circle cx="564.39" cy="127.856" r="1.93249" stroke="yellow" stroke-width="2" fill="none"/>
<circle cx="552" cy="136.514" r="1.87352" stroke="yellow" stroke-width="2" fill="none"/>
<circle cx="552" cy="136.514" r="1.87352" stroke="yellow" stroke-width="2" fill="none"/>
<circle cx="296.773" cy="137.866" r="2.19813" stroke="yellow" stroke-width="2" fill="none"/>
<circle cx="538.236" cy="139.968" r="1.73303" stroke="yellow" stroke-width="2" fill="none"/>
<circle cx="566.781" cy="141.017" r="2.12254" stroke="yellow" stroke-width="2" fill="none"/>
<circle cx="359.115" cy="145.112" r="1.91837" stroke="yellow" stroke-width="2" fill="none"/>
<circle cx="405.085" cy="159.086" r="1.88778" stroke="yellow" stroke-width="2" fill="none"/>
<circle cx="418.54" cy="164.171" r="1.94614" stroke="yellow" stroke-width="2" fill="none"/>
<circle cx="161.128" cy="170.89" r="2.33643" stroke="yellow" stroke-width="2" fill="none"/>
<circle cx="521.12" cy="177.991" r="2.1459" stroke="yellow" stroke-width="2" fill="none"/>
<circle cx="400.805" cy="187.647" r="1.91283" stroke="yellow" stroke-width="2" fill="none"/>
<circle cx="238.824" cy="191.522" r="1.93492" stroke="yellow" stroke-width="2" fill="none"/>
<circle cx="248.726" cy="193.547" r="2.08393" stroke="yellow" stroke-width="2" fill="none"/>
<circle cx="404.761" cy="192.541" r="2.24644" stroke="yellow" stroke-width="2" fill="none"/>
<circle cx="219.462" cy="195.866" r="1.95091" stroke="yellow" stroke-width="2" fill="none"/>
<circle cx="297.249" cy="196.876" r="2.32413" stroke="yellow" stroke-width="2" fill="none"/>
<circle cx="448.065" cy="210.163" r="1.80587" stroke="yellow" stroke-width="2" fill="none"/>
<circle cx="235.182" cy="216.32" r="1.86154" stroke="yellow" stroke-width="2" fill="none"/>
<circle cx="329.573" cy="216.369" r="1.96222" stroke="yellow" stroke-width="2" fill="none"/>
<circle cx="459.929" cy="215.759" r="1.93419" stroke="yellow" stroke-width="2" fill="none"/>
<circle cx="382.978" cy="217.879" r="1.96105" stroke="yellow" stroke-width="2" fill="none"/>
<circle cx="230.612" cy="219.32" r="2.06232" stroke="yellow" stroke-width="2" fill="none"/>
<circle cx="391.864" cy="220.8" r="1.84353" stroke="yellow" stroke-width="2" fill="none"/>
<circle cx="367.903" cy="222.053" r="2.18431" stroke="yellow" stroke-width="2" fill="none"/>
<circle cx="367.903" cy="222.053" r="2.18431" stroke="yellow" stroke-width="2" fill="none"/>
<circle cx="456.529" cy="222.929" r="1.88508" stroke="yellow" stroke-width="2" fill="none"/>
<circle cx="171.104" cy="227.574" r="1.77148" stroke="yellow" stroke-width="2" fill="none"/>
<circle cx="239.184" cy="230.655" r="1.86861" stroke="yellow" stroke-width="2" fill="none"/>
<circle cx="228.174" cy="232.832" r="2.07556" stroke="yellow" stroke-width="2" fill="none"/>
<circle cx="282.058" cy="232.866" r="2.06247" stroke="yellow" stroke-width="2" fill="none"/>
<circle cx="332.637" cy="236.219" r="2.1781" stroke="yellow" stroke-width="2" fill="none"/>
<circle cx="283.484" cy="244.87" r="2.02183" stroke="yellow" stroke-width="2" fill="none"/>
<circle cx="320.953" cy="244.55" r="2.12703" stroke="yellow" stroke-width="2" fill="none"/>
<circle cx="295.013" cy="257.734" r="2.05775" stroke="yellow" stroke-width="2" fill="none"/>
<circle cx="421.528" cy="266.437" r="1.91744" stroke="yellow" stroke-width="2" fill="none"/>
<circle cx="362.578" cy="269.705" r="2.14929" stroke="yellow" stroke-width="2" fill="none"/>
<circle cx="427.512" cy="269.741" r="1.90484" stroke="yellow" stroke-width="2" fill="none"/>
<circle cx="438.013" cy="274.157" r="1.99714" stroke="yellow" stroke-width="2" fill="none"/>
<circle cx="473.801" cy="280.72" r="1.92577" stroke="yellow" stroke-width="2" fill="none"/>
<circle cx="488.861" cy="283.036" r="1.94768" stroke="yellow" stroke-width="2" fill="none"/>
<circle cx="405.225" cy="286.312" r="2.11604" stroke="yellow" stroke-width="2" fill="none"/>
<circle cx="481.703" cy="286.527" r="2.02492" stroke="yellow" stroke-width="2" fill="none"/>
<circle cx="435.499" cy="288.964" r="2.08209" stroke="yellow" stroke-width="2" fill="none"/>
<circle cx="315.94" cy="291.22" r="1.86582" stroke="yellow" stroke-width="2" fill="none"/>
<circle cx="315.94" cy="291.22" r="1.86582" stroke="yellow" stroke-width="2" fill="none"/>
<circle cx="314.33" cy="294.966" r="1.77702" stroke="yellow" stroke-width="2" fill="none"/>
<circle cx="448.673" cy="298.296" r="1.92512" stroke="yellow" stroke-width="2" fill="none"/>
<circle cx="448.673" cy="298.296" r="1.92512" stroke="yellow" stroke-width="2" fill="none"/>
<circle cx="282.179" cy="319.859" r="2.19579" stroke="yellow" stroke-width="2" fill="none"/>
<circle cx="515.195" cy="333.962" r="2.2597" stroke="yellow" stroke-width="2" fill="none"/>
<circle cx="635.696" cy="345.861" r="2.01875" stroke="yellow" stroke-width="2" fill="none"/>
<circle cx="436.867" cy="350.411" r="1.76361" stroke="yellow" stroke-width="2" fill="none"/>
<circle cx="633.091" cy="352.282" r="2.21685" stroke="yellow" stroke-width="2" fill="none"/>
<circle cx="629.783" cy="360.89" r="1.9159" stroke="yellow" stroke-width="2" fill="none"/>
<circle cx="349.047" cy="363.471" r="2.06244" stroke="yellow" stroke-width="2" fill="none"/>
<circle cx="356.774" cy="369.236" r="1.87325" stroke="yellow" stroke-width="2" fill="none"/>
<circle cx="422.818" cy="369.278" r="1.83948" stroke="yellow" stroke-width="2" fill="none"/>
<circle cx="422.818" cy="369.278" r="1.83948" stroke="yellow" stroke-width="2" fill="none"/>
<circle cx="626.956" cy="368.836" r="2.08665" stroke="yellow" stroke-width="2" fill="none"/>
<circle cx="632.667" cy="370.18" r="2.08978" stroke="yellow" stroke-width="2" fill="none"/>
<circle cx="378.295" cy="376.11" r="2.13459" stroke="yellow" stroke-width="2" fill="none"/>
<circle cx="341.464" cy="383.504" r="2.34565" stroke="yellow" stroke-width="2" fill="none"/>
<circle cx="488.149" cy="408.719" r="2.01267" stroke="yellow" stroke-width="2" fill="none"/>
<circle cx="480.322" cy="418.287" r="1.92139" stroke="yellow" stroke-width="2" fill="none"/>
<circle cx="429.727" cy="435.148" r="1.92069" stroke="yellow" stroke-width="2" fill="none"/>
<circle cx="429.727" cy="435.148" r="1.92069" stroke="yellow" stroke-width="2" fill="none"/>
<circle cx="607.91" cy="449.348" r="2.24375" stroke="yellow" stroke-width="2" fill="none"/>
<circle cx="477.012" cy="458.3" r="1.782" stroke="yellow" stroke-width="2" fill="none"/>
<circle cx="477.012" cy="458.3" r="1.782" stroke="yellow" stroke-width="2" fill="none"/>
<circle cx="573.282" cy="470.598" r="2.51347" stroke="yellow" stroke-width="2" fill="none"/>
<circle cx="496.78" cy="472.418" r="2.06753" stroke="yellow" stroke-width="2" fill="none"/>
<circle cx="153.546" cy="33.8573" r="2.42309" stroke="yellow" stroke-width="2" fill="none"/>
<circle cx="360.513" cy="130.175" r="2.71654" stroke="yellow" stroke-width="2" fill="none"/>
<circle cx="418.882" cy="130.333" r="2.53948" stroke="yellow" stroke-width="2" fill="none"/>
<circle cx="352.276" cy="134.833" r="2.34512" stroke="yellow" stroke-width="2" fill="none"/>
<circle cx="357.813" cy="139.28" r="2.38499" stroke="yellow" stroke-width="2" fill="none"/>
<circle cx="471.204" cy="143.097" r="2.47444" stroke="yellow" stroke-width="2" fill="none"/>
<circle cx="492.835" cy="145.028" r="2.88407" stroke="yellow" stroke-width="2" fill="none"/>
<circle cx="545.013" cy="148.597" r="2.67036" stroke="yellow" stroke-width="2" fill="none"/>
<circle cx="545.013" cy="148.597" r="2.67036" stroke="yellow" stroke-width="2" fill="none"/>
<circle cx="422.269" cy="152.991" r="2.40972" stroke="yellow" stroke-width="2" fill="none"/>
<circle cx="491.775" cy="175.89" r="2.72869" stroke="yellow" stroke-width="2" fill="none"/>
<circle cx="348.157" cy="198.213" r="2.58684" stroke="yellow" stroke-width="2" fill="none"/>
<circle cx="332.237" cy="200.584" r="2.38013" stroke="yellow" stroke-width="2" fill="none"/>
<circle cx="526.058" cy="204.139" r="2.42349" stroke="yellow" stroke-width="2" fill="none"/>
<circle cx="400.414" cy="205.826" r="2.68759" stroke="yellow" stroke-width="2" fill="none"/>
<circle cx="331.92" cy="208.977" r="2.33301" stroke="yellow" stroke-width="2" fill="none"/>
<circle cx="373.388" cy="213.487" r="2.89411" stroke="yellow" stroke-width="2" fill="none"/>
<circle cx="339.947" cy="221.983" r="2.5758" stroke="yellow" stroke-width="2" fill="none"/>
<circle cx="339.947" cy="221.983" r="2.5758" stroke="yellow" stroke-width="2" fill="none"/>
<circle cx="331.887" cy="223.295" r="2.64881" stroke="yellow" stroke-width="2" fill="none"/>
<circle cx="233.203" cy="226.998" r="2.82482" stroke="yellow" stroke-width="2" fill="none"/>
<circle cx="329.688" cy="230.661" r="2.39869" stroke="yellow" stroke-width="2" fill="none"/>
<circle cx="352.164" cy="235.883" r="2.56401" stroke="yellow" stroke-width="2" fill="none"/>
<circle cx="352.164" cy="235.883" r="2.56401" stroke="yellow" stroke-width="2" fill="none"/>
<circle cx="462.281" cy="238.038" r="2.82571" stroke="yellow" stroke-width="2" fill="none"/>
<circle cx="472.88" cy="238.419" r="1.98898" stroke="yellow" stroke-width="2" fill="none"/>
<circle cx="336.285" cy="265.08" r="2.48031" stroke="yellow" stroke-width="2" fill="none"/>
<circle cx="459.983" cy="285.23" r="2.77067" stroke="yellow" stroke-width="2" fill="none"/>
<circle cx="419.095" cy="297.862" r="2.593" stroke="yellow" stroke-width="2" fill="none"/>
<circle cx="398.186" cy="301.025" r="2.58543" stroke="yellow" stroke-width="2" fill="none"/>
<circle cx="435.344" cy="302.892" r="2.42332" stroke="yellow" stroke-width="2" fill="none"/>
<circle cx="443.699" cy="307.117" r="2.60983" stroke="yellow" stroke-width="2" fill="none"/>
<circle cx="294.533" cy="311.172" r="2.6957" stroke="yellow" stroke-width="2" fill="none"/>
<circle cx="414.11" cy="313.21" r="2.70837" stroke="yellow" stroke-width="2" fill="none"/>
<circle cx="632.851" cy="316.487" r="2.56057" stroke="yellow" stroke-width="2" fill="none"/>
<circle cx="630.587" cy="323.357" r="2.79339" stroke="yellow" stroke-width="2" fill="none"/>
<circle cx="630.587" cy="323.357" r="2.79339" stroke="yellow" stroke-width="2" fill="none"/>
<circle cx="271.576" cy="325.238" r="2.32363" stroke="yellow" stroke-width="2" fill="none"/>
<circle cx="215.53" cy="330.061" r="2.34441" stroke="yellow" stroke-width="2" fill="none"/>
<circle cx="266.092" cy="332.339" r="2.67324" stroke="yellow" stroke-width="2" fill="none"/>
<circle cx="634.229" cy="332.624" r="2.46634" stroke="yellow" stroke-width="2" fill="none"/>
<circle cx="631.528" cy="340.658" r="2.50848" stroke="yellow" stroke-width="2" fill="none"/>
<circle cx="631.528" cy="340.658" r="2.50848" stroke="yellow" stroke-width="2" fill="none"/>
<circle cx="618.556" cy="353.218" r="2.72128" stroke="yellow" stroke-width="2" fill="none"/>
<circle cx="626.263" cy="353.092" r="2.5434" stroke="yellow" stroke-width="2" fill="none"/>
<circle cx="626.263" cy="353.092" r="2.5434" stroke="yellow" stroke-width="2" fill="none"/>
<circle cx="440.505" cy="354.544" r="2.24453" stroke="yellow" stroke-width="2" fill="none"/>
<circle cx="463.257" cy="379.425" r="2.71386" stroke="yellow" stroke-width="2" fill="none"/>
<circle cx="426.944" cy="389.324" r="2.45146" stroke="yellow" stroke-width="2" fill="none"/>
<circle cx="327.175" cy="401.094" r="2.66694" stroke="yellow" stroke-width="2" fill="none"/>
<circle cx="496.097" cy="415.131" r="2.85489" stroke="yellow" stroke-width="2" fill="none"/>
<circle cx="502.358" cy="422.903" r="2.55412" stroke="yellow" stroke-width="2" fill="none"/>
<circle cx="479.284" cy="432.088" r="2.61169" stroke="yellow" stroke-width="2" fill="none"/>
<circle cx="479.284" cy="432.088" r="2.61169" stroke="yellow" stroke-width="2" fill="none"/>
<circle cx="333.806" cy="453.272" r="2.41516" stroke="yellow" stroke-width="2" fill="none"/>
<circle cx="367.945" cy="452.984" r="2.7287" stroke="yellow" stroke-width="2" fill="none"/>
<circle cx="404.858" cy="457.021" r="2.30513" stroke="yellow" stroke-width="2" fill="none"/>
<circle cx="516.625" cy="462.246" r="2.43035" stroke="yellow" stroke-width="2" fill="none"/>
<circle cx="444.723" cy="464.423" r="2.31573" stroke="yellow" stroke-width="2" fill="none"/>
<circle cx="444.723" cy="464.423" r="2.31573" stroke="yellow" stroke-width="2" fill="none"/>
<circle cx="178.521" cy="45.1246" r="3.15416" stroke="yellow" stroke-width="2" fill="none"/>
<circle cx="168.95" cy="50.3976" r="3.17323" stroke="yellow" stroke-width="2" fill="none"/>
<circle cx="469.934" cy="71.1154" r="3.38105" stroke="yellow" stroke-width="2" fill="none"/>
<circle cx="420.212" cy="92.2923" r="2.94632" stroke="yellow" stroke-width="2" fill="none"/>
<circle cx="420.212" cy="92.2923" r="2.94632" stroke="yellow" stroke-width="2" fill="none"/>
<circle cx="258.311" cy="116.21" r="3.2211" stroke="yellow" stroke-width="2" fill="none"/>
<circle cx="431.561" cy="124.903" r="3.36838" stroke="yellow" stroke-width="2" fill="none"/>
<circle cx="290.867" cy="130.522" r="3.26186" stroke="yellow" stroke-width="2" fill="none"/>
<circle cx="538.074" cy="132.249" r="3.09027" stroke="yellow" stroke-width="2" fill="none"/>
<circle cx="299.455" cy="135.077" r="3.54139" stroke="yellow" stroke-width="2" fill="none"/>
<circle cx="526.662" cy="142.533" r="3.5137" stroke="yellow" stroke-width="2" fill="none"/>
<circle cx="315.157" cy="156.955" r="3.55212" stroke="yellow" stroke-width="2" fill="none"/>
<circle cx="486.157" cy="163.368" r="3.29001" stroke="yellow" stroke-width="2" fill="none"/>
<circle cx="401.213" cy="164.458" r="3.09544" stroke="yellow" stroke-width="2" fill="none"/>
<circle cx="481.386" cy="171.496" r="3.40353" stroke="yellow" stroke-width="2" fill="none"/>
<circle cx="563.306" cy="180.406" r="3.24058" stroke="yellow" stroke-width="2" fill="none"/>
<circle cx="181.86" cy="190.139" r="3.23448" stroke="yellow" stroke-width="2" fill="none"/>
<circle cx="382.242" cy="194.547" r="3.33119" stroke="yellow" stroke-width="2" fill="none"/>
<circle cx="392.203" cy="196.968" r="3.068" stroke="yellow" stroke-width="2" fill="none"/>
<circle cx="340.574" cy="206.277" r="3.59609" stroke="yellow" stroke-width="2" fill="none"/>
<circle cx="171.657" cy="210.966" r="3.22649" stroke="yellow" stroke-width="2" fill="none"/>
<circle cx="472.034" cy="217.472" r="2.95582" stroke="yellow" stroke-width="2" fill="none"/>
<circle cx="447.363" cy="227.383" r="3.0769" stroke="yellow" stroke-width="2" fill="none"/>
<circle cx="169.938" cy="232.916" r="3.19641" stroke="yellow" stroke-width="2" fill="none"/>
<circle cx="283.845" cy="238.52" r="2.86835" stroke="yellow" stroke-width="2" fill="none"/>
<circle cx="283.259" cy="245.73" r="2.35907" stroke="yellow" stroke-width="2" fill="none"/>
<circle cx="333.374" cy="258.179" r="3.13141" stroke="yellow" stroke-width="2" fill="none"/>
<circle cx="333.374" cy="258.179" r="3.13141" stroke="yellow" stroke-width="2" fill="none"/>
<circle cx="488.704" cy="260.789" r="3.41825" stroke="yellow" stroke-width="2" fill="none"/>
<circle cx="341.891" cy="262.604" r="3.50452" stroke="yellow" stroke-width="2" fill="none"/>
<circle cx="237.963" cy="269.14" r="3.03252" stroke="yellow" stroke-width="2" fill="none"/>
<circle cx="453.043" cy="271.754" r="2.89617" stroke="yellow" stroke-width="2" fill="none"/>
<circle cx="480.503" cy="278.771" r="3.42965" stroke="yellow" stroke-width="2" fill="none"/>
<circle cx="502.225" cy="280.328" r="2.93713" stroke="yellow" stroke-width="2" fill="none"/>
<circle cx="502.225" cy="280.328" r="2.93713" stroke="yellow" stroke-width="2" fill="none"/>
<circle cx="397.064" cy="294.014" r="2.95266" stroke="yellow" stroke-width="2" fill="none"/>
<circle cx="279.294" cy="328.349" r="3.23576" stroke="yellow" stroke-width="2" fill="none"/>
<circle cx="442.641" cy="345.838" r="3.44784" stroke="yellow" stroke-width="2" fill="none"/>
<circle cx="449.501" cy="366.066" r="3.36246" stroke="yellow" stroke-width="2" fill="none"/>
<circle cx="577.228" cy="408.159" r="2.92708" stroke="yellow" stroke-width="2" fill="none"/>
<circle cx="577.228" cy="408.159" r="2.92708" stroke="yellow" stroke-width="2" fill="none"/>
<circle cx="500.862" cy="450.587" r="3.32151" stroke="yellow" stroke-width="2" fill="none"/>
<circle cx="261.599" cy="461.071" r="3.35874" stroke="yellow" stroke-width="2" fill="none"/>
<circle cx="380.802" cy="471.201" r="2.85493" stroke="yellow" stroke-width="2" fill="none"/>
<circle cx="158.329" cy="58.3136" r="4.15257" stroke="yellow" stroke-width="2" fill="none"/>
<circle cx="455.701" cy="65.9085" r="4.14402" stroke="yellow" stroke-width="2" fill="none"/>
<circle cx="197.986" cy="77.5292" r="3.9305" stroke="yellow" stroke-width="2" fill="none"/>
<circle cx="409.73" cy="89.4724" r="3.95466" stroke="yellow" stroke-width="2" fill="none"/>
<circle cx="343.148" cy="131.498" r="3.81732" stroke="yellow" stroke-width="2" fill="none"/>
<circle cx="343.148" cy="131.498" r="3.81732" stroke="yellow" stroke-width="2" fill="none"/>
<circle cx="428.238" cy="134.557" r="4.01191" stroke="yellow" stroke-width="2" fill="none"/>
<circle cx="324.145" cy="139.787" r="4.0901" stroke="yellow" stroke-width="2" fill="none"/>
<circle cx="477.587" cy="147.75" r="3.66171" stroke="yellow" stroke-width="2" fill="none"/>
<circle cx="532.985" cy="150.558" r="4.22995" stroke="yellow" stroke-width="2" fill="none"/>
<circle cx="472.502" cy="156.156" r="3.59525" stroke="yellow" stroke-width="2" fill="none"/>
<circle cx="357.062" cy="163.952" r="3.59547" stroke="yellow" stroke-width="2" fill="none"/>
<circle cx="407.176" cy="175.242" r="4.25234" stroke="yellow" stroke-width="2" fill="none"/>
<circle cx="340.436" cy="205.962" r="3.65104" stroke="yellow" stroke-width="2" fill="none"/>
<circle cx="305.925" cy="215.223" r="3.82455" stroke="yellow" stroke-width="2" fill="none"/>
<circle cx="418.5" cy="220.876" r="3.80573" stroke="yellow" stroke-width="2" fill="none"/>
<circle cx="455.874" cy="232.992" r="3.59787" stroke="yellow" stroke-width="2" fill="none"/>
<circle cx="455.874" cy="232.992" r="3.59787" stroke="yellow" stroke-width="2" fill="none"/>
<circle cx="396.655" cy="233.196" r="4.07347" stroke="yellow" stroke-width="2" fill="none"/>
<circle cx="242.24" cy="243.667" r="3.79949" stroke="yellow" stroke-width="2" fill="none"/>
<circle cx="317.572" cy="245.584" r="3.97364" stroke="yellow" stroke-width="2" fill="none"/>
<circle cx="329.414" cy="248.831" r="3.93826" stroke="yellow" stroke-width="2" fill="none"/>
<circle cx="262.158" cy="252.188" r="4.11806" stroke="yellow" stroke-width="2" fill="none"/>
<circle cx="262.158" cy="252.188" r="4.11806" stroke="yellow" stroke-width="2" fill="none"/>
<circle cx="432.338" cy="279.697" r="3.86512" stroke="yellow" stroke-width="2" fill="none"/>
<circle cx="466.805" cy="293.411" r="3.97878" stroke="yellow" stroke-width="2" fill="none"/>
<circle cx="445.563" cy="299.768" r="4.34246" stroke="yellow" stroke-width="2" fill="none"/>
<circle cx="445.563" cy="299.768" r="4.34246" stroke="yellow" stroke-width="2" fill="none"/>
<circle cx="493.576" cy="324.778" r="4.44263" stroke="yellow" stroke-width="2" fill="none"/>
<circle cx="442.068" cy="345.311" r="3.72939" stroke="yellow" stroke-width="2" fill="none"/>
<circle cx="342.997" cy="368.255" r="3.71072" stroke="yellow" stroke-width="2" fill="none"/>
<circle cx="504.59" cy="382.884" r="4.3665" stroke="yellow" stroke-width="2" fill="none"/>
<circle cx="318.734" cy="408.059" r="4.0712" stroke="yellow" stroke-width="2" fill="none"/>
<circle cx="496.658" cy="414.1" r="3.97793" stroke="yellow" stroke-width="2" fill="none"/>
<circle cx="261.428" cy="461.09" r="3.42599" stroke="yellow" stroke-width="2" fill="none"/>
<circle cx="210.123" cy="30.3876" r="5.47227" stroke="yellow" stroke-width="2" fill="none"/>
<circle cx="188.359" cy="91.6812" r="5.11587" stroke="yellow" stroke-width="2" fill="none"/>
<circle cx="184.526" cy="140.982" r="5.06203" stroke="yellow" stroke-width="2" fill="none"/>
<circle cx="504.839" cy="151.363" r="5.0317" stroke="yellow" stroke-width="2" fill="none"/>
<circle cx="514.211" cy="167.661" r="5.28587" stroke="yellow" stroke-width="2" fill="none"/>
<circle cx="382.693" cy="204.888" r="4.50331" stroke="yellow" stroke-width="2" fill="none"/>
<circle cx="235.468" cy="210.208" r="5.52811" stroke="yellow" stroke-width="2" fill="none"/>
<circle cx="324.491" cy="222.882" r="4.43739" stroke="yellow" stroke-width="2" fill="none"/>
<circle cx="324.491" cy="222.882" r="4.43739" stroke="yellow" stroke-width="2" fill="none"/>
<circle cx="466.633" cy="227.66" r="5.00208" stroke="yellow" stroke-width="2" fill="none"/>
<circle cx="466.633" cy="227.66" r="5.00208" stroke="yellow" stroke-width="2" fill="none"/>
<circle cx="358.247" cy="247.921" r="5.42749" stroke="yellow" stroke-width="2" fill="none"/>
<circle cx="341.573" cy="251.281" r="5.17655" stroke="yellow" stroke-width="2" fill="none"/>
<circle cx="503.204" cy="255.91" r="5.4237" stroke="yellow" stroke-width="2" fill="none"/>
<circle cx="497.664" cy="270.226" r="5.1046" stroke="yellow" stroke-width="2" fill="none"/>
<circle cx="358.783" cy="275.406" r="5.65001" stroke="yellow" stroke-width="2" fill="none"/>
<circle cx="431.745" cy="291.743" r="4.58826" stroke="yellow" stroke-width="2" fill="none"/>
<circle cx="407.05" cy="301.026" r="5.68711" stroke="yellow" stroke-width="2" fill="none"/>
<circle cx="302.09" cy="304.061" r="5.25014" stroke="yellow" stroke-width="2" fill="none"/>
<circle cx="626.937" cy="302.322" r="4.79999" stroke="yellow" stroke-width="2" fill="none"/>
<circle cx="522.984" cy="309.557" r="4.84267" stroke="yellow" stroke-width="2" fill="none"/>
<circle cx="522.984" cy="309.557" r="4.84267" stroke="yellow" stroke-width="2" fill="none"/>
<circle cx="244.514" cy="319.194" r="5.04966" stroke="yellow" stroke-width="2" fill="none"/>
<circle cx="514.432" cy="324.276" r="5.05944" stroke="yellow" stroke-width="2" fill="none"/>
<circle cx="614.87" cy="370.65" r="4.93485" stroke="yellow" stroke-width="2" fill="none"/>
<circle cx="390.586" cy="375.315" r="5.55732" stroke="yellow" stroke-width="2" fill="none"/>
<circle cx="238.211" cy="388.762" r="4.65535" stroke="yellow" stroke-width="2" fill="none"/>
<circle cx="479.703" cy="397.412" r="5.58575" stroke="yellow" stroke-width="2" fill="none"/>
<circle cx="488.903" cy="18.631" r="6.31305" stroke="yellow" stroke-width="2" fill="none"/>
<circle cx="226.431" cy="51.7012" r="6.46968" stroke="yellow" stroke-width="2" fill="none"/>
<circle cx="352.927" cy="119.064" r="6.10899" stroke="yellow" stroke-width="2" fill="none"/>
<circle cx="166.536" cy="123.621" r="5.82522" stroke="yellow" stroke-width="2" fill="none"/>
<circle cx="419.427" cy="121.867" r="7.25763" stroke="yellow" stroke-width="2" fill="none"/>
<circle cx="409.597" cy="141.203" r="6.32655" stroke="yellow" stroke-width="2" fill="none"/>
<circle cx="328.702" cy="156.991" r="5.94339" stroke="yellow" stroke-width="2" fill="none"/>
<circle cx="328.702" cy="156.991" r="5.94339" stroke="yellow" stroke-width="2" fill="none"/>
<circle cx="537.128" cy="162.135" r="6.44113" stroke="yellow" stroke-width="2" fill="none"/>
<circle cx="571.736" cy="168.337" r="6.21541" stroke="yellow" stroke-width="2" fill="none"/>
<circle cx="518.651" cy="185.584" r="6.65537" stroke="yellow" stroke-width="2" fill="none"/>
<circle cx="240.713" cy="226.503" r="6.71109" stroke="yellow" stroke-width="2" fill="none"/>
<circle cx="240.713" cy="226.503" r="6.71109" stroke="yellow" stroke-width="2" fill="none"/>
<circle cx="240.713" cy="226.503" r="6.71109" stroke="yellow" stroke-width="2" fill="none"/>
<circle cx="369.004" cy="235.142" r="6.84893" stroke="yellow" stroke-width="2" fill="none"/>
<circle cx="176.771" cy="261.662" r="6.00159" stroke="yellow" stroke-width="2" fill="none"/>
<circle cx="382.863" cy="282.489" r="5.77465" stroke="yellow" stroke-width="2" fill="none"/>
<circle cx="444.629" cy="283.22" r="5.90669" stroke="yellow" stroke-width="2" fill="none"/>
<circle cx="303.706" cy="301.478" r="5.98471" stroke="yellow" stroke-width="2" fill="none"/>
<circle cx="195.462" cy="327.62" r="6.61434" stroke="yellow" stroke-width="2" fill="none"/>
<circle cx="540.441" cy="346.427" r="6.35487" stroke="yellow" stroke-width="2" fill="none"/>
<circle cx="523.627" cy="350.581" r="6.64475" stroke="yellow" stroke-width="2" fill="none"/>
<circle cx="175.66" cy="75.9448" r="8.47648" stroke="yellow" stroke-width="2" fill="none"/>
<circle cx="175.66" cy="75.9448" r="8.47648" stroke="yellow" stroke-width="2" fill="none"/>
<circle cx="384.077" cy="79.2196" r="9.12464" stroke="yellow" stroke-width="2" fill="none"/>
<circle cx="462.263" cy="84.6815" r="7.79364" stroke="yellow" stroke-width="2" fill="none"/>
<circle cx="462.263" cy="84.6815" r="7.79364" stroke="yellow" stroke-width="2" fill="none"/>
<circle cx="524.094" cy="99.2207" r="7.9714" stroke="yellow" stroke-width="2" fill="none"/>
<circle cx="275.287" cy="106.228" r="7.05832" stroke="yellow" stroke-width="2" fill="none"/>
<circle cx="379.101" cy="102.196" r="6.90794" stroke="yellow" stroke-width="2" fill="none"/>
<circle cx="419.244" cy="120.921" r="7.68449" stroke="yellow" stroke-width="2" fill="none"/>
<circle cx="368.024" cy="183.359" r="8.01168" stroke="yellow" stroke-width="2" fill="none"/>
<circle cx="307.016" cy="293.251" r="8.08093" stroke="yellow" stroke-width="2" fill="none"/>
<circle cx="524.342" cy="291.681" r="8.27941" stroke="yellow" stroke-width="2" fill="none"/>
<circle cx="296.843" cy="323.638" r="7.85625" stroke="yellow" stroke-width="2" fill="none"/>
<circle cx="516.125" cy="440.646" r="7.95227" stroke="yellow" stroke-width="2" fill="none"/>
<circle cx="471.568" cy="60.0776" r="10.5336" stroke="yellow" stroke-width="2" fill="none"/>
<circle cx="529.421" cy="71.5057" r="10.956" stroke="yellow" stroke-width="2" fill="none"/>
<circle cx="348.099" cy="95.5901" r="10.0806" stroke="yellow" stroke-width="2" fill="none"/>
<circle cx="434.313" cy="107.265" r="10.6428" stroke="yellow" stroke-width="2" fill="none"/>
<circle cx="477.132" cy="112.83" r="9.62573" stroke="yellow" stroke-width="2" fill="none"/>
<circle cx="142.753" cy="145.82" r="9.86488" stroke="yellow" stroke-width="2" fill="none"/>
<circle cx="543.621" cy="203.804" r="10.7221" stroke="yellow" stroke-width="2" fill="none"/>
<circle cx="349.408" cy="227.237" r="9.552" stroke="yellow" stroke-width="2" fill="none"/>
<circle cx="551.61" cy="233.519" r="7.74268" stroke="yellow" stroke-width="2" fill="none"/>
<circle cx="562.8" cy="263.298" r="10.1495" stroke="yellow" stroke-width="2" fill="none"/>
<circle cx="584.63" cy="463.202" r="11.391" stroke="yellow" stroke-width="2" fill="none"/>
<circle cx="561.252" cy="106.197" r="11.1049" stroke="yellow" stroke-width="2" fill="none"/>
<circle cx="579.539" cy="219.762" r="12.8382" stroke="yellow" stroke-width="2" fill="none"/>
<circle cx="406.894" cy="296.34" r="12.7439" stroke="yellow" stroke-width="2" fill="none"/>
<circle cx="357.28" cy="380.197" r="12.3182" stroke="yellow" stroke-width="2" fill="none"/>
<circle cx="291.095" cy="403.984" r="14.2701" stroke="yellow" stroke-width="2" fill="none"/>
<circle cx="567.171" cy="51.2496" r="18.2052" stroke="yellow" stroke-width="2" fill="none"/>
<circle cx="239.651" cy="109.565" r="14.7442" stroke="yellow" stroke-width="2" fill="none"/>
<circle cx="239.651" cy="109.565" r="14.7442" stroke="yellow" stroke-width="2" fill="none"/>
<circle cx="453.285" cy="144.533" r="18.5007" stroke="yellow" stroke-width="2" fill="none"/>
<circle cx="267.268" cy="150.918" r="15.9172" stroke="yellow" stroke-width="2" fill="none"/>
<circle cx="179.27" cy="161.313" r="16.9711" stroke="yellow" stroke-width="2" fill="none"/>
<circle cx="320.39" cy="196.959" r="17.232" stroke="yellow" stroke-width="2" fill="none"/>
<circle cx="566.216" cy="273.779" r="15.5318" stroke="yellow" stroke-width="2" fill="none"/>
<circle cx="201.631" cy="296.722" r="16.1895" stroke="yellow" stroke-width="2" fill="none"/>
<circle cx="376.415" cy="347.855" r="15.6161" stroke="yellow" stroke-width="2" fill="none"/>
<circle cx="424.143" cy="365.133" r="15.3721" stroke="yellow" stroke-width="2" fill="none"/>
<circle cx="292.301" cy="402.883" r="14.766" stroke="yellow" stroke-width="2" fill="none"/>
<circle cx="572.721" cy="53.6951" r="19.2375" stroke="yellow" stroke-width="2" fill="none"/>
<circle cx="263.69" cy="198.654" r="19.8945" stroke="yellow" stroke-width="2" fill="none"/>
<circle cx="519.29" cy="252.144" r="21.7312" stroke="yellow" stroke-width="2" fill="none"/>
<circle cx="327.732" cy="430.457" r="18.3125" stroke="yellow" stroke-width="2" fill="none"/>
<circle cx="475.429" cy="338.709" r="26.5764" stroke="yellow" stroke-width="2" fill="none"/>
<circle cx="130.257" cy="90.6434" r="30.4871" stroke="yellow" stroke-width="2" fill="none"/>
<circle cx="247.071" cy="261.562" r="53.4165" stroke="yellow" stroke-width="2" fill="none"/>
<circle cx="523.576" cy="369.911" r="48.6109" stroke="yellow" stroke-width="2" fill="none"/>
</svg>