<?xml version="1.0" standalone="yes"?>
<!-- SVG graphic -->
<svg xmlns='http://www.w3.org/2000/svg' xmlns:xlink='http://www.w3.org/1999/xlink'
width="640px" height="480px" preserveAspectRatio="xMinYMin meet" viewBox="0 0 640 480" version="1.1">
<image x="0" y="0" width="640px" height="480px" opacity="1" xlink:href="E:\fengbing\reconstraction\sources\data\et\et006.jpg"/>
<circle cx="190.138" cy="5.44164" r="2.2033" stroke="yellow" stroke-width="2" fill="none"/>
<circle cx="635.298" cy="10.9575" r="1.65808" stroke="yellow" stroke-width="2" fill="none"/>
<circle cx="200.114" cy="18.3014" r="2.2605" stroke="yellow" stroke-width="2" fill="none"/>
<circle cx="445.668" cy="25.243" r="2.18531" stroke="yellow" stroke-width="2" fill="none"/>
<circle cx="445.668" cy="25.243" r="2.18531" stroke="yellow" stroke-width="2" fill="none"/>
<circle cx="211.288" cy="44.4159" r="2.08104" stroke="yellow" stroke-width="2" fill="none"/>
<circle cx="386.537" cy="44.1102" r="2.18619" stroke="yellow" stroke-width="2" fill="none"/>
<circle cx="183.801" cy="56.7376" r="2.12149" stroke="yellow" stroke-width="2" fill="none"/>
<circle cx="183.801" cy="56.7376" r="2.12149" stroke="yellow" stroke-width="2" fill="none"/>
<circle cx="526.852" cy="67.3364" r="1.88751" stroke="yellow" stroke-width="2" fill="none"/>
<circle cx="526.852" cy="67.3364" r="1.88751" stroke="yellow" stroke-width="2" fill="none"/>
<circle cx="511.089" cy="70.3568" r="1.82272" stroke="yellow" stroke-width="2" fill="none"/>
<circle cx="358.848" cy="74.6668" r="2.34179" stroke="yellow" stroke-width="2" fill="none"/>
<circle cx="546.648" cy="75.4325" r="2.00288" stroke="yellow" stroke-width="2" fill="none"/>
<circle cx="510.926" cy="76.745" r="1.79262" stroke="yellow" stroke-width="2" fill="none"/>
<circle cx="497.728" cy="88.1348" r="2.12105" stroke="yellow" stroke-width="2" fill="none"/>
<circle cx="370.137" cy="101.064" r="1.89843" stroke="yellow" stroke-width="2" fill="none"/>
<circle cx="161.54" cy="104.438" r="1.93136" stroke="yellow" stroke-width="2" fill="none"/>
<circle cx="167.557" cy="123.947" r="1.97534" stroke="yellow" stroke-width="2" fill="none"/>
<circle cx="179.629" cy="126.026" r="1.89126" stroke="yellow" stroke-width="2" fill="none"/>
<circle cx="188.848" cy="127.837" r="2.18159" stroke="yellow" stroke-width="2" fill="none"/>
<circle cx="367.292" cy="129.086" r="1.87696" stroke="yellow" stroke-width="2" fill="none"/>
<circle cx="377.157" cy="129.262" r="2.01372" stroke="yellow" stroke-width="2" fill="none"/>
<circle cx="200.98" cy="133.446" r="1.77107" stroke="yellow" stroke-width="2" fill="none"/>
<circle cx="176.461" cy="144.332" r="2.13656" stroke="yellow" stroke-width="2" fill="none"/>
<circle cx="177.123" cy="152.785" r="2.01314" stroke="yellow" stroke-width="2" fill="none"/>
<circle cx="420.153" cy="152.874" r="2.00406" stroke="yellow" stroke-width="2" fill="none"/>
<circle cx="455.827" cy="154.648" r="2.06905" stroke="yellow" stroke-width="2" fill="none"/>
<circle cx="169.1" cy="161.249" r="2.23136" stroke="yellow" stroke-width="2" fill="none"/>
<circle cx="305.641" cy="163.172" r="1.8192" stroke="yellow" stroke-width="2" fill="none"/>
<circle cx="196.412" cy="164.25" r="2.27642" stroke="yellow" stroke-width="2" fill="none"/>
<circle cx="294.159" cy="165.575" r="2.26067" stroke="yellow" stroke-width="2" fill="none"/>
<circle cx="294.159" cy="165.575" r="2.26067" stroke="yellow" stroke-width="2" fill="none"/>
<circle cx="429.818" cy="165.18" r="1.88547" stroke="yellow" stroke-width="2" fill="none"/>
<circle cx="182.018" cy="168.66" r="1.90234" stroke="yellow" stroke-width="2" fill="none"/>
<circle cx="170.361" cy="171.875" r="2.12227" stroke="yellow" stroke-width="2" fill="none"/>
<circle cx="229.742" cy="181.247" r="1.92959" stroke="yellow" stroke-width="2" fill="none"/>
<circle cx="186.613" cy="186.258" r="1.78896" stroke="yellow" stroke-width="2" fill="none"/>
<circle cx="296.606" cy="186.501" r="2.1229" stroke="yellow" stroke-width="2" fill="none"/>
<circle cx="535.767" cy="203.697" r="1.92568" stroke="yellow" stroke-width="2" fill="none"/>
<circle cx="308.993" cy="211.35" r="2.27962" stroke="yellow" stroke-width="2" fill="none"/>
<circle cx="308.993" cy="211.35" r="2.27962" stroke="yellow" stroke-width="2" fill="none"/>
<circle cx="395.815" cy="216.025" r="1.97479" stroke="yellow" stroke-width="2" fill="none"/>
<circle cx="403.443" cy="219.9" r="1.96522" stroke="yellow" stroke-width="2" fill="none"/>
<circle cx="485.969" cy="223.246" r="2.18759" stroke="yellow" stroke-width="2" fill="none"/>
<circle cx="485.969" cy="223.246" r="2.18759" stroke="yellow" stroke-width="2" fill="none"/>
<circle cx="351.147" cy="223.476" r="1.64149" stroke="yellow" stroke-width="2" fill="none"/>
<circle cx="383.972" cy="224.05" r="1.91982" stroke="yellow" stroke-width="2" fill="none"/>
<circle cx="414.999" cy="225.055" r="1.97623" stroke="yellow" stroke-width="2" fill="none"/>
<circle cx="470.042" cy="228.17" r="2.06682" stroke="yellow" stroke-width="2" fill="none"/>
<circle cx="460.364" cy="232.679" r="1.93454" stroke="yellow" stroke-width="2" fill="none"/>
<circle cx="294.69" cy="239.427" r="2.27851" stroke="yellow" stroke-width="2" fill="none"/>
<circle cx="277.859" cy="242.343" r="1.62172" stroke="yellow" stroke-width="2" fill="none"/>
<circle cx="277.859" cy="242.343" r="1.62172" stroke="yellow" stroke-width="2" fill="none"/>
<circle cx="427.137" cy="248.335" r="1.85331" stroke="yellow" stroke-width="2" fill="none"/>
<circle cx="427.137" cy="248.335" r="1.85331" stroke="yellow" stroke-width="2" fill="none"/>
<circle cx="478.675" cy="248.781" r="1.90793" stroke="yellow" stroke-width="2" fill="none"/>
<circle cx="541.042" cy="251.836" r="1.86178" stroke="yellow" stroke-width="2" fill="none"/>
<circle cx="263.136" cy="252.543" r="1.9961" stroke="yellow" stroke-width="2" fill="none"/>
<circle cx="375.949" cy="258.359" r="2.16521" stroke="yellow" stroke-width="2" fill="none"/>
<circle cx="294.571" cy="259.572" r="1.88717" stroke="yellow" stroke-width="2" fill="none"/>
<circle cx="385.971" cy="263.528" r="2.06334" stroke="yellow" stroke-width="2" fill="none"/>
<circle cx="254.306" cy="265.326" r="2.43919" stroke="yellow" stroke-width="2" fill="none"/>
<circle cx="354.881" cy="271.792" r="2.02321" stroke="yellow" stroke-width="2" fill="none"/>
<circle cx="558.748" cy="289.886" r="2.02537" stroke="yellow" stroke-width="2" fill="none"/>
<circle cx="198.54" cy="294.292" r="2.12084" stroke="yellow" stroke-width="2" fill="none"/>
<circle cx="634.45" cy="296.31" r="2.19217" stroke="yellow" stroke-width="2" fill="none"/>
<circle cx="446.811" cy="337.476" r="2.20373" stroke="yellow" stroke-width="2" fill="none"/>
<circle cx="201.573" cy="339.49" r="2.19132" stroke="yellow" stroke-width="2" fill="none"/>
<circle cx="444.621" cy="342.833" r="1.88812" stroke="yellow" stroke-width="2" fill="none"/>
<circle cx="508.963" cy="341.904" r="1.89121" stroke="yellow" stroke-width="2" fill="none"/>
<circle cx="508.963" cy="341.904" r="1.89121" stroke="yellow" stroke-width="2" fill="none"/>
<circle cx="362.196" cy="363.113" r="2.10788" stroke="yellow" stroke-width="2" fill="none"/>
<circle cx="438.385" cy="363.881" r="1.90891" stroke="yellow" stroke-width="2" fill="none"/>
<circle cx="382.561" cy="368.163" r="1.89164" stroke="yellow" stroke-width="2" fill="none"/>
<circle cx="394.372" cy="375.262" r="2.01778" stroke="yellow" stroke-width="2" fill="none"/>
<circle cx="401.459" cy="378.21" r="2.31359" stroke="yellow" stroke-width="2" fill="none"/>
<circle cx="491.95" cy="384.579" r="2.06746" stroke="yellow" stroke-width="2" fill="none"/>
<circle cx="356.026" cy="385.63" r="2.0859" stroke="yellow" stroke-width="2" fill="none"/>
<circle cx="499.81" cy="391.846" r="1.99081" stroke="yellow" stroke-width="2" fill="none"/>
<circle cx="343.758" cy="405.555" r="2.08485" stroke="yellow" stroke-width="2" fill="none"/>
<circle cx="508.722" cy="407.142" r="1.92205" stroke="yellow" stroke-width="2" fill="none"/>
<circle cx="497.891" cy="408.699" r="1.95448" stroke="yellow" stroke-width="2" fill="none"/>
<circle cx="576.45" cy="429.881" r="1.71273" stroke="yellow" stroke-width="2" fill="none"/>
<circle cx="497.036" cy="452.036" r="2.01407" stroke="yellow" stroke-width="2" fill="none"/>
<circle cx="497.036" cy="452.036" r="2.01407" stroke="yellow" stroke-width="2" fill="none"/>
<circle cx="630.889" cy="458.247" r="1.73682" stroke="yellow" stroke-width="2" fill="none"/>
<circle cx="474.611" cy="466.963" r="1.80724" stroke="yellow" stroke-width="2" fill="none"/>
<circle cx="555.141" cy="471.151" r="1.91944" stroke="yellow" stroke-width="2" fill="none"/>
<circle cx="519.042" cy="471.739" r="1.97671" stroke="yellow" stroke-width="2" fill="none"/>
<circle cx="189.776" cy="5.54549" r="2.17815" stroke="yellow" stroke-width="2" fill="none"/>
<circle cx="453.513" cy="24.4699" r="2.76639" stroke="yellow" stroke-width="2" fill="none"/>
<circle cx="401.331" cy="37.2383" r="2.64253" stroke="yellow" stroke-width="2" fill="none"/>
<circle cx="141.413" cy="46.0836" r="2.46356" stroke="yellow" stroke-width="2" fill="none"/>
<circle cx="127.889" cy="57.1563" r="2.48582" stroke="yellow" stroke-width="2" fill="none"/>
<circle cx="183.595" cy="71.987" r="2.71422" stroke="yellow" stroke-width="2" fill="none"/>
<circle cx="197.441" cy="72.6503" r="2.73372" stroke="yellow" stroke-width="2" fill="none"/>
<circle cx="517.782" cy="77.7726" r="2.50795" stroke="yellow" stroke-width="2" fill="none"/>
<circle cx="517.782" cy="77.7726" r="2.50795" stroke="yellow" stroke-width="2" fill="none"/>
<circle cx="552.638" cy="77.6721" r="2.32857" stroke="yellow" stroke-width="2" fill="none"/>
<circle cx="503.887" cy="96.1983" r="2.38336" stroke="yellow" stroke-width="2" fill="none"/>
<circle cx="509.304" cy="110.851" r="2.45488" stroke="yellow" stroke-width="2" fill="none"/>
<circle cx="250.341" cy="143.186" r="2.33878" stroke="yellow" stroke-width="2" fill="none"/>
<circle cx="310.612" cy="144.546" r="2.79651" stroke="yellow" stroke-width="2" fill="none"/>
<circle cx="445.189" cy="159.098" r="2.57267" stroke="yellow" stroke-width="2" fill="none"/>
<circle cx="416.126" cy="163.463" r="2.49189" stroke="yellow" stroke-width="2" fill="none"/>
<circle cx="416.126" cy="163.463" r="2.49189" stroke="yellow" stroke-width="2" fill="none"/>
<circle cx="332.446" cy="166.919" r="2.37618" stroke="yellow" stroke-width="2" fill="none"/>
<circle cx="228.39" cy="168.645" r="2.59562" stroke="yellow" stroke-width="2" fill="none"/>
<circle cx="188.559" cy="171.154" r="2.61809" stroke="yellow" stroke-width="2" fill="none"/>
<circle cx="188.559" cy="171.154" r="2.61809" stroke="yellow" stroke-width="2" fill="none"/>
<circle cx="296.063" cy="173.854" r="2.49605" stroke="yellow" stroke-width="2" fill="none"/>
<circle cx="230.754" cy="175.364" r="2.88643" stroke="yellow" stroke-width="2" fill="none"/>
<circle cx="293.463" cy="181.074" r="2.51765" stroke="yellow" stroke-width="2" fill="none"/>
<circle cx="317.492" cy="184.42" r="2.75944" stroke="yellow" stroke-width="2" fill="none"/>
<circle cx="317.492" cy="184.42" r="2.75944" stroke="yellow" stroke-width="2" fill="none"/>
<circle cx="242.008" cy="193.986" r="2.32101" stroke="yellow" stroke-width="2" fill="none"/>
<circle cx="469.457" cy="206.882" r="2.25711" stroke="yellow" stroke-width="2" fill="none"/>
<circle cx="182.941" cy="210.695" r="2.62101" stroke="yellow" stroke-width="2" fill="none"/>
<circle cx="453.434" cy="221.414" r="2.33848" stroke="yellow" stroke-width="2" fill="none"/>
<circle cx="293.745" cy="227.438" r="2.172" stroke="yellow" stroke-width="2" fill="none"/>
<circle cx="438.206" cy="235.023" r="2.41118" stroke="yellow" stroke-width="2" fill="none"/>
<circle cx="499.258" cy="248.857" r="2.65244" stroke="yellow" stroke-width="2" fill="none"/>
<circle cx="256.551" cy="257.398" r="2.28198" stroke="yellow" stroke-width="2" fill="none"/>
<circle cx="631.613" cy="256.925" r="2.64139" stroke="yellow" stroke-width="2" fill="none"/>
<circle cx="629.774" cy="265.435" r="2.84276" stroke="yellow" stroke-width="2" fill="none"/>
<circle cx="629.774" cy="265.435" r="2.84276" stroke="yellow" stroke-width="2" fill="none"/>
<circle cx="391.531" cy="266.901" r="2.7964" stroke="yellow" stroke-width="2" fill="none"/>
<circle cx="559.557" cy="273.581" r="1.8033" stroke="yellow" stroke-width="2" fill="none"/>
<circle cx="634.183" cy="275.074" r="2.46876" stroke="yellow" stroke-width="2" fill="none"/>
<circle cx="499.963" cy="279.175" r="2.58324" stroke="yellow" stroke-width="2" fill="none"/>
<circle cx="632.372" cy="283.898" r="2.52007" stroke="yellow" stroke-width="2" fill="none"/>
<circle cx="632.372" cy="283.898" r="2.52007" stroke="yellow" stroke-width="2" fill="none"/>
<circle cx="627.708" cy="298.843" r="2.65374" stroke="yellow" stroke-width="2" fill="none"/>
<circle cx="627.708" cy="298.843" r="2.65374" stroke="yellow" stroke-width="2" fill="none"/>
<circle cx="619.877" cy="299.79" r="2.75982" stroke="yellow" stroke-width="2" fill="none"/>
<circle cx="618.339" cy="305.554" r="2.80115" stroke="yellow" stroke-width="2" fill="none"/>
<circle cx="426.149" cy="338.991" r="2.4992" stroke="yellow" stroke-width="2" fill="none"/>
<circle cx="421.076" cy="344.276" r="2.28976" stroke="yellow" stroke-width="2" fill="none"/>
<circle cx="507.902" cy="398.219" r="2.62086" stroke="yellow" stroke-width="2" fill="none"/>
<circle cx="514.857" cy="405.119" r="2.60356" stroke="yellow" stroke-width="2" fill="none"/>
<circle cx="497.979" cy="423.075" r="2.72458" stroke="yellow" stroke-width="2" fill="none"/>
<circle cx="540.971" cy="446.558" r="2.50103" stroke="yellow" stroke-width="2" fill="none"/>
<circle cx="536.922" cy="451.822" r="2.51957" stroke="yellow" stroke-width="2" fill="none"/>
<circle cx="589.815" cy="453.406" r="2.65394" stroke="yellow" stroke-width="2" fill="none"/>
<circle cx="465.548" cy="462.409" r="2.29002" stroke="yellow" stroke-width="2" fill="none"/>
<circle cx="465.548" cy="462.409" r="2.29002" stroke="yellow" stroke-width="2" fill="none"/>
<circle cx="356.82" cy="463.1" r="2.72839" stroke="yellow" stroke-width="2" fill="none"/>
<circle cx="356.82" cy="463.1" r="2.72839" stroke="yellow" stroke-width="2" fill="none"/>
<circle cx="632.998" cy="462.943" r="2.35734" stroke="yellow" stroke-width="2" fill="none"/>
<circle cx="386.441" cy="35.6331" r="3.0842" stroke="yellow" stroke-width="2" fill="none"/>
<circle cx="162.13" cy="50.8424" r="3.32607" stroke="yellow" stroke-width="2" fill="none"/>
<circle cx="172.538" cy="63.2422" r="3.63475" stroke="yellow" stroke-width="2" fill="none"/>
<circle cx="510.98" cy="62.734" r="3.13786" stroke="yellow" stroke-width="2" fill="none"/>
<circle cx="516.682" cy="65.0875" r="3.37774" stroke="yellow" stroke-width="2" fill="none"/>
<circle cx="198.207" cy="72.88" r="2.96949" stroke="yellow" stroke-width="2" fill="none"/>
<circle cx="451.907" cy="91.0225" r="3.55709" stroke="yellow" stroke-width="2" fill="none"/>
<circle cx="193.552" cy="95.9439" r="3.52993" stroke="yellow" stroke-width="2" fill="none"/>
<circle cx="461.937" cy="106.109" r="3.36292" stroke="yellow" stroke-width="2" fill="none"/>
<circle cx="366.164" cy="107.267" r="3.25149" stroke="yellow" stroke-width="2" fill="none"/>
<circle cx="550.35" cy="123.138" r="3.39693" stroke="yellow" stroke-width="2" fill="none"/>
<circle cx="365.641" cy="146.513" r="3.55747" stroke="yellow" stroke-width="2" fill="none"/>
<circle cx="508.862" cy="147.956" r="3.55696" stroke="yellow" stroke-width="2" fill="none"/>
<circle cx="301.996" cy="152.506" r="3.54477" stroke="yellow" stroke-width="2" fill="none"/>
<circle cx="337.269" cy="158.055" r="2.88663" stroke="yellow" stroke-width="2" fill="none"/>
<circle cx="175.741" cy="163.482" r="3.55504" stroke="yellow" stroke-width="2" fill="none"/>
<circle cx="303.617" cy="169.432" r="3.12806" stroke="yellow" stroke-width="2" fill="none"/>
<circle cx="303.617" cy="169.432" r="3.12806" stroke="yellow" stroke-width="2" fill="none"/>
<circle cx="419.386" cy="170.358" r="2.93214" stroke="yellow" stroke-width="2" fill="none"/>
<circle cx="352.17" cy="174.964" r="3.07273" stroke="yellow" stroke-width="2" fill="none"/>
<circle cx="361.955" cy="178.795" r="3.60917" stroke="yellow" stroke-width="2" fill="none"/>
<circle cx="436.009" cy="182.245" r="3.74531" stroke="yellow" stroke-width="2" fill="none"/>
<circle cx="297.033" cy="200.702" r="2.9164" stroke="yellow" stroke-width="2" fill="none"/>
<circle cx="276.159" cy="204.838" r="3.51502" stroke="yellow" stroke-width="2" fill="none"/>
<circle cx="431.655" cy="220.517" r="2.8929" stroke="yellow" stroke-width="2" fill="none"/>
<circle cx="302.736" cy="220.61" r="3.24592" stroke="yellow" stroke-width="2" fill="none"/>
<circle cx="460.544" cy="224.776" r="3.25562" stroke="yellow" stroke-width="2" fill="none"/>
<circle cx="445.289" cy="239.426" r="3.28918" stroke="yellow" stroke-width="2" fill="none"/>
<circle cx="306.478" cy="254.759" r="3.21048" stroke="yellow" stroke-width="2" fill="none"/>
<circle cx="306.478" cy="254.759" r="3.21048" stroke="yellow" stroke-width="2" fill="none"/>
<circle cx="224.07" cy="289.438" r="3.09691" stroke="yellow" stroke-width="2" fill="none"/>
<circle cx="431.073" cy="296.141" r="3.60242" stroke="yellow" stroke-width="2" fill="none"/>
<circle cx="440.851" cy="341.19" r="3.36739" stroke="yellow" stroke-width="2" fill="none"/>
<circle cx="356.829" cy="367.234" r="2.92563" stroke="yellow" stroke-width="2" fill="none"/>
<circle cx="581.532" cy="368.215" r="3.11815" stroke="yellow" stroke-width="2" fill="none"/>
<circle cx="581.532" cy="368.215" r="3.11815" stroke="yellow" stroke-width="2" fill="none"/>
<circle cx="489.004" cy="401.076" r="3.25517" stroke="yellow" stroke-width="2" fill="none"/>
<circle cx="520.068" cy="440.808" r="3.57697" stroke="yellow" stroke-width="2" fill="none"/>
<circle cx="511.071" cy="454.1" r="2.99638" stroke="yellow" stroke-width="2" fill="none"/>
<circle cx="190.03" cy="65.2714" r="4.27306" stroke="yellow" stroke-width="2" fill="none"/>
<circle cx="442.059" cy="68.6198" r="4.09104" stroke="yellow" stroke-width="2" fill="none"/>
<circle cx="505.41" cy="81.6351" r="4.55725" stroke="yellow" stroke-width="2" fill="none"/>
<circle cx="307.881" cy="81.7148" r="3.7341" stroke="yellow" stroke-width="2" fill="none"/>
<circle cx="494.016" cy="82.1479" r="3.66116" stroke="yellow" stroke-width="2" fill="none"/>
<circle cx="494.016" cy="82.1479" r="3.66116" stroke="yellow" stroke-width="2" fill="none"/>
<circle cx="187.868" cy="84.8458" r="4.1544" stroke="yellow" stroke-width="2" fill="none"/>
<circle cx="313.637" cy="103.679" r="4.13254" stroke="yellow" stroke-width="2" fill="none"/>
<circle cx="313.637" cy="103.679" r="4.13254" stroke="yellow" stroke-width="2" fill="none"/>
<circle cx="501.076" cy="106.121" r="4.3054" stroke="yellow" stroke-width="2" fill="none"/>
<circle cx="154.626" cy="116.922" r="4.57062" stroke="yellow" stroke-width="2" fill="none"/>
<circle cx="373.359" cy="118.11" r="4.39472" stroke="yellow" stroke-width="2" fill="none"/>
<circle cx="565.554" cy="127.031" r="4.1967" stroke="yellow" stroke-width="2" fill="none"/>
<circle cx="508.588" cy="147.343" r="3.62105" stroke="yellow" stroke-width="2" fill="none"/>
<circle cx="345.116" cy="149.465" r="3.98685" stroke="yellow" stroke-width="2" fill="none"/>
<circle cx="301.973" cy="152.181" r="3.63364" stroke="yellow" stroke-width="2" fill="none"/>
<circle cx="429.584" cy="161.673" r="3.9943" stroke="yellow" stroke-width="2" fill="none"/>
<circle cx="427.746" cy="176.186" r="3.79626" stroke="yellow" stroke-width="2" fill="none"/>
<circle cx="427.746" cy="176.186" r="3.79626" stroke="yellow" stroke-width="2" fill="none"/>
<circle cx="362.935" cy="178.287" r="3.92225" stroke="yellow" stroke-width="2" fill="none"/>
<circle cx="436.22" cy="182.066" r="3.72762" stroke="yellow" stroke-width="2" fill="none"/>
<circle cx="275.998" cy="204.816" r="3.54176" stroke="yellow" stroke-width="2" fill="none"/>
<circle cx="524.884" cy="207.388" r="4.3386" stroke="yellow" stroke-width="2" fill="none"/>
<circle cx="298.564" cy="212.272" r="3.70986" stroke="yellow" stroke-width="2" fill="none"/>
<circle cx="254.582" cy="230.689" r="4.43901" stroke="yellow" stroke-width="2" fill="none"/>
<circle cx="409.143" cy="230.361" r="4.11816" stroke="yellow" stroke-width="2" fill="none"/>
<circle cx="379.828" cy="242.566" r="3.61723" stroke="yellow" stroke-width="2" fill="none"/>
<circle cx="371" cy="251.582" r="3.9632" stroke="yellow" stroke-width="2" fill="none"/>
<circle cx="371" cy="251.582" r="3.9632" stroke="yellow" stroke-width="2" fill="none"/>
<circle cx="252.035" cy="257.434" r="4.20565" stroke="yellow" stroke-width="2" fill="none"/>
<circle cx="432.089" cy="326.418" r="3.74156" stroke="yellow" stroke-width="2" fill="none"/>
<circle cx="250.933" cy="393.581" r="4.53638" stroke="yellow" stroke-width="2" fill="none"/>
<circle cx="343.718" cy="400.84" r="4.8577" stroke="yellow" stroke-width="2" fill="none"/>
<circle cx="336.584" cy="412.451" r="4.01714" stroke="yellow" stroke-width="2" fill="none"/>
<circle cx="520.492" cy="441.193" r="3.41697" stroke="yellow" stroke-width="2" fill="none"/>
<circle cx="199.377" cy="24.4481" r="5.31096" stroke="yellow" stroke-width="2" fill="none"/>
<circle cx="506.012" cy="40.1208" r="5.35713" stroke="yellow" stroke-width="2" fill="none"/>
<circle cx="152.177" cy="61.9962" r="5.14653" stroke="yellow" stroke-width="2" fill="none"/>
<circle cx="152.177" cy="61.9962" r="5.14653" stroke="yellow" stroke-width="2" fill="none"/>
<circle cx="475.269" cy="84.2472" r="5.71579" stroke="yellow" stroke-width="2" fill="none"/>
<circle cx="558.511" cy="112.732" r="5.04467" stroke="yellow" stroke-width="2" fill="none"/>
<circle cx="154.593" cy="116.831" r="4.41332" stroke="yellow" stroke-width="2" fill="none"/>
<circle cx="504.498" cy="136.84" r="5.36419" stroke="yellow" stroke-width="2" fill="none"/>
<circle cx="176.843" cy="147.389" r="5.42303" stroke="yellow" stroke-width="2" fill="none"/>
<circle cx="254.295" cy="152.439" r="4.74549" stroke="yellow" stroke-width="2" fill="none"/>
<circle cx="197.4" cy="156.382" r="4.73517" stroke="yellow" stroke-width="2" fill="none"/>
<circle cx="440.829" cy="169.462" r="5.30228" stroke="yellow" stroke-width="2" fill="none"/>
<circle cx="440.829" cy="169.462" r="5.30228" stroke="yellow" stroke-width="2" fill="none"/>
<circle cx="440.829" cy="169.462" r="5.30228" stroke="yellow" stroke-width="2" fill="none"/>
<circle cx="187.057" cy="183.201" r="4.31797" stroke="yellow" stroke-width="2" fill="none"/>
<circle cx="485.782" cy="200.826" r="5.40465" stroke="yellow" stroke-width="2" fill="none"/>
<circle cx="127.608" cy="212.594" r="4.90432" stroke="yellow" stroke-width="2" fill="none"/>
<circle cx="479.595" cy="214.215" r="5.01352" stroke="yellow" stroke-width="2" fill="none"/>
<circle cx="309.652" cy="217.298" r="4.85705" stroke="yellow" stroke-width="2" fill="none"/>
<circle cx="494.811" cy="216.041" r="5.71603" stroke="yellow" stroke-width="2" fill="none"/>
<circle cx="508.95" cy="250.821" r="5.08578" stroke="yellow" stroke-width="2" fill="none"/>
<circle cx="200.738" cy="271.519" r="5.62078" stroke="yellow" stroke-width="2" fill="none"/>
<circle cx="420.8" cy="304.23" r="5.3956" stroke="yellow" stroke-width="2" fill="none"/>
<circle cx="617.647" cy="319.475" r="5.11304" stroke="yellow" stroke-width="2" fill="none"/>
<circle cx="455.76" cy="13.9244" r="6.39953" stroke="yellow" stroke-width="2" fill="none"/>
<circle cx="483.886" cy="29.4448" r="7.24396" stroke="yellow" stroke-width="2" fill="none"/>
<circle cx="218.023" cy="46.2232" r="6.64548" stroke="yellow" stroke-width="2" fill="none"/>
<circle cx="318.055" cy="66.2577" r="6.55746" stroke="yellow" stroke-width="2" fill="none"/>
<circle cx="456.246" cy="76.9825" r="6.34499" stroke="yellow" stroke-width="2" fill="none"/>
<circle cx="510.679" cy="92.3867" r="6.66647" stroke="yellow" stroke-width="2" fill="none"/>
<circle cx="510.679" cy="92.3867" r="6.66647" stroke="yellow" stroke-width="2" fill="none"/>
<circle cx="484.976" cy="97.1995" r="6.12743" stroke="yellow" stroke-width="2" fill="none"/>
<circle cx="484.976" cy="97.1995" r="6.12743" stroke="yellow" stroke-width="2" fill="none"/>
<circle cx="515.2" cy="118.697" r="6.75733" stroke="yellow" stroke-width="2" fill="none"/>
<circle cx="182.992" cy="163.843" r="7.10131" stroke="yellow" stroke-width="2" fill="none"/>
<circle cx="182.992" cy="163.843" r="7.10131" stroke="yellow" stroke-width="2" fill="none"/>
<circle cx="182.992" cy="163.843" r="7.10131" stroke="yellow" stroke-width="2" fill="none"/>
<circle cx="324.685" cy="196.757" r="6.16735" stroke="yellow" stroke-width="2" fill="none"/>
<circle cx="288.948" cy="198.935" r="7.2171" stroke="yellow" stroke-width="2" fill="none"/>
<circle cx="307.21" cy="202.508" r="5.95496" stroke="yellow" stroke-width="2" fill="none"/>
<circle cx="421.347" cy="233.015" r="6.4224" stroke="yellow" stroke-width="2" fill="none"/>
<circle cx="414.727" cy="249.196" r="6.92126" stroke="yellow" stroke-width="2" fill="none"/>
<circle cx="229.212" cy="290.323" r="5.19913" stroke="yellow" stroke-width="2" fill="none"/>
<circle cx="540.153" cy="305.312" r="6.58493" stroke="yellow" stroke-width="2" fill="none"/>
<circle cx="524.781" cy="314.546" r="6.04215" stroke="yellow" stroke-width="2" fill="none"/>
<circle cx="203.59" cy="336.317" r="5.84898" stroke="yellow" stroke-width="2" fill="none"/>
<circle cx="507.119" cy="342.703" r="6.71182" stroke="yellow" stroke-width="2" fill="none"/>
<circle cx="507" cy="394.087" r="6.13892" stroke="yellow" stroke-width="2" fill="none"/>
<circle cx="342.072" cy="415.328" r="6.64519" stroke="yellow" stroke-width="2" fill="none"/>
<circle cx="621.854" cy="459.061" r="6.12757" stroke="yellow" stroke-width="2" fill="none"/>
<circle cx="428.322" cy="26.1438" r="7.68354" stroke="yellow" stroke-width="2" fill="none"/>
<circle cx="343.493" cy="47.9355" r="7.69039" stroke="yellow" stroke-width="2" fill="none"/>
<circle cx="566.746" cy="65.7551" r="7.818" stroke="yellow" stroke-width="2" fill="none"/>
<circle cx="204.106" cy="94.6211" r="7.58403" stroke="yellow" stroke-width="2" fill="none"/>
<circle cx="288.77" cy="198.959" r="7.16394" stroke="yellow" stroke-width="2" fill="none"/>
<circle cx="337.292" cy="234.446" r="8.16655" stroke="yellow" stroke-width="2" fill="none"/>
<circle cx="177.065" cy="276.592" r="8.15307" stroke="yellow" stroke-width="2" fill="none"/>
<circle cx="529.787" cy="422.005" r="8.75252" stroke="yellow" stroke-width="2" fill="none"/>
<circle cx="542.685" cy="44.7226" r="10.8359" stroke="yellow" stroke-width="2" fill="none"/>
<circle cx="447.53" cy="50.677" r="10.9445" stroke="yellow" stroke-width="2" fill="none"/>
<circle cx="529.852" cy="151.138" r="10.8214" stroke="yellow" stroke-width="2" fill="none"/>
<circle cx="282.548" cy="167.556" r="10.3367" stroke="yellow" stroke-width="2" fill="none"/>
<circle cx="282.548" cy="167.556" r="10.3367" stroke="yellow" stroke-width="2" fill="none"/>
<circle cx="313.67" cy="174.551" r="10.9661" stroke="yellow" stroke-width="2" fill="none"/>
<circle cx="515.766" cy="229.526" r="9.54899" stroke="yellow" stroke-width="2" fill="none"/>
<circle cx="199.314" cy="306.725" r="10.6828" stroke="yellow" stroke-width="2" fill="none"/>
<circle cx="591.202" cy="434.146" r="9.97343" stroke="yellow" stroke-width="2" fill="none"/>
<circle cx="313.204" cy="36.5794" r="11.9601" stroke="yellow" stroke-width="2" fill="none"/>
<circle cx="190.949" cy="47.9767" r="14.3605" stroke="yellow" stroke-width="2" fill="none"/>
<circle cx="281.344" cy="162.212" r="12.2696" stroke="yellow" stroke-width="2" fill="none"/>
<circle cx="281.344" cy="162.212" r="12.2696" stroke="yellow" stroke-width="2" fill="none"/>
<circle cx="433.51" cy="351.436" r="14.3076" stroke="yellow" stroke-width="2" fill="none"/>
<circle cx="561.663" cy="448.632" r="13.7135" stroke="yellow" stroke-width="2" fill="none"/>
<circle cx="190.434" cy="47.8962" r="14.1258" stroke="yellow" stroke-width="2" fill="none"/>
<circle cx="437.933" cy="89.005" r="16.8661" stroke="yellow" stroke-width="2" fill="none"/>
<circle cx="139.544" cy="167.851" r="18.8718" stroke="yellow" stroke-width="2" fill="none"/>
<circle cx="551.839" cy="229.981" r="14.6678" stroke="yellow" stroke-width="2" fill="none"/>
<circle cx="395.034" cy="255.79" r="16.1821" stroke="yellow" stroke-width="2" fill="none"/>
<circle cx="434.072" cy="352.3" r="14.3259" stroke="yellow" stroke-width="2" fill="none"/>
<circle cx="321.181" cy="396.502" r="15.3561" stroke="yellow" stroke-width="2" fill="none"/>
<circle cx="218.873" cy="143.648" r="19.2753" stroke="yellow" stroke-width="2" fill="none"/>
<circle cx="154.544" cy="251.97" r="17.842" stroke="yellow" stroke-width="2" fill="none"/>
<circle cx="154.544" cy="251.97" r="17.842" stroke="yellow" stroke-width="2" fill="none"/>
<circle cx="278.11" cy="130.317" r="25.7834" stroke="yellow" stroke-width="2" fill="none"/>
<circle cx="459.53" cy="281.926" r="27.7603" stroke="yellow" stroke-width="2" fill="none"/>
<circle cx="460.648" cy="282.58" r="28.1599" stroke="yellow" stroke-width="2" fill="none"/>
<circle cx="189.885" cy="203.666" r="56.9892" stroke="yellow" stroke-width="2" fill="none"/>
<circle cx="521.357" cy="324.193" r="57.3307" stroke="yellow" stroke-width="2" fill="none"/>
</svg>