<?xml version="1.0" standalone="yes"?>
<!-- SVG graphic -->
<svg xmlns='http://www.w3.org/2000/svg' xmlns:xlink='http://www.w3.org/1999/xlink'
width="640px" height="480px" preserveAspectRatio="xMinYMin meet" viewBox="0 0 640 480" version="1.1">
<image x="0" y="0" width="640px" height="480px" opacity="1" xlink:href="E:\fengbing\reconstraction\sources\data\et\et004.jpg"/>
<circle cx="503.578" cy="3.48409" r="1.83179" stroke="yellow" stroke-width="2" fill="none"/>
<circle cx="373.742" cy="8.02723" r="2.02783" stroke="yellow" stroke-width="2" fill="none"/>
<circle cx="377.449" cy="12.5782" r="2.45494" stroke="yellow" stroke-width="2" fill="none"/>
<circle cx="446.168" cy="26.3401" r="1.89267" stroke="yellow" stroke-width="2" fill="none"/>
<circle cx="623.132" cy="32.7929" r="1.84562" stroke="yellow" stroke-width="2" fill="none"/>
<circle cx="623.132" cy="32.7929" r="1.84562" stroke="yellow" stroke-width="2" fill="none"/>
<circle cx="606.771" cy="33.7032" r="1.88905" stroke="yellow" stroke-width="2" fill="none"/>
<circle cx="606.771" cy="33.7032" r="1.88905" stroke="yellow" stroke-width="2" fill="none"/>
<circle cx="299.278" cy="35.2216" r="2.08394" stroke="yellow" stroke-width="2" fill="none"/>
<circle cx="598.521" cy="38.5654" r="1.79458" stroke="yellow" stroke-width="2" fill="none"/>
<circle cx="84.4962" cy="43.3709" r="1.82726" stroke="yellow" stroke-width="2" fill="none"/>
<circle cx="84.4962" cy="43.3709" r="1.82726" stroke="yellow" stroke-width="2" fill="none"/>
<circle cx="92.0148" cy="45.3711" r="1.77039" stroke="yellow" stroke-width="2" fill="none"/>
<circle cx="328.765" cy="59.9109" r="1.83168" stroke="yellow" stroke-width="2" fill="none"/>
<circle cx="244.385" cy="63.7988" r="2.04206" stroke="yellow" stroke-width="2" fill="none"/>
<circle cx="501.329" cy="66.1863" r="1.96238" stroke="yellow" stroke-width="2" fill="none"/>
<circle cx="206.976" cy="66.6031" r="2.02052" stroke="yellow" stroke-width="2" fill="none"/>
<circle cx="452.103" cy="70.3572" r="2.12758" stroke="yellow" stroke-width="2" fill="none"/>
<circle cx="633.297" cy="71.6257" r="1.8719" stroke="yellow" stroke-width="2" fill="none"/>
<circle cx="97.8534" cy="74.0137" r="2.04122" stroke="yellow" stroke-width="2" fill="none"/>
<circle cx="308.519" cy="75.1123" r="1.9313" stroke="yellow" stroke-width="2" fill="none"/>
<circle cx="308.519" cy="75.1123" r="1.9313" stroke="yellow" stroke-width="2" fill="none"/>
<circle cx="308.519" cy="75.1123" r="1.9313" stroke="yellow" stroke-width="2" fill="none"/>
<circle cx="636.361" cy="79.234" r="2.22984" stroke="yellow" stroke-width="2" fill="none"/>
<circle cx="636.361" cy="79.234" r="2.22984" stroke="yellow" stroke-width="2" fill="none"/>
<circle cx="64.3246" cy="81.0289" r="1.94659" stroke="yellow" stroke-width="2" fill="none"/>
<circle cx="74.7576" cy="83.181" r="1.90469" stroke="yellow" stroke-width="2" fill="none"/>
<circle cx="436.934" cy="89.8165" r="1.76" stroke="yellow" stroke-width="2" fill="none"/>
<circle cx="633.294" cy="89.6086" r="2.02005" stroke="yellow" stroke-width="2" fill="none"/>
<circle cx="633.294" cy="89.6086" r="2.02005" stroke="yellow" stroke-width="2" fill="none"/>
<circle cx="192.084" cy="94.1068" r="1.89744" stroke="yellow" stroke-width="2" fill="none"/>
<circle cx="238.427" cy="97.5368" r="2.13433" stroke="yellow" stroke-width="2" fill="none"/>
<circle cx="238.427" cy="97.5368" r="2.13433" stroke="yellow" stroke-width="2" fill="none"/>
<circle cx="194.777" cy="102.355" r="1.64242" stroke="yellow" stroke-width="2" fill="none"/>
<circle cx="625.234" cy="103.901" r="2.09502" stroke="yellow" stroke-width="2" fill="none"/>
<circle cx="191.506" cy="106.616" r="2.12882" stroke="yellow" stroke-width="2" fill="none"/>
<circle cx="246.925" cy="109.336" r="1.87625" stroke="yellow" stroke-width="2" fill="none"/>
<circle cx="206.963" cy="111.232" r="2.00495" stroke="yellow" stroke-width="2" fill="none"/>
<circle cx="321.313" cy="115.001" r="2.04227" stroke="yellow" stroke-width="2" fill="none"/>
<circle cx="601.93" cy="121.299" r="2.02899" stroke="yellow" stroke-width="2" fill="none"/>
<circle cx="116.181" cy="133.483" r="2.48091" stroke="yellow" stroke-width="2" fill="none"/>
<circle cx="414.632" cy="134.198" r="1.73834" stroke="yellow" stroke-width="2" fill="none"/>
<circle cx="125.253" cy="135.82" r="1.9141" stroke="yellow" stroke-width="2" fill="none"/>
<circle cx="601.106" cy="135.711" r="2.19818" stroke="yellow" stroke-width="2" fill="none"/>
<circle cx="608.565" cy="136.438" r="2.20354" stroke="yellow" stroke-width="2" fill="none"/>
<circle cx="468.845" cy="138.027" r="2.14384" stroke="yellow" stroke-width="2" fill="none"/>
<circle cx="18.3916" cy="140.973" r="2.22621" stroke="yellow" stroke-width="2" fill="none"/>
<circle cx="604.891" cy="142.558" r="2.2008" stroke="yellow" stroke-width="2" fill="none"/>
<circle cx="347.163" cy="148.144" r="1.94454" stroke="yellow" stroke-width="2" fill="none"/>
<circle cx="347.163" cy="148.144" r="1.94454" stroke="yellow" stroke-width="2" fill="none"/>
<circle cx="607.846" cy="148.69" r="1.88289" stroke="yellow" stroke-width="2" fill="none"/>
<circle cx="330.006" cy="152.61" r="1.90029" stroke="yellow" stroke-width="2" fill="none"/>
<circle cx="602.837" cy="155.129" r="2.0973" stroke="yellow" stroke-width="2" fill="none"/>
<circle cx="602.837" cy="155.129" r="2.0973" stroke="yellow" stroke-width="2" fill="none"/>
<circle cx="617.568" cy="154.893" r="2.34" stroke="yellow" stroke-width="2" fill="none"/>
<circle cx="611.667" cy="157.249" r="1.96799" stroke="yellow" stroke-width="2" fill="none"/>
<circle cx="313.944" cy="164" r="1.94302" stroke="yellow" stroke-width="2" fill="none"/>
<circle cx="624.537" cy="168.573" r="2.33145" stroke="yellow" stroke-width="2" fill="none"/>
<circle cx="618.359" cy="171.166" r="2.10228" stroke="yellow" stroke-width="2" fill="none"/>
<circle cx="185.996" cy="171.673" r="2.03993" stroke="yellow" stroke-width="2" fill="none"/>
<circle cx="440.529" cy="172.241" r="2.05841" stroke="yellow" stroke-width="2" fill="none"/>
<circle cx="306.981" cy="174.593" r="1.96415" stroke="yellow" stroke-width="2" fill="none"/>
<circle cx="627.382" cy="175.219" r="1.93107" stroke="yellow" stroke-width="2" fill="none"/>
<circle cx="627.382" cy="175.219" r="1.93107" stroke="yellow" stroke-width="2" fill="none"/>
<circle cx="302.656" cy="181.778" r="2.27593" stroke="yellow" stroke-width="2" fill="none"/>
<circle cx="267.914" cy="183.993" r="1.80196" stroke="yellow" stroke-width="2" fill="none"/>
<circle cx="336.145" cy="186.978" r="1.87375" stroke="yellow" stroke-width="2" fill="none"/>
<circle cx="350.464" cy="192.052" r="2.0054" stroke="yellow" stroke-width="2" fill="none"/>
<circle cx="275.447" cy="197.073" r="2.00562" stroke="yellow" stroke-width="2" fill="none"/>
<circle cx="307.122" cy="198.111" r="1.97112" stroke="yellow" stroke-width="2" fill="none"/>
<circle cx="632.433" cy="200.478" r="2.2827" stroke="yellow" stroke-width="2" fill="none"/>
<circle cx="266.928" cy="203.771" r="1.87271" stroke="yellow" stroke-width="2" fill="none"/>
<circle cx="261.053" cy="205.198" r="1.91662" stroke="yellow" stroke-width="2" fill="none"/>
<circle cx="363.521" cy="204.506" r="2.48323" stroke="yellow" stroke-width="2" fill="none"/>
<circle cx="243.463" cy="208.76" r="1.80668" stroke="yellow" stroke-width="2" fill="none"/>
<circle cx="255.399" cy="210.924" r="1.79221" stroke="yellow" stroke-width="2" fill="none"/>
<circle cx="424.142" cy="216.177" r="1.89834" stroke="yellow" stroke-width="2" fill="none"/>
<circle cx="257.371" cy="216.579" r="1.77262" stroke="yellow" stroke-width="2" fill="none"/>
<circle cx="431.06" cy="219.118" r="1.96116" stroke="yellow" stroke-width="2" fill="none"/>
<circle cx="338.497" cy="221.33" r="1.85739" stroke="yellow" stroke-width="2" fill="none"/>
<circle cx="108.925" cy="222.104" r="1.95675" stroke="yellow" stroke-width="2" fill="none"/>
<circle cx="108.925" cy="222.104" r="1.95675" stroke="yellow" stroke-width="2" fill="none"/>
<circle cx="186.179" cy="223.187" r="2.19915" stroke="yellow" stroke-width="2" fill="none"/>
<circle cx="45.0277" cy="223.883" r="1.91416" stroke="yellow" stroke-width="2" fill="none"/>
<circle cx="40.0469" cy="226.607" r="1.83437" stroke="yellow" stroke-width="2" fill="none"/>
<circle cx="250.256" cy="227.215" r="2.16762" stroke="yellow" stroke-width="2" fill="none"/>
<circle cx="53.4173" cy="230.227" r="2.19936" stroke="yellow" stroke-width="2" fill="none"/>
<circle cx="319.853" cy="229.546" r="1.93746" stroke="yellow" stroke-width="2" fill="none"/>
<circle cx="442.34" cy="232.766" r="1.94138" stroke="yellow" stroke-width="2" fill="none"/>
<circle cx="112.819" cy="233.768" r="2.08667" stroke="yellow" stroke-width="2" fill="none"/>
<circle cx="556.792" cy="238.327" r="1.99012" stroke="yellow" stroke-width="2" fill="none"/>
<circle cx="556.792" cy="238.327" r="1.99012" stroke="yellow" stroke-width="2" fill="none"/>
<circle cx="50.5475" cy="242.535" r="2.13047" stroke="yellow" stroke-width="2" fill="none"/>
<circle cx="181.273" cy="250.129" r="1.81946" stroke="yellow" stroke-width="2" fill="none"/>
<circle cx="280.361" cy="253.339" r="1.87204" stroke="yellow" stroke-width="2" fill="none"/>
<circle cx="356.579" cy="253.07" r="1.79841" stroke="yellow" stroke-width="2" fill="none"/>
<circle cx="253.589" cy="256.582" r="1.81948" stroke="yellow" stroke-width="2" fill="none"/>
<circle cx="336.747" cy="263.584" r="2.18428" stroke="yellow" stroke-width="2" fill="none"/>
<circle cx="336.747" cy="263.584" r="2.18428" stroke="yellow" stroke-width="2" fill="none"/>
<circle cx="119.209" cy="274.65" r="2.0122" stroke="yellow" stroke-width="2" fill="none"/>
<circle cx="476.984" cy="280.672" r="2.22078" stroke="yellow" stroke-width="2" fill="none"/>
<circle cx="476.984" cy="280.672" r="2.22078" stroke="yellow" stroke-width="2" fill="none"/>
<circle cx="141.4" cy="289.052" r="2.29316" stroke="yellow" stroke-width="2" fill="none"/>
<circle cx="562.751" cy="299.283" r="2.07871" stroke="yellow" stroke-width="2" fill="none"/>
<circle cx="1.80823" cy="313.117" r="1.73088" stroke="yellow" stroke-width="2" fill="none"/>
<circle cx="547.118" cy="312.526" r="2.01532" stroke="yellow" stroke-width="2" fill="none"/>
<circle cx="594.081" cy="329.251" r="1.84458" stroke="yellow" stroke-width="2" fill="none"/>
<circle cx="553.364" cy="344.612" r="2.12084" stroke="yellow" stroke-width="2" fill="none"/>
<circle cx="553.029" cy="350.611" r="1.98119" stroke="yellow" stroke-width="2" fill="none"/>
<circle cx="510.219" cy="355.02" r="2.11204" stroke="yellow" stroke-width="2" fill="none"/>
<circle cx="96.2373" cy="370.058" r="2.2171" stroke="yellow" stroke-width="2" fill="none"/>
<circle cx="396.196" cy="374.811" r="1.99114" stroke="yellow" stroke-width="2" fill="none"/>
<circle cx="41.9738" cy="376.147" r="2.08761" stroke="yellow" stroke-width="2" fill="none"/>
<circle cx="457.049" cy="377.005" r="1.87598" stroke="yellow" stroke-width="2" fill="none"/>
<circle cx="457.049" cy="377.005" r="1.87598" stroke="yellow" stroke-width="2" fill="none"/>
<circle cx="451.118" cy="378.021" r="2.09064" stroke="yellow" stroke-width="2" fill="none"/>
<circle cx="463.007" cy="379.833" r="2.07977" stroke="yellow" stroke-width="2" fill="none"/>
<circle cx="398.614" cy="384.184" r="2.13043" stroke="yellow" stroke-width="2" fill="none"/>
<circle cx="356.765" cy="384.643" r="2.02782" stroke="yellow" stroke-width="2" fill="none"/>
<circle cx="506.872" cy="384.475" r="1.88506" stroke="yellow" stroke-width="2" fill="none"/>
<circle cx="506.872" cy="384.475" r="1.88506" stroke="yellow" stroke-width="2" fill="none"/>
<circle cx="393.322" cy="389.284" r="1.92059" stroke="yellow" stroke-width="2" fill="none"/>
<circle cx="100.04" cy="394.636" r="2.13319" stroke="yellow" stroke-width="2" fill="none"/>
<circle cx="190.876" cy="400.237" r="1.99699" stroke="yellow" stroke-width="2" fill="none"/>
<circle cx="361.682" cy="401.92" r="2.21356" stroke="yellow" stroke-width="2" fill="none"/>
<circle cx="353.104" cy="405.388" r="1.97654" stroke="yellow" stroke-width="2" fill="none"/>
<circle cx="225.922" cy="406.973" r="1.82488" stroke="yellow" stroke-width="2" fill="none"/>
<circle cx="398.555" cy="408.076" r="2.17957" stroke="yellow" stroke-width="2" fill="none"/>
<circle cx="8.16149" cy="415.412" r="2.24704" stroke="yellow" stroke-width="2" fill="none"/>
<circle cx="367.771" cy="426.214" r="2.1703" stroke="yellow" stroke-width="2" fill="none"/>
<circle cx="367.771" cy="426.214" r="2.1703" stroke="yellow" stroke-width="2" fill="none"/>
<circle cx="200.221" cy="450.976" r="1.82657" stroke="yellow" stroke-width="2" fill="none"/>
<circle cx="362.737" cy="452.39" r="2.16185" stroke="yellow" stroke-width="2" fill="none"/>
<circle cx="362.737" cy="452.39" r="2.16185" stroke="yellow" stroke-width="2" fill="none"/>
<circle cx="444.114" cy="471.222" r="1.98169" stroke="yellow" stroke-width="2" fill="none"/>
<circle cx="349.533" cy="473.679" r="1.85709" stroke="yellow" stroke-width="2" fill="none"/>
<circle cx="567.51" cy="5.53873" r="2.40141" stroke="yellow" stroke-width="2" fill="none"/>
<circle cx="575.494" cy="9.83797" r="2.31723" stroke="yellow" stroke-width="2" fill="none"/>
<circle cx="632.906" cy="9.95944" r="2.34374" stroke="yellow" stroke-width="2" fill="none"/>
<circle cx="582.763" cy="18.0197" r="2.88154" stroke="yellow" stroke-width="2" fill="none"/>
<circle cx="350.669" cy="29.9415" r="2.30144" stroke="yellow" stroke-width="2" fill="none"/>
<circle cx="495.359" cy="37.7746" r="2.80537" stroke="yellow" stroke-width="2" fill="none"/>
<circle cx="215.765" cy="44.4187" r="2.27464" stroke="yellow" stroke-width="2" fill="none"/>
<circle cx="215.765" cy="44.4187" r="2.27464" stroke="yellow" stroke-width="2" fill="none"/>
<circle cx="29.0711" cy="52.2478" r="2.41912" stroke="yellow" stroke-width="2" fill="none"/>
<circle cx="95.4537" cy="57.6184" r="2.67487" stroke="yellow" stroke-width="2" fill="none"/>
<circle cx="55.701" cy="58.668" r="2.51836" stroke="yellow" stroke-width="2" fill="none"/>
<circle cx="274.852" cy="73.432" r="2.77221" stroke="yellow" stroke-width="2" fill="none"/>
<circle cx="286.019" cy="84.59" r="2.70378" stroke="yellow" stroke-width="2" fill="none"/>
<circle cx="79.3452" cy="90.0001" r="2.66675" stroke="yellow" stroke-width="2" fill="none"/>
<circle cx="301.549" cy="98.4839" r="2.18876" stroke="yellow" stroke-width="2" fill="none"/>
<circle cx="120.559" cy="99.3843" r="2.59636" stroke="yellow" stroke-width="2" fill="none"/>
<circle cx="357.605" cy="107.095" r="2.79303" stroke="yellow" stroke-width="2" fill="none"/>
<circle cx="357.605" cy="107.095" r="2.79303" stroke="yellow" stroke-width="2" fill="none"/>
<circle cx="309.695" cy="108.841" r="2.43672" stroke="yellow" stroke-width="2" fill="none"/>
<circle cx="603.237" cy="107.784" r="2.83736" stroke="yellow" stroke-width="2" fill="none"/>
<circle cx="459.741" cy="117.209" r="2.4481" stroke="yellow" stroke-width="2" fill="none"/>
<circle cx="446.632" cy="118.15" r="2.34497" stroke="yellow" stroke-width="2" fill="none"/>
<circle cx="425.339" cy="122.552" r="2.44506" stroke="yellow" stroke-width="2" fill="none"/>
<circle cx="596.054" cy="124.305" r="2.30673" stroke="yellow" stroke-width="2" fill="none"/>
<circle cx="591.025" cy="129.876" r="2.80878" stroke="yellow" stroke-width="2" fill="none"/>
<circle cx="591.025" cy="129.876" r="2.80878" stroke="yellow" stroke-width="2" fill="none"/>
<circle cx="464.257" cy="133.771" r="2.46868" stroke="yellow" stroke-width="2" fill="none"/>
<circle cx="384.044" cy="146.532" r="2.83617" stroke="yellow" stroke-width="2" fill="none"/>
<circle cx="384.044" cy="146.532" r="2.83617" stroke="yellow" stroke-width="2" fill="none"/>
<circle cx="606.744" cy="163.358" r="2.70063" stroke="yellow" stroke-width="2" fill="none"/>
<circle cx="606.744" cy="163.358" r="2.70063" stroke="yellow" stroke-width="2" fill="none"/>
<circle cx="140.465" cy="174.435" r="2.55384" stroke="yellow" stroke-width="2" fill="none"/>
<circle cx="429.638" cy="177.003" r="2.37129" stroke="yellow" stroke-width="2" fill="none"/>
<circle cx="605.486" cy="178.391" r="2.71393" stroke="yellow" stroke-width="2" fill="none"/>
<circle cx="621.635" cy="178.204" r="2.35609" stroke="yellow" stroke-width="2" fill="none"/>
<circle cx="143.247" cy="184.995" r="2.47331" stroke="yellow" stroke-width="2" fill="none"/>
<circle cx="143.247" cy="184.995" r="2.47331" stroke="yellow" stroke-width="2" fill="none"/>
<circle cx="281.746" cy="186.05" r="2.80676" stroke="yellow" stroke-width="2" fill="none"/>
<circle cx="625.494" cy="185.747" r="2.36809" stroke="yellow" stroke-width="2" fill="none"/>
<circle cx="629" cy="194.593" r="2.33293" stroke="yellow" stroke-width="2" fill="none"/>
<circle cx="472.532" cy="195.442" r="2.12843" stroke="yellow" stroke-width="2" fill="none"/>
<circle cx="346.426" cy="198.187" r="2.39968" stroke="yellow" stroke-width="2" fill="none"/>
<circle cx="323.492" cy="203.79" r="2.39432" stroke="yellow" stroke-width="2" fill="none"/>
<circle cx="635.487" cy="206.884" r="2.69894" stroke="yellow" stroke-width="2" fill="none"/>
<circle cx="308.812" cy="210.415" r="2.56796" stroke="yellow" stroke-width="2" fill="none"/>
<circle cx="455.171" cy="213.194" r="2.75083" stroke="yellow" stroke-width="2" fill="none"/>
<circle cx="455.171" cy="213.194" r="2.75083" stroke="yellow" stroke-width="2" fill="none"/>
<circle cx="155.706" cy="233.066" r="2.74587" stroke="yellow" stroke-width="2" fill="none"/>
<circle cx="432.452" cy="234.361" r="2.51928" stroke="yellow" stroke-width="2" fill="none"/>
<circle cx="148.722" cy="255.141" r="2.81111" stroke="yellow" stroke-width="2" fill="none"/>
<circle cx="377.549" cy="259.209" r="2.34481" stroke="yellow" stroke-width="2" fill="none"/>
<circle cx="400.46" cy="264.177" r="2.18978" stroke="yellow" stroke-width="2" fill="none"/>
<circle cx="59.2577" cy="269.792" r="2.61334" stroke="yellow" stroke-width="2" fill="none"/>
<circle cx="399.114" cy="270.276" r="2.47944" stroke="yellow" stroke-width="2" fill="none"/>
<circle cx="476.605" cy="272.542" r="2.62957" stroke="yellow" stroke-width="2" fill="none"/>
<circle cx="406.387" cy="287.784" r="2.70414" stroke="yellow" stroke-width="2" fill="none"/>
<circle cx="368.453" cy="288.965" r="2.30046" stroke="yellow" stroke-width="2" fill="none"/>
<circle cx="389.497" cy="289.829" r="2.33373" stroke="yellow" stroke-width="2" fill="none"/>
<circle cx="23.8693" cy="313.105" r="2.33174" stroke="yellow" stroke-width="2" fill="none"/>
<circle cx="57.4097" cy="356.086" r="2.80021" stroke="yellow" stroke-width="2" fill="none"/>
<circle cx="448.487" cy="362.451" r="2.79249" stroke="yellow" stroke-width="2" fill="none"/>
<circle cx="556.038" cy="374.877" r="2.50573" stroke="yellow" stroke-width="2" fill="none"/>
<circle cx="445.272" cy="376.289" r="2.29707" stroke="yellow" stroke-width="2" fill="none"/>
<circle cx="216.936" cy="379.046" r="2.39286" stroke="yellow" stroke-width="2" fill="none"/>
<circle cx="453.061" cy="383.542" r="2.3891" stroke="yellow" stroke-width="2" fill="none"/>
<circle cx="332.134" cy="384.305" r="2.40008" stroke="yellow" stroke-width="2" fill="none"/>
<circle cx="96.1017" cy="384.705" r="2.56199" stroke="yellow" stroke-width="2" fill="none"/>
<circle cx="466.932" cy="385.704" r="2.6803" stroke="yellow" stroke-width="2" fill="none"/>
<circle cx="513.233" cy="402.121" r="2.79825" stroke="yellow" stroke-width="2" fill="none"/>
<circle cx="488.149" cy="406.697" r="2.71529" stroke="yellow" stroke-width="2" fill="none"/>
<circle cx="488.149" cy="406.697" r="2.71529" stroke="yellow" stroke-width="2" fill="none"/>
<circle cx="365.079" cy="415" r="2.45482" stroke="yellow" stroke-width="2" fill="none"/>
<circle cx="365.079" cy="415" r="2.45482" stroke="yellow" stroke-width="2" fill="none"/>
<circle cx="582.474" cy="422.266" r="2.30353" stroke="yellow" stroke-width="2" fill="none"/>
<circle cx="205.867" cy="444.637" r="2.47608" stroke="yellow" stroke-width="2" fill="none"/>
<circle cx="599.781" cy="20.0056" r="3.13578" stroke="yellow" stroke-width="2" fill="none"/>
<circle cx="599.781" cy="20.0056" r="3.13578" stroke="yellow" stroke-width="2" fill="none"/>
<circle cx="585.937" cy="26.9432" r="3.1737" stroke="yellow" stroke-width="2" fill="none"/>
<circle cx="489.687" cy="32.5926" r="3.40134" stroke="yellow" stroke-width="2" fill="none"/>
<circle cx="375.095" cy="66.1305" r="3.05603" stroke="yellow" stroke-width="2" fill="none"/>
<circle cx="227.092" cy="83.4428" r="3.09036" stroke="yellow" stroke-width="2" fill="none"/>
<circle cx="120.067" cy="86.1363" r="3.02363" stroke="yellow" stroke-width="2" fill="none"/>
<circle cx="291.292" cy="94.112" r="3.17205" stroke="yellow" stroke-width="2" fill="none"/>
<circle cx="376.938" cy="110.548" r="3.06288" stroke="yellow" stroke-width="2" fill="none"/>
<circle cx="376.549" cy="118.737" r="3.10581" stroke="yellow" stroke-width="2" fill="none"/>
<circle cx="376.549" cy="118.737" r="3.10581" stroke="yellow" stroke-width="2" fill="none"/>
<circle cx="587.817" cy="122.891" r="2.95245" stroke="yellow" stroke-width="2" fill="none"/>
<circle cx="453.451" cy="124.236" r="3.26898" stroke="yellow" stroke-width="2" fill="none"/>
<circle cx="331.634" cy="127.977" r="3.17399" stroke="yellow" stroke-width="2" fill="none"/>
<circle cx="588.821" cy="142.517" r="2.85798" stroke="yellow" stroke-width="2" fill="none"/>
<circle cx="588.821" cy="142.517" r="2.85798" stroke="yellow" stroke-width="2" fill="none"/>
<circle cx="100.522" cy="159.491" r="3.42155" stroke="yellow" stroke-width="2" fill="none"/>
<circle cx="181.688" cy="166.133" r="3.2473" stroke="yellow" stroke-width="2" fill="none"/>
<circle cx="252.792" cy="165.426" r="2.817" stroke="yellow" stroke-width="2" fill="none"/>
<circle cx="172.436" cy="167.304" r="3.04342" stroke="yellow" stroke-width="2" fill="none"/>
<circle cx="600.232" cy="167.262" r="2.95578" stroke="yellow" stroke-width="2" fill="none"/>
<circle cx="97.2462" cy="167.54" r="2.84563" stroke="yellow" stroke-width="2" fill="none"/>
<circle cx="371.687" cy="167.712" r="3.03878" stroke="yellow" stroke-width="2" fill="none"/>
<circle cx="459.823" cy="167.884" r="3.15074" stroke="yellow" stroke-width="2" fill="none"/>
<circle cx="609.378" cy="169.53" r="3.48423" stroke="yellow" stroke-width="2" fill="none"/>
<circle cx="113.187" cy="170.93" r="3.30699" stroke="yellow" stroke-width="2" fill="none"/>
<circle cx="121.897" cy="172.279" r="3.37199" stroke="yellow" stroke-width="2" fill="none"/>
<circle cx="411.02" cy="187.358" r="3.04696" stroke="yellow" stroke-width="2" fill="none"/>
<circle cx="305.06" cy="190.573" r="3.47323" stroke="yellow" stroke-width="2" fill="none"/>
<circle cx="612.745" cy="193.193" r="3.07452" stroke="yellow" stroke-width="2" fill="none"/>
<circle cx="621.625" cy="194.188" r="2.95483" stroke="yellow" stroke-width="2" fill="none"/>
<circle cx="621.625" cy="194.188" r="2.95483" stroke="yellow" stroke-width="2" fill="none"/>
<circle cx="531.039" cy="198.894" r="3.05301" stroke="yellow" stroke-width="2" fill="none"/>
<circle cx="626.035" cy="203.094" r="3.10164" stroke="yellow" stroke-width="2" fill="none"/>
<circle cx="626.035" cy="203.094" r="3.10164" stroke="yellow" stroke-width="2" fill="none"/>
<circle cx="328.82" cy="212.653" r="3.49929" stroke="yellow" stroke-width="2" fill="none"/>
<circle cx="631.059" cy="214.428" r="2.96429" stroke="yellow" stroke-width="2" fill="none"/>
<circle cx="631.059" cy="214.428" r="2.96429" stroke="yellow" stroke-width="2" fill="none"/>
<circle cx="63.1048" cy="220.789" r="2.88584" stroke="yellow" stroke-width="2" fill="none"/>
<circle cx="126.062" cy="224.748" r="2.84611" stroke="yellow" stroke-width="2" fill="none"/>
<circle cx="467.214" cy="225.7" r="3.643" stroke="yellow" stroke-width="2" fill="none"/>
<circle cx="305.526" cy="234.578" r="3.09143" stroke="yellow" stroke-width="2" fill="none"/>
<circle cx="300.715" cy="242.687" r="2.97362" stroke="yellow" stroke-width="2" fill="none"/>
<circle cx="323.737" cy="248.041" r="3.04463" stroke="yellow" stroke-width="2" fill="none"/>
<circle cx="124.064" cy="262.433" r="3.49552" stroke="yellow" stroke-width="2" fill="none"/>
<circle cx="132.407" cy="270.308" r="3.13229" stroke="yellow" stroke-width="2" fill="none"/>
<circle cx="159.613" cy="271.031" r="3.16047" stroke="yellow" stroke-width="2" fill="none"/>
<circle cx="159.613" cy="271.031" r="3.16047" stroke="yellow" stroke-width="2" fill="none"/>
<circle cx="473.232" cy="304.718" r="3.57328" stroke="yellow" stroke-width="2" fill="none"/>
<circle cx="473.812" cy="333.1" r="2.928" stroke="yellow" stroke-width="2" fill="none"/>
<circle cx="69.4655" cy="339.956" r="3.65836" stroke="yellow" stroke-width="2" fill="none"/>
<circle cx="83.9673" cy="353.593" r="3.30621" stroke="yellow" stroke-width="2" fill="none"/>
<circle cx="460.86" cy="362.251" r="3.20305" stroke="yellow" stroke-width="2" fill="none"/>
<circle cx="448.173" cy="367.653" r="3.23821" stroke="yellow" stroke-width="2" fill="none"/>
<circle cx="472.253" cy="377.136" r="3.56761" stroke="yellow" stroke-width="2" fill="none"/>
<circle cx="472.253" cy="377.136" r="3.56761" stroke="yellow" stroke-width="2" fill="none"/>
<circle cx="489.011" cy="403.737" r="3.21073" stroke="yellow" stroke-width="2" fill="none"/>
<circle cx="58.5394" cy="408.315" r="3.31041" stroke="yellow" stroke-width="2" fill="none"/>
<circle cx="58.5394" cy="408.315" r="3.31041" stroke="yellow" stroke-width="2" fill="none"/>
<circle cx="206.654" cy="444.489" r="2.74065" stroke="yellow" stroke-width="2" fill="none"/>
<circle cx="284.981" cy="447.851" r="2.95009" stroke="yellow" stroke-width="2" fill="none"/>
<circle cx="463.593" cy="464.763" r="3.48688" stroke="yellow" stroke-width="2" fill="none"/>
<circle cx="316.965" cy="104.576" r="3.85986" stroke="yellow" stroke-width="2" fill="none"/>
<circle cx="417.31" cy="131.131" r="3.97349" stroke="yellow" stroke-width="2" fill="none"/>
<circle cx="323.817" cy="133.496" r="4.16645" stroke="yellow" stroke-width="2" fill="none"/>
<circle cx="338.581" cy="155.259" r="4.64401" stroke="yellow" stroke-width="2" fill="none"/>
<circle cx="113.826" cy="161.488" r="3.93875" stroke="yellow" stroke-width="2" fill="none"/>
<circle cx="355.491" cy="161.733" r="3.64933" stroke="yellow" stroke-width="2" fill="none"/>
<circle cx="231.432" cy="167.037" r="4.05606" stroke="yellow" stroke-width="2" fill="none"/>
<circle cx="412.701" cy="178.094" r="4.19367" stroke="yellow" stroke-width="2" fill="none"/>
<circle cx="457.82" cy="177.75" r="3.73978" stroke="yellow" stroke-width="2" fill="none"/>
<circle cx="304.902" cy="190.038" r="3.65949" stroke="yellow" stroke-width="2" fill="none"/>
<circle cx="318.49" cy="210.866" r="4.09693" stroke="yellow" stroke-width="2" fill="none"/>
<circle cx="318.49" cy="210.866" r="4.09693" stroke="yellow" stroke-width="2" fill="none"/>
<circle cx="328.54" cy="213.36" r="3.59668" stroke="yellow" stroke-width="2" fill="none"/>
<circle cx="428.492" cy="225.569" r="4.22456" stroke="yellow" stroke-width="2" fill="none"/>
<circle cx="159.776" cy="272.513" r="3.93086" stroke="yellow" stroke-width="2" fill="none"/>
<circle cx="383.136" cy="300.024" r="4.16446" stroke="yellow" stroke-width="2" fill="none"/>
<circle cx="523.906" cy="358.538" r="4.40563" stroke="yellow" stroke-width="2" fill="none"/>
<circle cx="151.506" cy="387.427" r="4.19256" stroke="yellow" stroke-width="2" fill="none"/>
<circle cx="161.366" cy="392.131" r="4.02169" stroke="yellow" stroke-width="2" fill="none"/>
<circle cx="191.704" cy="395.167" r="3.91627" stroke="yellow" stroke-width="2" fill="none"/>
<circle cx="47.4191" cy="399.365" r="4.23989" stroke="yellow" stroke-width="2" fill="none"/>
<circle cx="410.179" cy="405.144" r="3.70235" stroke="yellow" stroke-width="2" fill="none"/>
<circle cx="37.4331" cy="411.105" r="4.14619" stroke="yellow" stroke-width="2" fill="none"/>
<circle cx="27.6359" cy="422.123" r="3.79662" stroke="yellow" stroke-width="2" fill="none"/>
<circle cx="130.928" cy="30.5588" r="4.90272" stroke="yellow" stroke-width="2" fill="none"/>
<circle cx="466.824" cy="52.4487" r="5.65779" stroke="yellow" stroke-width="2" fill="none"/>
<circle cx="258.075" cy="64.3468" r="4.93717" stroke="yellow" stroke-width="2" fill="none"/>
<circle cx="198.102" cy="65.8071" r="5.07631" stroke="yellow" stroke-width="2" fill="none"/>
<circle cx="68.0403" cy="72.2501" r="5.6788" stroke="yellow" stroke-width="2" fill="none"/>
<circle cx="68.0403" cy="72.2501" r="5.6788" stroke="yellow" stroke-width="2" fill="none"/>
<circle cx="437.907" cy="77.7318" r="5.14408" stroke="yellow" stroke-width="2" fill="none"/>
<circle cx="618.295" cy="84.5384" r="5.31856" stroke="yellow" stroke-width="2" fill="none"/>
<circle cx="435.417" cy="116.406" r="5.17968" stroke="yellow" stroke-width="2" fill="none"/>
<circle cx="465.386" cy="119.252" r="4.87263" stroke="yellow" stroke-width="2" fill="none"/>
<circle cx="457.463" cy="131.223" r="5.18939" stroke="yellow" stroke-width="2" fill="none"/>
<circle cx="465.649" cy="143.877" r="4.80073" stroke="yellow" stroke-width="2" fill="none"/>
<circle cx="422.738" cy="155.732" r="5.48614" stroke="yellow" stroke-width="2" fill="none"/>
<circle cx="426.904" cy="169.434" r="4.93663" stroke="yellow" stroke-width="2" fill="none"/>
<circle cx="426.904" cy="169.434" r="4.93663" stroke="yellow" stroke-width="2" fill="none"/>
<circle cx="498.217" cy="169.988" r="5.67384" stroke="yellow" stroke-width="2" fill="none"/>
<circle cx="334.284" cy="199.775" r="4.79821" stroke="yellow" stroke-width="2" fill="none"/>
<circle cx="263.891" cy="226.407" r="4.87441" stroke="yellow" stroke-width="2" fill="none"/>
<circle cx="455.097" cy="227.392" r="4.93382" stroke="yellow" stroke-width="2" fill="none"/>
<circle cx="455.097" cy="227.392" r="4.93382" stroke="yellow" stroke-width="2" fill="none"/>
<circle cx="167.885" cy="244.63" r="4.94447" stroke="yellow" stroke-width="2" fill="none"/>
<circle cx="490.403" cy="249.696" r="4.8195" stroke="yellow" stroke-width="2" fill="none"/>
<circle cx="401.284" cy="299.23" r="4.85435" stroke="yellow" stroke-width="2" fill="none"/>
<circle cx="536.262" cy="337.55" r="4.89376" stroke="yellow" stroke-width="2" fill="none"/>
<circle cx="535.175" cy="350.021" r="4.73166" stroke="yellow" stroke-width="2" fill="none"/>
<circle cx="83.8706" cy="358.353" r="5.29445" stroke="yellow" stroke-width="2" fill="none"/>
<circle cx="547.425" cy="361.204" r="4.81455" stroke="yellow" stroke-width="2" fill="none"/>
<circle cx="395.551" cy="385.73" r="5.20079" stroke="yellow" stroke-width="2" fill="none"/>
<circle cx="395.551" cy="385.73" r="5.20079" stroke="yellow" stroke-width="2" fill="none"/>
<circle cx="352.96" cy="468.295" r="4.92053" stroke="yellow" stroke-width="2" fill="none"/>
<circle cx="426.039" cy="467.634" r="4.78492" stroke="yellow" stroke-width="2" fill="none"/>
<circle cx="494.323" cy="45.7621" r="6.99536" stroke="yellow" stroke-width="2" fill="none"/>
<circle cx="601.526" cy="48.4555" r="6.30871" stroke="yellow" stroke-width="2" fill="none"/>
<circle cx="514.099" cy="52.1348" r="6.03403" stroke="yellow" stroke-width="2" fill="none"/>
<circle cx="514.099" cy="52.1348" r="6.03403" stroke="yellow" stroke-width="2" fill="none"/>
<circle cx="62.9973" cy="55.7386" r="6.07323" stroke="yellow" stroke-width="2" fill="none"/>
<circle cx="196.747" cy="65.5498" r="5.59755" stroke="yellow" stroke-width="2" fill="none"/>
<circle cx="421.546" cy="87.0155" r="6.354" stroke="yellow" stroke-width="2" fill="none"/>
<circle cx="238.675" cy="89.7337" r="5.79577" stroke="yellow" stroke-width="2" fill="none"/>
<circle cx="238.675" cy="89.7337" r="5.79577" stroke="yellow" stroke-width="2" fill="none"/>
<circle cx="116.821" cy="145.849" r="6.85348" stroke="yellow" stroke-width="2" fill="none"/>
<circle cx="360.141" cy="174.726" r="5.90148" stroke="yellow" stroke-width="2" fill="none"/>
<circle cx="360.141" cy="174.726" r="5.90148" stroke="yellow" stroke-width="2" fill="none"/>
<circle cx="138.891" cy="178.127" r="5.68513" stroke="yellow" stroke-width="2" fill="none"/>
<circle cx="138.891" cy="178.127" r="5.68513" stroke="yellow" stroke-width="2" fill="none"/>
<circle cx="269.32" cy="211.837" r="6.11862" stroke="yellow" stroke-width="2" fill="none"/>
<circle cx="439.356" cy="222.783" r="6.26908" stroke="yellow" stroke-width="2" fill="none"/>
<circle cx="439.356" cy="222.783" r="6.26908" stroke="yellow" stroke-width="2" fill="none"/>
<circle cx="315.739" cy="239.221" r="5.99918" stroke="yellow" stroke-width="2" fill="none"/>
<circle cx="142.331" cy="242.776" r="6.56723" stroke="yellow" stroke-width="2" fill="none"/>
<circle cx="142.331" cy="242.776" r="6.56723" stroke="yellow" stroke-width="2" fill="none"/>
<circle cx="489.518" cy="245.175" r="6.77996" stroke="yellow" stroke-width="2" fill="none"/>
<circle cx="383.164" cy="252.084" r="6.4796" stroke="yellow" stroke-width="2" fill="none"/>
<circle cx="318.857" cy="259.823" r="5.92147" stroke="yellow" stroke-width="2" fill="none"/>
<circle cx="240.256" cy="261.828" r="6.53046" stroke="yellow" stroke-width="2" fill="none"/>
<circle cx="298.307" cy="264.614" r="7.88403" stroke="yellow" stroke-width="2" fill="none"/>
<circle cx="487.62" cy="360.274" r="6.8637" stroke="yellow" stroke-width="2" fill="none"/>
<circle cx="84.0116" cy="361.093" r="6.33813" stroke="yellow" stroke-width="2" fill="none"/>
<circle cx="517.016" cy="400.523" r="6.36757" stroke="yellow" stroke-width="2" fill="none"/>
<circle cx="566.364" cy="21.7423" r="7.68641" stroke="yellow" stroke-width="2" fill="none"/>
<circle cx="566.364" cy="21.7423" r="7.68641" stroke="yellow" stroke-width="2" fill="none"/>
<circle cx="514.27" cy="28.9155" r="7.79318" stroke="yellow" stroke-width="2" fill="none"/>
<circle cx="565.949" cy="20.4406" r="7.59297" stroke="yellow" stroke-width="2" fill="none"/>
<circle cx="565.949" cy="20.4406" r="7.59297" stroke="yellow" stroke-width="2" fill="none"/>
<circle cx="193.484" cy="62.4544" r="8.75975" stroke="yellow" stroke-width="2" fill="none"/>
<circle cx="534.65" cy="65.7577" r="8.75243" stroke="yellow" stroke-width="2" fill="none"/>
<circle cx="442.776" cy="151.967" r="7.67175" stroke="yellow" stroke-width="2" fill="none"/>
<circle cx="171.914" cy="157.457" r="9.61769" stroke="yellow" stroke-width="2" fill="none"/>
<circle cx="350.054" cy="173.688" r="7.52903" stroke="yellow" stroke-width="2" fill="none"/>
<circle cx="350.054" cy="173.688" r="7.52903" stroke="yellow" stroke-width="2" fill="none"/>
<circle cx="52.8976" cy="230.971" r="8.00193" stroke="yellow" stroke-width="2" fill="none"/>
<circle cx="52.8976" cy="230.971" r="8.00193" stroke="yellow" stroke-width="2" fill="none"/>
<circle cx="116.464" cy="248.602" r="7.99842" stroke="yellow" stroke-width="2" fill="none"/>
<circle cx="240.376" cy="261.498" r="6.95036" stroke="yellow" stroke-width="2" fill="none"/>
<circle cx="562.142" cy="313.65" r="8.51659" stroke="yellow" stroke-width="2" fill="none"/>
<circle cx="468.84" cy="342.463" r="8.56711" stroke="yellow" stroke-width="2" fill="none"/>
<circle cx="54.1898" cy="347.972" r="7.81724" stroke="yellow" stroke-width="2" fill="none"/>
<circle cx="455.488" cy="364.222" r="7.23349" stroke="yellow" stroke-width="2" fill="none"/>
<circle cx="556.106" cy="381.634" r="7.96703" stroke="yellow" stroke-width="2" fill="none"/>
<circle cx="104.441" cy="385.628" r="8.54615" stroke="yellow" stroke-width="2" fill="none"/>
<circle cx="339.807" cy="453.418" r="8.05609" stroke="yellow" stroke-width="2" fill="none"/>
<circle cx="221.055" cy="75.8847" r="9.40551" stroke="yellow" stroke-width="2" fill="none"/>
<circle cx="105.135" cy="85.5202" r="10.4232" stroke="yellow" stroke-width="2" fill="none"/>
<circle cx="105.135" cy="85.5202" r="10.4232" stroke="yellow" stroke-width="2" fill="none"/>
<circle cx="444.105" cy="96.0544" r="10.0825" stroke="yellow" stroke-width="2" fill="none"/>
<circle cx="444.105" cy="96.0544" r="10.0825" stroke="yellow" stroke-width="2" fill="none"/>
<circle cx="387.79" cy="122.339" r="9.06611" stroke="yellow" stroke-width="2" fill="none"/>
<circle cx="475.932" cy="159.753" r="10.6729" stroke="yellow" stroke-width="2" fill="none"/>
<circle cx="170.444" cy="222.066" r="11.0348" stroke="yellow" stroke-width="2" fill="none"/>
<circle cx="189.814" cy="254.299" r="9.12324" stroke="yellow" stroke-width="2" fill="none"/>
<circle cx="299.226" cy="269.802" r="11.6307" stroke="yellow" stroke-width="2" fill="none"/>
<circle cx="473.672" cy="317.922" r="9.42946" stroke="yellow" stroke-width="2" fill="none"/>
<circle cx="473.672" cy="317.922" r="9.42946" stroke="yellow" stroke-width="2" fill="none"/>
<circle cx="114.104" cy="54.1758" r="13.2649" stroke="yellow" stroke-width="2" fill="none"/>
<circle cx="580.269" cy="97.9399" r="11.6676" stroke="yellow" stroke-width="2" fill="none"/>
<circle cx="559.497" cy="123.048" r="12.5404" stroke="yellow" stroke-width="2" fill="none"/>
<circle cx="606.539" cy="145.493" r="12.2081" stroke="yellow" stroke-width="2" fill="none"/>
<circle cx="242.837" cy="155.282" r="12.19" stroke="yellow" stroke-width="2" fill="none"/>
<circle cx="451.691" cy="189.976" r="13.1143" stroke="yellow" stroke-width="2" fill="none"/>
<circle cx="164.158" cy="212.682" r="14.5454" stroke="yellow" stroke-width="2" fill="none"/>
<circle cx="151.498" cy="254.042" r="13.8665" stroke="yellow" stroke-width="2" fill="none"/>
<circle cx="151.498" cy="254.042" r="13.8665" stroke="yellow" stroke-width="2" fill="none"/>
<circle cx="412.358" cy="251.564" r="13.0839" stroke="yellow" stroke-width="2" fill="none"/>
<circle cx="534.875" cy="259.22" r="11.4397" stroke="yellow" stroke-width="2" fill="none"/>
<circle cx="342.774" cy="263.19" r="11.8727" stroke="yellow" stroke-width="2" fill="none"/>
<circle cx="395.976" cy="289.66" r="12.3661" stroke="yellow" stroke-width="2" fill="none"/>
<circle cx="156.853" cy="296.87" r="13.3502" stroke="yellow" stroke-width="2" fill="none"/>
<circle cx="349.36" cy="295.044" r="12.1796" stroke="yellow" stroke-width="2" fill="none"/>
<circle cx="496.159" cy="312.075" r="14.099" stroke="yellow" stroke-width="2" fill="none"/>
<circle cx="496.159" cy="312.075" r="14.099" stroke="yellow" stroke-width="2" fill="none"/>
<circle cx="202.278" cy="422.461" r="14.8762" stroke="yellow" stroke-width="2" fill="none"/>
<circle cx="148.233" cy="83.0079" r="17.1556" stroke="yellow" stroke-width="2" fill="none"/>
<circle cx="351.327" cy="134.149" r="16.0958" stroke="yellow" stroke-width="2" fill="none"/>
<circle cx="87.0447" cy="199.421" r="16.1396" stroke="yellow" stroke-width="2" fill="none"/>
<circle cx="278.6" cy="239.664" r="15.8352" stroke="yellow" stroke-width="2" fill="none"/>
<circle cx="486.436" cy="269.232" r="15.3927" stroke="yellow" stroke-width="2" fill="none"/>
<circle cx="486.436" cy="269.232" r="15.3927" stroke="yellow" stroke-width="2" fill="none"/>
<circle cx="158.227" cy="302.029" r="15.4322" stroke="yellow" stroke-width="2" fill="none"/>
<circle cx="199.758" cy="423.804" r="15.6752" stroke="yellow" stroke-width="2" fill="none"/>
<circle cx="213.358" cy="38.5126" r="20.4722" stroke="yellow" stroke-width="2" fill="none"/>
<circle cx="193.762" cy="107.784" r="22.1526" stroke="yellow" stroke-width="2" fill="none"/>
<circle cx="193.762" cy="107.784" r="22.1526" stroke="yellow" stroke-width="2" fill="none"/>
<circle cx="72.7351" cy="425.091" r="24.8599" stroke="yellow" stroke-width="2" fill="none"/>
<circle cx="479.747" cy="405.444" r="30.7108" stroke="yellow" stroke-width="2" fill="none"/>
<circle cx="249.012" cy="162.394" r="58.4273" stroke="yellow" stroke-width="2" fill="none"/>
<circle cx="249.012" cy="162.394" r="58.4273" stroke="yellow" stroke-width="2" fill="none"/>
<circle cx="249.012" cy="162.394" r="58.4273" stroke="yellow" stroke-width="2" fill="none"/>
</svg>