<?xml version="1.0" standalone="yes"?>
<!-- SVG graphic -->
<svg xmlns='http://www.w3.org/2000/svg' xmlns:xlink='http://www.w3.org/1999/xlink'
width="640px" height="480px" preserveAspectRatio="xMinYMin meet" viewBox="0 0 640 480" version="1.1">
<image x="0" y="0" width="640px" height="480px" opacity="1" xlink:href="E:\fengbing\reconstraction\sources\data\et\et001.jpg"/>
<circle cx="313.075" cy="11.5804" r="2.0796" stroke="yellow" stroke-width="2" fill="none"/>
<circle cx="313.075" cy="11.5804" r="2.0796" stroke="yellow" stroke-width="2" fill="none"/>
<circle cx="620.075" cy="21.6592" r="2.04093" stroke="yellow" stroke-width="2" fill="none"/>
<circle cx="399.287" cy="36.7829" r="2.22541" stroke="yellow" stroke-width="2" fill="none"/>
<circle cx="399.287" cy="36.7829" r="2.22541" stroke="yellow" stroke-width="2" fill="none"/>
<circle cx="546.164" cy="41.888" r="2.2228" stroke="yellow" stroke-width="2" fill="none"/>
<circle cx="553.465" cy="43.6245" r="2.11284" stroke="yellow" stroke-width="2" fill="none"/>
<circle cx="435.232" cy="44.7765" r="1.97419" stroke="yellow" stroke-width="2" fill="none"/>
<circle cx="544.273" cy="60.1433" r="2.06412" stroke="yellow" stroke-width="2" fill="none"/>
<circle cx="552.687" cy="63.6754" r="1.91448" stroke="yellow" stroke-width="2" fill="none"/>
<circle cx="309.24" cy="66.356" r="2.15763" stroke="yellow" stroke-width="2" fill="none"/>
<circle cx="406.99" cy="75.5447" r="2.05002" stroke="yellow" stroke-width="2" fill="none"/>
<circle cx="413.591" cy="78.0606" r="2.26766" stroke="yellow" stroke-width="2" fill="none"/>
<circle cx="562.252" cy="89.5514" r="2.16613" stroke="yellow" stroke-width="2" fill="none"/>
<circle cx="562.252" cy="89.5514" r="2.16613" stroke="yellow" stroke-width="2" fill="none"/>
<circle cx="575.639" cy="89.8879" r="1.96326" stroke="yellow" stroke-width="2" fill="none"/>
<circle cx="559.082" cy="95.1876" r="2.2034" stroke="yellow" stroke-width="2" fill="none"/>
<circle cx="572.726" cy="94.792" r="2.00073" stroke="yellow" stroke-width="2" fill="none"/>
<circle cx="576.06" cy="100.848" r="1.89479" stroke="yellow" stroke-width="2" fill="none"/>
<circle cx="564.522" cy="103.705" r="2.27643" stroke="yellow" stroke-width="2" fill="none"/>
<circle cx="371.102" cy="104.197" r="2.24467" stroke="yellow" stroke-width="2" fill="none"/>
<circle cx="391.981" cy="104.034" r="2.17809" stroke="yellow" stroke-width="2" fill="none"/>
<circle cx="62.5496" cy="107.23" r="2.11664" stroke="yellow" stroke-width="2" fill="none"/>
<circle cx="62.5496" cy="107.23" r="2.11664" stroke="yellow" stroke-width="2" fill="none"/>
<circle cx="580.456" cy="107.044" r="1.96644" stroke="yellow" stroke-width="2" fill="none"/>
<circle cx="568.926" cy="111.04" r="2.24552" stroke="yellow" stroke-width="2" fill="none"/>
<circle cx="590.815" cy="114.152" r="1.95874" stroke="yellow" stroke-width="2" fill="none"/>
<circle cx="57.4855" cy="115.509" r="1.73149" stroke="yellow" stroke-width="2" fill="none"/>
<circle cx="57.4855" cy="115.509" r="1.73149" stroke="yellow" stroke-width="2" fill="none"/>
<circle cx="585.096" cy="115.649" r="1.89825" stroke="yellow" stroke-width="2" fill="none"/>
<circle cx="51.5049" cy="118.348" r="2.10926" stroke="yellow" stroke-width="2" fill="none"/>
<circle cx="51.5049" cy="118.348" r="2.10926" stroke="yellow" stroke-width="2" fill="none"/>
<circle cx="585.611" cy="126.08" r="2.23064" stroke="yellow" stroke-width="2" fill="none"/>
<circle cx="585.611" cy="126.08" r="2.23064" stroke="yellow" stroke-width="2" fill="none"/>
<circle cx="592.204" cy="126.147" r="2.20196" stroke="yellow" stroke-width="2" fill="none"/>
<circle cx="450.918" cy="129.999" r="2.04951" stroke="yellow" stroke-width="2" fill="none"/>
<circle cx="63.917" cy="132.221" r="1.87423" stroke="yellow" stroke-width="2" fill="none"/>
<circle cx="596.222" cy="133.005" r="1.88399" stroke="yellow" stroke-width="2" fill="none"/>
<circle cx="97.6552" cy="134.304" r="2.20072" stroke="yellow" stroke-width="2" fill="none"/>
<circle cx="228.179" cy="135.16" r="1.7908" stroke="yellow" stroke-width="2" fill="none"/>
<circle cx="215.424" cy="137.092" r="1.8587" stroke="yellow" stroke-width="2" fill="none"/>
<circle cx="600.603" cy="139.051" r="1.92518" stroke="yellow" stroke-width="2" fill="none"/>
<circle cx="135.477" cy="144.412" r="1.98278" stroke="yellow" stroke-width="2" fill="none"/>
<circle cx="313.876" cy="144.993" r="1.9909" stroke="yellow" stroke-width="2" fill="none"/>
<circle cx="116.229" cy="146.217" r="1.96515" stroke="yellow" stroke-width="2" fill="none"/>
<circle cx="433.763" cy="146.966" r="2.28788" stroke="yellow" stroke-width="2" fill="none"/>
<circle cx="61.6527" cy="148.413" r="2.08696" stroke="yellow" stroke-width="2" fill="none"/>
<circle cx="61.6527" cy="148.413" r="2.08696" stroke="yellow" stroke-width="2" fill="none"/>
<circle cx="330.626" cy="153.398" r="2.08765" stroke="yellow" stroke-width="2" fill="none"/>
<circle cx="87.1431" cy="156.284" r="1.80155" stroke="yellow" stroke-width="2" fill="none"/>
<circle cx="342.19" cy="159.221" r="1.97588" stroke="yellow" stroke-width="2" fill="none"/>
<circle cx="123.843" cy="162.598" r="2.01092" stroke="yellow" stroke-width="2" fill="none"/>
<circle cx="327.535" cy="165.135" r="2.00138" stroke="yellow" stroke-width="2" fill="none"/>
<circle cx="55.9217" cy="166.376" r="2.12366" stroke="yellow" stroke-width="2" fill="none"/>
<circle cx="50.4921" cy="170.622" r="1.91218" stroke="yellow" stroke-width="2" fill="none"/>
<circle cx="120.874" cy="177.582" r="2.30888" stroke="yellow" stroke-width="2" fill="none"/>
<circle cx="110.534" cy="178.667" r="2.06246" stroke="yellow" stroke-width="2" fill="none"/>
<circle cx="513.46" cy="192.052" r="2.29637" stroke="yellow" stroke-width="2" fill="none"/>
<circle cx="280.233" cy="193.895" r="2.0347" stroke="yellow" stroke-width="2" fill="none"/>
<circle cx="401.476" cy="195.245" r="2.10852" stroke="yellow" stroke-width="2" fill="none"/>
<circle cx="447.229" cy="196.721" r="2.05988" stroke="yellow" stroke-width="2" fill="none"/>
<circle cx="506.794" cy="199.213" r="1.85295" stroke="yellow" stroke-width="2" fill="none"/>
<circle cx="181.093" cy="203.343" r="2.18344" stroke="yellow" stroke-width="2" fill="none"/>
<circle cx="224.165" cy="204.061" r="2.02768" stroke="yellow" stroke-width="2" fill="none"/>
<circle cx="253.228" cy="211.381" r="1.98812" stroke="yellow" stroke-width="2" fill="none"/>
<circle cx="80.8033" cy="217.291" r="1.82685" stroke="yellow" stroke-width="2" fill="none"/>
<circle cx="190.825" cy="223.787" r="1.86771" stroke="yellow" stroke-width="2" fill="none"/>
<circle cx="54.7177" cy="224.643" r="2.09419" stroke="yellow" stroke-width="2" fill="none"/>
<circle cx="556.872" cy="229.049" r="1.97177" stroke="yellow" stroke-width="2" fill="none"/>
<circle cx="197.29" cy="230.923" r="1.91674" stroke="yellow" stroke-width="2" fill="none"/>
<circle cx="106.121" cy="232.592" r="2.08949" stroke="yellow" stroke-width="2" fill="none"/>
<circle cx="106.121" cy="232.592" r="2.08949" stroke="yellow" stroke-width="2" fill="none"/>
<circle cx="136.683" cy="233.843" r="2.27104" stroke="yellow" stroke-width="2" fill="none"/>
<circle cx="560.21" cy="233.168" r="1.8609" stroke="yellow" stroke-width="2" fill="none"/>
<circle cx="326.279" cy="238.372" r="1.89567" stroke="yellow" stroke-width="2" fill="none"/>
<circle cx="326.279" cy="238.372" r="1.89567" stroke="yellow" stroke-width="2" fill="none"/>
<circle cx="360.883" cy="242.688" r="2.31942" stroke="yellow" stroke-width="2" fill="none"/>
<circle cx="551.325" cy="242.567" r="1.71104" stroke="yellow" stroke-width="2" fill="none"/>
<circle cx="223.812" cy="250.813" r="2.20969" stroke="yellow" stroke-width="2" fill="none"/>
<circle cx="193.397" cy="251.751" r="1.87294" stroke="yellow" stroke-width="2" fill="none"/>
<circle cx="227.89" cy="264.559" r="2.03562" stroke="yellow" stroke-width="2" fill="none"/>
<circle cx="227.89" cy="264.559" r="2.03562" stroke="yellow" stroke-width="2" fill="none"/>
<circle cx="196.704" cy="264.802" r="1.90072" stroke="yellow" stroke-width="2" fill="none"/>
<circle cx="357.275" cy="266.883" r="1.9166" stroke="yellow" stroke-width="2" fill="none"/>
<circle cx="560.233" cy="281.06" r="2.00785" stroke="yellow" stroke-width="2" fill="none"/>
<circle cx="562.442" cy="286.201" r="1.89407" stroke="yellow" stroke-width="2" fill="none"/>
<circle cx="562.012" cy="291.899" r="1.97035" stroke="yellow" stroke-width="2" fill="none"/>
<circle cx="213.901" cy="303.038" r="2.18629" stroke="yellow" stroke-width="2" fill="none"/>
<circle cx="503.502" cy="314.178" r="2.1831" stroke="yellow" stroke-width="2" fill="none"/>
<circle cx="503.502" cy="314.178" r="2.1831" stroke="yellow" stroke-width="2" fill="none"/>
<circle cx="494.968" cy="315.337" r="1.9418" stroke="yellow" stroke-width="2" fill="none"/>
<circle cx="239.593" cy="327.443" r="2.3712" stroke="yellow" stroke-width="2" fill="none"/>
<circle cx="151.025" cy="328.974" r="1.93032" stroke="yellow" stroke-width="2" fill="none"/>
<circle cx="151.025" cy="328.974" r="1.93032" stroke="yellow" stroke-width="2" fill="none"/>
<circle cx="507.704" cy="328.852" r="1.85854" stroke="yellow" stroke-width="2" fill="none"/>
<circle cx="510.948" cy="335.027" r="2.00656" stroke="yellow" stroke-width="2" fill="none"/>
<circle cx="160.019" cy="351.197" r="1.96348" stroke="yellow" stroke-width="2" fill="none"/>
<circle cx="129.385" cy="356.147" r="2.15512" stroke="yellow" stroke-width="2" fill="none"/>
<circle cx="99.63" cy="361.541" r="2.2524" stroke="yellow" stroke-width="2" fill="none"/>
<circle cx="471.316" cy="366.966" r="2.02048" stroke="yellow" stroke-width="2" fill="none"/>
<circle cx="471.316" cy="366.966" r="2.02048" stroke="yellow" stroke-width="2" fill="none"/>
<circle cx="237.875" cy="368.547" r="2.05912" stroke="yellow" stroke-width="2" fill="none"/>
<circle cx="216.803" cy="379.855" r="2.13856" stroke="yellow" stroke-width="2" fill="none"/>
<circle cx="255.308" cy="394.959" r="1.92258" stroke="yellow" stroke-width="2" fill="none"/>
<circle cx="291.47" cy="396.823" r="1.61276" stroke="yellow" stroke-width="2" fill="none"/>
<circle cx="428.122" cy="438.718" r="1.99018" stroke="yellow" stroke-width="2" fill="none"/>
<circle cx="184.835" cy="454.098" r="2.18269" stroke="yellow" stroke-width="2" fill="none"/>
<circle cx="396.753" cy="453.714" r="2.0852" stroke="yellow" stroke-width="2" fill="none"/>
<circle cx="395.024" cy="463.668" r="2.12854" stroke="yellow" stroke-width="2" fill="none"/>
<circle cx="517.585" cy="465.148" r="1.90001" stroke="yellow" stroke-width="2" fill="none"/>
<circle cx="192.388" cy="467.754" r="1.9412" stroke="yellow" stroke-width="2" fill="none"/>
<circle cx="313.396" cy="474.43" r="2.16314" stroke="yellow" stroke-width="2" fill="none"/>
<circle cx="313.396" cy="474.43" r="2.16314" stroke="yellow" stroke-width="2" fill="none"/>
<circle cx="618.988" cy="9.03009" r="2.4823" stroke="yellow" stroke-width="2" fill="none"/>
<circle cx="627.476" cy="34.7539" r="2.41372" stroke="yellow" stroke-width="2" fill="none"/>
<circle cx="541.077" cy="53.8477" r="2.30802" stroke="yellow" stroke-width="2" fill="none"/>
<circle cx="425.039" cy="70.3808" r="2.56884" stroke="yellow" stroke-width="2" fill="none"/>
<circle cx="425.039" cy="70.3808" r="2.56884" stroke="yellow" stroke-width="2" fill="none"/>
<circle cx="545.073" cy="72.1399" r="2.27609" stroke="yellow" stroke-width="2" fill="none"/>
<circle cx="407.574" cy="94.1886" r="2.21557" stroke="yellow" stroke-width="2" fill="none"/>
<circle cx="586.722" cy="95.7382" r="2.40707" stroke="yellow" stroke-width="2" fill="none"/>
<circle cx="375.31" cy="102.222" r="3.11201" stroke="yellow" stroke-width="2" fill="none"/>
<circle cx="591.318" cy="103.686" r="2.7754" stroke="yellow" stroke-width="2" fill="none"/>
<circle cx="417.028" cy="107.541" r="2.80092" stroke="yellow" stroke-width="2" fill="none"/>
<circle cx="574.805" cy="108.207" r="2.39614" stroke="yellow" stroke-width="2" fill="none"/>
<circle cx="223.216" cy="109.084" r="2.35177" stroke="yellow" stroke-width="2" fill="none"/>
<circle cx="360.178" cy="112.942" r="2.82894" stroke="yellow" stroke-width="2" fill="none"/>
<circle cx="384.311" cy="115.86" r="2.41432" stroke="yellow" stroke-width="2" fill="none"/>
<circle cx="579.343" cy="116.012" r="2.33482" stroke="yellow" stroke-width="2" fill="none"/>
<circle cx="579.343" cy="116.012" r="2.33482" stroke="yellow" stroke-width="2" fill="none"/>
<circle cx="572.677" cy="116.436" r="2.44741" stroke="yellow" stroke-width="2" fill="none"/>
<circle cx="249.811" cy="127.276" r="2.66038" stroke="yellow" stroke-width="2" fill="none"/>
<circle cx="375.633" cy="129.894" r="2.66554" stroke="yellow" stroke-width="2" fill="none"/>
<circle cx="590.302" cy="133.759" r="2.48077" stroke="yellow" stroke-width="2" fill="none"/>
<circle cx="590.302" cy="133.759" r="2.48077" stroke="yellow" stroke-width="2" fill="none"/>
<circle cx="106.338" cy="136.05" r="2.41024" stroke="yellow" stroke-width="2" fill="none"/>
<circle cx="251.85" cy="138.755" r="2.29747" stroke="yellow" stroke-width="2" fill="none"/>
<circle cx="178.621" cy="139.978" r="2.51514" stroke="yellow" stroke-width="2" fill="none"/>
<circle cx="324.592" cy="155.074" r="2.42917" stroke="yellow" stroke-width="2" fill="none"/>
<circle cx="459.329" cy="160.517" r="2.75232" stroke="yellow" stroke-width="2" fill="none"/>
<circle cx="253.883" cy="169.797" r="2.57711" stroke="yellow" stroke-width="2" fill="none"/>
<circle cx="288.342" cy="172.002" r="2.36097" stroke="yellow" stroke-width="2" fill="none"/>
<circle cx="54.776" cy="175.336" r="2.53545" stroke="yellow" stroke-width="2" fill="none"/>
<circle cx="54.776" cy="175.336" r="2.53545" stroke="yellow" stroke-width="2" fill="none"/>
<circle cx="349.468" cy="179.598" r="2.4609" stroke="yellow" stroke-width="2" fill="none"/>
<circle cx="349.501" cy="179.643" r="2.46035" stroke="yellow" stroke-width="2" fill="none"/>
<circle cx="402.328" cy="188.809" r="2.6463" stroke="yellow" stroke-width="2" fill="none"/>
<circle cx="310.624" cy="199.813" r="2.45742" stroke="yellow" stroke-width="2" fill="none"/>
<circle cx="60.7437" cy="207.126" r="2.42198" stroke="yellow" stroke-width="2" fill="none"/>
<circle cx="60.7437" cy="207.126" r="2.42198" stroke="yellow" stroke-width="2" fill="none"/>
<circle cx="92.9288" cy="213.702" r="2.46371" stroke="yellow" stroke-width="2" fill="none"/>
<circle cx="86.5181" cy="215.417" r="2.47226" stroke="yellow" stroke-width="2" fill="none"/>
<circle cx="314.518" cy="221.272" r="2.51683" stroke="yellow" stroke-width="2" fill="none"/>
<circle cx="314.518" cy="221.272" r="2.51683" stroke="yellow" stroke-width="2" fill="none"/>
<circle cx="304.251" cy="223.852" r="2.40497" stroke="yellow" stroke-width="2" fill="none"/>
<circle cx="304.251" cy="223.852" r="2.40497" stroke="yellow" stroke-width="2" fill="none"/>
<circle cx="61.7498" cy="237.327" r="2.51121" stroke="yellow" stroke-width="2" fill="none"/>
<circle cx="61.7498" cy="237.327" r="2.51121" stroke="yellow" stroke-width="2" fill="none"/>
<circle cx="276.563" cy="237.133" r="2.57522" stroke="yellow" stroke-width="2" fill="none"/>
<circle cx="431.909" cy="240.964" r="2.51156" stroke="yellow" stroke-width="2" fill="none"/>
<circle cx="375.265" cy="241.419" r="2.79137" stroke="yellow" stroke-width="2" fill="none"/>
<circle cx="296.435" cy="254.323" r="2.24237" stroke="yellow" stroke-width="2" fill="none"/>
<circle cx="159.278" cy="277.93" r="2.63108" stroke="yellow" stroke-width="2" fill="none"/>
<circle cx="167.681" cy="282.632" r="2.23928" stroke="yellow" stroke-width="2" fill="none"/>
<circle cx="487.05" cy="285.314" r="2.44588" stroke="yellow" stroke-width="2" fill="none"/>
<circle cx="175.976" cy="286.52" r="1.96167" stroke="yellow" stroke-width="2" fill="none"/>
<circle cx="57.9757" cy="296.286" r="2.53203" stroke="yellow" stroke-width="2" fill="none"/>
<circle cx="57.9757" cy="296.286" r="2.53203" stroke="yellow" stroke-width="2" fill="none"/>
<circle cx="533.142" cy="299.58" r="2.723" stroke="yellow" stroke-width="2" fill="none"/>
<circle cx="63.369" cy="302.219" r="2.78957" stroke="yellow" stroke-width="2" fill="none"/>
<circle cx="63.369" cy="302.219" r="2.78957" stroke="yellow" stroke-width="2" fill="none"/>
<circle cx="495.977" cy="322.227" r="2.42337" stroke="yellow" stroke-width="2" fill="none"/>
<circle cx="513.175" cy="325.285" r="2.54614" stroke="yellow" stroke-width="2" fill="none"/>
<circle cx="153.218" cy="340.523" r="2.44436" stroke="yellow" stroke-width="2" fill="none"/>
<circle cx="116.038" cy="357.422" r="2.79252" stroke="yellow" stroke-width="2" fill="none"/>
<circle cx="478.188" cy="364.484" r="2.69801" stroke="yellow" stroke-width="2" fill="none"/>
<circle cx="238.031" cy="370.323" r="2.79794" stroke="yellow" stroke-width="2" fill="none"/>
<circle cx="142.634" cy="371.121" r="2.29667" stroke="yellow" stroke-width="2" fill="none"/>
<circle cx="292.065" cy="393.702" r="2.76874" stroke="yellow" stroke-width="2" fill="none"/>
<circle cx="292.065" cy="393.702" r="2.76874" stroke="yellow" stroke-width="2" fill="none"/>
<circle cx="199.938" cy="417.672" r="2.73791" stroke="yellow" stroke-width="2" fill="none"/>
<circle cx="494.155" cy="459.786" r="2.5208" stroke="yellow" stroke-width="2" fill="none"/>
<circle cx="388.023" cy="474.828" r="2.82908" stroke="yellow" stroke-width="2" fill="none"/>
<circle cx="630.057" cy="19.0721" r="3.81436" stroke="yellow" stroke-width="2" fill="none"/>
<circle cx="631.708" cy="40.7463" r="2.88962" stroke="yellow" stroke-width="2" fill="none"/>
<circle cx="550.921" cy="80.4858" r="2.88101" stroke="yellow" stroke-width="2" fill="none"/>
<circle cx="576.941" cy="82.7411" r="3.12756" stroke="yellow" stroke-width="2" fill="none"/>
<circle cx="565.988" cy="95.566" r="2.88968" stroke="yellow" stroke-width="2" fill="none"/>
<circle cx="413.683" cy="99.8749" r="2.97815" stroke="yellow" stroke-width="2" fill="none"/>
<circle cx="413.683" cy="99.8749" r="2.97815" stroke="yellow" stroke-width="2" fill="none"/>
<circle cx="442.468" cy="108.468" r="2.87702" stroke="yellow" stroke-width="2" fill="none"/>
<circle cx="68.6593" cy="138.293" r="3.15199" stroke="yellow" stroke-width="2" fill="none"/>
<circle cx="99.9213" cy="141.683" r="3.29999" stroke="yellow" stroke-width="2" fill="none"/>
<circle cx="380.391" cy="143.273" r="3.15674" stroke="yellow" stroke-width="2" fill="none"/>
<circle cx="164.274" cy="146.097" r="3.41369" stroke="yellow" stroke-width="2" fill="none"/>
<circle cx="247.486" cy="146.324" r="3.04747" stroke="yellow" stroke-width="2" fill="none"/>
<circle cx="68.4347" cy="152.44" r="3.08723" stroke="yellow" stroke-width="2" fill="none"/>
<circle cx="379.867" cy="153.313" r="3.05708" stroke="yellow" stroke-width="2" fill="none"/>
<circle cx="76.1604" cy="157.01" r="3.16583" stroke="yellow" stroke-width="2" fill="none"/>
<circle cx="386.892" cy="157.973" r="3.02184" stroke="yellow" stroke-width="2" fill="none"/>
<circle cx="49.7583" cy="158.824" r="2.91831" stroke="yellow" stroke-width="2" fill="none"/>
<circle cx="312.392" cy="164.614" r="3.17308" stroke="yellow" stroke-width="2" fill="none"/>
<circle cx="261.198" cy="166.905" r="3.37715" stroke="yellow" stroke-width="2" fill="none"/>
<circle cx="371.255" cy="172.407" r="2.91352" stroke="yellow" stroke-width="2" fill="none"/>
<circle cx="330.224" cy="178.657" r="3.22618" stroke="yellow" stroke-width="2" fill="none"/>
<circle cx="47.6234" cy="182.62" r="3.17233" stroke="yellow" stroke-width="2" fill="none"/>
<circle cx="111.128" cy="193.375" r="3.61487" stroke="yellow" stroke-width="2" fill="none"/>
<circle cx="237.886" cy="195.576" r="3.5418" stroke="yellow" stroke-width="2" fill="none"/>
<circle cx="46.516" cy="197.147" r="3.351" stroke="yellow" stroke-width="2" fill="none"/>
<circle cx="123.619" cy="197.321" r="3.18326" stroke="yellow" stroke-width="2" fill="none"/>
<circle cx="102.185" cy="197.761" r="3.32028" stroke="yellow" stroke-width="2" fill="none"/>
<circle cx="388.411" cy="201.091" r="3.23631" stroke="yellow" stroke-width="2" fill="none"/>
<circle cx="388.411" cy="201.091" r="3.23631" stroke="yellow" stroke-width="2" fill="none"/>
<circle cx="229.661" cy="209.518" r="3.7167" stroke="yellow" stroke-width="2" fill="none"/>
<circle cx="285.689" cy="210.491" r="3.31126" stroke="yellow" stroke-width="2" fill="none"/>
<circle cx="285.689" cy="210.491" r="3.31126" stroke="yellow" stroke-width="2" fill="none"/>
<circle cx="75.1301" cy="212.216" r="2.93818" stroke="yellow" stroke-width="2" fill="none"/>
<circle cx="302.292" cy="213.792" r="3.44824" stroke="yellow" stroke-width="2" fill="none"/>
<circle cx="302.292" cy="213.792" r="3.44824" stroke="yellow" stroke-width="2" fill="none"/>
<circle cx="616.152" cy="228.394" r="3.13757" stroke="yellow" stroke-width="2" fill="none"/>
<circle cx="616.152" cy="228.394" r="3.13757" stroke="yellow" stroke-width="2" fill="none"/>
<circle cx="276.069" cy="228.667" r="3.58443" stroke="yellow" stroke-width="2" fill="none"/>
<circle cx="310.047" cy="231.247" r="3.02597" stroke="yellow" stroke-width="2" fill="none"/>
<circle cx="310.047" cy="231.247" r="3.02597" stroke="yellow" stroke-width="2" fill="none"/>
<circle cx="190.344" cy="234.376" r="3.25092" stroke="yellow" stroke-width="2" fill="none"/>
<circle cx="135.678" cy="235.835" r="3.31306" stroke="yellow" stroke-width="2" fill="none"/>
<circle cx="368.526" cy="248.205" r="3.36754" stroke="yellow" stroke-width="2" fill="none"/>
<circle cx="139.103" cy="250.628" r="3.57877" stroke="yellow" stroke-width="2" fill="none"/>
<circle cx="66.9475" cy="259.927" r="3.08105" stroke="yellow" stroke-width="2" fill="none"/>
<circle cx="66.9475" cy="259.927" r="3.08105" stroke="yellow" stroke-width="2" fill="none"/>
<circle cx="432.174" cy="264.34" r="3.18203" stroke="yellow" stroke-width="2" fill="none"/>
<circle cx="304.197" cy="271.319" r="3.2464" stroke="yellow" stroke-width="2" fill="none"/>
<circle cx="287.254" cy="272.959" r="3.0994" stroke="yellow" stroke-width="2" fill="none"/>
<circle cx="287.254" cy="272.959" r="3.0994" stroke="yellow" stroke-width="2" fill="none"/>
<circle cx="103.837" cy="274.79" r="3.12337" stroke="yellow" stroke-width="2" fill="none"/>
<circle cx="207.36" cy="280.908" r="3.27402" stroke="yellow" stroke-width="2" fill="none"/>
<circle cx="258.238" cy="283.77" r="3.24984" stroke="yellow" stroke-width="2" fill="none"/>
<circle cx="479.617" cy="288.674" r="3.32854" stroke="yellow" stroke-width="2" fill="none"/>
<circle cx="315.81" cy="293.461" r="3.33031" stroke="yellow" stroke-width="2" fill="none"/>
<circle cx="268.527" cy="303.941" r="3.14861" stroke="yellow" stroke-width="2" fill="none"/>
<circle cx="233.82" cy="335.554" r="3.72426" stroke="yellow" stroke-width="2" fill="none"/>
<circle cx="122.534" cy="351.96" r="3.13131" stroke="yellow" stroke-width="2" fill="none"/>
<circle cx="220.368" cy="414.563" r="3.54257" stroke="yellow" stroke-width="2" fill="none"/>
<circle cx="429.314" cy="419.229" r="3.1" stroke="yellow" stroke-width="2" fill="none"/>
<circle cx="215.497" cy="425.633" r="3.41836" stroke="yellow" stroke-width="2" fill="none"/>
<circle cx="443.503" cy="434.396" r="3.57026" stroke="yellow" stroke-width="2" fill="none"/>
<circle cx="191.639" cy="436.164" r="2.98865" stroke="yellow" stroke-width="2" fill="none"/>
<circle cx="210.468" cy="436.47" r="3.10057" stroke="yellow" stroke-width="2" fill="none"/>
<circle cx="430.506" cy="449.763" r="3.1375" stroke="yellow" stroke-width="2" fill="none"/>
<circle cx="477.855" cy="450.033" r="3.43779" stroke="yellow" stroke-width="2" fill="none"/>
<circle cx="430.917" cy="46.6553" r="4.31813" stroke="yellow" stroke-width="2" fill="none"/>
<circle cx="398.754" cy="94.3195" r="3.92758" stroke="yellow" stroke-width="2" fill="none"/>
<circle cx="398.754" cy="94.3195" r="3.92758" stroke="yellow" stroke-width="2" fill="none"/>
<circle cx="370.206" cy="94.7814" r="4.15206" stroke="yellow" stroke-width="2" fill="none"/>
<circle cx="433.914" cy="98.2785" r="4.25319" stroke="yellow" stroke-width="2" fill="none"/>
<circle cx="446.611" cy="99.1641" r="4.04191" stroke="yellow" stroke-width="2" fill="none"/>
<circle cx="446.611" cy="99.1641" r="4.04191" stroke="yellow" stroke-width="2" fill="none"/>
<circle cx="85.4455" cy="102.515" r="4.40216" stroke="yellow" stroke-width="2" fill="none"/>
<circle cx="85.4455" cy="102.515" r="4.40216" stroke="yellow" stroke-width="2" fill="none"/>
<circle cx="395.002" cy="113.432" r="3.62902" stroke="yellow" stroke-width="2" fill="none"/>
<circle cx="78.3208" cy="136.806" r="4.40086" stroke="yellow" stroke-width="2" fill="none"/>
<circle cx="229.294" cy="142.635" r="4.16755" stroke="yellow" stroke-width="2" fill="none"/>
<circle cx="168.904" cy="144.458" r="4.55592" stroke="yellow" stroke-width="2" fill="none"/>
<circle cx="168.904" cy="144.458" r="4.55592" stroke="yellow" stroke-width="2" fill="none"/>
<circle cx="77.3205" cy="146.665" r="3.88469" stroke="yellow" stroke-width="2" fill="none"/>
<circle cx="389.642" cy="147.752" r="4.09518" stroke="yellow" stroke-width="2" fill="none"/>
<circle cx="389.642" cy="147.752" r="4.09518" stroke="yellow" stroke-width="2" fill="none"/>
<circle cx="506.34" cy="149.147" r="4.64062" stroke="yellow" stroke-width="2" fill="none"/>
<circle cx="371.327" cy="162.641" r="4.1913" stroke="yellow" stroke-width="2" fill="none"/>
<circle cx="261.227" cy="166.558" r="3.59616" stroke="yellow" stroke-width="2" fill="none"/>
<circle cx="282.518" cy="182.545" r="3.92413" stroke="yellow" stroke-width="2" fill="none"/>
<circle cx="282.518" cy="182.545" r="3.92413" stroke="yellow" stroke-width="2" fill="none"/>
<circle cx="111.407" cy="193.542" r="3.73957" stroke="yellow" stroke-width="2" fill="none"/>
<circle cx="292.36" cy="219.02" r="3.55509" stroke="yellow" stroke-width="2" fill="none"/>
<circle cx="96.3286" cy="226.836" r="4.38509" stroke="yellow" stroke-width="2" fill="none"/>
<circle cx="245.956" cy="241.882" r="4.3531" stroke="yellow" stroke-width="2" fill="none"/>
<circle cx="286.212" cy="262.511" r="4.1256" stroke="yellow" stroke-width="2" fill="none"/>
<circle cx="310.531" cy="263.93" r="3.94821" stroke="yellow" stroke-width="2" fill="none"/>
<circle cx="74.3908" cy="266.067" r="3.7001" stroke="yellow" stroke-width="2" fill="none"/>
<circle cx="235.712" cy="265.871" r="3.77743" stroke="yellow" stroke-width="2" fill="none"/>
<circle cx="299.128" cy="285.696" r="4.51045" stroke="yellow" stroke-width="2" fill="none"/>
<circle cx="299.128" cy="285.696" r="4.51045" stroke="yellow" stroke-width="2" fill="none"/>
<circle cx="277.171" cy="287.887" r="3.75756" stroke="yellow" stroke-width="2" fill="none"/>
<circle cx="561.497" cy="296.415" r="4.03412" stroke="yellow" stroke-width="2" fill="none"/>
<circle cx="543.903" cy="299.052" r="3.75915" stroke="yellow" stroke-width="2" fill="none"/>
<circle cx="464.482" cy="346.656" r="3.9731" stroke="yellow" stroke-width="2" fill="none"/>
<circle cx="132.361" cy="353.61" r="3.81301" stroke="yellow" stroke-width="2" fill="none"/>
<circle cx="525.495" cy="360.047" r="4.14641" stroke="yellow" stroke-width="2" fill="none"/>
<circle cx="443.57" cy="434.941" r="3.47475" stroke="yellow" stroke-width="2" fill="none"/>
<circle cx="493.929" cy="458.611" r="3.45939" stroke="yellow" stroke-width="2" fill="none"/>
<circle cx="458.692" cy="7.65326" r="5.44577" stroke="yellow" stroke-width="2" fill="none"/>
<circle cx="474.573" cy="7.88755" r="4.88868" stroke="yellow" stroke-width="2" fill="none"/>
<circle cx="301.684" cy="27.1544" r="5.25432" stroke="yellow" stroke-width="2" fill="none"/>
<circle cx="533.745" cy="45.451" r="5.16751" stroke="yellow" stroke-width="2" fill="none"/>
<circle cx="387.876" cy="85.2038" r="5.06876" stroke="yellow" stroke-width="2" fill="none"/>
<circle cx="199.754" cy="127.762" r="5.04003" stroke="yellow" stroke-width="2" fill="none"/>
<circle cx="173.127" cy="130.582" r="6.45903" stroke="yellow" stroke-width="2" fill="none"/>
<circle cx="117.565" cy="137.6" r="5.1171" stroke="yellow" stroke-width="2" fill="none"/>
<circle cx="117.565" cy="137.6" r="5.1171" stroke="yellow" stroke-width="2" fill="none"/>
<circle cx="598.078" cy="154.309" r="4.89235" stroke="yellow" stroke-width="2" fill="none"/>
<circle cx="130.944" cy="169.455" r="5.62496" stroke="yellow" stroke-width="2" fill="none"/>
<circle cx="405.557" cy="175.398" r="4.95856" stroke="yellow" stroke-width="2" fill="none"/>
<circle cx="305.804" cy="192.987" r="5.53908" stroke="yellow" stroke-width="2" fill="none"/>
<circle cx="280.832" cy="216.102" r="4.91731" stroke="yellow" stroke-width="2" fill="none"/>
<circle cx="204.198" cy="235.614" r="5.27774" stroke="yellow" stroke-width="2" fill="none"/>
<circle cx="204.198" cy="235.614" r="5.27774" stroke="yellow" stroke-width="2" fill="none"/>
<circle cx="134.734" cy="237.243" r="4.14081" stroke="yellow" stroke-width="2" fill="none"/>
<circle cx="311.271" cy="278.872" r="5.71043" stroke="yellow" stroke-width="2" fill="none"/>
<circle cx="311.271" cy="278.872" r="5.71043" stroke="yellow" stroke-width="2" fill="none"/>
<circle cx="196.378" cy="280.907" r="4.24976" stroke="yellow" stroke-width="2" fill="none"/>
<circle cx="551.336" cy="288.859" r="4.36157" stroke="yellow" stroke-width="2" fill="none"/>
<circle cx="519.765" cy="306.664" r="5.6691" stroke="yellow" stroke-width="2" fill="none"/>
<circle cx="499.751" cy="316.402" r="5.45709" stroke="yellow" stroke-width="2" fill="none"/>
<circle cx="547.301" cy="343.612" r="4.71617" stroke="yellow" stroke-width="2" fill="none"/>
<circle cx="164.339" cy="345.367" r="5.55229" stroke="yellow" stroke-width="2" fill="none"/>
<circle cx="196.394" cy="445.137" r="4.94179" stroke="yellow" stroke-width="2" fill="none"/>
<circle cx="492.698" cy="15.6015" r="6.74863" stroke="yellow" stroke-width="2" fill="none"/>
<circle cx="93.7802" cy="121.18" r="7.15226" stroke="yellow" stroke-width="2" fill="none"/>
<circle cx="173.981" cy="130.147" r="6.36481" stroke="yellow" stroke-width="2" fill="none"/>
<circle cx="368.579" cy="136.999" r="6.74716" stroke="yellow" stroke-width="2" fill="none"/>
<circle cx="450.759" cy="143.622" r="6.53292" stroke="yellow" stroke-width="2" fill="none"/>
<circle cx="179.826" cy="162.789" r="6.1569" stroke="yellow" stroke-width="2" fill="none"/>
<circle cx="304.964" cy="176.222" r="7.10697" stroke="yellow" stroke-width="2" fill="none"/>
<circle cx="304.964" cy="176.222" r="7.10697" stroke="yellow" stroke-width="2" fill="none"/>
<circle cx="269.739" cy="190.362" r="6.09885" stroke="yellow" stroke-width="2" fill="none"/>
<circle cx="291.065" cy="201.257" r="6.47746" stroke="yellow" stroke-width="2" fill="none"/>
<circle cx="131.758" cy="213.822" r="6.63519" stroke="yellow" stroke-width="2" fill="none"/>
<circle cx="261.76" cy="236.373" r="7.33963" stroke="yellow" stroke-width="2" fill="none"/>
<circle cx="43.5458" cy="236.474" r="5.94619" stroke="yellow" stroke-width="2" fill="none"/>
<circle cx="358.77" cy="236.385" r="6.17512" stroke="yellow" stroke-width="2" fill="none"/>
<circle cx="297.206" cy="237.842" r="6.31847" stroke="yellow" stroke-width="2" fill="none"/>
<circle cx="563.071" cy="247.927" r="6.98538" stroke="yellow" stroke-width="2" fill="none"/>
<circle cx="62.2025" cy="254.526" r="6.26695" stroke="yellow" stroke-width="2" fill="none"/>
<circle cx="146.128" cy="272.459" r="7.50949" stroke="yellow" stroke-width="2" fill="none"/>
<circle cx="272.44" cy="276.668" r="6.03748" stroke="yellow" stroke-width="2" fill="none"/>
<circle cx="529.629" cy="290.759" r="5.99776" stroke="yellow" stroke-width="2" fill="none"/>
<circle cx="529.629" cy="290.759" r="5.99776" stroke="yellow" stroke-width="2" fill="none"/>
<circle cx="189.569" cy="293.678" r="6.74337" stroke="yellow" stroke-width="2" fill="none"/>
<circle cx="240.573" cy="310.66" r="6.50833" stroke="yellow" stroke-width="2" fill="none"/>
<circle cx="109.576" cy="313.278" r="5.82866" stroke="yellow" stroke-width="2" fill="none"/>
<circle cx="568.688" cy="316.46" r="6.27129" stroke="yellow" stroke-width="2" fill="none"/>
<circle cx="37.9787" cy="367.477" r="6.77405" stroke="yellow" stroke-width="2" fill="none"/>
<circle cx="240.037" cy="377.864" r="5.80421" stroke="yellow" stroke-width="2" fill="none"/>
<circle cx="412.809" cy="389.222" r="5.99068" stroke="yellow" stroke-width="2" fill="none"/>
<circle cx="440.789" cy="417.012" r="6.6653" stroke="yellow" stroke-width="2" fill="none"/>
<circle cx="394.318" cy="438.203" r="6.94419" stroke="yellow" stroke-width="2" fill="none"/>
<circle cx="417.458" cy="84.632" r="7.54558" stroke="yellow" stroke-width="2" fill="none"/>
<circle cx="402.168" cy="102.42" r="8.53914" stroke="yellow" stroke-width="2" fill="none"/>
<circle cx="402.168" cy="102.42" r="8.53914" stroke="yellow" stroke-width="2" fill="none"/>
<circle cx="472.327" cy="113.515" r="7.69495" stroke="yellow" stroke-width="2" fill="none"/>
<circle cx="369.519" cy="114.194" r="8.02831" stroke="yellow" stroke-width="2" fill="none"/>
<circle cx="422.423" cy="115.587" r="7.79314" stroke="yellow" stroke-width="2" fill="none"/>
<circle cx="97.3229" cy="119.42" r="7.99489" stroke="yellow" stroke-width="2" fill="none"/>
<circle cx="446.934" cy="121.403" r="7.97934" stroke="yellow" stroke-width="2" fill="none"/>
<circle cx="248.726" cy="190.784" r="7.7181" stroke="yellow" stroke-width="2" fill="none"/>
<circle cx="82.0696" cy="250.268" r="7.44006" stroke="yellow" stroke-width="2" fill="none"/>
<circle cx="563.623" cy="248.902" r="7.35239" stroke="yellow" stroke-width="2" fill="none"/>
<circle cx="551.485" cy="398.263" r="8.11858" stroke="yellow" stroke-width="2" fill="none"/>
<circle cx="419.827" cy="57.4923" r="9.74597" stroke="yellow" stroke-width="2" fill="none"/>
<circle cx="557.807" cy="72.2196" r="10.2321" stroke="yellow" stroke-width="2" fill="none"/>
<circle cx="610.741" cy="159.552" r="11.0622" stroke="yellow" stroke-width="2" fill="none"/>
<circle cx="112.157" cy="162.865" r="10.6965" stroke="yellow" stroke-width="2" fill="none"/>
<circle cx="294.662" cy="180.982" r="9.7617" stroke="yellow" stroke-width="2" fill="none"/>
<circle cx="323.742" cy="253.343" r="10.1328" stroke="yellow" stroke-width="2" fill="none"/>
<circle cx="478.065" cy="269.084" r="10.4963" stroke="yellow" stroke-width="2" fill="none"/>
<circle cx="478.065" cy="269.084" r="10.4963" stroke="yellow" stroke-width="2" fill="none"/>
<circle cx="332.391" cy="278.618" r="10.0406" stroke="yellow" stroke-width="2" fill="none"/>
<circle cx="501.901" cy="293.616" r="9.166" stroke="yellow" stroke-width="2" fill="none"/>
<circle cx="501.901" cy="293.616" r="9.166" stroke="yellow" stroke-width="2" fill="none"/>
<circle cx="269.366" cy="159.784" r="13.1326" stroke="yellow" stroke-width="2" fill="none"/>
<circle cx="269.366" cy="159.784" r="13.1326" stroke="yellow" stroke-width="2" fill="none"/>
<circle cx="138.252" cy="179.276" r="13.2698" stroke="yellow" stroke-width="2" fill="none"/>
<circle cx="531.622" cy="193.809" r="12.3851" stroke="yellow" stroke-width="2" fill="none"/>
<circle cx="365.601" cy="232.65" r="11.5842" stroke="yellow" stroke-width="2" fill="none"/>
<circle cx="231.633" cy="238.514" r="12.9533" stroke="yellow" stroke-width="2" fill="none"/>
<circle cx="265.219" cy="248.985" r="11.9845" stroke="yellow" stroke-width="2" fill="none"/>
<circle cx="377.121" cy="266.548" r="11.9459" stroke="yellow" stroke-width="2" fill="none"/>
<circle cx="116.183" cy="365.631" r="12.0259" stroke="yellow" stroke-width="2" fill="none"/>
<circle cx="116.183" cy="365.631" r="12.0259" stroke="yellow" stroke-width="2" fill="none"/>
<circle cx="323.382" cy="415.542" r="12.9604" stroke="yellow" stroke-width="2" fill="none"/>
<circle cx="142.949" cy="177.425" r="16.6051" stroke="yellow" stroke-width="2" fill="none"/>
<circle cx="429.112" cy="186.605" r="15.8279" stroke="yellow" stroke-width="2" fill="none"/>
<circle cx="591.155" cy="199.606" r="17.3113" stroke="yellow" stroke-width="2" fill="none"/>
<circle cx="38.8232" cy="208.67" r="16.7814" stroke="yellow" stroke-width="2" fill="none"/>
<circle cx="38.8232" cy="208.67" r="16.7814" stroke="yellow" stroke-width="2" fill="none"/>
<circle cx="118.13" cy="233.068" r="16.9067" stroke="yellow" stroke-width="2" fill="none"/>
<circle cx="502.41" cy="255.927" r="16.7311" stroke="yellow" stroke-width="2" fill="none"/>
<circle cx="43.4791" cy="313.779" r="18.2309" stroke="yellow" stroke-width="2" fill="none"/>
<circle cx="319.063" cy="418.616" r="15.3048" stroke="yellow" stroke-width="2" fill="none"/>
<circle cx="475.771" cy="207.183" r="21.5089" stroke="yellow" stroke-width="2" fill="none"/>
<circle cx="475.771" cy="207.183" r="21.5089" stroke="yellow" stroke-width="2" fill="none"/>
<circle cx="206.507" cy="312.707" r="22.0636" stroke="yellow" stroke-width="2" fill="none"/>
<circle cx="46.9358" cy="324.793" r="20.4303" stroke="yellow" stroke-width="2" fill="none"/>
<circle cx="190.263" cy="423.693" r="20.9801" stroke="yellow" stroke-width="2" fill="none"/>
<circle cx="419.402" cy="10.0661" r="24.2663" stroke="yellow" stroke-width="2" fill="none"/>
<circle cx="470.223" cy="406.874" r="26.69" stroke="yellow" stroke-width="2" fill="none"/>
<circle cx="356.14" cy="470.903" r="29.0633" stroke="yellow" stroke-width="2" fill="none"/>
<circle cx="553.887" cy="167.994" r="29.2722" stroke="yellow" stroke-width="2" fill="none"/>
<circle cx="280.787" cy="83.7886" r="47.7254" stroke="yellow" stroke-width="2" fill="none"/>
<circle cx="499.706" cy="91.1203" r="53.2431" stroke="yellow" stroke-width="2" fill="none"/>
<circle cx="185.074" cy="193.281" r="44.9999" stroke="yellow" stroke-width="2" fill="none"/>
<circle cx="185.074" cy="193.281" r="44.9999" stroke="yellow" stroke-width="2" fill="none"/>
<circle cx="601.097" cy="264.916" r="53.9114" stroke="yellow" stroke-width="2" fill="none"/>
<circle cx="428.082" cy="290.132" r="51.7876" stroke="yellow" stroke-width="2" fill="none"/>
<circle cx="14.1426" cy="130.261" r="66.4859" stroke="yellow" stroke-width="2" fill="none"/>
</svg>