<?xml version="1.0" standalone="yes"?>
<!-- SVG graphic -->
<svg xmlns='http://www.w3.org/2000/svg' xmlns:xlink='http://www.w3.org/1999/xlink'
 version="1.1">
<rect x="0" y="-1.#IND" width="3.33333" height="-1.#IND" stroke="black" stroke-width="1" fill="blue" tooltip="enable"><title>(0,0)</title></rect><rect x="3.33333" y="-1.#IND" width="3.33333" height="-1.#IND" stroke="black" stroke-width="1" fill="blue" tooltip="enable"><title>(0.00806829,0)</title></rect><rect x="6.66667" y="-1.#IND" width="3.33333" height="-1.#IND" stroke="black" stroke-width="1" fill="blue" tooltip="enable"><title>(0.0161366,0)</title></rect><rect x="10" y="-1.#IND" width="3.33333" height="-1.#IND" stroke="black" stroke-width="1" fill="blue" tooltip="enable"><title>(0.0242049,0)</title></rect><rect x="13.3333" y="-1.#IND" width="3.33333" height="-1.#IND" stroke="black" stroke-width="1" fill="blue" tooltip="enable"><title>(0.0322732,0)</title></rect><rect x="16.6667" y="-1.#IND" width="3.33333" height="-1.#IND" stroke="black" stroke-width="1" fill="blue" tooltip="enable"><title>(0.0403415,0)</title></rect><rect x="20" y="-1.#IND" width="3.33333" height="-1.#IND" stroke="black" stroke-width="1" fill="blue" tooltip="enable"><title>(0.0484097,0)</title></rect><rect x="23.3333" y="-1.#IND" width="3.33333" height="-1.#IND" stroke="black" stroke-width="1" fill="blue" tooltip="enable"><title>(0.056478,0)</title></rect><rect x="26.6667" y="-1.#IND" width="3.33333" height="-1.#IND" stroke="black" stroke-width="1" fill="blue" tooltip="enable"><title>(0.0645463,0)</title></rect><rect x="30" y="-1.#IND" width="3.33333" height="-1.#IND" stroke="black" stroke-width="1" fill="blue" tooltip="enable"><title>(0.0726146,0)</title></rect><rect x="33.3333" y="-1.#IND" width="3.33333" height="-1.#IND" stroke="black" stroke-width="1" fill="blue" tooltip="enable"><title>(0.0806829,0)</title></rect><rect x="36.6667" y="-1.#IND" width="3.33333" height="-1.#IND" stroke="black" stroke-width="1" fill="blue" tooltip="enable"><title>(0.0887512,0)</title></rect><rect x="40" y="-1.#IND" width="3.33333" height="-1.#IND" stroke="black" stroke-width="1" fill="blue" tooltip="enable"><title>(0.0968195,0)</title></rect><rect x="43.3333" y="-1.#IND" width="3.33333" height="-1.#IND" stroke="black" stroke-width="1" fill="blue" tooltip="enable"><title>(0.104888,0)</title></rect><rect x="46.6667" y="-1.#IND" width="3.33333" height="-1.#IND" stroke="black" stroke-width="1" fill="blue" tooltip="enable"><title>(0.112956,0)</title></rect><rect x="50" y="-1.#IND" width="3.33333" height="-1.#IND" stroke="black" stroke-width="1" fill="blue" tooltip="enable"><title>(0.121024,0)</title></rect><rect x="53.3333" y="-1.#IND" width="3.33333" height="-1.#IND" stroke="black" stroke-width="1" fill="blue" tooltip="enable"><title>(0.129093,0)</title></rect><rect x="56.6667" y="-1.#IND" width="3.33333" height="-1.#IND" stroke="black" stroke-width="1" fill="blue" tooltip="enable"><title>(0.137161,0)</title></rect><rect x="60" y="-1.#IND" width="3.33333" height="-1.#IND" stroke="black" stroke-width="1" fill="blue" tooltip="enable"><title>(0.145229,0)</title></rect><rect x="63.3333" y="-1.#IND" width="3.33333" height="-1.#IND" stroke="black" stroke-width="1" fill="blue" tooltip="enable"><title>(0.153298,0)</title></rect><rect x="66.6667" y="-1.#IND" width="3.33333" height="-1.#IND" stroke="black" stroke-width="1" fill="blue" tooltip="enable"><title>(0.161366,0)</title></rect><rect x="70" y="-1.#IND" width="3.33333" height="-1.#IND" stroke="black" stroke-width="1" fill="blue" tooltip="enable"><title>(0.169434,0)</title></rect><rect x="73.3333" y="-1.#IND" width="3.33333" height="-1.#IND" stroke="black" stroke-width="1" fill="blue" tooltip="enable"><title>(0.177502,0)</title></rect><rect x="76.6667" y="-1.#IND" width="3.33333" height="-1.#IND" stroke="black" stroke-width="1" fill="blue" tooltip="enable"><title>(0.185571,0)</title></rect><rect x="80" y="-1.#IND" width="3.33333" height="-1.#IND" stroke="black" stroke-width="1" fill="blue" tooltip="enable"><title>(0.193639,0)</title></rect><rect x="83.3333" y="-1.#IND" width="3.33333" height="-1.#IND" stroke="black" stroke-width="1" fill="blue" tooltip="enable"><title>(0.201707,0)</title></rect><rect x="86.6667" y="-1.#IND" width="3.33333" height="-1.#IND" stroke="black" stroke-width="1" fill="blue" tooltip="enable"><title>(0.209776,0)</title></rect><rect x="90" y="-1.#IND" width="3.33333" height="-1.#IND" stroke="black" stroke-width="1" fill="blue" tooltip="enable"><title>(0.217844,0)</title></rect><rect x="93.3333" y="-1.#IND" width="3.33333" height="-1.#IND" stroke="black" stroke-width="1" fill="blue" tooltip="enable"><title>(0.225912,0)</title></rect><rect x="96.6667" y="-1.#IND" width="3.33333" height="-1.#IND" stroke="black" stroke-width="1" fill="blue" tooltip="enable"><title>(0.23398,0)</title></rect><rect x="100" y="-1.#IND" width="3.33333" height="-1.#IND" stroke="black" stroke-width="1" fill="blue" tooltip="enable"><title>(0.242049,0)</title></rect><rect x="103.333" y="-1.#IND" width="3.33333" height="-1.#IND" stroke="black" stroke-width="1" fill="blue" tooltip="enable"><title>(0.250117,0)</title></rect><rect x="106.667" y="-1.#IND" width="3.33333" height="-1.#IND" stroke="black" stroke-width="1" fill="blue" tooltip="enable"><title>(0.258185,0)</title></rect><rect x="110" y="-1.#IND" width="3.33333" height="-1.#IND" stroke="black" stroke-width="1" fill="blue" tooltip="enable"><title>(0.266254,0)</title></rect><rect x="113.333" y="-1.#IND" width="3.33333" height="-1.#IND" stroke="black" stroke-width="1" fill="blue" tooltip="enable"><title>(0.274322,0)</title></rect><rect x="116.667" y="-1.#IND" width="3.33333" height="-1.#IND" stroke="black" stroke-width="1" fill="blue" tooltip="enable"><title>(0.28239,0)</title></rect><rect x="120" y="-1.#IND" width="3.33333" height="-1.#IND" stroke="black" stroke-width="1" fill="blue" tooltip="enable"><title>(0.290458,0)</title></rect><rect x="123.333" y="-1.#IND" width="3.33333" height="-1.#IND" stroke="black" stroke-width="1" fill="blue" tooltip="enable"><title>(0.298527,0)</title></rect><rect x="126.667" y="-1.#IND" width="3.33333" height="-1.#IND" stroke="black" stroke-width="1" fill="blue" tooltip="enable"><title>(0.306595,0)</title></rect><rect x="130" y="-1.#IND" width="3.33333" height="-1.#IND" stroke="black" stroke-width="1" fill="blue" tooltip="enable"><title>(0.314663,0)</title></rect><rect x="133.333" y="-1.#IND" width="3.33333" height="-1.#IND" stroke="black" stroke-width="1" fill="blue" tooltip="enable"><title>(0.322732,0)</title></rect><rect x="136.667" y="-1.#IND" width="3.33333" height="-1.#IND" stroke="black" stroke-width="1" fill="blue" tooltip="enable"><title>(0.3308,0)</title></rect><rect x="140" y="-1.#IND" width="3.33333" height="-1.#IND" stroke="black" stroke-width="1" fill="blue" tooltip="enable"><title>(0.338868,0)</title></rect><rect x="143.333" y="-1.#IND" width="3.33333" height="-1.#IND" stroke="black" stroke-width="1" fill="blue" tooltip="enable"><title>(0.346936,0)</title></rect><rect x="146.667" y="-1.#IND" width="3.33333" height="-1.#IND" stroke="black" stroke-width="1" fill="blue" tooltip="enable"><title>(0.355005,0)</title></rect><rect x="150" y="-1.#IND" width="3.33333" height="-1.#IND" stroke="black" stroke-width="1" fill="blue" tooltip="enable"><title>(0.363073,0)</title></rect><rect x="153.333" y="-1.#IND" width="3.33333" height="-1.#IND" stroke="black" stroke-width="1" fill="blue" tooltip="enable"><title>(0.371141,0)</title></rect><rect x="156.667" y="-1.#IND" width="3.33333" height="-1.#IND" stroke="black" stroke-width="1" fill="blue" tooltip="enable"><title>(0.37921,0)</title></rect><rect x="160" y="-1.#IND" width="3.33333" height="-1.#IND" stroke="black" stroke-width="1" fill="blue" tooltip="enable"><title>(0.387278,0)</title></rect><rect x="163.333" y="-1.#IND" width="3.33333" height="-1.#IND" stroke="black" stroke-width="1" fill="blue" tooltip="enable"><title>(0.395346,0)</title></rect><rect x="166.667" y="-1.#IND" width="3.33333" height="-1.#IND" stroke="black" stroke-width="1" fill="blue" tooltip="enable"><title>(0.403415,0)</title></rect><rect x="170" y="-1.#IND" width="3.33333" height="-1.#IND" stroke="black" stroke-width="1" fill="blue" tooltip="enable"><title>(0.411483,0)</title></rect><rect x="173.333" y="-1.#IND" width="3.33333" height="-1.#IND" stroke="black" stroke-width="1" fill="blue" tooltip="enable"><title>(0.419551,0)</title></rect><rect x="176.667" y="-1.#IND" width="3.33333" height="-1.#IND" stroke="black" stroke-width="1" fill="blue" tooltip="enable"><title>(0.427619,0)</title></rect><rect x="180" y="-1.#IND" width="3.33333" height="-1.#IND" stroke="black" stroke-width="1" fill="blue" tooltip="enable"><title>(0.435688,0)</title></rect><rect x="183.333" y="-1.#IND" width="3.33333" height="-1.#IND" stroke="black" stroke-width="1" fill="blue" tooltip="enable"><title>(0.443756,0)</title></rect><rect x="186.667" y="-1.#IND" width="3.33333" height="-1.#IND" stroke="black" stroke-width="1" fill="blue" tooltip="enable"><title>(0.451824,0)</title></rect><rect x="190" y="-1.#IND" width="3.33333" height="-1.#IND" stroke="black" stroke-width="1" fill="blue" tooltip="enable"><title>(0.459893,0)</title></rect><rect x="193.333" y="-1.#IND" width="3.33333" height="-1.#IND" stroke="black" stroke-width="1" fill="blue" tooltip="enable"><title>(0.467961,0)</title></rect><rect x="196.667" y="-1.#IND" width="3.33333" height="-1.#IND" stroke="black" stroke-width="1" fill="blue" tooltip="enable"><title>(0.476029,0)</title></rect><rect x="200" y="-1.#IND" width="3.33333" height="-1.#IND" stroke="black" stroke-width="1" fill="blue" tooltip="enable"><title>(0.484097,0)</title></rect><rect x="203.333" y="-1.#IND" width="3.33333" height="-1.#IND" stroke="black" stroke-width="1" fill="blue" tooltip="enable"><title>(0.492166,0)</title></rect><rect x="206.667" y="-1.#IND" width="3.33333" height="-1.#IND" stroke="black" stroke-width="1" fill="blue" tooltip="enable"><title>(0.500234,0)</title></rect><rect x="210" y="-1.#IND" width="3.33333" height="-1.#IND" stroke="black" stroke-width="1" fill="blue" tooltip="enable"><title>(0.508302,0)</title></rect><rect x="213.333" y="-1.#IND" width="3.33333" height="-1.#IND" stroke="black" stroke-width="1" fill="blue" tooltip="enable"><title>(0.516371,0)</title></rect><rect x="216.667" y="-1.#IND" width="3.33333" height="-1.#IND" stroke="black" stroke-width="1" fill="blue" tooltip="enable"><title>(0.524439,0)</title></rect><rect x="220" y="-1.#IND" width="3.33333" height="-1.#IND" stroke="black" stroke-width="1" fill="blue" tooltip="enable"><title>(0.532507,0)</title></rect><rect x="223.333" y="-1.#IND" width="3.33333" height="-1.#IND" stroke="black" stroke-width="1" fill="blue" tooltip="enable"><title>(0.540575,0)</title></rect><rect x="226.667" y="-1.#IND" width="3.33333" height="-1.#IND" stroke="black" stroke-width="1" fill="blue" tooltip="enable"><title>(0.548644,0)</title></rect><rect x="230" y="-1.#IND" width="3.33333" height="-1.#IND" stroke="black" stroke-width="1" fill="blue" tooltip="enable"><title>(0.556712,0)</title></rect><rect x="233.333" y="-1.#IND" width="3.33333" height="-1.#IND" stroke="black" stroke-width="1" fill="blue" tooltip="enable"><title>(0.56478,0)</title></rect><rect x="236.667" y="-1.#IND" width="3.33333" height="-1.#IND" stroke="black" stroke-width="1" fill="blue" tooltip="enable"><title>(0.572849,0)</title></rect><rect x="240" y="-1.#IND" width="3.33333" height="-1.#IND" stroke="black" stroke-width="1" fill="blue" tooltip="enable"><title>(0.580917,0)</title></rect><rect x="243.333" y="-1.#IND" width="3.33333" height="-1.#IND" stroke="black" stroke-width="1" fill="blue" tooltip="enable"><title>(0.588985,0)</title></rect><rect x="246.667" y="-1.#IND" width="3.33333" height="-1.#IND" stroke="black" stroke-width="1" fill="blue" tooltip="enable"><title>(0.597053,0)</title></rect><rect x="250" y="-1.#IND" width="3.33333" height="-1.#IND" stroke="black" stroke-width="1" fill="blue" tooltip="enable"><title>(0.605122,0)</title></rect><rect x="253.333" y="-1.#IND" width="3.33333" height="-1.#IND" stroke="black" stroke-width="1" fill="blue" tooltip="enable"><title>(0.61319,0)</title></rect><rect x="256.667" y="-1.#IND" width="3.33333" height="-1.#IND" stroke="black" stroke-width="1" fill="blue" tooltip="enable"><title>(0.621258,0)</title></rect><rect x="260" y="-1.#IND" width="3.33333" height="-1.#IND" stroke="black" stroke-width="1" fill="blue" tooltip="enable"><title>(0.629327,0)</title></rect><rect x="263.333" y="-1.#IND" width="3.33333" height="-1.#IND" stroke="black" stroke-width="1" fill="blue" tooltip="enable"><title>(0.637395,0)</title></rect><rect x="266.667" y="-1.#IND" width="3.33333" height="-1.#IND" stroke="black" stroke-width="1" fill="blue" tooltip="enable"><title>(0.645463,0)</title></rect><rect x="270" y="-1.#IND" width="3.33333" height="-1.#IND" stroke="black" stroke-width="1" fill="blue" tooltip="enable"><title>(0.653531,0)</title></rect><rect x="273.333" y="-1.#IND" width="3.33333" height="-1.#IND" stroke="black" stroke-width="1" fill="blue" tooltip="enable"><title>(0.6616,0)</title></rect><rect x="276.667" y="-1.#IND" width="3.33333" height="-1.#IND" stroke="black" stroke-width="1" fill="blue" tooltip="enable"><title>(0.669668,0)</title></rect><rect x="280" y="-1.#IND" width="3.33333" height="-1.#IND" stroke="black" stroke-width="1" fill="blue" tooltip="enable"><title>(0.677736,0)</title></rect><rect x="283.333" y="-1.#IND" width="3.33333" height="-1.#IND" stroke="black" stroke-width="1" fill="blue" tooltip="enable"><title>(0.685805,0)</title></rect><rect x="286.667" y="-1.#IND" width="3.33333" height="-1.#IND" stroke="black" stroke-width="1" fill="blue" tooltip="enable"><title>(0.693873,0)</title></rect><rect x="290" y="-1.#IND" width="3.33333" height="-1.#IND" stroke="black" stroke-width="1" fill="blue" tooltip="enable"><title>(0.701941,0)</title></rect><rect x="293.333" y="-1.#IND" width="3.33333" height="-1.#IND" stroke="black" stroke-width="1" fill="blue" tooltip="enable"><title>(0.71001,0)</title></rect><rect x="296.667" y="-1.#IND" width="3.33333" height="-1.#IND" stroke="black" stroke-width="1" fill="blue" tooltip="enable"><title>(0.718078,0)</title></rect><rect x="300" y="-1.#IND" width="3.33333" height="-1.#IND" stroke="black" stroke-width="1" fill="blue" tooltip="enable"><title>(0.726146,0)</title></rect><rect x="303.333" y="-1.#IND" width="3.33333" height="-1.#IND" stroke="black" stroke-width="1" fill="blue" tooltip="enable"><title>(0.734214,0)</title></rect><rect x="306.667" y="-1.#IND" width="3.33333" height="-1.#IND" stroke="black" stroke-width="1" fill="blue" tooltip="enable"><title>(0.742283,0)</title></rect><rect x="310" y="-1.#IND" width="3.33333" height="-1.#IND" stroke="black" stroke-width="1" fill="blue" tooltip="enable"><title>(0.750351,0)</title></rect><rect x="313.333" y="-1.#IND" width="3.33333" height="-1.#IND" stroke="black" stroke-width="1" fill="blue" tooltip="enable"><title>(0.758419,0)</title></rect><rect x="316.667" y="-1.#IND" width="3.33333" height="-1.#IND" stroke="black" stroke-width="1" fill="blue" tooltip="enable"><title>(0.766488,0)</title></rect><rect x="320" y="-1.#IND" width="3.33333" height="-1.#IND" stroke="black" stroke-width="1" fill="blue" tooltip="enable"><title>(0.774556,0)</title></rect><rect x="323.333" y="-1.#IND" width="3.33333" height="-1.#IND" stroke="black" stroke-width="1" fill="blue" tooltip="enable"><title>(0.782624,0)</title></rect><rect x="326.667" y="-1.#IND" width="3.33333" height="-1.#IND" stroke="black" stroke-width="1" fill="blue" tooltip="enable"><title>(0.790692,0)</title></rect><rect x="330" y="-1.#IND" width="3.33333" height="-1.#IND" stroke="black" stroke-width="1" fill="blue" tooltip="enable"><title>(0.798761,0)</title></rect><rect x="333.333" y="-1.#IND" width="3.33333" height="-1.#IND" stroke="black" stroke-width="1" fill="blue" tooltip="enable"><title>(0.806829,0)</title></rect><rect x="336.667" y="-1.#IND" width="3.33333" height="-1.#IND" stroke="black" stroke-width="1" fill="blue" tooltip="enable"><title>(0.814897,0)</title></rect><rect x="340" y="-1.#IND" width="3.33333" height="-1.#IND" stroke="black" stroke-width="1" fill="blue" tooltip="enable"><title>(0.822966,0)</title></rect><rect x="343.333" y="-1.#IND" width="3.33333" height="-1.#IND" stroke="black" stroke-width="1" fill="blue" tooltip="enable"><title>(0.831034,0)</title></rect><rect x="346.667" y="-1.#IND" width="3.33333" height="-1.#IND" stroke="black" stroke-width="1" fill="blue" tooltip="enable"><title>(0.839102,0)</title></rect><rect x="350" y="-1.#IND" width="3.33333" height="-1.#IND" stroke="black" stroke-width="1" fill="blue" tooltip="enable"><title>(0.84717,0)</title></rect><rect x="353.333" y="-1.#IND" width="3.33333" height="-1.#IND" stroke="black" stroke-width="1" fill="blue" tooltip="enable"><title>(0.855239,0)</title></rect><rect x="356.667" y="-1.#IND" width="3.33333" height="-1.#IND" stroke="black" stroke-width="1" fill="blue" tooltip="enable"><title>(0.863307,0)</title></rect><rect x="360" y="-1.#IND" width="3.33333" height="-1.#IND" stroke="black" stroke-width="1" fill="blue" tooltip="enable"><title>(0.871375,0)</title></rect><rect x="363.333" y="-1.#IND" width="3.33333" height="-1.#IND" stroke="black" stroke-width="1" fill="blue" tooltip="enable"><title>(0.879444,0)</title></rect><rect x="366.667" y="-1.#IND" width="3.33333" height="-1.#IND" stroke="black" stroke-width="1" fill="blue" tooltip="enable"><title>(0.887512,0)</title></rect><rect x="370" y="-1.#IND" width="3.33333" height="-1.#IND" stroke="black" stroke-width="1" fill="blue" tooltip="enable"><title>(0.89558,0)</title></rect><rect x="373.333" y="-1.#IND" width="3.33333" height="-1.#IND" stroke="black" stroke-width="1" fill="blue" tooltip="enable"><title>(0.903648,0)</title></rect><rect x="376.667" y="-1.#IND" width="3.33333" height="-1.#IND" stroke="black" stroke-width="1" fill="blue" tooltip="enable"><title>(0.911717,0)</title></rect><rect x="380" y="-1.#IND" width="3.33333" height="-1.#IND" stroke="black" stroke-width="1" fill="blue" tooltip="enable"><title>(0.919785,0)</title></rect><rect x="383.333" y="-1.#IND" width="3.33333" height="-1.#IND" stroke="black" stroke-width="1" fill="blue" tooltip="enable"><title>(0.927853,0)</title></rect><rect x="386.667" y="-1.#IND" width="3.33333" height="-1.#IND" stroke="black" stroke-width="1" fill="blue" tooltip="enable"><title>(0.935922,0)</title></rect><rect x="390" y="-1.#IND" width="3.33333" height="-1.#IND" stroke="black" stroke-width="1" fill="blue" tooltip="enable"><title>(0.94399,0)</title></rect><rect x="393.333" y="-1.#IND" width="3.33333" height="-1.#IND" stroke="black" stroke-width="1" fill="blue" tooltip="enable"><title>(0.952058,0)</title></rect><rect x="396.667" y="-1.#IND" width="3.33333" height="-1.#IND" stroke="black" stroke-width="1" fill="blue" tooltip="enable"><title>(0.960127,0)</title></rect><rect x="400" y="-1.#IND" width="3.33333" height="-1.#IND" stroke="black" stroke-width="1" fill="blue" tooltip="enable"><title>(0.968195,0)</title></rect><rect x="403.333" y="-1.#IND" width="3.33333" height="-1.#IND" stroke="black" stroke-width="1" fill="blue" tooltip="enable"><title>(0.976263,0)</title></rect><rect x="406.667" y="-1.#IND" width="3.33333" height="-1.#IND" stroke="black" stroke-width="1" fill="blue" tooltip="enable"><title>(0.984331,0)</title></rect><rect x="410" y="-1.#IND" width="3.33333" height="-1.#IND" stroke="black" stroke-width="1" fill="blue" tooltip="enable"><title>(0.9924,0)</title></rect><rect x="413.333" y="-1.#IND" width="3.33333" height="-1.#IND" stroke="black" stroke-width="1" fill="blue" tooltip="enable"><title>(1.00047,0)</title></rect><rect x="416.667" y="-1.#IND" width="3.33333" height="-1.#IND" stroke="black" stroke-width="1" fill="blue" tooltip="enable"><title>(1.00854,0)</title></rect><rect x="420" y="-1.#IND" width="3.33333" height="-1.#IND" stroke="black" stroke-width="1" fill="blue" tooltip="enable"><title>(1.0166,0)</title></rect><rect x="423.333" y="-1.#IND" width="3.33333" height="-1.#IND" stroke="black" stroke-width="1" fill="blue" tooltip="enable"><title>(1.02467,0)</title></rect><rect x="426.667" y="-1.#IND" width="3.33333" height="-1.#IND" stroke="black" stroke-width="1" fill="blue" tooltip="enable"><title>(1.03274,0)</title></rect><rect x="430" y="-1.#IND" width="3.33333" height="-1.#IND" stroke="black" stroke-width="1" fill="blue" tooltip="enable"><title>(1.04081,0)</title></rect><rect x="433.333" y="-1.#IND" width="3.33333" height="-1.#IND" stroke="black" stroke-width="1" fill="blue" tooltip="enable"><title>(1.04888,0)</title></rect><rect x="436.667" y="-1.#IND" width="3.33333" height="-1.#IND" stroke="black" stroke-width="1" fill="blue" tooltip="enable"><title>(1.05695,0)</title></rect><rect x="440" y="-1.#IND" width="3.33333" height="-1.#IND" stroke="black" stroke-width="1" fill="blue" tooltip="enable"><title>(1.06501,0)</title></rect><rect x="443.333" y="-1.#IND" width="3.33333" height="-1.#IND" stroke="black" stroke-width="1" fill="blue" tooltip="enable"><title>(1.07308,0)</title></rect><rect x="446.667" y="-1.#IND" width="3.33333" height="-1.#IND" stroke="black" stroke-width="1" fill="blue" tooltip="enable"><title>(1.08115,0)</title></rect><rect x="450" y="-1.#IND" width="3.33333" height="-1.#IND" stroke="black" stroke-width="1" fill="blue" tooltip="enable"><title>(1.08922,0)</title></rect><rect x="453.333" y="-1.#IND" width="3.33333" height="-1.#IND" stroke="black" stroke-width="1" fill="blue" tooltip="enable"><title>(1.09729,0)</title></rect><rect x="456.667" y="-1.#IND" width="3.33333" height="-1.#IND" stroke="black" stroke-width="1" fill="blue" tooltip="enable"><title>(1.10536,0)</title></rect><rect x="460" y="-1.#IND" width="3.33333" height="-1.#IND" stroke="black" stroke-width="1" fill="blue" tooltip="enable"><title>(1.11342,0)</title></rect><rect x="463.333" y="-1.#IND" width="3.33333" height="-1.#IND" stroke="black" stroke-width="1" fill="blue" tooltip="enable"><title>(1.12149,0)</title></rect><rect x="466.667" y="-1.#IND" width="3.33333" height="-1.#IND" stroke="black" stroke-width="1" fill="blue" tooltip="enable"><title>(1.12956,0)</title></rect><rect x="470" y="-1.#IND" width="3.33333" height="-1.#IND" stroke="black" stroke-width="1" fill="blue" tooltip="enable"><title>(1.13763,0)</title></rect><rect x="473.333" y="-1.#IND" width="3.33333" height="-1.#IND" stroke="black" stroke-width="1" fill="blue" tooltip="enable"><title>(1.1457,0)</title></rect><rect x="476.667" y="-1.#IND" width="3.33333" height="-1.#IND" stroke="black" stroke-width="1" fill="blue" tooltip="enable"><title>(1.15377,0)</title></rect><rect x="480" y="-1.#IND" width="3.33333" height="-1.#IND" stroke="black" stroke-width="1" fill="blue" tooltip="enable"><title>(1.16183,0)</title></rect><rect x="483.333" y="-1.#IND" width="3.33333" height="-1.#IND" stroke="black" stroke-width="1" fill="blue" tooltip="enable"><title>(1.1699,0)</title></rect><rect x="486.667" y="-1.#IND" width="3.33333" height="-1.#IND" stroke="black" stroke-width="1" fill="blue" tooltip="enable"><title>(1.17797,0)</title></rect><rect x="490" y="-1.#IND" width="3.33333" height="-1.#IND" stroke="black" stroke-width="1" fill="blue" tooltip="enable"><title>(1.18604,0)</title></rect><rect x="493.333" y="-1.#IND" width="3.33333" height="-1.#IND" stroke="black" stroke-width="1" fill="blue" tooltip="enable"><title>(1.19411,0)</title></rect><rect x="496.667" y="-1.#IND" width="3.33333" height="-1.#IND" stroke="black" stroke-width="1" fill="blue" tooltip="enable"><title>(1.20218,0)</title></rect><rect x="500" y="-1.#IND" width="3.33333" height="-1.#IND" stroke="black" stroke-width="1" fill="blue" tooltip="enable"><title>(1.21024,0)</title></rect><rect x="503.333" y="-1.#IND" width="3.33333" height="-1.#IND" stroke="black" stroke-width="1" fill="blue" tooltip="enable"><title>(1.21831,0)</title></rect><rect x="506.667" y="-1.#IND" width="3.33333" height="-1.#IND" stroke="black" stroke-width="1" fill="blue" tooltip="enable"><title>(1.22638,0)</title></rect><rect x="510" y="-1.#IND" width="3.33333" height="-1.#IND" stroke="black" stroke-width="1" fill="blue" tooltip="enable"><title>(1.23445,0)</title></rect><rect x="513.333" y="-1.#IND" width="3.33333" height="-1.#IND" stroke="black" stroke-width="1" fill="blue" tooltip="enable"><title>(1.24252,0)</title></rect><rect x="516.667" y="-1.#IND" width="3.33333" height="-1.#IND" stroke="black" stroke-width="1" fill="blue" tooltip="enable"><title>(1.25058,0)</title></rect><rect x="520" y="-1.#IND" width="3.33333" height="-1.#IND" stroke="black" stroke-width="1" fill="blue" tooltip="enable"><title>(1.25865,0)</title></rect><rect x="523.333" y="-1.#IND" width="3.33333" height="-1.#IND" stroke="black" stroke-width="1" fill="blue" tooltip="enable"><title>(1.26672,0)</title></rect><rect x="526.667" y="-1.#IND" width="3.33333" height="-1.#IND" stroke="black" stroke-width="1" fill="blue" tooltip="enable"><title>(1.27479,0)</title></rect><rect x="530" y="-1.#IND" width="3.33333" height="-1.#IND" stroke="black" stroke-width="1" fill="blue" tooltip="enable"><title>(1.28286,0)</title></rect><rect x="533.333" y="-1.#IND" width="3.33333" height="-1.#IND" stroke="black" stroke-width="1" fill="blue" tooltip="enable"><title>(1.29093,0)</title></rect><rect x="536.667" y="-1.#IND" width="3.33333" height="-1.#IND" stroke="black" stroke-width="1" fill="blue" tooltip="enable"><title>(1.29899,0)</title></rect><rect x="540" y="-1.#IND" width="3.33333" height="-1.#IND" stroke="black" stroke-width="1" fill="blue" tooltip="enable"><title>(1.30706,0)</title></rect><rect x="543.333" y="-1.#IND" width="3.33333" height="-1.#IND" stroke="black" stroke-width="1" fill="blue" tooltip="enable"><title>(1.31513,0)</title></rect><rect x="546.667" y="-1.#IND" width="3.33333" height="-1.#IND" stroke="black" stroke-width="1" fill="blue" tooltip="enable"><title>(1.3232,0)</title></rect><rect x="550" y="-1.#IND" width="3.33333" height="-1.#IND" stroke="black" stroke-width="1" fill="blue" tooltip="enable"><title>(1.33127,0)</title></rect><rect x="553.333" y="-1.#IND" width="3.33333" height="-1.#IND" stroke="black" stroke-width="1" fill="blue" tooltip="enable"><title>(1.33934,0)</title></rect><rect x="556.667" y="-1.#IND" width="3.33333" height="-1.#IND" stroke="black" stroke-width="1" fill="blue" tooltip="enable"><title>(1.3474,0)</title></rect><rect x="560" y="-1.#IND" width="3.33333" height="-1.#IND" stroke="black" stroke-width="1" fill="blue" tooltip="enable"><title>(1.35547,0)</title></rect><rect x="563.333" y="-1.#IND" width="3.33333" height="-1.#IND" stroke="black" stroke-width="1" fill="blue" tooltip="enable"><title>(1.36354,0)</title></rect><rect x="566.667" y="-1.#IND" width="3.33333" height="-1.#IND" stroke="black" stroke-width="1" fill="blue" tooltip="enable"><title>(1.37161,0)</title></rect><rect x="570" y="-1.#IND" width="3.33333" height="-1.#IND" stroke="black" stroke-width="1" fill="blue" tooltip="enable"><title>(1.37968,0)</title></rect><rect x="573.333" y="-1.#IND" width="3.33333" height="-1.#IND" stroke="black" stroke-width="1" fill="blue" tooltip="enable"><title>(1.38775,0)</title></rect><rect x="576.667" y="-1.#IND" width="3.33333" height="-1.#IND" stroke="black" stroke-width="1" fill="blue" tooltip="enable"><title>(1.39581,0)</title></rect><rect x="580" y="-1.#IND" width="3.33333" height="-1.#IND" stroke="black" stroke-width="1" fill="blue" tooltip="enable"><title>(1.40388,0)</title></rect><rect x="583.333" y="-1.#IND" width="3.33333" height="-1.#IND" stroke="black" stroke-width="1" fill="blue" tooltip="enable"><title>(1.41195,0)</title></rect><rect x="586.667" y="-1.#IND" width="3.33333" height="-1.#IND" stroke="black" stroke-width="1" fill="blue" tooltip="enable"><title>(1.42002,0)</title></rect><rect x="590" y="-1.#IND" width="3.33333" height="-1.#IND" stroke="black" stroke-width="1" fill="blue" tooltip="enable"><title>(1.42809,0)</title></rect><rect x="593.333" y="-1.#IND" width="3.33333" height="-1.#IND" stroke="black" stroke-width="1" fill="blue" tooltip="enable"><title>(1.43616,0)</title></rect><rect x="596.667" y="-1.#IND" width="3.33333" height="-1.#IND" stroke="black" stroke-width="1" fill="blue" tooltip="enable"><title>(1.44422,0)</title></rect><text x="30" y="360" font-size="30" fill="black">0</text>
<text x="600" y="360" font-size="30" fill="black">1.45229</text>
<polyline points="0,330,600,330" stroke="black" stroke-width="1" fill="none"/>
<text x="720" y="30" font-size="30" fill="black">0</text>
<text x="720" y="300" font-size="30" fill="black">0</text>
<polyline points="660,0,660,300" stroke="black" stroke-width="1" fill="none"/>
</svg>