<?xml version="1.0" standalone="yes"?>
<!-- SVG graphic -->
<svg xmlns='http://www.w3.org/2000/svg' xmlns:xlink='http://www.w3.org/1999/xlink'
 version="1.1">
<rect x="0" y="-1.#IND" width="30" height="-1.#IND" stroke="black" stroke-width="1" fill="blue" tooltip="enable"><title>(0,0)</title></rect><rect x="30" y="-1.#IND" width="30" height="-1.#IND" stroke="black" stroke-width="1" fill="blue" tooltip="enable"><title>(0.0726146,0)</title></rect><rect x="60" y="-1.#IND" width="30" height="-1.#IND" stroke="black" stroke-width="1" fill="blue" tooltip="enable"><title>(0.145229,0)</title></rect><rect x="90" y="-1.#IND" width="30" height="-1.#IND" stroke="black" stroke-width="1" fill="blue" tooltip="enable"><title>(0.217844,0)</title></rect><rect x="120" y="-1.#IND" width="30" height="-1.#IND" stroke="black" stroke-width="1" fill="blue" tooltip="enable"><title>(0.290458,0)</title></rect><rect x="150" y="-1.#IND" width="30" height="-1.#IND" stroke="black" stroke-width="1" fill="blue" tooltip="enable"><title>(0.363073,0)</title></rect><rect x="180" y="-1.#IND" width="30" height="-1.#IND" stroke="black" stroke-width="1" fill="blue" tooltip="enable"><title>(0.435688,0)</title></rect><rect x="210" y="-1.#IND" width="30" height="-1.#IND" stroke="black" stroke-width="1" fill="blue" tooltip="enable"><title>(0.508302,0)</title></rect><rect x="240" y="-1.#IND" width="30" height="-1.#IND" stroke="black" stroke-width="1" fill="blue" tooltip="enable"><title>(0.580917,0)</title></rect><rect x="270" y="-1.#IND" width="30" height="-1.#IND" stroke="black" stroke-width="1" fill="blue" tooltip="enable"><title>(0.653531,0)</title></rect><rect x="300" y="-1.#IND" width="30" height="-1.#IND" stroke="black" stroke-width="1" fill="blue" tooltip="enable"><title>(0.726146,0)</title></rect><rect x="330" y="-1.#IND" width="30" height="-1.#IND" stroke="black" stroke-width="1" fill="blue" tooltip="enable"><title>(0.798761,0)</title></rect><rect x="360" y="-1.#IND" width="30" height="-1.#IND" stroke="black" stroke-width="1" fill="blue" tooltip="enable"><title>(0.871375,0)</title></rect><rect x="390" y="-1.#IND" width="30" height="-1.#IND" stroke="black" stroke-width="1" fill="blue" tooltip="enable"><title>(0.94399,0)</title></rect><rect x="420" y="-1.#IND" width="30" height="-1.#IND" stroke="black" stroke-width="1" fill="blue" tooltip="enable"><title>(1.0166,0)</title></rect><rect x="450" y="-1.#IND" width="30" height="-1.#IND" stroke="black" stroke-width="1" fill="blue" tooltip="enable"><title>(1.08922,0)</title></rect><rect x="480" y="-1.#IND" width="30" height="-1.#IND" stroke="black" stroke-width="1" fill="blue" tooltip="enable"><title>(1.16183,0)</title></rect><rect x="510" y="-1.#IND" width="30" height="-1.#IND" stroke="black" stroke-width="1" fill="blue" tooltip="enable"><title>(1.23445,0)</title></rect><rect x="540" y="-1.#IND" width="30" height="-1.#IND" stroke="black" stroke-width="1" fill="blue" tooltip="enable"><title>(1.30706,0)</title></rect><rect x="570" y="-1.#IND" width="30" height="-1.#IND" stroke="black" stroke-width="1" fill="blue" tooltip="enable"><title>(1.37968,0)</title></rect><text x="30" y="360" font-size="30" fill="black">0</text>
<text x="600" y="360" font-size="30" fill="black">1.45229</text>
<polyline points="0,330,600,330" stroke="black" stroke-width="1" fill="none"/>
<text x="720" y="30" font-size="30" fill="black">0</text>
<text x="720" y="300" font-size="30" fill="black">0</text>
<polyline points="660,0,660,300" stroke="black" stroke-width="1" fill="none"/>
</svg>